<svg width="314" height="63" viewBox="0 0 314 63" fill="none" xmlns="http://www.w3.org/2000/svg">
<path d="M0 47C0 24.9086 17.9086 7 40 7H274C296.091 7 314 24.9086 314 47V63H0V47Z" fill="url(#paint0_linear_280_147)"/>
<path d="M58.215 23.605V22.945C58.215 22.39 58.32 21.91 58.53 21.505H57.48V19.45H60.885V18.1H63.825V19.45H67.215V21.505H66.18C66.39 21.91 66.495 22.39 66.495 22.945V23.605C66.495 26.08 64.8 27.175 62.355 27.175C59.91 27.175 58.215 26.08 58.215 23.605ZM68.25 32.14V18.145H71.1V32.14H68.25ZM63.825 23.77V22.705C63.825 21.88 63.24 21.415 62.355 21.415C61.47 21.415 60.885 21.88 60.885 22.705V23.77C60.885 24.61 61.47 25.06 62.355 25.06C63.24 25.06 63.825 24.61 63.825 23.77ZM63.705 27.655V29.23H64.365C65.91 29.23 66.72 29.17 67.515 29.05V31.435C66.72 31.555 65.91 31.615 64.365 31.615H57.6V29.23H60.945V27.655H63.705ZM79.215 28.735V26.77H82.65V18.145H85.5V29.29H82.65V28.735H79.215ZM78.465 23.305H75.075C73.32 23.305 72.345 22.315 72.345 20.86V20.815C72.345 19.375 73.32 18.385 75.075 18.385H78.465C80.235 18.385 81.195 19.375 81.195 20.815V20.86C81.195 22.315 80.235 23.305 78.465 23.305ZM75.045 20.83V20.875C75.045 21.22 75.3 21.49 75.78 21.49H77.775C78.255 21.49 78.495 21.22 78.495 20.875V20.83C78.495 20.47 78.255 20.185 77.775 20.185H75.78C75.3 20.185 75.045 20.47 75.045 20.83ZM75.87 28.615V30.01H85.785V32.14H72.975V27.805H75.27V26.14H72V24.055H78.765C80.31 24.055 81.12 23.995 81.915 23.875V25.96C81.12 26.08 80.31 26.14 78.765 26.14H78.03V28.615H75.87ZM103.054 23.38H104.479V25.84H103.054V32.14H100.204V18.145H103.054V23.38ZM95.7491 21.025H90.4241V18.595H98.5541V22.165C98.5541 27.88 94.9391 31.315 90.3491 31.66V29.035C93.3491 28.57 95.7491 26.26 95.7491 22.285V21.025ZM115.054 18.145H117.904V25.69H115.054V18.145ZM108.949 25.555C106.489 25.555 104.674 24.43 104.674 22.255V21.52C104.674 19.36 106.474 18.22 108.934 18.22C111.409 18.22 113.209 19.345 113.209 21.52V22.255C113.209 24.43 111.409 25.555 108.949 25.555ZM107.449 21.52V22.24C107.449 22.96 108.004 23.5 108.934 23.5C109.864 23.5 110.434 22.96 110.434 22.24V21.52C110.434 20.8 109.864 20.26 108.934 20.275C108.004 20.29 107.449 20.8 107.449 21.52ZM115.069 27.355V26.245H117.919V32.14H105.304V26.245H108.154V27.355H115.069ZM108.154 29.17V30.25H115.069V29.17H108.154ZM121.759 18.13H124.654V19.705H127.789V21.91H126.829C127.024 22.315 127.129 22.795 127.129 23.335V28.03C127.129 30.64 125.509 31.855 123.214 31.855C120.934 31.855 119.299 30.64 119.299 28.03V23.335C119.299 22.795 119.404 22.315 119.599 21.91H118.639V19.705H121.759V18.13ZM131.854 23.38H133.279V25.84H131.854V32.14H129.004V18.145H131.854V23.38ZM124.429 28.195V23.05C124.429 22.135 123.949 21.79 123.214 21.79C122.479 21.79 121.984 22.135 121.984 23.05V28.195C121.984 29.11 122.479 29.515 123.214 29.515C123.949 29.515 124.429 29.11 124.429 28.195ZM143.419 22.27V20.935H133.699V18.505H146.224V22.27C146.224 24.52 146.029 25.885 145.474 27.73H142.579C143.179 25.87 143.419 24.25 143.419 22.27ZM140.434 23.83V29.455H147.004V31.765H133.204V29.455H137.524V23.83H140.434ZM148.392 38.13H151.287V39.705H154.422V41.91H153.462C153.657 42.315 153.762 42.795 153.762 43.335V48.03C153.762 50.64 152.142 51.855 149.847 51.855C147.567 51.855 145.932 50.64 145.932 48.03V43.335C145.932 42.795 146.037 42.315 146.232 41.91H145.272V39.705H148.392V38.13ZM158.487 43.38H159.912V45.84H158.487V52.14H155.637V38.145H158.487V43.38ZM151.062 48.195V43.05C151.062 42.135 150.582 41.79 149.847 41.79C149.112 41.79 148.617 42.135 148.617 43.05V48.195C148.617 49.11 149.112 49.515 149.847 49.515C150.582 49.515 151.062 49.11 151.062 48.195ZM173.337 52.14H170.487V38.145H173.337V52.14ZM160.182 51.69V49.065C163.212 48.615 165.657 46.275 165.657 42.255V41.055H160.257V38.625H168.462V42.15C168.462 47.895 164.802 51.36 160.182 51.69Z" fill="white"/>
<path d="M57.375 41.22V38.655H65.85V40.86L62.115 51.81H59.16L62.865 41.22H57.375ZM66.4985 41.97V41.43C66.4985 39.27 68.2985 38.145 70.7585 38.145C73.2335 38.145 75.0335 39.255 75.0335 41.43V41.97C75.0335 44.145 73.2335 45.255 70.7735 45.255C68.3135 45.255 66.4985 44.145 66.4985 41.97ZM79.7285 45.315H76.8785V38.145H79.7285V45.315ZM69.2735 41.43V41.97C69.2735 42.675 69.8285 43.2 70.7585 43.2C71.6885 43.2 72.2585 42.675 72.2585 41.97V41.43C72.2585 40.725 71.6885 40.185 70.7585 40.2C69.8285 40.215 69.2735 40.725 69.2735 41.43ZM79.9535 52.14H67.2335V48.165H76.8935V47.46H67.2335V45.765H79.7135V49.695H70.1735V50.415H79.9535V52.14ZM84.8326 38.355H97.4326V45.3H84.8326V38.355ZM87.6676 43.05H94.5976V40.605H87.6676V43.05ZM84.2326 46.38H98.0326V48.69H92.5876V52.215H89.6776V48.69H84.2326V46.38ZM99.2026 41.76H108.728V40.785H99.1276V38.505H111.698V43.905H102.158V44.91H111.908V47.145H99.2026V41.76ZM109.613 47.655V49.53H112.433V51.765H98.6326V49.53H101.453V47.655H104.213V49.53H106.853V47.655H109.613ZM121.422 45.57C123.267 46.395 124.212 48.12 123.972 51.255H121.632C121.752 49.635 121.527 48.555 120.882 47.865C120.207 49.605 118.917 50.94 116.562 51.645V48.885C118.317 48.105 119.052 46.38 119.052 44.04V42.075H116.682V39.735H118.977V38.13H121.617V39.735H123.897V42.075H121.557V43.2C121.557 44.025 121.527 44.82 121.422 45.57ZM122.352 43.17H124.587V38.145H126.987V52.14H124.587V45.585H122.352V43.17ZM127.887 52.14V38.145H130.362V52.14H127.887ZM131.502 43.155V42.21C131.502 41.835 131.577 41.505 131.727 41.205H130.872V39.255H133.917V38.055H136.782V39.255H139.812V41.205H138.942C139.092 41.505 139.167 41.835 139.167 42.21V43.155C139.167 45.075 137.652 46.23 135.342 46.23C133.017 46.23 131.502 45.075 131.502 43.155ZM139.752 43.74V41.4H141.687V38.145H144.537V46.29H141.687V43.74H139.752ZM136.617 43.08V42.105C136.617 41.43 136.092 41.04 135.342 41.04C134.577 41.04 134.052 41.43 134.052 42.105V43.08C134.052 43.755 134.442 44.19 135.342 44.19C136.092 44.19 136.617 43.755 136.617 43.08ZM131.922 52.14V46.815H144.552V52.14H131.922ZM134.727 50.235H141.747V48.705H134.727V50.235Z" fill="#F7EBA1"/>
<g clip-path="url(#clip0_280_147)">
<path d="M223.394 57.8281H235.761V46.9644H223.394V57.8281Z" fill="black"/>
<path d="M222.969 57.8277V46.964C222.969 46.724 223.161 46.5293 223.398 46.5293H235.765C236.002 46.5293 236.194 46.724 236.194 46.964V57.8277C236.194 58.0677 236.002 58.2625 235.765 58.2625H223.398C223.161 58.2625 222.969 58.0677 222.969 57.8277ZM235.336 47.3988H223.827V57.393H235.336V47.3988Z" fill="black"/>
<path d="M226.182 51.3077C226.182 51.3077 225.462 60.0566 219.873 64.6575C219.873 64.6575 222.362 67.9678 219.927 69.8199C217.492 71.6721 213.341 67.8003 213.341 67.8003C213.341 67.8003 209.137 63.9284 213.064 60.9578C216.991 57.9871 219.319 53.7214 220.204 49.125L226.182 51.3122V51.3077Z" fill="#F0514F"/>
<path d="M213.055 68.1211C212.966 68.0395 210.852 66.0697 210.964 63.7375C211.022 62.5466 211.643 61.4914 212.809 60.6084C216.446 57.8596 218.854 53.8565 219.784 49.0383C219.806 48.9115 219.882 48.8073 219.994 48.7439C220.101 48.6805 220.235 48.6715 220.351 48.7122L226.329 50.8994C226.512 50.9674 226.628 51.1485 226.611 51.3432C226.579 51.701 225.838 60.0197 220.449 64.7383C220.847 65.3678 221.589 66.7671 221.397 68.1528C221.285 68.9634 220.878 69.6426 220.186 70.1679C219.632 70.5891 219.011 70.7566 218.376 70.7566C215.914 70.7566 213.198 68.2569 213.055 68.1211ZM220.525 49.6994C219.489 54.5131 217.005 58.5163 213.323 61.3012C212.371 62.0213 211.867 62.8545 211.822 63.7738C211.728 65.6938 213.614 67.4554 213.636 67.478C214.717 68.4879 217.907 70.811 219.672 69.4705C220.181 69.0856 220.467 68.6147 220.548 68.035C220.749 66.5678 219.547 64.9376 219.533 64.924C219.395 64.7383 219.426 64.4711 219.605 64.3217C224.381 60.391 225.52 53.218 225.721 51.6013L220.53 49.6994H220.525Z" fill="black"/>
<path d="M239.902 38.6955C239.902 38.6955 256.317 33.6916 255.544 18.861C254.771 4.03034 240.318 1.07781 240.318 1.07781C240.318 1.07781 213.372 -5.73295 206.116 24.4083C206.116 24.4083 212.541 32.7859 222.116 35.983C222.116 35.983 214.918 46.6519 204.571 47.7388C204.571 47.7388 206.889 61.2425 227.173 51.9593C227.173 51.9593 234.487 49.609 240.197 53.0461L239.898 38.7L239.902 38.6955Z" fill="black"/>
<path d="M209.047 54.3233C204.928 52.1135 204.177 47.9881 204.146 47.8115C204.124 47.6937 204.155 47.5715 204.227 47.4764C204.298 47.3813 204.405 47.3179 204.526 47.3043C213.323 46.3805 219.9 38.2474 221.428 36.2006C212.144 32.8676 205.844 24.7572 205.781 24.6712C205.701 24.567 205.674 24.4312 205.705 24.2998C207.997 14.7856 212.47 7.93409 219.002 3.93096C228.943 -2.15525 240.313 0.620677 240.407 0.643319C240.555 0.675018 255.196 3.83586 255.978 18.8295C256.701 32.6774 242.632 38.1931 240.34 38.9991L240.631 53.0282C240.631 53.1867 240.55 53.3316 240.416 53.4131C240.282 53.4946 240.117 53.4901 239.983 53.4131C234.662 50.2115 227.772 52.2267 227.325 52.3625C222.522 54.5588 218.363 55.6592 214.873 55.6547C212.653 55.6547 210.709 55.2109 209.047 54.3188V54.3233ZM239.755 52.2991L239.473 38.7048C239.473 38.5101 239.594 38.3335 239.777 38.2791C239.817 38.2655 243.874 37.0066 247.77 33.9771C252.953 29.9513 255.424 24.875 255.111 18.8838C254.365 4.574 240.367 1.53089 240.211 1.49919C240.099 1.47202 229.059 -1.21334 219.426 4.68721C213.149 8.53638 208.828 15.1343 206.581 24.3044C207.528 25.4772 213.631 32.6956 222.245 35.5711C222.375 35.6119 222.473 35.716 222.518 35.8428C222.563 35.9696 222.54 36.1145 222.464 36.2277C222.169 36.6625 215.258 46.7518 205.098 48.1103C205.411 49.1926 206.469 51.964 209.454 53.5626C213.484 55.7181 219.382 55.0434 226.986 51.561C226.999 51.5519 227.017 51.5474 227.03 51.5429C227.205 51.4885 229.631 50.7278 232.763 50.7278C234.925 50.7278 237.423 51.09 239.741 52.2991H239.755Z" fill="black"/>
<path d="M244.67 71.6903L196.126 36.8667L198.244 33.8281L247.091 68.9461C247.091 68.9461 247.806 70.0329 246.747 71.2239C246.747 71.2239 245.898 72.1749 244.67 71.6858V71.6903Z" fill="#4F3128"/>
<path d="M244.513 72.0929C244.482 72.0793 244.451 72.0612 244.424 72.0431L195.881 37.224C195.689 37.0836 195.639 36.8119 195.778 36.6172L197.896 33.5786C197.963 33.4835 198.061 33.4201 198.173 33.402C198.284 33.3839 198.4 33.411 198.494 33.4744L247.341 68.5924C247.386 68.6241 247.422 68.6604 247.449 68.7056C247.761 69.1766 248.083 70.3766 247.064 71.5178C247.029 71.554 246.385 72.265 245.375 72.265C245.112 72.265 244.821 72.2152 244.509 72.0929H244.513ZM198.347 34.439L196.721 36.7666L244.866 71.305C245.769 71.6355 246.399 70.9653 246.425 70.9427C247.127 70.1502 246.872 69.4619 246.765 69.2536L198.347 34.439Z" fill="black"/>
<path d="M195.309 17.806C195.309 17.806 188.67 9.18385 187.494 10.4201C186.319 11.6609 187.481 12.8202 187.481 12.8202C187.481 12.8202 185.935 12.0005 185.207 13.0783C184.479 14.1561 185.609 15.2293 185.609 15.2293C185.609 15.2293 184.3 14.2195 183.576 15.4512C182.852 16.6829 184.099 17.6611 184.099 17.6611C184.099 17.6611 182.517 16.5969 181.91 17.7335C181.302 18.8702 182.879 19.9343 182.879 19.9343C182.879 19.9343 181.298 18.8702 180.659 19.9162C180.02 20.9623 181.749 22.022 181.749 22.022C181.749 22.022 179.975 20.2649 179.073 21.5555C178.17 22.8461 180.14 24.028 180.14 24.028C180.14 24.028 178.38 22.8778 177.714 24.2862C177.714 24.2862 177.308 25.219 178.845 26.0024C178.845 26.0024 176.857 24.739 176.164 26.3013C176.164 26.3013 175.637 27.2613 177.482 28.1897C177.482 28.1897 175.257 27.1164 174.73 28.7195C174.73 28.7195 174.413 29.5527 176.227 30.3135C176.227 30.3135 174.051 29.3761 173.448 31.0562C173.448 31.0562 172.889 31.9256 175.002 32.6004C175.002 32.6004 172.858 31.6766 172.451 33.4925C172.451 33.4925 171.643 35.6435 181.941 38.6821L195.805 18.5849L195.313 17.8105L195.309 17.806Z" fill="#A76828"/>
<path d="M181.811 39.0946C174.797 37.0251 172.688 35.2998 172.161 34.2175C171.955 33.7963 171.996 33.4975 172.031 33.3752C172.197 32.6461 172.608 32.302 172.92 32.1344C173.01 32.0891 173.104 32.0484 173.197 32.0212C173.117 31.9125 173.054 31.7993 173.01 31.677C172.894 31.351 172.956 31.0476 173.054 30.8619C173.247 30.3502 173.577 29.9925 174.037 29.7887C174.203 29.7162 174.372 29.6709 174.542 29.6438C174.149 29.0958 174.296 28.643 174.323 28.5751C174.484 28.0905 174.797 27.7373 175.226 27.5516C175.436 27.4611 175.664 27.4158 175.887 27.4022C175.82 27.289 175.766 27.1712 175.731 27.049C175.565 26.5146 175.766 26.1297 175.775 26.1206C175.994 25.6316 176.347 25.301 176.803 25.1606C176.973 25.1063 177.151 25.0836 177.326 25.0836C177.138 24.5538 177.312 24.1372 177.326 24.101C177.54 23.6481 177.88 23.3402 178.313 23.2134C178.425 23.1817 178.541 23.1636 178.653 23.1545C178.554 22.9824 178.478 22.7968 178.438 22.5975C178.344 22.1492 178.438 21.7054 178.72 21.3069C178.992 20.9175 179.363 20.6956 179.796 20.6548C179.904 20.6458 180.006 20.6458 180.114 20.6548C180.051 20.3152 180.114 19.9846 180.297 19.6857C180.498 19.3552 180.797 19.1378 181.164 19.0563C181.275 19.0291 181.391 19.0201 181.508 19.0201C181.302 18.5672 181.248 18.051 181.53 17.5257C181.727 17.1589 182.03 16.9143 182.406 16.8192C182.602 16.7694 182.803 16.7649 183 16.7875C182.861 16.3302 182.875 15.7913 183.205 15.2298C183.532 14.6773 183.956 14.4962 184.255 14.4373C184.38 14.4146 184.501 14.4056 184.622 14.4101C184.479 13.9301 184.492 13.3776 184.858 12.8342C185.301 12.1776 185.984 12.0372 186.605 12.1097C186.453 11.53 186.529 10.8191 187.191 10.1217C187.311 9.9949 187.517 9.85452 187.861 9.8681C189.728 9.96773 194.679 16.2758 195.653 17.5393C195.662 17.5483 195.671 17.5619 195.675 17.571L196.167 18.3453C196.26 18.4948 196.256 18.685 196.158 18.8299L182.294 38.927C182.214 39.0448 182.079 39.1127 181.941 39.1127C181.901 39.1127 181.861 39.1082 181.82 39.0946H181.811ZM194.956 18.0555C191.761 13.9075 188.477 10.5564 187.798 10.7194C186.967 11.5934 187.637 12.3678 187.776 12.5082C187.928 12.6576 187.946 12.8976 187.821 13.0742C187.696 13.2463 187.463 13.3007 187.276 13.2056C187.262 13.201 186.056 12.5806 185.555 13.3233C185.046 14.075 185.864 14.8765 185.895 14.9082C186.06 15.0667 186.078 15.3294 185.931 15.506C185.783 15.6826 185.524 15.7098 185.345 15.5739C185.22 15.4788 184.774 15.2162 184.412 15.2841C184.224 15.3203 184.068 15.4471 183.938 15.6736C183.429 16.5385 184.26 17.2404 184.354 17.3128C184.537 17.4578 184.573 17.7204 184.438 17.9106C184.304 18.1008 184.045 18.1506 183.853 18.0193C183.661 17.8925 183.022 17.5528 182.607 17.6615C182.464 17.6978 182.361 17.7838 182.281 17.9378C181.865 18.7076 183.103 19.5589 183.112 19.568C183.237 19.654 183.304 19.7899 183.304 19.9303C183.304 20.0118 183.281 20.0978 183.232 20.1703C183.103 20.3695 182.835 20.4239 182.638 20.2926C182.441 20.1612 181.785 19.808 181.342 19.9031C181.204 19.9348 181.101 20.0118 181.021 20.1431C180.945 20.2699 180.927 20.3876 180.958 20.5235C181.012 20.7454 181.181 20.9718 181.374 21.1665C181.735 21.4065 181.99 21.6556 182.044 21.7099C182.2 21.8639 182.218 22.113 182.084 22.2851C181.95 22.4571 181.709 22.507 181.521 22.3892C181.458 22.353 181.15 22.1583 180.837 21.8549C180.529 21.6556 180.172 21.4881 179.868 21.5152C179.685 21.5333 179.542 21.6239 179.417 21.805C179.274 22.0088 179.229 22.199 179.274 22.4119C179.381 22.9326 180.011 23.4353 180.301 23.6209C180.333 23.6391 180.355 23.6526 180.368 23.6617C180.565 23.7885 180.623 24.0557 180.502 24.2549C180.382 24.4587 180.123 24.5221 179.922 24.3998C179.908 24.3908 179.886 24.3772 179.854 24.3591C179.604 24.2096 178.988 23.9244 178.55 24.0511C178.353 24.1055 178.21 24.2413 178.112 24.4497C178.041 24.6444 178.121 25.061 178.787 25.4731C178.939 25.5501 179.041 25.6135 179.073 25.6361C179.265 25.7584 179.332 26.0165 179.22 26.2157C179.108 26.4195 178.858 26.4965 178.653 26.3923C178.554 26.3425 178.465 26.2927 178.38 26.2429C178.032 26.0708 177.469 25.8716 177.049 25.9984C176.83 26.0663 176.669 26.2248 176.544 26.501C176.45 26.7093 176.571 27.2482 177.67 27.8007C177.88 27.9048 177.969 28.163 177.866 28.3803C177.764 28.5932 177.513 28.6837 177.299 28.5841C177 28.4392 176.101 28.1222 175.556 28.3577C175.351 28.4483 175.217 28.6068 175.136 28.8468C175.11 28.9826 175.275 29.4445 176.379 29.9064C176.383 29.9064 176.387 29.9064 176.392 29.9109C176.611 30.006 176.709 30.2596 176.62 30.477C176.53 30.6989 176.276 30.803 176.061 30.7125H176.057C175.999 30.6853 175.038 30.3004 174.381 30.5902C174.131 30.6989 173.957 30.8981 173.85 31.2015C173.841 31.2332 173.823 31.2604 173.805 31.2921C173.805 31.2921 173.805 31.3419 173.823 31.3917C173.854 31.4823 174.015 31.7721 174.819 32.0755C175.007 32.1299 175.132 32.1842 175.172 32.1978C175.382 32.2884 175.485 32.5329 175.409 32.7503C175.329 32.9676 175.096 33.0854 174.877 33.0129C174.77 32.9767 174.667 32.945 174.569 32.9042C174.225 32.8046 173.689 32.7231 173.322 32.9088C173.095 33.0265 172.947 33.2484 172.876 33.5835C172.871 33.6016 172.867 33.6243 172.858 33.6424C172.858 33.6424 172.916 33.7873 172.938 33.8326C173.233 34.4348 174.685 36.0515 181.767 38.1753L195.291 18.5717L194.965 18.06L194.956 18.0555Z" fill="black"/>
<path d="M191.14 20.5581C191.261 20.5581 191.386 20.5038 191.471 20.4042C191.623 20.2185 191.6 19.9468 191.417 19.7928L187.253 16.2561C187.07 16.1022 186.802 16.1248 186.65 16.3105C186.498 16.4961 186.521 16.7678 186.704 16.9218L190.868 20.4585C190.948 20.5264 191.046 20.5581 191.14 20.5581Z" fill="black"/>
<path d="M189.483 22.6187C189.608 22.6187 189.728 22.5644 189.813 22.4602C189.965 22.2746 189.938 21.9983 189.755 21.8489L185.743 18.516C185.56 18.362 185.292 18.3892 185.14 18.5749C184.988 18.7605 185.015 19.0367 185.198 19.1862L189.21 22.5191C189.291 22.587 189.384 22.6187 189.483 22.6187Z" fill="black"/>
<path d="M188.384 24.8211C188.509 24.8211 188.634 24.7667 188.719 24.658C188.866 24.4724 188.835 24.1961 188.652 24.0467L184.568 20.741C184.38 20.5915 184.112 20.6232 183.965 20.8089C183.817 20.9945 183.849 21.2708 184.032 21.4202L188.116 24.726C188.196 24.7894 188.29 24.8211 188.384 24.8211Z" fill="black"/>
<path d="M180.694 36.7944C180.855 36.7944 181.007 36.7038 181.083 36.5453C181.186 36.328 181.092 36.0699 180.882 35.9657L175.418 33.3256C175.203 33.2215 174.949 33.3166 174.846 33.5294C174.743 33.7468 174.837 34.0049 175.047 34.109L180.511 36.7491C180.569 36.7763 180.632 36.7899 180.694 36.7899V36.7944Z" fill="#231F20"/>
<path d="M181.896 34.896C182.048 34.896 182.196 34.8145 182.276 34.6696C182.388 34.4568 182.312 34.1941 182.102 34.0809L177.116 31.3548C176.906 31.2416 176.647 31.3186 176.535 31.5314C176.423 31.7443 176.499 32.0069 176.709 32.1201L181.695 34.8462C181.762 34.8825 181.829 34.896 181.896 34.896Z" fill="#231F20"/>
<path d="M183.42 32.4555C183.576 32.4555 183.728 32.3695 183.8 32.2201C183.907 32.0072 183.826 31.7446 183.612 31.6359L178.528 28.9913C178.318 28.8826 178.058 28.9641 177.951 29.1815C177.844 29.3943 177.924 29.657 178.139 29.7657L183.223 32.4103C183.286 32.442 183.353 32.4601 183.42 32.4601V32.4555Z" fill="black"/>
<path d="M184.845 30.3495C184.992 30.3495 185.131 30.2771 185.211 30.1412C185.332 29.9374 185.269 29.6703 185.064 29.5435L180.149 26.5366C179.948 26.4098 179.685 26.4777 179.56 26.686C179.439 26.8898 179.501 27.157 179.707 27.2838L184.622 30.2907C184.689 30.3314 184.769 30.3541 184.841 30.3541L184.845 30.3495Z" fill="black"/>
<path d="M186.221 28.2203C186.36 28.2203 186.494 28.1524 186.574 28.0301C186.708 27.8308 186.659 27.5637 186.462 27.4233L181.744 24.1311C181.548 23.9953 181.28 24.0451 181.15 24.2443C181.016 24.4436 181.065 24.7108 181.262 24.8511L185.98 28.1433C186.056 28.1931 186.141 28.2203 186.221 28.2203Z" fill="black"/>
<path d="M187.378 26.4272C187.508 26.4272 187.637 26.3683 187.722 26.2551C187.865 26.0649 187.825 25.7932 187.637 25.6483L183.348 22.3742C183.161 22.2293 182.893 22.2701 182.75 22.4603C182.607 22.6505 182.647 22.9222 182.835 23.0671L187.124 26.3411C187.2 26.4 187.293 26.4272 187.383 26.4272H187.378Z" fill="black"/>
<path d="M192.494 18.8751C192.61 18.8751 192.726 18.8298 192.811 18.7347C192.972 18.5581 192.959 18.2818 192.784 18.1188L188.821 14.4463C188.647 14.2832 188.375 14.2968 188.214 14.4734C188.053 14.65 188.066 14.9263 188.241 15.0893L192.204 18.7619C192.284 18.8388 192.391 18.8751 192.494 18.8751Z" fill="black"/>
<path d="M195.42 17.8281L181.315 38.6408C181.315 38.6408 184.564 41.3714 188.647 37.8619C192.731 34.3524 197.668 38.3781 197.668 38.3781L200.25 34.8958C200.25 34.8958 194.312 31.273 197.208 25.5446C200.103 19.8161 195.425 17.8281 195.425 17.8281H195.42Z" fill="#F0514F"/>
<path d="M181.043 38.9752C180.873 38.8303 180.837 38.5813 180.963 38.3956L195.068 17.5829C195.184 17.4154 195.398 17.3475 195.586 17.429C195.666 17.4607 197.538 18.2758 198.284 20.3407C198.847 21.8985 198.611 23.7144 197.587 25.7432C196.47 27.9576 196.6 30.095 197.976 32.0966C199.03 33.6317 200.456 34.5147 200.469 34.5238C200.572 34.5872 200.643 34.6913 200.67 34.8136C200.693 34.9359 200.666 35.0581 200.59 35.1578L198.007 38.6401C197.936 38.7352 197.833 38.7941 197.717 38.8122C197.601 38.8303 197.485 38.7941 197.395 38.7216C197.351 38.6854 192.691 34.954 188.92 38.1963C187.24 39.6409 185.681 40.0802 184.398 40.0802C182.388 40.0802 181.061 38.9934 181.038 38.9752H181.043ZM197.578 37.7752L199.638 34.9947C198.316 34.0166 194.236 30.4618 196.823 25.3447C197.73 23.5469 197.954 21.9665 197.48 20.6487C197.033 19.3988 196.055 18.6879 195.559 18.389L181.91 38.5269C182.776 39.0658 185.292 40.1707 188.37 37.5261C189.693 36.3895 191.1 35.9955 192.414 35.9955C194.737 35.9955 196.774 37.2227 197.578 37.7752Z" fill="black"/>
<path d="M231.239 55.6899C231.239 55.6899 234.831 43.1371 241.908 45.2021C248.986 47.2671 240.568 58.0266 240.568 58.0266C240.568 58.0266 244.696 55.6356 246.09 59.4938C247.484 63.3521 240.032 63.6781 240.032 63.6781L230.81 57.3745L231.239 55.6899Z" fill="#F0514F"/>
<path d="M239.791 64.0413L230.569 57.7377C230.417 57.6336 230.35 57.4479 230.395 57.2668L230.824 55.5822C230.824 55.5822 230.824 55.5731 230.824 55.5686C230.859 55.4373 231.757 52.3398 233.554 49.4416C235.997 45.4929 238.924 43.8807 242.025 44.7864C243.57 45.2347 244.558 46.1133 244.96 47.3948C245.916 50.4198 243.258 54.912 241.788 57.063C242.556 56.8502 243.526 56.7324 244.433 57.0675C245.375 57.4162 246.068 58.1815 246.488 59.3408C246.814 60.242 246.743 61.0525 246.282 61.7499C244.888 63.8692 240.242 64.0957 240.045 64.1047C240.041 64.1047 240.032 64.1047 240.027 64.1047C239.943 64.1047 239.858 64.0775 239.786 64.0323L239.791 64.0413ZM240.778 58.4079C240.599 58.5121 240.376 58.4713 240.242 58.3128C240.108 58.1544 240.103 57.9234 240.233 57.7604C240.282 57.697 245.282 51.244 244.147 47.6665C243.83 46.6657 243.057 45.9955 241.788 45.6287C235.251 43.7268 231.744 55.4962 231.65 55.8131L231.297 57.1943L240.148 63.2443C241.471 63.1628 244.647 62.6873 245.568 61.279C245.871 60.8171 245.907 60.2827 245.679 59.6487C245.353 58.743 244.835 58.1498 244.138 57.8917C243.83 57.7785 243.508 57.7332 243.191 57.7332C241.966 57.7332 240.787 58.3989 240.774 58.4079H240.778Z" fill="black"/>
<path d="M232.705 59.0871C232.861 59.0871 233.008 59.0011 233.084 58.8562L237.642 50.0529C237.753 49.8401 237.673 49.5774 237.463 49.4642C237.253 49.351 236.994 49.4371 236.882 49.6454L232.325 58.4486C232.213 58.6615 232.294 58.9241 232.504 59.0373C232.566 59.069 232.638 59.0871 232.705 59.0871Z" fill="black"/>
<path d="M232.169 57.9823L234.863 59.8163C234.863 59.8163 235.653 55.4871 230.73 54.7807C225.811 54.0742 225.346 56.7551 225.346 56.7551C225.346 56.7551 224.283 60.3778 227.245 61.4148C227.245 61.4148 227.701 62.4247 229.322 62.5968C229.322 62.5968 230.006 63.8104 231.002 63.4617C231.999 63.113 231.628 61.6141 231.628 61.6141L231.114 59.0148C231.114 59.0148 231.597 57.9732 232.169 57.9732V57.9823Z" fill="#EBABAB"/>
<path d="M229.068 63.0039C227.772 62.8047 227.169 62.1027 226.95 61.7722C224.466 60.794 224.528 58.0226 224.926 56.6505C224.998 56.3109 225.735 53.6255 230.788 54.3501C232.472 54.5901 233.723 55.2648 234.492 56.3516C235.618 57.9411 235.296 59.8114 235.278 59.8929C235.251 60.0378 235.158 60.1555 235.023 60.2144C234.889 60.2733 234.738 60.2551 234.617 60.1736L232.075 58.4438C231.927 58.5298 231.713 58.7925 231.561 59.0823L232.039 61.514C232.2 62.1661 232.218 63.502 231.136 63.8779C230.962 63.9368 230.792 63.9639 230.632 63.9639C229.93 63.9639 229.372 63.4477 229.063 63.0039H229.068ZM232.405 57.6196L234.474 59.0325C234.456 58.4528 234.326 57.6105 233.795 56.8634C233.165 55.9758 232.11 55.4188 230.667 55.215C226.262 54.5856 225.784 56.7501 225.766 56.8362C225.766 56.8543 225.762 56.8679 225.753 56.886C225.712 57.0173 224.846 60.1238 227.379 61.0114C227.491 61.0521 227.58 61.1337 227.629 61.2423C227.629 61.2514 228.022 62.0303 229.363 62.1752C229.497 62.1888 229.622 62.2703 229.689 62.3926C229.693 62.4016 230.212 63.2892 230.859 63.0628C231.472 62.8499 231.212 61.7405 231.203 61.7133L230.69 59.114C230.672 59.0234 230.685 58.9283 230.721 58.8423C230.819 58.6249 231.36 57.5517 232.16 57.5517C232.227 57.5471 232.329 57.5788 232.401 57.6241L232.405 57.6196Z" fill="black"/>
<path d="M227.16 57.8379C227.16 57.8379 226.503 59.7444 227.245 61.4153Z" fill="#EBABAB"/>
<path d="M227.245 61.8495C227.303 61.8495 227.361 61.836 227.419 61.8133C227.634 61.7137 227.732 61.4556 227.634 61.2382C226.972 59.7393 227.558 57.9958 227.562 57.9823C227.638 57.7558 227.522 57.5068 227.299 57.4298C227.075 57.3528 226.829 57.4705 226.753 57.697C226.727 57.783 226.052 59.7846 226.852 61.5959C226.923 61.759 227.08 61.8541 227.245 61.8541V61.8495Z" fill="black"/>
<path d="M229.01 59.0508C229.01 59.0508 228.469 60.9573 229.322 62.6011Z" fill="#EBABAB"/>
<path d="M229.322 63.035C229.39 63.035 229.457 63.0169 229.524 62.9852C229.734 62.872 229.814 62.6093 229.702 62.3965C228.938 60.9248 229.416 59.1858 229.421 59.1677C229.488 58.9368 229.354 58.6968 229.126 58.6288C228.898 58.5609 228.661 58.6968 228.594 58.9277C228.572 59.0138 228.018 61.0199 228.938 62.7995C229.014 62.949 229.166 63.0305 229.318 63.0305L229.322 63.035Z" fill="black"/>
<path d="M214.516 43.6855C214.516 43.6855 209.476 47.4713 204.58 47.743C204.58 47.743 205.831 55.7131 215.892 55.1878C215.892 55.1878 220.485 55.0972 226.222 52.362" fill="black"/>
<path d="M214.963 55.6457C215.271 55.6457 215.588 55.6367 215.914 55.6185C216.093 55.6185 220.65 55.4963 226.405 52.752C226.619 52.6479 226.713 52.3898 226.61 52.1724C226.508 51.955 226.253 51.8599 226.039 51.9641C220.463 54.6223 215.928 54.7491 215.883 54.7491C211.844 54.9574 208.788 53.8253 206.796 51.3799C205.759 50.1074 205.299 48.8033 205.111 48.133C209.905 47.6485 214.57 44.1843 214.771 44.0303C214.963 43.8854 214.999 43.6137 214.86 43.4235C214.717 43.2288 214.449 43.1925 214.261 43.3329C214.212 43.3691 209.266 47.0417 204.557 47.3043C204.437 47.3089 204.325 47.3677 204.249 47.4674C204.173 47.5625 204.142 47.6893 204.16 47.807C204.173 47.8885 205.504 55.6412 214.963 55.6412V55.6457Z" fill="black"/>
<path d="M228.76 41.0234L232.405 54.8623C232.405 54.8623 226.829 54.2827 225.757 55.8042L220.753 41.6801" fill="black"/>
<path d="M225.757 56.2333C225.896 56.2333 226.025 56.1654 226.106 56.0522C226.78 55.0967 230.301 55.0786 232.361 55.2914C232.499 55.305 232.638 55.2507 232.731 55.142C232.825 55.0333 232.857 54.8839 232.821 54.748L229.175 40.9091C229.113 40.6782 228.876 40.5378 228.652 40.6012C228.424 40.6646 228.286 40.9001 228.349 41.131L231.838 54.3721C230.48 54.277 227.401 54.1729 225.954 55.0605L221.16 41.5295C221.079 41.3031 220.834 41.1854 220.61 41.2669C220.387 41.3484 220.271 41.5974 220.351 41.8239L225.355 55.948C225.409 56.102 225.543 56.2107 225.699 56.2333C225.717 56.2333 225.739 56.2333 225.757 56.2333Z" fill="black"/>
<path d="M234.166 7.56677C234.166 7.56677 248.087 6.78788 250.339 18.4078C252.591 30.0278 241.435 33.4513 241.435 33.4513C241.435 33.4513 233.196 36.2 223.318 32.5184C213.439 28.8368 215.794 17.9912 215.794 17.9912C215.794 17.9912 217.585 7.15015 234.17 7.56224L234.166 7.56677Z" fill="#EBABAB"/>
<path d="M223.166 32.9258C213.055 29.1536 215.347 18.0091 215.369 17.9231C215.387 17.8054 215.87 15.0476 218.452 12.326C222.723 7.82018 229.34 7.01412 234.161 7.13638C234.76 7.10921 248.503 6.67448 250.759 18.3307C253.06 30.1997 241.672 33.8405 241.564 33.8722C241.363 33.9402 238.423 34.8911 234 34.8911C230.953 34.8911 227.205 34.4383 223.166 32.9303V32.9258ZM234.188 8.00131C234.188 8.00131 234.166 8.00131 234.152 8.00131C218.148 7.60281 216.285 17.6378 216.209 18.0861C216.115 18.5118 214.06 28.6057 223.461 32.1107C233.071 35.6927 241.216 33.0662 241.305 33.0345C241.412 33.0028 252.068 29.5974 249.915 18.4892C249.012 13.843 246.113 10.6686 241.292 9.04738C238.459 8.09641 235.756 7.98773 234.675 7.98773C234.367 7.98773 234.188 7.99679 234.183 7.99679L234.188 8.00131Z" fill="black"/>
<mask id="mask0_280_147" style="mask-type:luminance" maskUnits="userSpaceOnUse" x="216" y="7" width="35" height="28">
<path d="M234.148 7.93903C234.148 7.93903 247.699 7.18278 249.892 18.4586C252.086 29.7298 241.22 33.0537 241.22 33.0537C241.22 33.0537 233.196 35.721 223.581 32.148C213.966 28.5751 216.258 18.0555 216.258 18.0555C216.258 18.0555 218.001 7.536 234.148 7.93903Z" fill="white"/>
</mask>
<g mask="url(#mask0_280_147)">
<path opacity="0.25" d="M225.521 28.2481C226.813 26.4115 226.099 23.6488 223.925 22.0774C221.752 20.506 218.942 20.7209 217.65 22.5574C216.357 24.394 217.071 27.1567 219.245 28.7281C221.419 30.2995 224.228 30.0846 225.521 28.2481Z" fill="url(#paint1_radial_280_147)"/>
<path opacity="0.25" d="M247.46 28.3817C249.457 26.5892 249.879 23.7671 248.403 22.0783C246.928 20.3895 244.113 20.4736 242.116 22.2661C240.119 24.0586 239.697 26.8807 241.172 28.5695C242.648 30.2583 245.463 30.1742 247.46 28.3817Z" fill="url(#paint2_radial_280_147)"/>
</g>
<path d="M233.612 28.7603C234.099 28.7603 235.251 28.6834 236.002 27.995C236.44 27.592 236.668 27.0622 236.686 26.4101C236.699 25.8123 236.502 25.3097 236.096 24.9202C235.082 23.9466 233.08 24.0915 232.995 24.0961C232.758 24.1142 232.584 24.3225 232.602 24.5625C232.62 24.8025 232.821 24.9791 233.062 24.961C233.536 24.9248 234.894 24.961 235.506 25.5497C235.729 25.7625 235.832 26.0388 235.823 26.3874C235.814 26.795 235.685 27.1075 235.421 27.3475C234.858 27.8682 233.799 27.9135 233.442 27.8818C233.196 27.8682 233 28.0448 232.982 28.2849C232.964 28.5249 233.143 28.7332 233.379 28.7513C233.393 28.7513 233.478 28.7603 233.607 28.7603H233.612Z" fill="black"/>
<path d="M233.531 31.7038C237.963 31.7038 240.51 30.0056 240.666 29.8969C240.863 29.7611 240.912 29.4939 240.782 29.2946C240.653 29.0954 240.385 29.0456 240.188 29.1769C240.188 29.1769 238.79 30.1143 236.324 30.5671C234.045 30.9883 230.346 31.0788 225.672 29.1362C225.453 29.0456 225.203 29.1497 225.114 29.3716C225.024 29.5935 225.127 29.8471 225.346 29.9377C228.523 31.26 231.27 31.6992 233.531 31.6992V31.7038Z" fill="black"/>
<path d="M244.647 15.3431C244.79 15.3431 244.924 15.2706 245.009 15.1438C245.139 14.9401 245.081 14.6729 244.88 14.5415C244.763 14.4646 242.025 12.7075 239.053 13.5544C238.826 13.6177 238.692 13.8578 238.759 14.0887C238.821 14.3197 239.058 14.4555 239.286 14.3876C241.886 13.6449 244.388 15.2525 244.415 15.2706C244.486 15.3159 244.567 15.3386 244.647 15.3386V15.3431Z" fill="black"/>
<path d="M223.166 14.7038C223.233 14.7038 223.304 14.6857 223.367 14.654C223.394 14.6404 226.025 13.2457 228.55 14.1921C228.773 14.2781 229.019 14.1604 229.099 13.934C229.179 13.7076 229.068 13.4585 228.844 13.377C225.958 12.2902 223.081 13.8208 222.96 13.8842C222.75 13.9974 222.674 14.26 222.786 14.4729C222.862 14.6178 223.014 14.7038 223.166 14.7038Z" fill="black"/>
<path d="M241.223 24.5052C243.723 24.2133 245.583 22.5084 245.378 20.6972C245.172 18.8859 242.978 17.6542 240.478 17.9461C237.977 18.238 236.117 19.9429 236.323 21.7542C236.529 23.5654 238.723 24.7971 241.223 24.5052Z" fill="white"/>
<path d="M230.859 21.7579C231.064 19.9467 229.204 18.2417 226.704 17.9499C224.204 17.658 222.01 18.8897 221.804 20.7009C221.598 22.5122 223.458 24.2171 225.959 24.509C228.459 24.8008 230.653 23.5691 230.859 21.7579Z" fill="white"/>
<path d="M224.488 18.0234C225.614 18.5261 226.409 19.7397 226.409 21.1571C226.409 22.6424 225.538 23.8968 224.327 24.3542C222.5 23.6885 221.477 22.2802 221.642 20.7767C221.79 19.4227 222.866 18.3721 224.488 18.0234Z" fill="#005CA3"/>
<path d="M239.161 18.1504C240.148 18.721 240.827 19.8667 240.827 21.1935C240.827 22.8509 239.768 24.2366 238.361 24.5536C237.043 24.0962 236.185 23.1271 236.051 21.9135C235.872 20.2788 237.07 18.7527 239.156 18.1504H239.161Z" fill="#005CA3"/>
<path d="M225.909 25.0788C224.506 24.9158 223.322 24.4086 222.487 23.6207C221.656 22.8282 221.258 21.8229 221.379 20.7904C221.495 19.7534 222.107 18.8658 223.094 18.2862C224.082 17.7065 225.346 17.4892 226.753 17.6522C229.622 17.9873 231.525 19.7896 231.284 21.9451C231.065 23.8743 229.229 25.1332 226.785 25.1332C226.503 25.1332 226.208 25.115 225.913 25.0833L225.909 25.0788ZM230.43 21.8455C230.618 20.1926 229.028 18.7934 226.655 18.5171C225.453 18.3767 224.341 18.5624 223.523 19.0379C222.777 19.4726 222.317 20.1292 222.232 20.8855C222.147 21.6417 222.446 22.3844 223.076 22.9822C223.764 23.6342 224.805 24.0735 226.007 24.2139C228.38 24.4901 230.243 23.4939 230.43 21.841V21.8455Z" fill="black"/>
<path d="M235.895 21.9444C235.649 19.7934 237.557 17.9866 240.425 17.6515C243.293 17.3163 245.554 18.6341 245.8 20.7851C246.046 22.9361 244.138 24.743 241.269 25.0781C240.97 25.1143 240.68 25.1279 240.398 25.1279C237.954 25.1279 236.118 23.869 235.899 21.9399L235.895 21.9444ZM240.523 18.5164C238.146 18.7926 236.56 20.1919 236.748 21.8448C236.936 23.4977 238.794 24.4939 241.171 24.2177C243.548 23.9414 245.134 22.5422 244.947 20.8893C244.781 19.4221 243.293 18.4711 241.301 18.4711C241.051 18.4711 240.791 18.4847 240.523 18.5164Z" fill="black"/>
<path d="M239.389 24.8068C239.487 24.8068 239.59 24.7706 239.67 24.6981C239.733 24.6438 241.202 23.3079 241.234 21.2656C241.265 19.187 239.956 18.2225 239.902 18.1817C239.71 18.0413 239.442 18.0911 239.304 18.2859C239.17 18.4806 239.214 18.7523 239.402 18.8881C239.447 18.9244 240.398 19.6489 240.376 21.252C240.354 22.9049 239.116 24.0324 239.103 24.046C238.924 24.2045 238.91 24.4808 239.067 24.6574C239.152 24.757 239.268 24.8023 239.389 24.8023V24.8068Z" fill="black"/>
<path d="M224.94 24.8065C225.042 24.8065 225.145 24.7702 225.225 24.6933C225.288 24.6344 226.754 23.2759 226.785 21.1928C226.816 19.0735 225.511 18.0908 225.453 18.05C225.261 17.9097 224.993 17.9504 224.855 18.1451C224.716 18.3399 224.756 18.607 224.948 18.752C224.993 18.7837 225.949 19.5308 225.927 21.1792C225.905 22.8728 224.667 24.0366 224.654 24.0457C224.479 24.2087 224.466 24.4804 224.622 24.657C224.707 24.7521 224.823 24.8019 224.94 24.8019V24.8065Z" fill="black"/>
</g>
<defs>
<linearGradient id="paint0_linear_280_147" x1="384.817" y1="23.8" x2="-8.46401" y2="25.6862" gradientUnits="userSpaceOnUse">
<stop stop-color="#4416CE"/>
<stop offset="1" stop-color="#DD468F"/>
</linearGradient>
<radialGradient id="paint1_radial_280_147" cx="0" cy="0" r="1" gradientUnits="userSpaceOnUse" gradientTransform="translate(230.7 29.6536) rotate(-143.693) scale(4.83211 4.05728)">
<stop stop-color="#D9315C" stop-opacity="0.8"/>
<stop offset="0.14" stop-color="#D9315D" stop-opacity="0.78"/>
<stop offset="0.26" stop-color="#D93160" stop-opacity="0.73"/>
<stop offset="0.38" stop-color="#D93166" stop-opacity="0.65"/>
<stop offset="0.49" stop-color="#D9316F" stop-opacity="0.54"/>
<stop offset="0.54" stop-color="#D93174" stop-opacity="0.47"/>
<stop offset="0.58" stop-color="#D9366F" stop-opacity="0.42"/>
<stop offset="0.77" stop-color="#DB4F5A" stop-opacity="0.19"/>
<stop offset="0.91" stop-color="#DD5E4D" stop-opacity="0.05"/>
<stop offset="1" stop-color="#DE6449" stop-opacity="0"/>
</radialGradient>
<radialGradient id="paint2_radial_280_147" cx="0" cy="0" r="1" gradientUnits="userSpaceOnUse" gradientTransform="translate(250.533 21.0963) rotate(-42.374) scale(4.83884 4.05163)">
<stop stop-color="#D9315C" stop-opacity="0.8"/>
<stop offset="0.14" stop-color="#D9315D" stop-opacity="0.78"/>
<stop offset="0.26" stop-color="#D93160" stop-opacity="0.73"/>
<stop offset="0.38" stop-color="#D93166" stop-opacity="0.65"/>
<stop offset="0.49" stop-color="#D9316F" stop-opacity="0.54"/>
<stop offset="0.54" stop-color="#D93174" stop-opacity="0.47"/>
<stop offset="0.58" stop-color="#D9366F" stop-opacity="0.42"/>
<stop offset="0.77" stop-color="#DB4F5A" stop-opacity="0.19"/>
<stop offset="0.91" stop-color="#DD5E4D" stop-opacity="0.05"/>
<stop offset="1" stop-color="#DE6449" stop-opacity="0"/>
</radialGradient>
<clipPath id="clip0_280_147">
<rect width="84" height="63" fill="white" transform="translate(172)"/>
</clipPath>
</defs>
</svg>
