<svg width="1200" height="154" viewBox="0 0 1200 154" fill="none" xmlns="http://www.w3.org/2000/svg">
<path d="M0 64C0 36.3858 22.3858 14 50 14H1150C1177.61 14 1200 36.3858 1200 64V94H0V64Z" fill="url(#paint0_linear_280_276)"/>
<path d="M281.43 53.21V51.89C281.43 50.78 281.64 49.82 282.06 49.01H279.96V44.9H286.77V42.2H292.65V44.9H299.43V49.01H297.36C297.78 49.82 297.99 50.78 297.99 51.89V53.21C297.99 58.16 294.6 60.35 289.71 60.35C284.82 60.35 281.43 58.16 281.43 53.21ZM301.5 70.28V42.29H307.2V70.28H301.5ZM292.65 53.54V51.41C292.65 49.76 291.48 48.83 289.71 48.83C287.94 48.83 286.77 49.76 286.77 51.41V53.54C286.77 55.22 287.94 56.12 289.71 56.12C291.48 56.12 292.65 55.22 292.65 53.54ZM292.41 61.31V64.46H293.73C296.82 64.46 298.44 64.34 300.03 64.1V68.87C298.44 69.11 296.82 69.23 293.73 69.23H280.2V64.46H286.89V61.31H292.41ZM323.43 63.47V59.54H330.3V42.29H336V64.58H330.3V63.47H323.43ZM321.93 52.61H315.15C311.64 52.61 309.69 50.63 309.69 47.72V47.63C309.69 44.75 311.64 42.77 315.15 42.77H321.93C325.47 42.77 327.39 44.75 327.39 47.63V47.72C327.39 50.63 325.47 52.61 321.93 52.61ZM315.09 47.66V47.75C315.09 48.44 315.6 48.98 316.56 48.98H320.55C321.51 48.98 321.99 48.44 321.99 47.75V47.66C321.99 46.94 321.51 46.37 320.55 46.37H316.56C315.6 46.37 315.09 46.94 315.09 47.66ZM316.74 63.23V66.02H336.57V70.28H310.95V61.61H315.54V58.28H309V54.11H322.53C325.62 54.11 327.24 53.99 328.83 53.75V57.92C327.24 58.16 325.62 58.28 322.53 58.28H321.06V63.23H316.74ZM371.108 52.76H373.958V57.68H371.108V70.28H365.408V42.29H371.108V52.76ZM356.498 48.05H345.848V43.19H362.108V50.33C362.108 61.76 354.878 68.63 345.698 69.32V64.07C351.698 63.14 356.498 58.52 356.498 50.57V48.05ZM395.108 42.29H400.808V57.38H395.108V42.29ZM382.898 57.11C377.978 57.11 374.348 54.86 374.348 50.51V49.04C374.348 44.72 377.948 42.44 382.868 42.44C387.818 42.44 391.418 44.69 391.418 49.04V50.51C391.418 54.86 387.818 57.11 382.898 57.11ZM379.898 49.04V50.48C379.898 51.92 381.008 53 382.868 53C384.728 53 385.868 51.92 385.868 50.48V49.04C385.868 47.6 384.728 46.52 382.868 46.55C381.008 46.58 379.898 47.6 379.898 49.04ZM395.138 60.71V58.49H400.838V70.28H375.608V58.49H381.308V60.71H395.138ZM381.308 64.34V66.5H395.138V64.34H381.308ZM408.518 42.26H414.308V45.41H420.578V49.82H418.658C419.048 50.63 419.258 51.59 419.258 52.67V62.06C419.258 67.28 416.018 69.71 411.428 69.71C406.868 69.71 403.598 67.28 403.598 62.06V52.67C403.598 51.59 403.808 50.63 404.198 49.82H402.278V45.41H408.518V42.26ZM428.708 52.76H431.558V57.68H428.708V70.28H423.008V42.29H428.708V52.76ZM413.858 62.39V52.1C413.858 50.27 412.898 49.58 411.428 49.58C409.958 49.58 408.968 50.27 408.968 52.1V62.39C408.968 64.22 409.958 65.03 411.428 65.03C412.898 65.03 413.858 64.22 413.858 62.39ZM451.838 50.54V47.87H432.398V43.01H457.448V50.54C457.448 55.04 457.058 57.77 455.948 61.46H450.158C451.358 57.74 451.838 54.5 451.838 50.54ZM445.868 53.66V64.91H459.008V69.53H431.408V64.91H440.048V53.66H445.868ZM649 42.26H654.79V45.41H661.06V49.82H659.14C659.53 50.63 659.74 51.59 659.74 52.67V62.06C659.74 67.28 656.5 69.71 651.91 69.71C647.35 69.71 644.08 67.28 644.08 62.06V52.67C644.08 51.59 644.29 50.63 644.68 49.82H642.76V45.41H649V42.26ZM669.19 52.76H672.04V57.68H669.19V70.28H663.49V42.29H669.19V52.76ZM654.34 62.39V52.1C654.34 50.27 653.38 49.58 651.91 49.58C650.44 49.58 649.45 50.27 649.45 52.1V62.39C649.45 64.22 650.44 65.03 651.91 65.03C653.38 65.03 654.34 64.22 654.34 62.39ZM698.89 70.28H693.19V42.29H698.89V70.28ZM672.58 69.38V64.13C678.64 63.23 683.53 58.55 683.53 50.51V48.11H672.73V43.25H689.14V50.3C689.14 61.79 681.82 68.72 672.58 69.38Z" fill="white"/>
<path d="M466.966 48.44V43.31H483.916V47.72L476.446 69.62H470.536L477.946 48.44H466.966ZM485.213 49.94V48.86C485.213 44.54 488.813 42.29 493.733 42.29C498.683 42.29 502.283 44.51 502.283 48.86V49.94C502.283 54.29 498.683 56.51 493.763 56.51C488.843 56.51 485.213 54.29 485.213 49.94ZM511.673 56.63H505.973V42.29H511.673V56.63ZM490.763 48.86V49.94C490.763 51.35 491.873 52.4 493.733 52.4C495.593 52.4 496.733 51.35 496.733 49.94V48.86C496.733 47.45 495.593 46.37 493.733 46.4C491.873 46.43 490.763 47.45 490.763 48.86ZM512.123 70.28H486.683V62.33H506.003V60.92H486.683V57.53H511.643V65.39H492.563V66.83H512.123V70.28ZM521.882 42.71H547.082V56.6H521.882V42.71ZM527.552 52.1H541.412V47.21H527.552V52.1ZM520.682 58.76H548.282V63.38H537.392V70.43H531.572V63.38H520.682V58.76ZM550.622 49.52H569.672V47.57H550.472V43.01H575.612V53.81H556.532V55.82H576.032V60.29H550.622V49.52ZM571.442 61.31V65.06H577.082V69.53H549.482V65.06H555.122V61.31H560.642V65.06H565.922V61.31H571.442ZM595.06 57.14C598.75 58.79 600.64 62.24 600.16 68.51H595.48C595.72 65.27 595.27 63.11 593.98 61.73C592.63 65.21 590.05 67.88 585.34 69.29V63.77C588.85 62.21 590.32 58.76 590.32 54.08V50.15H585.58V45.47H590.17V42.26H595.45V45.47H600.01V50.15H595.33V52.4C595.33 54.05 595.27 55.64 595.06 57.14ZM596.92 52.34H601.39V42.29H606.19V70.28H601.39V57.17H596.92V52.34ZM607.99 70.28V42.29H612.94V70.28H607.99ZM615.22 52.31V50.42C615.22 49.67 615.37 49.01 615.67 48.41H613.96V44.51H620.05V42.11H625.78V44.51H631.84V48.41H630.1C630.4 49.01 630.55 49.67 630.55 50.42V52.31C630.55 56.15 627.52 58.46 622.9 58.46C618.25 58.46 615.22 56.15 615.22 52.31ZM631.72 53.48V48.8H635.59V42.29H641.29V58.58H635.59V53.48H631.72ZM625.45 52.16V50.21C625.45 48.86 624.4 48.08 622.9 48.08C621.37 48.08 620.32 48.86 620.32 50.21V52.16C620.32 53.51 621.1 54.38 622.9 54.38C624.4 54.38 625.45 53.51 625.45 52.16ZM616.06 70.28V59.63H641.32V70.28H616.06ZM621.67 66.47H635.71V63.41H621.67V66.47Z" fill="#F7EBA1"/>
<path d="M843.606 52.64C843.793 52.64 843.956 52.6867 844.096 52.78C844.245 52.8733 844.32 53.0227 844.32 53.228V54.628C844.32 55.0947 844.395 55.5007 844.544 55.846C844.693 56.182 844.936 56.4993 845.272 56.798C845.599 57.078 845.902 57.33 846.182 57.554C846.462 57.778 846.723 57.9833 846.966 58.17C847.125 58.3007 847.204 58.4453 847.204 58.604C847.204 58.7627 847.153 58.9073 847.05 59.038C846.957 59.1687 846.831 59.262 846.672 59.318C846.513 59.3647 846.355 59.3273 846.196 59.206C845.972 59.0473 845.725 58.8607 845.454 58.646C845.193 58.422 844.913 58.184 844.614 57.932C844.278 57.6333 844.04 57.4 843.9 57.232C843.76 57.0547 843.671 56.8867 843.634 56.728H843.62C843.583 56.8867 843.494 57.064 843.354 57.26C843.214 57.4467 842.967 57.694 842.612 58.002C842.313 58.2633 842.015 58.5153 841.716 58.758C841.417 58.9913 841.119 59.2153 840.82 59.43C840.661 59.5513 840.498 59.5887 840.33 59.542C840.171 59.486 840.045 59.3927 839.952 59.262C839.849 59.1313 839.793 58.982 839.784 58.814C839.784 58.646 839.868 58.4967 840.036 58.366C840.363 58.1233 840.68 57.8807 840.988 57.638C841.296 57.3953 841.613 57.1293 841.94 56.84C842.276 56.5413 842.519 56.224 842.668 55.888C842.817 55.5427 842.892 55.1413 842.892 54.684V53.228C842.892 53.0227 842.962 52.8733 843.102 52.78C843.251 52.6867 843.419 52.64 843.606 52.64ZM849.346 52.108C849.533 52.108 849.696 52.1547 849.836 52.248C849.976 52.3413 850.046 52.4907 850.046 52.696V60.984C850.046 61.1893 849.976 61.3387 849.836 61.432C849.696 61.5253 849.533 61.572 849.346 61.572C849.159 61.572 848.996 61.5253 848.856 61.432C848.716 61.3387 848.646 61.1893 848.646 60.984V52.696C848.646 52.4907 848.716 52.3413 848.856 52.248C848.996 52.1547 849.159 52.108 849.346 52.108ZM842.584 60.396C842.761 60.396 842.92 60.4427 843.06 60.536C843.209 60.6293 843.284 60.7787 843.284 60.984V63.35C843.284 63.4527 843.303 63.5227 843.34 63.56C843.387 63.6067 843.466 63.63 843.578 63.63H849.878C850.055 63.63 850.181 63.6907 850.256 63.812C850.34 63.9333 850.382 64.078 850.382 64.246C850.382 64.4047 850.34 64.5447 850.256 64.666C850.181 64.7873 850.055 64.848 849.878 64.848H842.948C842.537 64.848 842.253 64.7733 842.094 64.624C841.945 64.4747 841.87 64.1993 841.87 63.798V60.984C841.87 60.7787 841.94 60.6293 842.08 60.536C842.229 60.4427 842.397 60.396 842.584 60.396ZM855.158 51.968C855.345 51.968 855.508 52.0147 855.648 52.108C855.788 52.2013 855.858 52.3507 855.858 52.556V53.592H858.182C858.35 53.592 858.472 53.6527 858.546 53.774C858.63 53.8953 858.672 54.0353 858.672 54.194C858.672 54.3527 858.63 54.4927 858.546 54.614C858.472 54.726 858.35 54.782 858.182 54.782H855.858V55.468C855.858 55.888 855.924 56.2333 856.054 56.504C856.194 56.7747 856.423 57.0267 856.74 57.26C857.067 57.5027 857.37 57.722 857.65 57.918C857.93 58.1047 858.178 58.268 858.392 58.408C858.551 58.5107 858.64 58.646 858.658 58.814C858.686 58.982 858.649 59.1313 858.546 59.262C858.472 59.3833 858.355 59.472 858.196 59.528C858.047 59.584 857.879 59.556 857.692 59.444C857.534 59.3413 857.324 59.206 857.062 59.038C856.81 58.8607 856.54 58.6647 856.25 58.45C855.886 58.1887 855.625 57.9693 855.466 57.792C855.308 57.6147 855.214 57.456 855.186 57.316H855.172C855.135 57.4747 855.032 57.6473 854.864 57.834C854.706 58.0207 854.44 58.2493 854.066 58.52C853.768 58.7347 853.478 58.94 853.198 59.136C852.918 59.3227 852.643 59.5047 852.372 59.682C852.214 59.7847 852.055 59.808 851.896 59.752C851.738 59.6867 851.621 59.5933 851.546 59.472C851.453 59.332 851.411 59.1827 851.42 59.024C851.43 58.856 851.518 58.716 851.686 58.604C851.994 58.3987 852.302 58.1933 852.61 57.988C852.918 57.7733 853.24 57.5447 853.576 57.302C853.894 57.0593 854.118 56.8073 854.248 56.546C854.388 56.2753 854.458 55.93 854.458 55.51V54.782H852.036C851.859 54.782 851.728 54.726 851.644 54.614C851.57 54.4927 851.532 54.3527 851.532 54.194C851.532 54.0353 851.57 53.8953 851.644 53.774C851.728 53.6527 851.859 53.592 852.036 53.592H854.458V52.556C854.458 52.3507 854.528 52.2013 854.668 52.108C854.818 52.0147 854.981 51.968 855.158 51.968ZM861.066 52.108C861.244 52.108 861.402 52.1547 861.542 52.248C861.682 52.3413 861.752 52.4907 861.752 52.696V59.486C861.752 59.682 861.682 59.8267 861.542 59.92C861.402 60.0133 861.244 60.06 861.066 60.06C860.88 60.06 860.716 60.0133 860.576 59.92C860.436 59.8267 860.366 59.682 860.366 59.486V57.022H858.392C858.224 57.022 858.098 56.9613 858.014 56.84C857.94 56.7187 857.902 56.5787 857.902 56.42C857.902 56.2613 857.94 56.1213 858.014 56C858.098 55.8787 858.224 55.818 858.392 55.818H860.366V52.696C860.366 52.4907 860.436 52.3413 860.576 52.248C860.716 52.1547 860.88 52.108 861.066 52.108ZM857.72 60.186C859.027 60.186 860.035 60.396 860.744 60.816C861.463 61.236 861.822 61.8613 861.822 62.692C861.822 63.532 861.463 64.1573 860.744 64.568C860.035 64.988 859.027 65.198 857.72 65.198C856.414 65.198 855.401 64.988 854.682 64.568C853.973 64.1573 853.618 63.532 853.618 62.692C853.618 61.852 853.973 61.2267 854.682 60.816C855.401 60.396 856.414 60.186 857.72 60.186ZM857.72 61.32C856.768 61.32 856.078 61.446 855.648 61.698C855.219 61.9407 855.004 62.272 855.004 62.692C855.004 63.112 855.219 63.4433 855.648 63.686C856.078 63.938 856.768 64.064 857.72 64.064C858.672 64.064 859.363 63.938 859.792 63.686C860.222 63.4433 860.436 63.112 860.436 62.692C860.436 62.272 860.222 61.9407 859.792 61.698C859.363 61.446 858.672 61.32 857.72 61.32ZM866.276 52.934C866.454 52.934 866.612 52.9807 866.752 53.074C866.902 53.1673 866.976 53.3167 866.976 53.522V55.93H870.238V53.522C870.238 53.3167 870.308 53.1673 870.448 53.074C870.588 52.9807 870.747 52.934 870.924 52.934C871.102 52.934 871.26 52.9807 871.4 53.074C871.54 53.1673 871.61 53.3167 871.61 53.522V59.948C871.61 60.3493 871.531 60.6247 871.372 60.774C871.223 60.9233 870.943 60.998 870.532 60.998H866.668C866.258 60.998 865.973 60.9233 865.814 60.774C865.665 60.6247 865.59 60.3493 865.59 59.948V53.522C865.59 53.3167 865.66 53.1673 865.8 53.074C865.94 52.9807 866.099 52.934 866.276 52.934ZM866.976 59.514C866.976 59.626 866.995 59.7053 867.032 59.752C867.079 59.7893 867.158 59.808 867.27 59.808H869.944C870.047 59.808 870.122 59.7893 870.168 59.752C870.215 59.7053 870.238 59.626 870.238 59.514V57.12H866.976V59.514ZM874.368 52.108C874.555 52.108 874.718 52.1547 874.858 52.248C874.998 52.3413 875.068 52.4907 875.068 52.696V56.336H876.608C876.795 56.336 876.926 56.3967 877 56.518C877.084 56.63 877.126 56.77 877.126 56.938C877.126 57.106 877.084 57.2507 877 57.372C876.926 57.4933 876.795 57.554 876.608 57.554H875.068V63.616C875.068 63.8213 874.998 63.9707 874.858 64.064C874.718 64.1573 874.555 64.204 874.368 64.204C874.182 64.204 874.018 64.1573 873.878 64.064C873.738 63.9707 873.668 63.8213 873.668 63.616V52.696C873.668 52.4907 873.738 52.3413 873.878 52.248C874.018 52.1547 874.182 52.108 874.368 52.108ZM885.767 52.836C886.177 52.836 886.457 52.9107 886.607 53.06C886.765 53.2093 886.845 53.4847 886.845 53.886V55.748C886.845 56.14 886.765 56.4107 886.607 56.56C886.457 56.7093 886.177 56.784 885.767 56.784H880.041C879.845 56.784 879.747 56.882 879.747 57.078V58.128C879.747 58.3147 879.845 58.408 880.041 58.408H886.663C886.831 58.408 886.952 58.4687 887.027 58.59C887.111 58.7113 887.153 58.8513 887.153 59.01C887.153 59.1687 887.111 59.3087 887.027 59.43C886.952 59.542 886.831 59.598 886.663 59.598H879.453C879.042 59.598 878.757 59.5233 878.599 59.374C878.449 59.2247 878.375 58.9493 878.375 58.548V56.686C878.375 56.2847 878.449 56.014 878.599 55.874C878.757 55.7247 879.042 55.65 879.453 55.65H885.179C885.375 55.65 885.473 55.552 885.473 55.356V54.32C885.473 54.124 885.375 54.026 885.179 54.026H878.837C878.669 54.026 878.543 53.97 878.459 53.858C878.384 53.7367 878.347 53.5967 878.347 53.438C878.347 53.2793 878.384 53.1393 878.459 53.018C878.543 52.8967 878.669 52.836 878.837 52.836H885.767ZM883.317 61.796H888.007C888.175 61.796 888.296 61.8567 888.371 61.978C888.455 62.09 888.497 62.2253 888.497 62.384C888.497 62.5427 888.455 62.6827 888.371 62.804C888.296 62.9253 888.175 62.986 888.007 62.986H877.227C877.059 62.986 876.933 62.9253 876.849 62.804C876.774 62.6827 876.737 62.5427 876.737 62.384C876.737 62.2253 876.774 62.09 876.849 61.978C876.933 61.8567 877.059 61.796 877.227 61.796H881.917V58.996H883.317V61.796ZM894.561 55.972C895.027 55.972 895.447 56.042 895.821 56.182C896.194 56.3127 896.507 56.4993 896.759 56.742C897.02 56.9847 897.221 57.274 897.361 57.61C897.501 57.946 897.571 58.3193 897.571 58.73C897.571 59.1407 897.501 59.514 897.361 59.85C897.221 60.186 897.02 60.4753 896.759 60.718C896.507 60.9607 896.194 61.152 895.821 61.292C895.447 61.4227 895.027 61.488 894.561 61.488C894.094 61.488 893.674 61.4227 893.301 61.292C892.927 61.152 892.61 60.9607 892.349 60.718C892.087 60.4753 891.887 60.186 891.747 59.85C891.616 59.514 891.551 59.1407 891.551 58.73C891.551 58.3193 891.616 57.946 891.747 57.61C891.887 57.274 892.087 56.9847 892.349 56.742C892.61 56.4993 892.927 56.3127 893.301 56.182C893.674 56.042 894.094 55.972 894.561 55.972ZM894.561 52.08C894.747 52.08 894.911 52.1267 895.051 52.22C895.191 52.3133 895.261 52.4627 895.261 52.668V53.872H897.781C897.949 53.872 898.07 53.9327 898.145 54.054C898.229 54.166 898.271 54.3013 898.271 54.46C898.271 54.6187 898.229 54.7587 898.145 54.88C898.07 55.0013 897.949 55.062 897.781 55.062H891.187C891.019 55.062 890.893 55.0013 890.809 54.88C890.734 54.7587 890.697 54.6187 890.697 54.46C890.697 54.3013 890.734 54.166 890.809 54.054C890.893 53.9327 891.019 53.872 891.187 53.872H893.861V52.668C893.861 52.4627 893.931 52.3133 894.071 52.22C894.22 52.1267 894.383 52.08 894.561 52.08ZM894.561 57.106C894.029 57.106 893.604 57.2553 893.287 57.554C892.979 57.8433 892.825 58.2353 892.825 58.73C892.825 59.2153 892.979 59.6073 893.287 59.906C893.604 60.2047 894.029 60.354 894.561 60.354C895.093 60.354 895.513 60.2047 895.821 59.906C896.138 59.6073 896.297 59.2153 896.297 58.73C896.297 58.2353 896.138 57.8433 895.821 57.554C895.513 57.2553 895.093 57.106 894.561 57.106ZM899.993 52.108C900.179 52.108 900.343 52.1547 900.483 52.248C900.623 52.3413 900.693 52.4907 900.693 52.696V56.476H902.233C902.419 56.476 902.55 56.5367 902.625 56.658C902.709 56.77 902.751 56.91 902.751 57.078C902.751 57.246 902.709 57.3907 902.625 57.512C902.55 57.6333 902.419 57.694 902.233 57.694H900.693V63.616C900.693 63.8213 900.623 63.9707 900.483 64.064C900.343 64.1573 900.179 64.204 899.993 64.204C899.815 64.204 899.657 64.1573 899.517 64.064C899.377 63.9707 899.307 63.8213 899.307 63.616V52.696C899.307 52.4907 899.377 52.3413 899.517 52.248C899.657 52.1547 899.815 52.108 899.993 52.108ZM907.863 53.06C908.274 53.06 908.554 53.1347 908.703 53.284C908.862 53.4333 908.941 53.7087 908.941 54.11V55.692C908.941 56.084 908.918 56.4387 908.871 56.756C908.824 57.064 908.736 57.358 908.605 57.638C908.474 57.918 908.292 58.1933 908.059 58.464C907.826 58.7253 907.522 59.0053 907.149 59.304C906.785 59.5933 906.342 59.9107 905.819 60.256C905.296 60.6013 904.676 60.9933 903.957 61.432C903.798 61.5253 903.64 61.544 903.481 61.488C903.322 61.4227 903.196 61.3247 903.103 61.194C903.01 61.0633 902.963 60.9093 902.963 60.732C902.972 60.5547 903.056 60.4147 903.215 60.312C903.878 59.9107 904.442 59.5607 904.909 59.262C905.385 58.954 905.782 58.6787 906.099 58.436C906.416 58.184 906.668 57.9553 906.855 57.75C907.051 57.5353 907.2 57.3253 907.303 57.12C907.406 56.9053 907.471 56.6813 907.499 56.448C907.527 56.2053 907.541 55.9347 907.541 55.636V54.558C907.541 54.4553 907.518 54.3853 907.471 54.348C907.434 54.3013 907.359 54.278 907.247 54.278H903.607C903.43 54.278 903.299 54.2173 903.215 54.096C903.14 53.9747 903.103 53.8347 903.103 53.676C903.103 53.508 903.14 53.3633 903.215 53.242C903.299 53.1207 903.43 53.06 903.607 53.06H907.863ZM912.203 52.108C912.39 52.108 912.553 52.1547 912.693 52.248C912.842 52.3413 912.917 52.4907 912.917 52.696V63.616C912.917 63.8213 912.842 63.9707 912.693 64.064C912.553 64.1573 912.39 64.204 912.203 64.204C912.026 64.204 911.862 64.1573 911.713 64.064C911.573 63.9707 911.503 63.8213 911.503 63.616V52.696C911.503 52.4907 911.573 52.3413 911.713 52.248C911.862 52.1547 912.026 52.108 912.203 52.108Z" fill="white"/>
<path d="M919.95 54.0508L924.899 59.0005L919.95 63.9503" stroke="white" stroke-width="2"/>
<g clip-path="url(#clip0_280_276)">
<path d="M785.479 85.3652H803.882V69.3283H785.479V85.3652Z" fill="black"/>
<path d="M784.847 85.3661V69.3292C784.847 68.9749 785.133 68.6875 785.485 68.6875H803.889C804.241 68.6875 804.527 68.9749 804.527 69.3292V85.3661C804.527 85.7204 804.241 86.0079 803.889 86.0079H785.485C785.133 86.0079 784.847 85.7204 784.847 85.3661ZM803.25 69.971H786.124V84.7244H803.25V69.971Z" fill="black"/>
<path d="M789.627 75.7397C789.627 75.7397 788.557 88.6547 780.24 95.4465C780.24 95.4465 783.943 100.333 780.319 103.067C776.696 105.801 770.519 100.086 770.519 100.086C770.519 100.086 764.263 94.3703 770.107 89.985C775.951 85.5998 779.415 79.3027 780.732 72.5176L789.627 75.7463V75.7397Z" fill="#F0514F"/>
<path d="M770.094 100.561C769.961 100.44 766.816 97.5325 766.982 94.0898C767.069 92.3317 767.993 90.7741 769.728 89.4706C775.14 85.4129 778.724 79.5035 780.107 72.3908C780.14 72.2037 780.253 72.0499 780.419 71.9563C780.579 71.8627 780.778 71.8494 780.951 71.9095L789.847 75.1383C790.119 75.2386 790.292 75.506 790.266 75.7934C790.219 76.3215 789.115 88.6015 781.097 95.5671C781.689 96.4963 782.793 98.5619 782.507 100.607C782.341 101.804 781.736 102.807 780.705 103.582C779.881 104.204 778.956 104.451 778.012 104.451C774.349 104.451 770.307 100.761 770.094 100.561ZM781.21 73.3668C779.668 80.4728 775.971 86.3822 770.493 90.4933C769.077 91.5562 768.325 92.7862 768.259 94.1433C768.119 96.9776 770.925 99.578 770.958 99.6114C772.567 101.102 777.314 104.531 779.94 102.553C780.698 101.985 781.124 101.289 781.244 100.434C781.543 98.2678 779.754 95.8613 779.734 95.8412C779.528 95.5671 779.575 95.1727 779.841 94.9521C786.948 89.1497 788.643 78.5609 788.943 76.1744L781.217 73.3668H781.21Z" fill="black"/>
<path d="M810.045 57.1221C810.045 57.1221 834.472 49.7354 833.322 27.8426C832.172 5.94974 810.663 1.59123 810.663 1.59123C810.663 1.59123 770.566 -8.46274 759.769 36.0315C759.769 36.0315 769.329 48.3984 783.577 53.1179C783.577 53.1179 772.866 68.8673 757.468 70.4717C757.468 70.4717 760.919 90.4058 791.103 76.702C791.103 76.702 801.987 73.2325 810.484 78.3063L810.038 57.1288L810.045 57.1221Z" fill="black"/>
<path d="M764.13 80.1914C758 76.9292 756.883 70.8393 756.837 70.5786C756.803 70.4048 756.85 70.2243 756.956 70.084C757.063 69.9436 757.222 69.85 757.402 69.8299C770.493 68.4662 780.279 56.4603 782.553 53.4387C768.737 48.5187 759.363 36.5462 759.27 36.4192C759.15 36.2654 759.11 36.0649 759.157 35.871C762.568 21.8262 769.223 11.712 778.943 5.80266C793.736 -3.18175 810.657 0.916051 810.796 0.949475C811.016 0.996269 832.803 5.66228 833.967 27.7957C835.044 48.2379 814.107 56.3801 810.697 57.57L811.129 78.2796C811.129 78.5135 811.009 78.7274 810.81 78.8478C810.61 78.9681 810.364 78.9614 810.165 78.8478C802.246 74.1216 791.994 77.0963 791.329 77.2969C784.182 80.539 777.992 82.1634 772.8 82.1568C769.495 82.1568 766.603 81.5016 764.13 80.1847V80.1914ZM809.826 77.2033L809.407 57.1354C809.407 56.848 809.586 56.5873 809.859 56.5071C809.919 56.487 815.956 54.6286 821.753 50.1565C829.466 44.2137 833.142 36.72 832.677 27.876C831.567 6.75191 810.737 2.2597 810.504 2.21291C810.338 2.1728 793.909 -1.7913 779.575 6.91903C770.233 12.6011 763.804 22.3409 760.46 35.8777C761.869 37.6091 770.951 48.2647 783.77 52.5096C783.963 52.5697 784.109 52.7235 784.175 52.9106C784.242 53.0978 784.209 53.3117 784.096 53.4788C783.657 54.1206 773.372 69.0144 758.253 71.0198C758.718 72.6175 760.294 76.7086 764.735 79.0684C770.732 82.2503 779.508 81.2543 790.824 76.1137C790.844 76.1003 790.871 76.0936 790.891 76.0869C791.15 76.0067 794.76 74.8837 799.421 74.8837C802.639 74.8837 806.355 75.4184 809.806 77.2033H809.826Z" fill="black"/>
<path d="M817.139 105.827L744.902 54.4211L748.054 49.9355L820.743 101.776C820.743 101.776 821.806 103.381 820.231 105.139C820.231 105.139 818.968 106.543 817.139 105.821V105.827Z" fill="#4F3128"/>
<path d="M816.907 106.422C816.86 106.402 816.813 106.375 816.774 106.349L744.537 54.949C744.251 54.7417 744.178 54.3406 744.384 54.0532L747.535 49.5677C747.635 49.4273 747.781 49.3337 747.947 49.307C748.114 49.2802 748.287 49.3203 748.426 49.4139L821.115 101.255C821.182 101.302 821.235 101.355 821.275 101.422C821.74 102.117 822.219 103.889 820.703 105.573C820.65 105.627 819.692 106.676 818.19 106.676C817.797 106.676 817.365 106.603 816.9 106.422H816.907ZM748.207 50.8378L745.787 54.2738L817.432 105.259C818.775 105.747 819.712 104.758 819.752 104.724C820.796 103.554 820.417 102.538 820.257 102.231L748.207 50.8378Z" fill="black"/>
<path d="M743.686 26.2851C743.686 26.2851 733.806 13.5572 732.057 15.3822C730.309 17.2138 732.037 18.9251 732.037 18.9251C732.037 18.9251 729.737 17.7152 728.653 19.3062C727.569 20.8971 729.252 22.4814 729.252 22.4814C729.252 22.4814 727.304 20.9907 726.226 22.809C725.149 24.6273 727.004 26.0712 727.004 26.0712C727.004 26.0712 724.651 24.5003 723.747 26.1782C722.842 27.856 725.189 29.427 725.189 29.427C725.189 29.427 722.836 27.856 721.885 29.4002C720.934 30.9444 723.507 32.5087 723.507 32.5087C723.507 32.5087 720.868 29.915 719.525 31.8202C718.182 33.7253 721.114 35.4701 721.114 35.4701C721.114 35.4701 718.494 33.7721 717.503 35.8511C717.503 35.8511 716.898 37.2282 719.186 38.3847C719.186 38.3847 716.227 36.5196 715.196 38.8259C715.196 38.8259 714.412 40.243 717.158 41.6134C717.158 41.6134 713.847 40.0291 713.062 42.3955C713.062 42.3955 712.59 43.6256 715.29 44.7486C715.29 44.7486 712.052 43.3648 711.154 45.8449C711.154 45.8449 710.323 47.1284 713.468 48.1244C713.468 48.1244 710.276 46.7607 709.671 49.4414C709.671 49.4414 708.468 52.6166 723.793 57.1022L744.424 27.4349L743.692 26.2918L743.686 26.2851Z" fill="#A76828"/>
<path d="M723.6 57.7097C713.162 54.6547 710.024 52.1078 709.239 50.5101C708.933 49.8884 708.993 49.4472 709.046 49.2667C709.292 48.1905 709.904 47.6824 710.37 47.4351C710.503 47.3682 710.642 47.3081 710.782 47.268C710.662 47.1075 710.569 46.9404 710.503 46.7599C710.33 46.2786 710.423 45.8307 710.569 45.5567C710.855 44.8013 711.347 44.2732 712.032 43.9724C712.278 43.8654 712.53 43.7986 712.783 43.7584C712.198 42.9496 712.417 42.2811 712.457 42.1808C712.697 41.4655 713.162 40.9441 713.8 40.6701C714.113 40.5364 714.452 40.4695 714.784 40.4495C714.684 40.2823 714.605 40.1085 714.552 39.928C714.306 39.1392 714.605 38.571 714.618 38.5576C714.944 37.8357 715.469 37.3477 716.147 37.1405C716.4 37.0602 716.666 37.0268 716.925 37.0268C716.646 36.2447 716.905 35.6297 716.925 35.5762C717.244 34.9077 717.749 34.4532 718.394 34.266C718.561 34.2192 718.733 34.1925 718.9 34.1791C718.753 33.9251 718.64 33.651 718.581 33.3569C718.441 32.6951 718.581 32.0399 718.999 31.4517C719.405 30.8768 719.957 30.5492 720.602 30.4891C720.761 30.4757 720.914 30.4757 721.074 30.4891C720.981 29.9877 721.074 29.4997 721.346 29.0585C721.646 28.5705 722.091 28.2496 722.636 28.1293C722.802 28.0892 722.975 28.0758 723.148 28.0758C722.842 27.4074 722.763 26.6453 723.181 25.8698C723.474 25.3284 723.926 24.9674 724.484 24.827C724.777 24.7535 725.076 24.7468 725.369 24.7802C725.163 24.105 725.183 23.3096 725.675 22.4806C726.16 21.6651 726.792 21.3977 727.237 21.3108C727.423 21.2774 727.603 21.264 727.782 21.2707C727.569 20.5621 727.589 19.7465 728.135 18.9444C728.793 17.9751 729.81 17.7678 730.734 17.8748C730.508 17.0191 730.621 15.9696 731.605 14.9402C731.785 14.753 732.09 14.5457 732.602 14.5658C735.382 14.7129 742.748 24.0248 744.198 25.8899C744.211 25.9033 744.224 25.9233 744.231 25.9367L744.962 27.0798C745.102 27.3004 745.095 27.5812 744.949 27.7951L724.318 57.4623C724.199 57.6361 723.999 57.7364 723.793 57.7364C723.733 57.7364 723.673 57.7297 723.614 57.7097H723.6ZM743.16 26.652C738.407 20.5287 733.52 15.5819 732.509 15.8225C731.273 17.1127 732.27 18.2558 732.476 18.4631C732.702 18.6837 732.729 19.038 732.543 19.2987C732.356 19.5527 732.011 19.6329 731.731 19.4925C731.712 19.4858 729.916 18.57 729.172 19.6663C728.414 20.776 729.631 21.9592 729.677 22.006C729.923 22.24 729.95 22.6277 729.73 22.8884C729.511 23.1491 729.125 23.1892 728.859 22.9887C728.673 22.8483 728.008 22.4606 727.47 22.5609C727.19 22.6143 726.958 22.8015 726.765 23.1358C726.007 24.4126 727.244 25.4487 727.383 25.5557C727.656 25.7696 727.709 26.1573 727.51 26.4381C727.31 26.7188 726.925 26.7924 726.639 26.5985C726.353 26.4113 725.402 25.91 724.784 26.0704C724.571 26.1239 724.418 26.2509 724.298 26.4782C723.68 27.6146 725.522 28.8713 725.535 28.8847C725.721 29.0117 725.821 29.2123 725.821 29.4195C725.821 29.5398 725.788 29.6668 725.714 29.7738C725.522 30.0679 725.123 30.1481 724.83 29.9543C724.538 29.7604 723.56 29.239 722.902 29.3794C722.696 29.4262 722.543 29.5398 722.423 29.7337C722.31 29.9208 722.284 30.0947 722.33 30.2952C722.41 30.6228 722.663 30.957 722.949 31.2444C723.487 31.5987 723.866 31.9664 723.946 32.0466C724.179 32.2739 724.205 32.6416 724.006 32.8956C723.806 33.1496 723.447 33.2232 723.168 33.0493C723.075 32.9959 722.616 32.7084 722.151 32.2605C721.692 31.9664 721.16 31.7191 720.708 31.7592C720.436 31.7859 720.223 31.9196 720.037 32.187C719.824 32.4878 719.757 32.7686 719.824 33.0828C719.983 33.8515 720.921 34.5935 721.353 34.8676C721.4 34.8944 721.433 34.9144 721.453 34.9278C721.745 35.115 721.832 35.5094 721.652 35.8035C721.473 36.1043 721.087 36.1979 720.788 36.0174C720.768 36.004 720.735 35.984 720.688 35.9572C720.316 35.7366 719.398 35.3155 718.747 35.5027C718.454 35.5829 718.241 35.7834 718.095 36.0909C717.989 36.3784 718.109 36.9934 719.099 37.6017C719.325 37.7154 719.478 37.8089 719.525 37.8424C719.811 38.0229 719.91 38.4039 719.744 38.698C719.578 38.9988 719.206 39.1125 718.9 38.9587C718.753 38.8852 718.62 38.8117 718.494 38.7381C717.976 38.4841 717.138 38.19 716.513 38.3772C716.187 38.4774 715.948 38.7114 715.762 39.1192C715.622 39.4267 715.801 40.2222 717.437 41.0377C717.749 41.1915 717.882 41.5725 717.73 41.8934C717.577 42.2076 717.204 42.3413 716.885 42.1942C716.44 41.9803 715.103 41.5123 714.292 41.86C713.986 41.9936 713.787 42.2276 713.667 42.5819C713.627 42.7825 713.873 43.4643 715.516 44.1462C715.522 44.1462 715.529 44.1462 715.536 44.1528C715.861 44.2932 716.008 44.6676 715.875 44.9885C715.742 45.316 715.363 45.4698 715.044 45.3361H715.037C714.95 45.296 713.521 44.7277 712.544 45.1556C712.171 45.316 711.912 45.6101 711.752 46.058C711.739 46.1048 711.713 46.1449 711.686 46.1917C711.686 46.1917 711.686 46.2653 711.713 46.3388C711.759 46.4725 711.998 46.9003 713.195 47.3482C713.474 47.4284 713.661 47.5086 713.72 47.5287C714.033 47.6624 714.186 48.0234 714.073 48.3442C713.953 48.6651 713.607 48.8389 713.282 48.732C713.122 48.6785 712.969 48.6317 712.823 48.5715C712.311 48.4245 711.513 48.3041 710.968 48.5782C710.629 48.752 710.409 49.0796 710.303 49.5742C710.296 49.601 710.29 49.6344 710.276 49.6611C710.276 49.6611 710.363 49.8751 710.396 49.9419C710.835 50.831 712.996 53.2175 723.534 56.3527L743.659 27.414L743.174 26.6587L743.16 26.652Z" fill="black"/>
<path d="M737.483 30.3486C737.662 30.3486 737.848 30.2683 737.975 30.1213C738.201 29.8472 738.167 29.4461 737.895 29.2188L731.698 23.998C731.426 23.7707 731.027 23.8041 730.801 24.0782C730.575 24.3523 730.608 24.7534 730.881 24.9806L737.077 30.2015C737.197 30.3018 737.343 30.3486 737.483 30.3486Z" fill="black"/>
<path d="M735.016 33.3915C735.202 33.3915 735.382 33.3113 735.508 33.1576C735.734 32.8835 735.694 32.4757 735.421 32.2551L729.451 27.3351C729.178 27.1078 728.78 27.1479 728.554 27.422C728.327 27.696 728.367 28.1038 728.64 28.3244L734.61 33.2445C734.73 33.3447 734.87 33.3915 735.016 33.3915Z" fill="black"/>
<path d="M733.38 36.639C733.567 36.639 733.753 36.5588 733.879 36.3984C734.098 36.1243 734.052 35.7165 733.779 35.4959L727.703 30.616C727.423 30.3954 727.024 30.4422 726.805 30.7163C726.586 30.9904 726.632 31.3981 726.905 31.6187L732.981 36.4987C733.101 36.5922 733.241 36.639 733.38 36.639Z" fill="black"/>
<path d="M721.938 54.3141C722.177 54.3141 722.404 54.1804 722.517 53.9464C722.669 53.6255 722.53 53.2445 722.217 53.0907L714.086 49.1935C713.767 49.0397 713.388 49.1801 713.235 49.4943C713.082 49.8152 713.222 50.1962 713.534 50.35L721.666 54.2472C721.752 54.2873 721.845 54.3074 721.938 54.3074V54.3141Z" fill="#231F20"/>
<path d="M723.727 51.5134C723.953 51.5134 724.172 51.3931 724.292 51.1791C724.458 50.865 724.345 50.4772 724.032 50.3101L716.613 46.2859C716.3 46.1187 715.915 46.2324 715.748 46.5466C715.582 46.8607 715.695 47.2485 716.008 47.4156L723.427 51.4399C723.527 51.4933 723.627 51.5134 723.727 51.5134Z" fill="#231F20"/>
<path d="M725.994 47.9093C726.226 47.9093 726.453 47.7822 726.559 47.5616C726.718 47.2475 726.599 46.8597 726.28 46.6993L718.714 42.7954C718.401 42.6349 718.015 42.7553 717.856 43.0761C717.696 43.3903 717.816 43.778 718.135 43.9385L725.701 47.8424C725.794 47.8892 725.894 47.9159 725.994 47.9159V47.9093Z" fill="black"/>
<path d="M728.115 44.8011C728.334 44.8011 728.54 44.6942 728.66 44.4936C728.839 44.1928 728.746 43.7984 728.44 43.6112L721.127 39.1725C720.828 38.9853 720.436 39.0856 720.249 39.3931C720.07 39.6939 720.163 40.0883 720.469 40.2755L727.782 44.7142C727.882 44.7744 728.002 44.8078 728.108 44.8078L728.115 44.8011Z" fill="black"/>
<path d="M730.162 41.659C730.368 41.659 730.568 41.5587 730.688 41.3782C730.887 41.0841 730.814 40.6897 730.521 40.4825L723.501 35.6226C723.208 35.422 722.809 35.4956 722.616 35.7897C722.417 36.0838 722.49 36.4782 722.782 36.6855L729.803 41.5453C729.916 41.6189 730.043 41.659 730.162 41.659Z" fill="black"/>
<path d="M731.884 39.0119C732.077 39.0119 732.27 38.925 732.396 38.7579C732.609 38.4771 732.549 38.076 732.27 37.8621L725.887 33.029C725.608 32.8151 725.209 32.8752 724.997 33.156C724.784 33.4368 724.844 33.8378 725.123 34.0518L731.506 38.8849C731.619 38.9718 731.758 39.0119 731.891 39.0119H731.884Z" fill="black"/>
<path d="M739.497 27.8626C739.67 27.8626 739.843 27.7958 739.969 27.6554C740.208 27.3947 740.188 26.9869 739.929 26.7463L734.032 21.3249C733.773 21.0842 733.367 21.1043 733.128 21.365C732.888 21.6257 732.908 22.0335 733.168 22.2741L739.065 27.6955C739.185 27.8092 739.344 27.8626 739.497 27.8626Z" fill="black"/>
<path d="M743.852 26.3184L722.862 57.0418C722.862 57.0418 727.696 61.0728 733.773 55.892C739.849 50.7113 747.196 56.6541 747.196 56.6541L751.039 51.5135C751.039 51.5135 742.203 46.1656 746.511 37.7093C750.82 29.253 743.859 26.3184 743.859 26.3184H743.852Z" fill="#F0514F"/>
<path d="M722.457 57.5369C722.204 57.323 722.151 56.9553 722.337 56.6813L743.327 25.9578C743.499 25.7105 743.819 25.6102 744.098 25.7305C744.218 25.7773 747.003 26.9806 748.114 30.0289C748.951 32.3284 748.599 35.0091 747.076 38.0039C745.414 41.2727 745.607 44.428 747.655 47.3827C749.224 49.6488 751.345 50.9524 751.365 50.9657C751.518 51.0593 751.624 51.2131 751.664 51.3936C751.697 51.5741 751.657 51.7545 751.544 51.9016L747.701 57.0422C747.595 57.1826 747.442 57.2695 747.269 57.2963C747.096 57.323 746.923 57.2695 746.791 57.1626C746.724 57.1091 739.79 51.6008 734.178 56.3871C731.678 58.5196 729.358 59.168 727.45 59.168C724.458 59.168 722.483 57.5637 722.45 57.5369H722.457ZM747.063 55.7654L750.128 51.661C748.16 50.217 742.09 44.9694 745.939 37.4156C747.289 34.7617 747.622 32.4287 746.917 30.4834C746.252 28.6384 744.796 27.5889 744.058 27.1477L723.747 56.8751C725.036 57.6706 728.779 59.3017 733.36 55.3978C735.328 53.7199 737.423 53.1383 739.377 53.1383C742.835 53.1383 745.866 54.9499 747.063 55.7654Z" fill="black"/>
<path d="M797.154 82.2094C797.154 82.2094 802.499 63.6791 813.03 66.7274C823.562 69.7757 811.036 85.6588 811.036 85.6588C811.036 85.6588 817.179 82.1292 819.253 87.8247C821.328 93.5202 810.238 94.0015 810.238 94.0015L796.515 84.6962L797.154 82.2094Z" fill="#F0514F"/>
<path d="M809.879 94.5361L796.156 85.2309C795.93 85.0771 795.831 84.803 795.897 84.5356L796.535 82.0489C796.535 82.0489 796.535 82.0355 796.535 82.0288C796.588 81.835 797.925 77.2626 800.598 72.9843C804.234 67.1551 808.589 64.7753 813.203 66.1123C815.504 66.7741 816.973 68.0709 817.571 69.9627C818.994 74.4282 815.038 81.0595 812.851 84.2348C813.994 83.9206 815.437 83.7468 816.787 84.2415C818.19 84.7562 819.22 85.886 819.845 87.5973C820.331 88.9276 820.224 90.1242 819.539 91.1536C817.465 94.2821 810.55 94.6164 810.258 94.6297C810.251 94.6297 810.238 94.6297 810.231 94.6297C810.105 94.6297 809.979 94.5896 809.872 94.5228L809.879 94.5361ZM811.348 86.2202C811.082 86.374 810.75 86.3138 810.55 86.0798C810.351 85.8459 810.344 85.5049 810.537 85.2643C810.61 85.1707 818.05 75.6448 816.361 70.3638C815.889 68.8865 814.739 67.8971 812.851 67.3556C803.124 64.548 797.905 81.9219 797.765 82.3898L797.24 84.4287L810.411 93.3596C812.379 93.2393 817.106 92.5374 818.476 90.4584C818.928 89.7766 818.981 88.9877 818.642 88.0519C818.156 86.7149 817.385 85.8392 816.348 85.4581C815.889 85.291 815.411 85.2242 814.939 85.2242C813.117 85.2242 811.362 86.2068 811.342 86.2202H811.348Z" fill="black"/>
<path d="M799.334 87.2227C799.567 87.2227 799.786 87.0957 799.899 86.8818L806.681 73.8864C806.847 73.5723 806.728 73.1845 806.415 73.0174C806.103 72.8503 805.717 72.9773 805.551 73.2848L798.769 86.2801C798.603 86.5943 798.723 86.982 799.035 87.1491C799.128 87.1959 799.235 87.2227 799.334 87.2227Z" fill="black"/>
<path d="M798.536 85.5926L802.546 88.3C802.546 88.3 803.722 81.9093 796.396 80.8664C789.075 79.8236 788.384 83.781 788.384 83.781C788.384 83.781 786.802 89.1289 791.21 90.6597C791.21 90.6597 791.888 92.1504 794.301 92.4045C794.301 92.4045 795.318 94.196 796.801 93.6813C798.284 93.1665 797.732 90.9538 797.732 90.9538L796.967 87.1168C796.967 87.1168 797.685 85.5793 798.536 85.5793V85.5926Z" fill="#EBABAB"/>
<path d="M793.922 93.0059C791.994 92.7117 791.097 91.6756 790.771 91.1876C787.074 89.7437 787.167 85.6525 787.759 83.627C787.866 83.1257 788.963 79.1616 796.482 80.2311C798.989 80.5854 800.85 81.5815 801.994 83.1858C803.669 85.5322 803.191 88.293 803.164 88.4134C803.124 88.6273 802.984 88.8011 802.785 88.888C802.585 88.9749 802.359 88.9482 802.18 88.8278L798.397 86.2742C798.177 86.4012 797.858 86.789 797.632 87.2168L798.344 90.8065C798.583 91.7692 798.61 93.7412 797.001 94.296C796.741 94.3829 796.489 94.423 796.249 94.423C795.206 94.423 794.374 93.661 793.916 93.0059H793.922ZM798.889 85.0576L801.967 87.1433C801.941 86.2876 801.748 85.0442 800.957 83.9412C800.019 82.631 798.45 81.8088 796.303 81.508C789.747 80.5788 789.036 83.7741 789.009 83.9011C789.009 83.9279 789.002 83.9479 788.989 83.9747C788.929 84.1685 787.639 88.7543 791.409 90.0645C791.575 90.1247 791.708 90.245 791.782 90.4055C791.782 90.4188 792.367 91.5686 794.361 91.7825C794.561 91.8026 794.747 91.9229 794.847 92.1034C794.853 92.1168 795.624 93.427 796.588 93.0928C797.499 92.7786 797.114 91.1408 797.1 91.1007L796.336 87.2636C796.309 87.1299 796.329 86.9895 796.382 86.8625C796.529 86.5416 797.333 84.9573 798.523 84.9573C798.623 84.9506 798.776 84.9974 798.882 85.0643L798.889 85.0576Z" fill="black"/>
<path d="M791.083 85.3789C791.083 85.3789 790.106 88.1932 791.21 90.6599Z" fill="#EBABAB"/>
<path d="M791.21 91.3013C791.296 91.3013 791.383 91.2813 791.469 91.2478C791.788 91.1008 791.934 90.7197 791.788 90.3989C790.804 88.1862 791.675 85.6125 791.682 85.5925C791.795 85.2582 791.622 84.8906 791.29 84.7769C790.957 84.6633 790.591 84.8371 790.478 85.1713C790.439 85.2984 789.435 88.253 790.625 90.927C790.731 91.1676 790.964 91.308 791.21 91.308V91.3013Z" fill="black"/>
<path d="M793.836 87.1699C793.836 87.1699 793.031 89.9842 794.301 92.4108Z" fill="#EBABAB"/>
<path d="M794.301 93.0536C794.401 93.0536 794.501 93.0269 794.6 92.9801C794.913 92.813 795.033 92.4253 794.866 92.1111C793.73 89.9385 794.441 87.3715 794.448 87.3448C794.547 87.0039 794.348 86.6496 794.009 86.5493C793.67 86.449 793.317 86.6496 793.218 86.9905C793.184 87.1175 792.36 90.0789 793.73 92.706C793.843 92.9266 794.069 93.047 794.295 93.047L794.301 93.0536Z" fill="black"/>
<path d="M772.268 64.4883C772.268 64.4883 764.768 70.0768 757.481 70.4779C757.481 70.4779 759.343 82.2432 774.316 81.4677C774.316 81.4677 781.15 81.334 789.687 77.2964" fill="black"/>
<path d="M772.933 82.1431C773.392 82.1431 773.864 82.1297 774.349 82.103C774.615 82.103 781.396 81.9225 789.96 77.8715C790.279 77.7178 790.419 77.3367 790.266 77.0159C790.113 76.695 789.734 76.5546 789.415 76.7084C781.117 80.6323 774.369 80.8195 774.302 80.8195C768.292 81.127 763.744 79.4558 760.779 75.846C759.237 73.9676 758.552 72.0423 758.273 71.053C765.407 70.3377 772.348 65.2238 772.647 64.9965C772.933 64.7826 772.986 64.3815 772.78 64.1008C772.567 63.8133 772.168 63.7598 771.889 63.9671C771.816 64.0205 764.456 69.4419 757.448 69.8297C757.269 69.8363 757.103 69.9232 756.99 70.0703C756.876 70.2107 756.83 70.3979 756.857 70.5717C756.876 70.692 758.858 82.1364 772.933 82.1364V82.1431Z" fill="black"/>
<path d="M793.464 60.5586L798.889 80.9874C798.889 80.9874 790.591 80.1318 788.996 82.3779L781.549 61.5279" fill="black"/>
<path d="M788.996 83.0126C789.202 83.0126 789.395 82.9123 789.514 82.7452C790.518 81.3347 795.757 81.308 798.822 81.6222C799.029 81.6422 799.235 81.562 799.374 81.4015C799.514 81.2411 799.56 81.0205 799.507 80.82L794.082 60.3911C793.989 60.0502 793.637 59.843 793.304 59.9366C792.965 60.0302 792.759 60.3778 792.852 60.7187L798.045 80.2651C796.023 80.1247 791.442 79.971 789.288 81.2812L782.154 61.307C782.035 60.9727 781.669 60.7989 781.337 60.9192C781.004 61.0396 780.831 61.4072 780.951 61.7415L788.397 82.5915C788.477 82.8187 788.677 82.9792 788.909 83.0126C788.936 83.0126 788.969 83.0126 788.996 83.0126Z" fill="black"/>
<path d="M801.508 11.1701C801.508 11.1701 822.225 10.0203 825.576 27.1736C828.927 44.3268 812.326 49.3806 812.326 49.3806C812.326 49.3806 800.066 53.4382 785.366 48.0035C770.666 42.5687 774.169 26.5586 774.169 26.5586C774.169 26.5586 776.836 10.5551 801.515 11.1634L801.508 11.1701Z" fill="#EBABAB"/>
<path d="M785.14 48.6045C770.094 43.036 773.505 26.5847 773.538 26.4576C773.564 26.2838 774.282 22.2128 778.125 18.1952C784.481 11.5438 794.328 10.3539 801.502 10.5344C802.393 10.4943 822.844 9.85253 826.201 27.0593C829.625 44.5802 812.678 49.9548 812.518 50.0016C812.219 50.1019 807.845 51.5057 801.262 51.5057C796.728 51.5057 791.15 50.8372 785.14 48.6112V48.6045ZM801.542 11.8112C801.542 11.8112 801.508 11.8112 801.488 11.8112C777.673 11.2229 774.901 26.0365 774.788 26.6983C774.648 27.3267 771.59 42.2272 785.578 47.4012C799.88 52.6889 812 48.8117 812.133 48.7649C812.292 48.7181 828.149 43.6911 824.945 27.2932C823.602 20.4346 819.287 15.7485 812.113 13.3554C807.898 11.9516 803.875 11.7911 802.266 11.7911C801.808 11.7911 801.542 11.8045 801.535 11.8045L801.542 11.8112Z" fill="black"/>
<mask id="mask0_280_276" style="mask-type:luminance" maskUnits="userSpaceOnUse" x="774" y="11" width="52" height="40">
<path d="M801.482 11.7178C801.482 11.7178 821.647 10.6015 824.911 27.2467C828.176 43.8852 812.006 48.7919 812.006 48.7919C812.006 48.7919 800.066 52.7293 785.758 47.4549C771.45 42.1806 774.861 26.6517 774.861 26.6517C774.861 26.6517 777.454 11.1229 801.482 11.7178Z" fill="white"/>
</mask>
<g mask="url(#mask0_280_276)">
<path opacity="0.25" d="M788.644 41.6986C790.567 38.9875 789.505 34.9092 786.27 32.5895C783.036 30.2698 778.854 30.587 776.931 33.2981C775.008 36.0093 776.071 40.0875 779.305 42.4072C782.54 44.727 786.721 44.4097 788.644 41.6986Z" fill="url(#paint1_radial_280_276)"/>
<path opacity="0.25" d="M821.291 41.8968C824.263 39.2508 824.892 35.0848 822.696 32.5918C820.5 30.0989 816.311 30.223 813.339 32.869C810.368 35.5151 809.739 39.6811 811.935 42.1741C814.131 44.667 818.32 44.5429 821.291 41.8968Z" fill="url(#paint2_radial_280_276)"/>
</g>
<path d="M800.684 42.455C801.409 42.455 803.124 42.3414 804.241 41.3253C804.892 40.7303 805.232 39.9482 805.258 38.9856C805.278 38.1032 804.986 37.3612 804.381 36.7863C802.871 35.349 799.893 35.5629 799.766 35.5696C799.414 35.5964 799.155 35.9039 799.181 36.2582C799.208 36.6125 799.507 36.8732 799.866 36.8464C800.571 36.7929 802.592 36.8464 803.503 37.7155C803.835 38.0296 803.988 38.4374 803.975 38.9521C803.962 39.5538 803.769 40.015 803.377 40.3693C802.539 41.1381 800.963 41.2049 800.431 41.1581C800.066 41.1381 799.773 41.3988 799.746 41.7531C799.72 42.1074 799.986 42.4149 800.338 42.4416C800.358 42.4416 800.484 42.455 800.677 42.455H800.684Z" fill="black"/>
<path d="M800.564 46.8014C807.16 46.8014 810.949 44.2946 811.182 44.1341C811.475 43.9336 811.548 43.5392 811.355 43.245C811.162 42.9509 810.763 42.8774 810.471 43.0712C810.471 43.0712 808.39 44.455 804.72 45.1235C801.329 45.7452 795.824 45.8789 788.869 43.0111C788.544 42.8774 788.171 43.0311 788.038 43.3587C787.905 43.6862 788.058 44.0606 788.384 44.1943C793.111 46.1463 797.2 46.7947 800.564 46.7947V46.8014Z" fill="black"/>
<path d="M817.106 22.6482C817.319 22.6482 817.518 22.5412 817.644 22.3541C817.837 22.0532 817.751 21.6588 817.452 21.465C817.279 21.3513 813.203 18.7576 808.782 20.0077C808.443 20.1013 808.243 20.4556 808.343 20.7965C808.436 21.1374 808.789 21.338 809.128 21.2377C812.997 20.1414 816.72 22.5145 816.76 22.5412C816.867 22.6081 816.986 22.6415 817.106 22.6415V22.6482Z" fill="black"/>
<path d="M785.14 21.7063C785.239 21.7063 785.346 21.6795 785.439 21.6327C785.479 21.6127 789.395 19.5538 793.151 20.9509C793.484 21.0779 793.849 20.9041 793.969 20.5699C794.089 20.2356 793.922 19.868 793.59 19.7476C789.295 18.1433 785.013 20.4027 784.834 20.4963C784.521 20.6634 784.408 21.0512 784.574 21.3654C784.688 21.5793 784.914 21.7063 785.14 21.7063Z" fill="black"/>
<path d="M812.01 36.1738C815.731 35.7429 818.499 33.2262 818.193 30.5524C817.887 27.8787 814.622 26.0605 810.901 26.4913C807.181 26.9222 804.413 29.439 804.719 32.1127C805.025 34.7865 808.29 36.6047 812.01 36.1738Z" fill="white"/>
<path d="M796.587 32.1195C796.894 29.4457 794.126 26.9289 790.405 26.4981C786.684 26.0672 783.42 27.8854 783.113 30.5592C782.807 33.2329 785.575 35.7497 789.296 36.1805C793.016 36.6114 796.281 34.7932 796.587 32.1195Z" fill="white"/>
<path d="M787.108 26.6055C788.783 27.3475 789.966 29.139 789.966 31.2314C789.966 33.424 788.67 35.2757 786.868 35.9509C784.149 34.9682 782.626 32.8892 782.872 30.6698C783.092 28.6711 784.694 27.1202 787.108 26.6055Z" fill="#005CA3"/>
<path d="M808.941 26.793C810.411 27.6353 811.421 29.3265 811.421 31.2852C811.421 33.7318 809.846 35.7774 807.751 36.2453C805.79 35.5701 804.514 34.1396 804.314 32.3481C804.048 29.9348 805.83 27.6821 808.935 26.793H808.941Z" fill="#005CA3"/>
<path d="M789.222 37.0212C787.134 36.7805 785.372 36.0318 784.129 34.8687C782.892 33.6988 782.301 32.2148 782.48 30.6907C782.653 29.1598 783.564 27.8496 785.033 26.994C786.503 26.1383 788.384 25.8174 790.478 26.0581C794.747 26.5528 797.579 29.2133 797.22 32.3953C796.894 35.243 794.162 37.1014 790.525 37.1014C790.106 37.1014 789.667 37.0747 789.228 37.0279L789.222 37.0212ZM795.95 32.2482C796.229 29.8083 793.863 27.7427 790.332 27.3349C788.544 27.1277 786.888 27.4017 785.671 28.1036C784.561 28.7454 783.876 29.7147 783.75 30.8311C783.624 31.9474 784.069 33.0437 785.007 33.9261C786.03 34.8887 787.58 35.5372 789.368 35.7444C792.898 36.1522 795.671 34.6815 795.95 32.2416V32.2482Z" fill="black"/>
<path d="M804.081 32.3942C803.716 29.2189 806.555 26.5517 810.823 26.057C815.091 25.5623 818.456 27.5076 818.821 30.6829C819.187 33.8582 816.348 36.5254 812.08 37.0201C811.634 37.0736 811.202 37.0936 810.783 37.0936C807.146 37.0936 804.414 35.2353 804.088 32.3875L804.081 32.3942ZM810.969 27.3338C807.432 27.7416 805.072 29.8072 805.351 32.2471C805.631 34.6871 808.396 36.1578 811.933 35.75C815.47 35.3422 817.831 33.2766 817.551 30.8366C817.305 28.6708 815.091 27.267 812.126 27.267C811.754 27.267 811.368 27.287 810.969 27.3338Z" fill="black"/>
<path d="M809.281 36.6189C809.427 36.6189 809.58 36.5654 809.699 36.4585C809.793 36.3783 811.98 34.4062 812.026 31.3914C812.073 28.3231 810.125 26.8992 810.045 26.839C809.759 26.6318 809.36 26.7053 809.154 26.9928C808.955 27.2802 809.021 27.6813 809.301 27.8819C809.367 27.9353 810.783 29.0049 810.75 31.3713C810.717 33.8113 808.875 35.4758 808.855 35.4959C808.589 35.7298 808.569 36.1376 808.802 36.3983C808.928 36.5454 809.101 36.6122 809.281 36.6122V36.6189Z" fill="black"/>
<path d="M787.779 36.6201C787.932 36.6201 788.085 36.5666 788.205 36.453C788.298 36.3661 790.478 34.3606 790.525 31.2856C790.571 28.1571 788.63 26.7065 788.544 26.6463C788.258 26.4391 787.859 26.4993 787.653 26.7867C787.447 27.0742 787.506 27.4686 787.792 27.6825C787.859 27.7293 789.282 28.8323 789.248 31.2655C789.215 33.7657 787.373 35.4837 787.354 35.497C787.094 35.7377 787.074 36.1388 787.307 36.3995C787.433 36.5399 787.606 36.6134 787.779 36.6134V36.6201Z" fill="black"/>
</g>
<defs>
<linearGradient id="paint0_linear_280_276" x1="1470.64" y1="38" x2="-32.1337" y2="57.2813" gradientUnits="userSpaceOnUse">
<stop stop-color="#4416CE"/>
<stop offset="1" stop-color="#DD468F"/>
</linearGradient>
<radialGradient id="paint1_radial_280_276" cx="0" cy="0" r="1" gradientUnits="userSpaceOnUse" gradientTransform="translate(796.351 43.7734) rotate(-143.912) scale(7.17053 6.00611)">
<stop stop-color="#D9315C" stop-opacity="0.8"/>
<stop offset="0.14" stop-color="#D9315D" stop-opacity="0.78"/>
<stop offset="0.26" stop-color="#D93160" stop-opacity="0.73"/>
<stop offset="0.38" stop-color="#D93166" stop-opacity="0.65"/>
<stop offset="0.49" stop-color="#D9316F" stop-opacity="0.54"/>
<stop offset="0.54" stop-color="#D93174" stop-opacity="0.47"/>
<stop offset="0.58" stop-color="#D9366F" stop-opacity="0.42"/>
<stop offset="0.77" stop-color="#DB4F5A" stop-opacity="0.19"/>
<stop offset="0.91" stop-color="#DD5E4D" stop-opacity="0.05"/>
<stop offset="1" stop-color="#DE6449" stop-opacity="0"/>
</radialGradient>
<radialGradient id="paint2_radial_280_276" cx="0" cy="0" r="1" gradientUnits="userSpaceOnUse" gradientTransform="translate(825.864 31.1422) rotate(-42.1449) scale(7.17455 6.00275)">
<stop stop-color="#D9315C" stop-opacity="0.8"/>
<stop offset="0.14" stop-color="#D9315D" stop-opacity="0.78"/>
<stop offset="0.26" stop-color="#D93160" stop-opacity="0.73"/>
<stop offset="0.38" stop-color="#D93166" stop-opacity="0.65"/>
<stop offset="0.49" stop-color="#D9316F" stop-opacity="0.54"/>
<stop offset="0.54" stop-color="#D93174" stop-opacity="0.47"/>
<stop offset="0.58" stop-color="#D9366F" stop-opacity="0.42"/>
<stop offset="0.77" stop-color="#DB4F5A" stop-opacity="0.19"/>
<stop offset="0.91" stop-color="#DD5E4D" stop-opacity="0.05"/>
<stop offset="1" stop-color="#DE6449" stop-opacity="0"/>
</radialGradient>
<clipPath id="clip0_280_276">
<rect width="125" height="93" fill="white" transform="translate(709)"/>
</clipPath>
</defs>
</svg>
