<svg width="46" height="36" viewBox="0 0 46 36" fill="none" xmlns="http://www.w3.org/2000/svg">
<path d="M45.5139 23.8455L42.9619 5.32395C42.5112 2.1081 40.0993 -0.19415 37.2307 0.0129313C36.9018 0.0372938 36.5668 0.0860187 36.2318 0.177378L4.74938 8.43626C0.680845 9.3803 -0.573823 12.249 0.230139 15.4527L4.31695 31.6659C4.44485 32.1775 4.64584 32.6586 4.89555 33.0972C6.06495 35.168 8.45248 36.3557 10.8948 35.9049L29.9097 32.4394L32.9489 31.873L42.359 35.168C42.4381 35.1923 42.5112 35.1984 42.5843 35.2045C43.2725 35.2533 43.7172 34.6381 43.5588 33.8768L42.5539 29.8082C42.5539 29.8082 43.1081 29.4733 43.1629 29.4367C43.3578 29.2966 43.5466 29.1444 43.7293 28.986C44.0826 28.6632 44.3993 28.2978 44.6612 27.8958C45.1972 27.0796 45.5139 26.1356 45.5809 25.1611C45.6113 24.7226 45.5748 24.2901 45.5139 23.8516" fill="white"/>
<path d="M25.299 9.43138C25.6157 11.4535 27.2236 21.3994 28.6184 26.5095C28.6732 26.7105 28.5514 26.9236 28.3443 26.9845L24.5011 28.1174C24.294 28.1783 24.0748 28.0626 24.02 27.8555C23.4962 25.9857 23.0333 24.0915 22.613 22.179C22.5643 21.972 22.3572 21.8441 22.144 21.8928C20.1768 22.3861 18.2217 22.9221 16.2727 23.5251C16.0778 23.586 15.9621 23.7809 15.9986 23.9758L17.034 29.2746C17.0766 29.4817 16.9366 29.6888 16.7234 29.7375L12.7949 30.5658C12.5818 30.6084 12.3808 30.4805 12.3381 30.2674L8.96394 12.8665C8.92131 12.6594 9.06139 12.4523 9.27457 12.4097L13.203 11.5814C13.4162 11.5387 13.6172 11.6727 13.6598 11.8798L14.9571 18.5734C14.9997 18.7927 15.2251 18.9266 15.4444 18.8596C17.3751 18.2689 19.318 17.7329 21.2731 17.2456C21.4741 17.1969 21.602 17.002 21.5654 16.801C21.1695 14.5719 20.8346 12.3305 20.5666 10.0892C20.5422 9.87599 20.6945 9.68109 20.9076 9.65064L24.8605 9.11466C25.0675 9.08421 25.2564 9.2243 25.2868 9.42529" fill="#151515"/>
<path d="M36.4618 9.31312C36.4618 8.56397 35.8527 7.94882 35.1036 7.94882H31.7659C31.0168 7.94882 30.4016 8.55179 30.4016 9.30703V11.0916L36.4618 11.0977V9.31312Z" fill="#151515"/>
<path d="M30.5932 23.8152L32.7493 25.6546V26.4342C32.7493 26.7509 33.0051 27.0067 33.3157 27.0067H33.4984C33.8151 27.0067 34.071 26.7509 34.071 26.4403V25.6607L36.2331 23.8274C36.3671 23.7178 36.4402 23.5472 36.4402 23.3767L36.4524 12.9496H30.3922L30.38 23.3706C30.38 23.5472 30.4531 23.7117 30.5871 23.8213" fill="#151515"/>
</svg>
