<svg width="72" height="57" viewBox="0 0 72 57" fill="none" xmlns="http://www.w3.org/2000/svg">
<path d="M71.0346 37.2143L67.0517 8.30726C66.3483 3.28821 62.584 -0.304967 58.1068 0.018229C57.5934 0.0562521 57.0706 0.132298 56.5478 0.274885L7.41247 13.1647C1.06261 14.6381 -0.895579 19.1153 0.359183 24.1154L6.73756 49.4197C6.93718 50.2182 7.25087 50.9692 7.6406 51.6536C9.46571 54.8855 13.192 56.7392 17.0038 56.0357L46.6808 50.627L51.4242 49.7429L66.1106 54.8855C66.2342 54.9236 66.3483 54.9331 66.4623 54.9426C67.5365 55.0186 68.2304 54.0585 67.9832 52.8703L66.4148 46.5205C66.4148 46.5205 67.2798 45.9977 67.3654 45.9406C67.6696 45.722 67.9642 45.4843 68.2494 45.2372C68.8007 44.7334 69.295 44.163 69.7038 43.5357C70.5403 42.2619 71.0346 40.7885 71.1392 39.2676C71.1867 38.5831 71.1297 37.9082 71.0346 37.2238" fill="#43499E"/>
<path d="M39.484 14.7176C39.9783 17.8735 42.4878 33.3964 44.6646 41.3718C44.7501 41.6855 44.56 42.0182 44.2368 42.1132L38.2387 43.8813C37.9155 43.9764 37.5733 43.7957 37.4877 43.4725C36.6702 40.5543 35.9478 37.598 35.2919 34.6132C35.2159 34.29 34.8927 34.0904 34.56 34.1664C31.4896 34.9364 28.4382 35.7729 25.3964 36.7139C25.0922 36.809 24.9116 37.1132 24.9686 37.4174L26.5846 45.6874C26.6512 46.0106 26.4325 46.3338 26.0998 46.4098L19.9686 47.7026C19.6359 47.7692 19.3222 47.5695 19.2557 47.2368L13.9895 20.0788C13.9229 19.7556 14.1416 19.4325 14.4743 19.3659L20.6055 18.0731C20.9382 18.0066 21.2519 18.2157 21.3184 18.5389L23.3432 28.9858C23.4097 29.328 23.7614 29.5371 24.1036 29.4325C27.1169 28.5105 30.1493 27.674 33.2006 26.9135C33.5143 26.8374 33.7139 26.5333 33.6569 26.2196C33.039 22.7405 32.5162 19.2423 32.098 15.7442C32.0599 15.4115 32.2976 15.1073 32.6303 15.0598L38.7995 14.2233C39.1227 14.1758 39.4174 14.3944 39.4649 14.7081" fill="white"/>
<path d="M56.9084 14.5336C56.9084 13.3644 55.9579 12.4043 54.7886 12.4043H49.5795C48.4103 12.4043 47.4502 13.3454 47.4502 14.5241V17.3093L56.9084 17.3188V14.5336Z" fill="white"/>
<path d="M47.7458 37.1673L51.1108 40.038V41.2548C51.1108 41.7491 51.5101 42.1483 51.9949 42.1483H52.28C52.7743 42.1483 53.1736 41.7491 53.1736 41.2643V40.0475L56.5481 37.1863C56.7573 37.0152 56.8713 36.749 56.8713 36.4829L56.8903 20.209H47.4321L47.4131 36.4734C47.4131 36.749 47.5272 37.0057 47.7363 37.1768" fill="white"/>
</svg>
