<svg width="78" height="49" viewBox="0 0 78 49" fill="none" xmlns="http://www.w3.org/2000/svg">
<path d="M77.7888 31.3279C77.6754 29.9216 77.373 28.5833 76.8891 27.3509C76.5564 25.7027 75.9213 24.2585 75.0064 23.0639C72.7533 20.1378 68.8519 18.6106 65.3058 19.2835C64.4212 19.4498 63.6122 19.7522 62.8788 20.1908C62.6217 19.722 62.2664 19.2986 61.8354 18.9508C61.5859 17.915 61.0869 17.1135 60.3232 16.5238C58.9774 15.4804 57.1174 15.4652 55.6657 16.4633C54.4409 16.3725 53.2538 16.7959 52.4675 17.6201C51.8021 18.3157 51.4241 19.2305 51.3863 20.2059C48.4224 19.2986 45.4661 19.7598 43.5078 20.3118C44.0976 19.1474 44.3395 17.8998 44.2261 16.7052L43.1373 6.53584C42.9559 4.94805 42.5022 3.73075 41.6932 2.67979C40.1281 0.661035 37.6784 -0.216026 35.1304 0.320796C34.9187 0.366161 34.707 0.419087 34.4953 0.464453L22.912 3.13344L18.0957 4.23733C17.8084 4.29782 17.5135 4.36586 17.2338 4.44903C16.3038 4.72879 14.9882 5.29585 14.0431 6.39974C13.1282 7.46582 12.6141 8.69069 12.478 10.1575C12.3873 11.1177 12.5914 12.0326 12.7653 12.8416L14.2699 19.6918C13.5516 19.6086 12.8409 19.601 12.1302 19.6464C10.308 19.7825 8.56902 20.2286 6.641 21.0603C4.92468 21.8012 3.40494 22.7842 1.86252 23.8124C1.13668 24.2963 0.569613 25.06 0.312543 25.8917C0.0176688 26.867 0.146204 27.8424 0.690587 28.659L3.26885 32.5074C3.51079 32.8704 3.82835 33.1955 4.19127 33.4677L4.61468 36.9457L3.75274 38.5939C3.64689 38.7905 3.5486 38.9871 3.45031 39.1761L3.4125 39.2442C3.28397 39.4937 3.12519 39.8112 3.03446 40.1742C2.70934 41.4671 3.05714 42.828 3.96445 43.8185C4.64493 44.5595 5.58247 44.8997 6.33856 45.1795L6.54271 45.2551C7.08709 45.4592 7.65415 45.6256 8.22878 45.7465C11.3136 46.4119 14.4741 46.0868 17.3926 44.8241C17.4531 44.9224 17.5211 45.0131 17.5967 45.1039C17.9218 45.5273 18.2318 45.8448 18.7535 46.1397C18.7686 46.1473 18.7913 46.1624 18.814 46.1699C19.3281 47.0546 20.1901 47.7275 21.2259 48.0299C21.5435 48.1206 21.8762 48.166 22.2013 48.166C23.1918 48.166 24.1822 47.7577 24.9459 47.0092C24.9912 47.0016 25.0366 46.9865 25.082 46.9714C25.3542 46.9034 25.6717 46.7899 26.0573 46.5707C26.8285 46.117 27.4258 45.4214 27.7358 44.6124C28.2122 44.7561 28.6583 44.8468 29.0666 44.9148C29.127 44.9375 29.1875 44.9526 29.2556 44.9602L29.8226 45.0358C29.8226 45.0358 29.868 45.0358 29.8831 45.0434C29.9361 45.0509 29.989 45.0509 30.0343 45.0509C30.057 45.0509 30.0797 45.0358 30.1024 45.0358C32.0077 45.1795 33.7619 44.8997 35.4555 44.1814C36.2721 43.8336 37.0433 43.4102 37.7464 42.9036C38.0791 43.3271 38.5025 43.69 39.0242 44C40.2188 44.7031 41.542 45.2475 42.85 45.5726C46.1768 46.3892 49.6851 46.0338 52.7397 44.567C54.4257 43.758 55.9379 42.5256 57.125 41.021C58.5464 42.6919 60.3686 43.9395 62.3798 44.5822C64.7539 45.3382 67.4229 45.2626 69.6987 44.3705C72.1257 43.4178 74.1143 41.83 75.6038 39.6449C77.2671 37.2179 78.061 34.1784 77.7888 31.3053" fill="white"/>
<path d="M30.0272 43.9328C29.8609 43.9101 29.7021 43.8874 29.5433 43.8647C29.4904 43.8647 29.445 43.8572 29.3921 43.8496C29.6038 43.8799 29.8155 43.9025 30.0272 43.9328Z" fill="#43499E"/>
<path d="M76.6618 31.4232C76.4501 28.8298 75.5655 26.4708 73.8643 24.4899C72.5033 22.8945 70.5072 21.6848 68.4431 21.2614C66.3336 20.8379 64.1863 21.1026 62.2281 21.9192C62.1751 21.0875 61.7593 20.3389 61.0788 19.8097C60.9881 19.7416 60.8974 19.666 60.8066 19.598C60.7915 19.5224 60.7764 19.4467 60.7613 19.3711C60.6025 18.5924 60.2774 17.9346 59.6271 17.428C58.614 16.6417 57.2379 16.7248 56.2323 17.4582C56.1491 17.5187 56.066 17.5792 55.9828 17.6397C55.8845 17.6321 55.7786 17.617 55.6804 17.6095C54.8108 17.5187 53.9035 17.7682 53.2836 18.4185C52.5577 19.1746 52.3687 20.2255 52.6106 21.216C52.6409 21.3218 52.6711 21.4277 52.7014 21.5335C52.7165 21.5865 52.7316 21.6318 52.7467 21.6848C52.7316 21.715 52.7165 21.7528 52.7014 21.7831C52.6787 21.836 52.656 21.8889 52.6333 21.9343C52.3536 21.7982 52.0663 21.6772 51.7789 21.5638C48.9814 20.4599 45.7 20.7397 42.9025 21.6999C42.5396 21.8284 42.1842 21.9645 41.8288 22.1082C41.8137 21.9192 41.7835 21.7226 41.7381 21.526C41.7003 21.3521 41.6625 21.1782 41.6247 21.0043C41.9347 20.6943 42.2144 20.3465 42.4337 19.9231C42.9327 18.978 43.1898 17.9119 43.0839 16.8382C43.031 16.3392 42.9781 15.8402 42.9252 15.3412C42.7059 13.2998 42.4866 11.2659 42.2674 9.23201C42.1917 8.4986 42.1086 7.75763 42.033 7.02423C42.0178 6.91082 42.0103 6.7974 41.9952 6.69155C41.8591 5.48181 41.534 4.37792 40.7779 3.40257C39.4623 1.69381 37.4586 1.01333 35.3567 1.45942C35.0392 1.52747 34.7292 1.60308 34.4116 1.67869C30.6539 2.54063 26.9037 3.41013 23.1459 4.27207C21.6413 4.61987 20.1367 4.96767 18.6321 5.31547C18.2691 5.39864 17.8987 5.46669 17.5433 5.57254C16.5679 5.86742 15.5623 6.38912 14.8894 7.17545C14.1031 8.09031 13.7099 9.10347 13.5965 10.2981C13.5209 11.1222 13.7099 11.9388 13.8914 12.7403C14.0804 13.5871 14.2619 14.4414 14.4509 15.2883C14.8516 17.1104 15.2523 18.925 15.6531 20.7472C15.6758 20.8606 15.706 20.9816 15.7287 21.095C15.7287 21.1177 15.7438 21.1328 15.7438 21.1555C14.5946 20.8531 13.4075 20.7245 12.2129 20.8153C10.3983 20.9514 8.74999 21.4201 7.09416 22.1384C5.46101 22.8416 3.97152 23.8094 2.49715 24.7923C1.47643 25.4728 0.886682 26.932 1.64277 28.0586C2.50471 29.3439 3.36665 30.6217 4.22103 31.9071C4.47054 32.2851 4.84102 32.6102 5.26443 32.8295C5.42321 34.1148 5.58199 35.4078 5.7332 36.6931C5.75589 36.8594 5.77101 37.0258 5.79369 37.1846C5.49882 37.7516 5.20394 38.3111 4.90151 38.8782C4.75785 39.158 4.60663 39.4301 4.46298 39.7099C4.342 39.9518 4.20591 40.2089 4.13786 40.4735C3.90347 41.396 4.16054 42.3713 4.80322 43.0669C5.3476 43.6567 6.20198 43.9289 6.93538 44.2086C7.4344 44.3901 7.94098 44.5413 8.46268 44.6547C11.4265 45.2898 14.4433 44.942 17.1879 43.6869C17.4526 43.5659 17.7096 43.4374 17.9591 43.2938C18.0423 43.7247 18.2162 44.0801 18.4884 44.4279C18.7303 44.7379 18.9345 44.9571 19.305 45.1688C19.373 45.2066 19.4411 45.2369 19.5091 45.2671C19.5545 45.2823 19.5923 45.3049 19.6377 45.3201C19.6528 45.3427 19.6603 45.373 19.6755 45.3957C20.0308 46.1593 20.7264 46.7188 21.5354 46.9532C22.5637 47.2556 23.66 46.802 24.3254 46.0157C24.3405 45.993 24.3556 45.9779 24.3783 45.9552C24.4312 45.9552 24.4842 45.9401 24.5295 45.9325C24.59 45.9249 24.6505 45.9174 24.711 45.9098C24.6656 45.9098 24.6203 45.9249 24.5749 45.9249C24.8773 45.8796 25.1193 45.8115 25.4747 45.5998C26.0871 45.2445 26.5634 44.6471 26.7449 43.9591C26.8281 43.6491 26.8507 43.3467 26.8205 43.0442C27.0322 43.1425 27.2439 43.2333 27.4556 43.324C28.1361 43.6037 28.8166 43.755 29.5348 43.8608C31.4175 44.0952 33.2397 43.8986 35.0014 43.1577C36.143 42.6738 37.2016 42.0008 38.1089 41.154C38.124 41.2221 38.1391 41.2901 38.1618 41.3506C38.4189 42.1067 38.9103 42.636 39.5908 43.0442C40.6796 43.6869 41.8818 44.1859 43.1066 44.4884C46.1763 45.2445 49.3897 44.9269 52.2402 43.5659C54.2362 42.6057 55.945 41.0028 57.0791 39.0899C58.4023 41.154 60.3681 42.772 62.712 43.5206C64.8063 44.1859 67.2258 44.1406 69.2748 43.3316C71.5053 42.4545 73.3047 41.0028 74.6581 39.0219C76.1552 36.8292 76.9037 34.0695 76.6467 31.4232" fill="#43499E"/>
<path d="M40.7013 16.8494L39.6125 6.68C39.416 4.91076 38.1382 3.61029 36.5655 3.67833C36.384 3.68589 36.2026 3.70858 36.0136 3.75394L18.6538 7.75365C16.4158 8.19974 15.6824 9.74972 16.0604 11.519L18.0262 20.4559C18.0867 20.7432 18.185 21.0079 18.3211 21.2498C18.926 22.3991 20.2113 23.0871 21.5572 22.883L32.0139 21.3027L33.6848 21.0457L38.7808 23.0039C38.8186 23.0191 38.864 23.0191 38.9018 23.0266C39.2799 23.0644 39.5294 22.7317 39.4613 22.3159L38.9774 20.0779C38.9774 20.0779 39.2874 19.904 39.3177 19.8813C39.4311 19.8057 39.5369 19.7301 39.6352 19.6393C39.8318 19.4654 40.0133 19.2689 40.1645 19.0572C40.4669 18.6186 40.6635 18.1045 40.7164 17.5752C40.7391 17.3333 40.7316 17.0989 40.7013 16.8569" fill="white"/>
<path d="M39.1004 30.1932C38.8055 28.9003 38.2838 27.7435 37.5428 26.7303C37.316 26.4203 37.0665 26.1179 36.7943 25.8381C35.2594 24.2504 33.2331 23.3809 31.1841 23.3809C30.4658 23.3809 29.7476 23.5094 29.0595 23.7135C25.8083 24.6586 23.5023 27.4562 22.9654 31.0173C22.8898 31.5844 22.8369 32.1212 22.8369 32.6581C22.8369 35.4253 24.0164 38.0414 26.0125 39.7275C26.3376 39.9997 26.6778 40.2416 27.0181 40.4609C27.9632 41.0506 28.9612 41.4211 30.0273 41.5496C30.36 41.6026 30.6927 41.6026 31.0783 41.6026C31.6907 41.6026 32.2804 41.5496 32.8475 41.3984C35.9248 40.6272 38.2233 38.2229 39.1004 34.8885C39.3045 34.0946 39.4104 33.3007 39.4104 32.5295C39.4104 31.7583 39.3045 30.9947 39.1004 30.2008M31.7361 28.2047C32.7568 28.4845 33.596 29.2708 34.1026 30.2083C35.1838 32.2195 34.7226 34.7675 32.9382 36.2117C32.4922 36.5746 31.9478 36.8392 31.3656 36.877C29.5434 36.998 28.0993 35.2892 27.7212 33.6712C27.6078 33.1798 27.5549 32.6505 27.57 32.1061C27.6305 29.9361 29.3015 27.5393 31.7285 28.2047" fill="#ECC058"/>
<path d="M31.0778 41.5952C31.6902 41.5952 32.28 41.5422 32.847 41.391C35.9243 40.6198 38.2228 38.2154 39.0999 34.8811C39.304 34.0872 39.4099 33.2933 39.4099 32.5221C39.4099 31.7509 39.304 30.9872 39.0999 30.1933C38.805 28.9004 38.2833 27.7436 37.5423 26.7305C37.7465 27.29 37.9279 27.8646 38.0867 28.4392C38.9713 31.7433 38.2228 35.7733 35.758 38.2457C34.3819 39.6218 32.537 40.461 30.609 40.6803C29.6941 40.7861 28.7717 40.7408 27.8644 40.5971C27.5922 40.5518 27.3049 40.5064 27.0176 40.4459C27.9627 41.0356 28.9607 41.4061 30.0268 41.5347C30.3595 41.5876 30.6922 41.5876 31.0778 41.5876" fill="#E79149"/>
<path d="M74.2733 31.4248C74.1675 29.9504 73.7516 28.597 73.0409 27.3873C72.9199 27.1756 72.7914 26.9714 72.6477 26.7749C71.3624 24.9754 69.4949 23.811 67.4685 23.5086C66.7578 23.4027 66.032 23.4178 65.3137 23.5161C61.9567 23.9698 59.2574 26.3817 58.1913 29.8219C58.0326 30.3663 57.8965 30.8955 57.8209 31.4248C57.405 34.1618 58.1838 36.9215 59.9077 38.8874C60.0816 39.0915 60.2706 39.273 60.452 39.4544C61.382 40.3391 62.4254 40.9591 63.6049 41.2917C63.9225 41.39 64.2552 41.443 64.6332 41.4959C65.2381 41.5866 65.8278 41.6244 66.41 41.5564C69.5629 41.2539 72.2016 39.2201 73.5626 36.0596C73.8802 35.3035 74.107 34.5323 74.2204 33.7762C74.3338 33.0201 74.3489 32.2414 74.2658 31.4248M62.5918 31.5911C62.9698 29.459 64.981 27.3344 67.2871 28.3626C68.2549 28.7936 68.9732 29.6934 69.3285 30.6914C70.0997 32.8387 69.2605 35.2884 67.2871 36.4528C66.7881 36.7476 66.2134 36.9215 65.6388 36.8762C63.8242 36.7174 62.6523 34.8196 62.5162 33.1638C62.4784 32.6572 62.501 32.128 62.5993 31.5911" fill="#DF7299"/>
<path d="M64.6406 41.4934C65.2455 41.5841 65.8353 41.6219 66.4174 41.5538C69.5703 41.2514 72.2091 39.2175 73.57 36.0571C73.8876 35.301 74.1144 34.5298 74.2278 33.7737C74.3412 33.0176 74.3564 32.2388 74.2732 31.4223C74.1673 29.9479 73.7515 28.5945 73.0408 27.3848C73.1769 28.0123 73.2827 28.6474 73.3508 29.2825C73.6305 31.7852 73.313 34.0308 72.0427 36.2461C70.5532 38.8395 67.9145 40.3743 64.6104 40.2761C63.5141 40.2458 62.4707 40.1097 61.4273 39.777C61.1173 39.6787 60.7846 39.5729 60.4595 39.4444C61.3895 40.329 62.4329 40.949 63.6124 41.2817C63.9299 41.3799 64.2626 41.4329 64.6406 41.4858" fill="#CE4E8C"/>
<path d="M56.4376 31.0844C56.3393 30.2754 56.1427 29.4891 55.8629 28.733C55.1144 26.7521 53.7156 25.0433 51.6213 24.0679C49.0959 22.8809 46.4723 23.1909 44.7106 23.6445C42.6843 24.1662 40.8395 25.1265 39.229 25.9733L41.3839 30.0788C41.7468 29.8747 42.1097 29.6706 42.4726 29.4967L42.586 37.2012L41.2856 39.1443L40.4765 40.3541C40.3631 40.528 40.4085 40.7548 40.5824 40.8606C41.7468 41.5865 43.5085 42.3653 45.7238 42.4787C46.1245 42.5165 46.5253 42.524 46.9184 42.5014C49.3606 42.3879 51.5835 41.5184 53.2922 39.976C55.7268 37.7834 56.8005 34.3054 56.4149 31.0844M43.0094 29.2245C43.9697 28.7557 44.9375 28.3398 45.9128 28.0828C47.3569 27.6972 48.6877 27.7425 49.6706 28.2037C51.8708 29.2471 52.4152 32.5059 51.6062 34.5624C51.3113 35.3034 50.8501 35.9688 50.2754 36.5056C49.8067 36.9441 49.2547 37.2995 48.6574 37.5565C47.856 37.8968 47.2965 37.9497 47.2965 37.9648C47.2965 37.98 47.1679 29.1715 47.1679 29.1715L45.9884 29.1867L43.0246 29.2245H43.0094Z" fill="#DF7299"/>
<path d="M40.6041 40.8584C41.7685 41.5842 43.5301 42.363 45.7455 42.484C46.1462 42.5142 46.5469 42.5293 46.9401 42.5066C49.3823 42.3932 51.6052 41.5237 53.3139 39.9813C55.7485 37.7886 56.8222 34.3106 56.4366 31.0897C56.3383 30.2807 56.1417 29.4944 55.8619 28.7383C55.9678 30.3563 55.9224 31.9743 55.5671 33.547C55.1134 35.5658 54.0851 37.4408 52.452 38.7791C51.0154 39.9586 49.1328 40.8659 47.2879 40.8735C45.0574 40.8735 43.2428 40.4576 41.209 39.2706L40.4831 40.3518C40.3697 40.5257 40.4151 40.7525 40.589 40.8584" fill="#CE4E8C"/>
<path d="M47.2797 37.9652L47.1511 29.1719L45.9716 29.187C45.9641 29.2626 45.9565 29.3382 45.9641 29.4138C46.0321 31.8333 46.0094 34.2452 46.0699 36.6647C46.0699 36.6647 46.0699 36.6647 46.0699 36.6798C46.0699 36.6949 46.0699 36.7101 46.0699 36.7328C46.0699 36.831 46.0699 36.9369 46.0699 37.0352C46.085 37.5115 46.6672 38.0181 47.2797 37.9652Z" fill="#CE4E8C"/>
<path d="M21.3544 30.1001C21.1729 29.3062 20.8931 28.5425 20.5302 27.8243C19.5775 25.934 18.0049 24.3841 15.8198 23.6355C13.181 22.7207 10.6103 23.3104 8.90159 23.9455C6.94332 24.6789 5.21188 25.8282 3.69971 26.8413L6.27797 30.6898C6.61821 30.4479 6.95845 30.2059 7.29868 29.9942L8.23623 37.6458L7.14747 39.7175L6.46699 41.0029C6.37626 41.1843 6.44431 41.4112 6.63333 41.4943C7.87331 42.0916 9.70304 42.6814 11.9184 42.5604C12.3191 42.5528 12.7198 42.515 13.113 42.4546C15.5325 42.0841 17.642 40.9802 19.1844 39.2639C21.3695 36.8217 22.0726 33.253 21.3468 30.0925M7.7977 29.6767C8.70501 29.1096 9.61987 28.5879 10.5574 28.2325C11.9562 27.6957 13.2869 27.5974 14.3076 27.9528C16.6061 28.7542 17.4983 31.9374 16.9086 34.0695C16.6969 34.8408 16.3037 35.5439 15.7895 36.1412C15.3661 36.6251 14.8596 37.041 14.2925 37.3585C13.5364 37.7819 12.9845 37.8953 12.9845 37.9105C12.9845 37.9256 11.9184 29.1777 11.9184 29.1777L10.7464 29.3213L7.7977 29.6767Z" fill="#ECC058"/>
<path d="M6.64816 41.5057C7.88815 42.1031 9.71788 42.6928 11.9332 42.5718C12.3339 42.5643 12.7347 42.5265 13.1278 42.466C15.5473 42.0955 17.6568 40.9916 19.1992 39.2753C21.3843 36.8331 22.0875 33.2644 21.3616 30.1039C21.1802 29.3101 20.9004 28.5464 20.5375 27.8281C20.8172 29.4235 20.9458 31.0415 20.7568 32.6444C20.5224 34.701 19.6982 36.6743 18.2163 38.179C16.9158 39.5021 15.139 40.606 13.3017 40.8101C11.0864 41.0521 9.23398 40.8253 7.08669 39.8575L6.48182 41.0143C6.38353 41.1958 6.45914 41.4226 6.6406 41.5057" fill="#E79149"/>
<path d="M12.9841 37.9125L11.918 29.1797L10.7461 29.3233C10.7461 29.399 10.7461 29.4746 10.7612 29.5502C11.0863 31.947 11.3207 34.3513 11.6307 36.7481C11.6307 36.7481 11.6307 36.7557 11.6307 36.7632C11.6307 36.7784 11.6307 36.8011 11.6307 36.8162C11.6458 36.9145 11.6534 37.0128 11.6685 37.1186C11.729 37.5874 12.3717 38.0335 12.969 37.9201" fill="#E79149"/>
<path d="M29.1648 8.26451C29.3084 9.37596 30.0192 14.8425 30.6996 17.6627C30.7299 17.7761 30.6543 17.8895 30.5409 17.9198L28.4162 18.4793C28.3028 18.5095 28.1894 18.4415 28.1592 18.328C27.9021 17.2998 27.6828 16.2488 27.4863 15.1978C27.4636 15.0844 27.3502 15.0088 27.2368 15.0315C26.1555 15.2659 25.0743 15.5305 24.0007 15.8254C23.8948 15.8556 23.8268 15.9615 23.8419 16.0673L24.3183 18.9858C24.3409 19.0992 24.2578 19.2127 24.1444 19.2353L21.9819 19.6285C21.8685 19.6512 21.7551 19.5756 21.74 19.4622L20.1825 9.8901C20.1598 9.77669 20.2429 9.66328 20.3564 9.64059L22.5188 9.25499C22.6322 9.23231 22.7456 9.30792 22.7607 9.42889L23.358 13.111C23.3807 13.232 23.5017 13.3076 23.6227 13.2774C24.6887 12.9825 25.7624 12.7254 26.836 12.491C26.9494 12.4684 27.0175 12.3625 27.0024 12.2491C26.8209 11.0242 26.6772 9.79181 26.5714 8.55939C26.5638 8.44598 26.647 8.34012 26.768 8.325L28.9379 8.09818C29.0514 8.09062 29.1497 8.16622 29.1648 8.27964" fill="black"/>
<path d="M28.5362 25.93C28.3698 25.6427 28.0145 25.552 27.6893 25.7032C26.9257 26.0586 26.2225 26.7163 25.5496 27.7219C25.0506 28.4629 24.6499 29.3022 24.3777 30.1414C24.3323 30.2926 24.3474 30.4514 24.4306 30.6026C24.5138 30.7539 24.6574 30.8748 24.8162 30.9126C24.8691 30.9278 24.9221 30.9353 24.975 30.9353C25.2472 30.9353 25.4891 30.7539 25.5799 30.4817C25.6328 30.3153 25.6933 30.1414 25.7613 29.9751C25.7764 29.9448 25.7916 29.907 25.7991 29.8768L25.8294 29.8163C25.8672 29.7331 25.905 29.6424 25.9503 29.5517C26.1394 29.1434 26.3586 28.7578 26.593 28.41C27.1298 27.601 27.6742 27.0868 28.3093 26.792C28.4379 26.7315 28.5362 26.6105 28.5891 26.4593C28.642 26.2854 28.6269 26.0812 28.5362 25.9376" fill="white"/>
<path d="M9.55314 25.6186C9.43216 25.2935 9.09948 25.112 8.77437 25.2103C7.73853 25.5203 6.78586 26.0571 5.93904 26.8056C5.82562 26.9039 5.76514 27.0627 5.76514 27.229C5.76514 27.4105 5.84075 27.592 5.96928 27.6903C6.09782 27.7961 6.24147 27.849 6.38513 27.849C6.54391 27.849 6.70269 27.7885 6.84634 27.66L6.88415 27.6222C6.88415 27.6222 6.94463 27.5693 6.97488 27.5466C6.97488 27.5466 6.98244 27.539 6.99 27.5315L7.03536 27.4937C7.12609 27.4181 7.22439 27.35 7.32268 27.282C7.5117 27.1459 7.71584 27.0173 7.92755 26.9039C8.0334 26.8434 8.13169 26.7905 8.2451 26.7376L8.30559 26.7073C8.30559 26.7073 8.31315 26.7073 8.32071 26.7073L8.36608 26.6847C8.40388 26.6695 8.44169 26.6544 8.47949 26.6317C8.6912 26.541 8.91802 26.4654 9.15241 26.3973C9.31119 26.352 9.44728 26.231 9.52289 26.0722C9.5985 25.921 9.61362 25.7547 9.5607 25.611" fill="white"/>
<path d="M44.9744 25.3038C44.861 24.9787 44.5586 24.8199 44.1957 24.8955C43.3035 25.0694 42.4113 25.4324 41.6325 25.9465C41.4889 26.0372 41.3906 26.196 41.3528 26.3699C41.3225 26.5287 41.3528 26.6875 41.4359 26.816C41.5645 27.005 41.7686 27.1033 41.9728 27.1033C42.0862 27.1033 42.1996 27.0731 42.2979 27.005C42.4869 26.8841 42.6759 26.7706 42.8574 26.6799L42.8876 26.6648C42.9557 26.627 43.0313 26.5892 43.1069 26.5589C43.1296 26.5514 43.1598 26.5363 43.1901 26.5211C43.2354 26.4984 43.2808 26.4833 43.3262 26.4606C43.7118 26.3019 44.1276 26.1809 44.551 26.0977C44.6947 26.0675 44.8232 25.9692 44.9064 25.818C44.9971 25.6592 45.0198 25.4626 44.9669 25.3114" fill="white"/>
<path d="M59.6197 21.6803L58.6444 20.9166L58.3797 19.6388C58.3797 19.6388 58.3344 19.3591 58.1151 19.2683C57.8958 19.1776 57.669 19.3515 57.6539 19.3591L56.6332 20.1L55.4159 19.9715C55.4159 19.9715 55.0454 19.9413 54.932 20.153C54.8337 20.3495 54.9017 20.5688 54.9017 20.5764L55.2571 21.8012L54.7505 22.9807C54.7505 22.9807 54.6069 23.3134 54.7656 23.4873C54.9093 23.6536 55.1664 23.6763 55.189 23.6763L56.4063 23.6914L57.3061 24.5383C57.3061 24.5383 57.4649 24.6668 57.6463 24.6895C57.6766 24.6895 57.7068 24.6895 57.7371 24.6895C57.9714 24.6744 58.0773 24.3644 58.0849 24.3341L58.5083 23.1168L59.5819 22.4741C59.5819 22.4741 59.7936 22.3607 59.8465 22.1415C59.907 21.9071 59.6424 21.6954 59.6197 21.6727" fill="#EEDE9D"/>
<path d="M23.8873 42.1418L24.0461 41.1589C24.0688 41.0682 24.0688 40.8867 23.9402 40.7657C23.789 40.6145 23.5697 40.675 23.5471 40.675L22.6246 40.8943L21.7929 40.4406C21.7929 40.4406 21.5056 40.2894 21.3468 40.433C21.2107 40.554 21.1956 40.743 21.1956 40.7657L21.1125 41.7411L20.432 42.4215C20.432 42.4215 20.2127 42.6333 20.2883 42.845C20.3488 43.0189 20.5378 43.1247 20.553 43.1323L21.4149 43.5103L21.8232 44.3798C21.8232 44.3798 21.9366 44.5688 22.0954 44.6369H22.1105C22.3146 44.7049 22.4885 44.4932 22.5112 44.4705L23.1463 43.7371L24.0839 43.6086C24.0839 43.6086 24.288 43.5859 24.4014 43.4347C24.53 43.2608 24.3863 43.0037 24.3712 42.9735L23.8873 42.1418Z" fill="#EEDE9D"/>
<path d="M35.2662 8.38714C35.2813 7.97886 34.9562 7.63105 34.5479 7.61593L32.7258 7.56301C32.3175 7.54789 31.9697 7.873 31.9546 8.28129L31.9243 9.25664L35.2435 9.3625L35.2738 8.38714H35.2662Z" fill="black"/>
<path d="M31.8192 16.2255L32.9685 17.2689L32.9533 17.6924C32.9533 17.8663 33.0819 18.0099 33.2558 18.0175H33.3541C33.528 18.025 33.6716 17.8889 33.6716 17.715L33.6868 17.2916L34.8965 16.3238C34.9721 16.2634 35.0175 16.1726 35.0175 16.0819L35.1989 10.3734L31.8797 10.2676L31.6982 15.976C31.6982 16.0743 31.736 16.1651 31.8041 16.2255" fill="black"/>
<path d="M32.0979 20.1142L21.611 21.6793C21.0515 21.755 20.6659 21.755 20.061 21.7096L19.9098 21.6945C19.7662 21.6793 19.6149 21.6567 19.4713 21.634C19.131 21.5811 18.6698 21.4147 18.3296 21.2408C18.9345 22.3901 20.2198 23.0781 21.5656 22.874L32.0223 21.2937L33.6933 21.0367C33.5799 20.8628 33.5496 20.8098 33.474 20.7267C33.0279 20.2352 32.8465 20.0235 32.0904 20.1142" fill="#B6AED6"/>
<path d="M39.0383 10.717C39.1442 11.6092 39.2425 12.5089 39.3332 13.4011C39.4013 14.1043 39.5222 14.8074 39.5903 15.5182C39.6281 15.9189 39.6508 16.3196 39.6356 16.7279C39.6356 16.8186 39.6281 16.9169 39.6205 17.0077C39.6054 17.2118 39.5676 17.4537 39.4693 17.7184C39.4315 17.8394 39.3861 17.9452 39.3408 18.0359C39.303 18.1115 39.2576 18.1796 39.2198 18.2476C39.1518 18.3459 39.061 18.4745 38.9325 18.5954C38.804 18.724 38.6754 18.8147 38.5696 18.8828C38.4637 18.9508 38.3579 19.0113 38.252 19.0642C37.9496 19.223 37.6774 19.4045 37.8815 19.964C38.2444 20.9469 38.4562 21.8466 38.8342 22.822C38.8569 22.89 38.8871 22.9505 38.9174 23.011C39.2954 23.0488 39.5449 22.7161 39.4769 22.3003L38.993 20.0623C38.993 20.0623 39.303 19.8883 39.3332 19.8657C39.4391 19.7901 39.5449 19.7144 39.6508 19.6237C39.8474 19.4498 40.0288 19.2608 40.18 19.0415C40.4825 18.603 40.6791 18.0889 40.732 17.5596C40.7547 17.3176 40.7395 17.0833 40.7169 16.8413L39.6281 6.66438C39.4315 4.89513 38.1537 3.59466 36.5811 3.66271C36.755 3.73832 36.8532 3.7988 36.9818 3.87441C36.9818 3.87441 38.2066 4.54733 38.562 6.73242L39.061 10.6943L39.0383 10.717Z" fill="#B6AED6"/>
<path d="M65.6387 36.8803C66.2133 36.9332 66.7955 36.7518 67.287 36.4569C69.2604 35.2925 70.0996 32.8428 69.3284 30.6955C68.973 29.6975 68.2548 28.7977 67.287 28.3668C64.9809 27.3385 62.9697 29.4631 62.5917 31.5953C62.4934 32.1321 62.4707 32.6613 62.5085 33.1679C62.6446 34.8238 63.8165 36.7291 65.6311 36.8803" fill="black"/>
<path d="M63.8241 31.2445L59.7714 27.6304C59.7714 27.6304 59.7714 27.6304 59.7714 27.6228C59.6958 27.4489 59.2724 26.5794 58.8339 26.4357C58.7205 26.3979 58.6146 26.4055 58.5239 26.4584C58.4483 26.4811 58.3575 26.5492 58.3122 26.6626C58.2971 26.6928 58.2895 26.723 58.2895 26.7533C58.1988 26.6928 58.0929 26.6474 57.9946 26.6399C57.8661 26.6248 57.7451 26.6626 57.6544 26.7457C57.5637 26.8289 57.5107 26.9423 57.5183 27.0709C57.5183 27.1011 57.5183 27.1389 57.5334 27.1691C57.5107 27.1691 57.488 27.1691 57.4654 27.1691C57.3595 27.1691 57.2763 27.2221 57.2158 27.2901C57.0798 27.4565 57.1176 27.653 57.2234 27.8269C57.1327 27.8421 57.0495 27.8799 56.9815 27.963C56.8983 28.0613 56.8756 28.1823 56.9059 28.3108C56.9815 28.6662 57.4578 29.0896 58.2214 29.4676L62.6899 33.9512C62.6899 33.9512 62.7277 33.9815 62.7504 33.989C62.7731 33.989 62.7882 33.9966 62.8109 33.989C62.8563 33.9815 62.8941 33.9512 62.9168 33.9134L63.8619 31.4184C63.8845 31.3579 63.877 31.2974 63.8241 31.252" fill="black"/>
<path d="M69.4706 32.9281C70.4006 32.9433 71.0659 32.8828 71.8598 32.7542C73.0242 32.5652 74.7859 32.1494 75.9049 31.1589C75.9276 31.1362 75.9427 31.1135 75.9502 31.0833C75.9502 31.0455 76.5173 26.8946 74.1054 23.7568C72.1547 21.2163 68.6918 19.8025 65.5087 20.3998C63.505 20.7778 61.9399 21.9724 61.0704 23.8551C59.9363 26.3199 61.1234 29.5182 63.0816 31.0682C63.9511 31.7562 64.866 32.0964 65.9472 32.4291C66.4991 32.603 67.7921 32.8979 69.4706 32.9281Z" fill="black"/>
<path d="M68.5873 23.8564C67.6346 23.5691 66.629 23.4254 65.6612 23.5388C65.3815 23.5691 65.1093 23.6296 64.8447 23.7127C64.3759 23.864 63.9449 24.1059 63.582 24.4386C63.2871 24.7108 63.0452 25.0283 62.8486 25.3761C61.155 28.3627 64.0054 30.389 64.0357 30.4117C64.0583 30.4268 66.2359 31.9843 69.4417 31.9012C71.7553 31.8407 73.3129 29.459 72.6777 27.2815C72.2543 25.8373 70.9614 24.8091 69.6383 24.242C69.3056 24.0983 68.9502 23.9698 68.5949 23.864" fill="#E1A8AA"/>
<path d="M58.7273 26.7417C58.7273 26.7417 58.6668 26.7417 58.6441 26.7568C58.6214 26.7719 58.6214 26.8022 58.6214 26.8324C58.6214 26.8702 58.629 26.908 58.6441 26.9383C58.6668 26.9988 58.6895 27.0592 58.7197 27.1197C58.7424 27.1651 58.7651 27.2029 58.7953 27.2483C58.8483 27.3239 58.818 27.4222 58.7424 27.4751C58.6668 27.528 58.5912 27.4902 58.5383 27.4222C58.387 27.2483 58.1224 26.9685 57.9561 26.9534C57.9258 26.9534 57.9031 26.9534 57.8805 26.9761C57.8578 26.9988 57.8502 27.0214 57.8502 27.0441C57.8502 27.1575 57.9939 27.3239 58.13 27.46C58.2131 27.528 58.2812 27.5885 58.3039 27.6112C58.3644 27.6717 58.3719 27.77 58.3114 27.838C58.2509 27.9061 58.1602 27.9061 58.0846 27.8456C57.9561 27.7473 57.8351 27.6339 57.7066 27.5356C57.6612 27.5053 57.6234 27.4675 57.5705 27.4524C57.5402 27.4448 57.5024 27.4448 57.4797 27.4675C57.4268 27.5129 57.4722 27.5885 57.5024 27.6339C57.6083 27.7926 57.7444 27.9136 57.888 28.0346L57.9107 28.0573C57.9788 28.1178 57.9863 28.2161 57.9334 28.2841C57.8729 28.3522 57.7746 28.3673 57.699 28.3068C57.5931 28.2236 57.4419 28.1329 57.3436 28.1102C57.2907 28.0951 57.2454 28.1178 57.2378 28.1783C57.2378 28.2161 57.2378 28.2539 57.2605 28.2917C57.2983 28.3522 57.3361 28.4051 57.3814 28.458C57.4873 28.5865 57.6234 28.6848 57.7595 28.7831C57.8351 28.836 57.9107 28.8814 57.9863 28.9268C58.0317 28.9495 58.0695 28.9797 58.1149 29.0024C58.13 29.0024 58.2509 29.0856 58.2509 29.078L59.4304 27.6414C59.249 27.2709 58.9465 26.7946 58.7424 26.7266" fill="#E1A8AA"/>
<g opacity="0.25">
<mask id="mask0_99_2751" style="mask-type:luminance" maskUnits="userSpaceOnUse" x="69" y="28" width="4" height="4">
<path d="M72.1858 28.8613H69.1992V31.3867H72.1858V28.8613Z" fill="white"/>
</mask>
<g mask="url(#mask0_99_2751)">
<mask id="mask1_99_2751" style="mask-type:luminance" maskUnits="userSpaceOnUse" x="69" y="28" width="4" height="4">
<path d="M72.1329 29.6783C72.3522 30.336 71.8834 31.0619 71.0895 31.3038C70.2956 31.5458 69.4715 31.2207 69.2522 30.5629C69.033 29.9126 69.5017 29.1792 70.2956 28.9373C71.0895 28.6953 71.9136 29.0205 72.1329 29.6783Z" fill="white"/>
</mask>
<g mask="url(#mask1_99_2751)">
<path d="M68.1719 28.9683L72.043 27.7812L73.215 31.2895L69.3438 32.4841L68.1719 28.9683Z" fill="url(#paint0_radial_99_2751)"/>
</g>
</g>
</g>
<g opacity="0.25">
<mask id="mask2_99_2751" style="mask-type:luminance" maskUnits="userSpaceOnUse" x="62" y="26" width="4" height="4">
<path d="M65.1165 26.3848H62.4551V29.2503H65.1165V26.3848Z" fill="white"/>
</mask>
<g mask="url(#mask2_99_2751)">
<mask id="mask3_99_2751" style="mask-type:luminance" maskUnits="userSpaceOnUse" x="62" y="26" width="4" height="4">
<path d="M63.0223 26.5191C62.4174 26.8517 62.2662 27.7061 62.6896 28.4168C63.1055 29.1351 63.9372 29.4451 64.5421 29.1049C65.1469 28.7722 65.2981 27.9178 64.8747 27.2071C64.4589 26.4888 63.6272 26.1788 63.0223 26.5191Z" fill="white"/>
</mask>
<g mask="url(#mask3_99_2751)">
<path d="M66.7427 28.6472L64.5576 24.9121L60.8301 26.9762L63.0076 30.7037L66.7427 28.6472Z" fill="url(#paint1_radial_99_2751)"/>
</g>
</g>
</g>
<path d="M64.8065 24.6111C64.7612 24.596 64.7309 24.5658 64.7158 24.5204C64.6931 24.4524 64.7385 24.3768 64.8141 24.3616C64.8519 24.3541 65.8424 24.1121 66.6438 24.6489C66.7043 24.6868 66.7195 24.7699 66.6816 24.8304C66.6438 24.8909 66.5607 24.906 66.4926 24.8682C65.7895 24.3994 64.8897 24.6111 64.8822 24.6187C64.8595 24.6187 64.8292 24.6187 64.8065 24.6187" fill="black"/>
<path d="M71.271 26.5437C71.271 26.5437 71.2332 26.5286 71.2181 26.5059C71.2181 26.5059 70.5603 25.8405 69.7211 25.8632C69.6454 25.8632 69.585 25.8103 69.585 25.7347C69.585 25.6591 69.6379 25.5986 69.7135 25.5986C70.6813 25.5683 71.392 26.2942 71.4223 26.3244C71.4752 26.3773 71.4752 26.4605 71.4223 26.5134C71.3844 26.5512 71.3315 26.5588 71.2862 26.5437" fill="black"/>
<path d="M68.9121 29.4358L65.419 28.279C65.3509 28.2563 65.2829 28.2866 65.2526 28.3471C65.2375 28.3849 64.8065 29.3527 65.1921 30.1768C65.3887 30.6002 65.7592 30.9026 66.296 31.0765C66.3112 31.0765 66.3263 31.0841 66.3338 31.0917C67.0899 31.326 67.6343 31.2429 68.0199 31.0161L68.088 30.9707C68.6626 30.6002 68.8819 29.9348 68.9801 29.6249L68.9953 29.587C69.0179 29.519 68.9801 29.4434 68.9121 29.4207M66.417 30.8497C65.9558 30.7061 65.6382 30.4565 65.4643 30.1239C65.7895 30.0483 66.8631 29.897 67.7704 30.8648C67.4453 31.0085 67.0068 31.0387 66.417 30.8573M68.0048 30.7212C66.9765 29.587 65.6987 29.7912 65.366 29.8668C65.2904 29.5946 65.298 29.3149 65.3358 29.0729L68.5038 30.1163C68.3904 30.3356 68.2316 30.5473 68.0048 30.7136M68.7004 29.64C68.6777 29.7156 68.6475 29.7988 68.6097 29.8819L65.3812 28.8158C65.4038 28.7175 65.4341 28.6268 65.4568 28.5663L68.7004 29.64Z" fill="black"/>
<path d="M68.6098 29.882C68.6476 29.7913 68.6703 29.7157 68.7006 29.64L65.457 28.5664C65.4343 28.6269 65.4116 28.7176 65.3813 28.8159L68.6098 29.882Z" fill="white"/>
<path d="M68.0044 30.7169C68.2313 30.5581 68.39 30.3388 68.5035 30.1196L65.3355 29.0762C65.2977 29.3181 65.2901 29.5979 65.3657 29.8701C65.7059 29.7869 66.9762 29.5903 68.0044 30.7244" fill="#D2605E"/>
<path d="M65.4639 30.1192C65.6378 30.4594 65.9553 30.7014 66.4165 30.8526C67.0063 31.034 67.4448 31.0038 67.7699 30.8601C66.8626 29.8923 65.789 30.0436 65.4639 30.1192Z" fill="#E27480"/>
<path d="M68.013 28.7844C67.9525 28.7693 67.9147 28.7088 67.9222 28.6483C67.9298 28.5424 67.8996 28.4215 67.8542 28.3307C67.6576 27.8998 67.0074 27.8015 66.6898 28.1417C66.6671 28.1644 66.6445 28.1946 66.6218 28.2249C66.584 28.2854 66.5008 28.3081 66.4403 28.2703C66.3798 28.2324 66.3571 28.1493 66.3949 28.0888C66.5008 27.9149 66.6747 27.7864 66.8637 27.7183C67.393 27.5368 68.0659 27.862 68.1642 28.4366C68.1793 28.5198 68.1869 28.5954 68.1793 28.6785C68.1793 28.7541 68.1113 28.8071 68.0357 28.7995C68.0281 28.7995 68.013 28.7995 68.0054 28.7995" fill="black"/>
<path d="M65.9331 25.3957C65.5324 25.2143 65.1317 25.1462 64.7839 25.2218C64.4361 25.2899 64.1715 25.4865 64.0354 25.7738C63.8993 26.0611 63.9219 26.3862 64.0958 26.6962C64.2697 27.0062 64.5722 27.2708 64.9805 27.4523C65.0636 27.4901 65.1544 27.5279 65.2375 27.5506C65.9634 27.7925 66.6363 27.6111 66.8858 27.0742C67.1656 26.4769 66.7648 25.7738 65.9407 25.3957M64.3302 26.5752C64.2017 26.3408 64.179 26.0989 64.2773 25.8872C64.3756 25.6755 64.5722 25.5318 64.8368 25.4789C65.0636 25.4335 65.3283 25.4562 65.5929 25.5469C65.6685 25.5696 65.7441 25.5999 65.8197 25.6377C65.8424 25.6452 65.8651 25.6604 65.8878 25.6755C65.7214 25.7662 65.4719 25.9628 65.351 26.3635C65.23 26.7642 65.3283 27.1272 65.4114 27.3313C65.3056 27.3011 65.1997 27.2708 65.0939 27.2179C64.7461 27.0591 64.4815 26.8323 64.3378 26.5752M65.7214 27.3691C65.7214 27.3691 65.4568 26.9155 65.608 26.4391C65.6458 26.303 65.7063 26.1745 65.797 26.0686C65.8953 25.9552 66.0163 25.8796 66.16 25.8343C66.6061 26.1518 66.8102 26.5903 66.6363 26.9684C66.4926 27.2784 66.1524 27.422 65.729 27.3842C65.729 27.3842 65.729 27.3767 65.729 27.3691" fill="black"/>
<path d="M65.3421 26.3624C65.4631 25.9617 65.7126 25.7651 65.8789 25.6743C65.8563 25.6668 65.8336 25.6517 65.8109 25.6365C65.7353 25.5987 65.6597 25.5761 65.5841 25.5458C65.3119 25.4551 65.0548 25.4324 64.828 25.4778C64.5633 25.5307 64.3668 25.6743 64.2685 25.886C64.1702 26.0978 64.1929 26.3397 64.3214 26.5741C64.4651 26.8312 64.7297 27.058 65.0775 27.2168C65.1833 27.2697 65.2967 27.2999 65.395 27.3302C65.3119 27.126 65.2136 26.7555 65.3346 26.3624" fill="white"/>
<path d="M66.6287 26.9759C66.8026 26.6054 66.606 26.1669 66.1523 25.8418C66.0087 25.8872 65.8801 25.9552 65.7894 26.0762C65.6987 26.182 65.6457 26.3181 65.6004 26.4467C65.4492 26.923 65.7138 27.3691 65.7138 27.3767V27.3918C66.1296 27.422 66.4774 27.2859 66.6211 26.9759" fill="#2D5DAB"/>
<path d="M71.0368 27.2884C70.7948 27.0238 70.4395 26.8348 70.0085 26.7441C69.1239 26.555 68.3829 26.8877 68.2468 27.5379C68.1258 28.1126 68.5568 28.657 69.2826 28.8989C69.3658 28.9291 69.4565 28.9518 69.5473 28.967C69.9782 29.0577 70.379 29.0274 70.7041 28.8838C71.0292 28.7401 71.2409 28.4906 71.3014 28.1806C71.3619 27.8706 71.2712 27.5531 71.0292 27.2884M69.6078 28.7099C68.8743 28.5587 68.4131 28.0823 68.5114 27.5909C68.6097 27.0994 69.2222 26.8499 69.9556 27.0011C70.0387 27.0162 70.1143 27.0389 70.1899 27.0616C70.0236 27.1599 69.7892 27.364 69.6607 27.7572C69.5397 28.1428 69.6229 28.5057 69.6985 28.7174C69.6682 28.7174 69.638 28.7174 69.6002 28.7023M69.9178 27.8479C70.069 27.3716 70.3563 27.2658 70.3941 27.2506C70.4243 27.2355 70.447 27.2279 70.4924 27.2128C70.6285 27.2884 70.7419 27.3716 70.8326 27.4775C71.0141 27.674 71.0897 27.9084 71.0443 28.1353C70.999 28.3621 70.8402 28.5435 70.5907 28.657C70.4243 28.7326 70.2202 28.7628 69.9934 28.7628C69.9329 28.6418 69.7817 28.2638 69.9102 27.8555" fill="black"/>
<path d="M69.6614 27.7675C69.7824 27.3744 70.0244 27.1702 70.1907 27.0719C70.1151 27.0492 70.0395 27.0266 69.9563 27.0114C69.2229 26.8602 68.618 27.1022 68.5122 27.6012C68.4139 28.0926 68.8751 28.5614 69.6085 28.7202C69.6387 28.7202 69.6766 28.7278 69.7068 28.7353C69.6236 28.5236 69.5405 28.1607 69.669 27.7751" fill="white"/>
<path d="M70.8397 27.4582C70.749 27.36 70.628 27.2692 70.4994 27.2012C70.4465 27.2239 70.4314 27.2314 70.4012 27.239C70.3633 27.2541 70.076 27.36 69.9248 27.8363C69.7963 28.2446 69.9475 28.6226 70.008 28.7436C70.2273 28.7436 70.4314 28.7133 70.6053 28.6377C70.8472 28.5319 71.006 28.3429 71.059 28.116C71.1043 27.8892 71.0287 27.6548 70.8472 27.4582" fill="#2D5DAB"/>
<defs>
<radialGradient id="paint0_radial_99_2751" cx="0" cy="0" r="1" gradientUnits="userSpaceOnUse" gradientTransform="translate(109.305 17.8186) rotate(-17.09) scale(1.50461 1.24754)">
<stop stop-color="#C63B61"/>
<stop offset="0.25" stop-color="#C53B64"/>
<stop offset="0.47" stop-color="#C53C6F"/>
<stop offset="0.54" stop-color="#C53D74"/>
<stop offset="0.82" stop-color="#CB585D"/>
<stop offset="1" stop-color="#CE6454"/>
</radialGradient>
<radialGradient id="paint1_radial_99_2751" cx="0" cy="0" r="1" gradientUnits="userSpaceOnUse" gradientTransform="translate(105.247 82.4083) rotate(-120.34) scale(1.50461 1.24754)">
<stop stop-color="#C63B61"/>
<stop offset="0.25" stop-color="#C53B64"/>
<stop offset="0.47" stop-color="#C53C6F"/>
<stop offset="0.54" stop-color="#C53D74"/>
<stop offset="0.82" stop-color="#CB585D"/>
<stop offset="1" stop-color="#CE6454"/>
</radialGradient>
</defs>
</svg>
