<svg width="116" height="81" viewBox="0 0 116 81" fill="none" xmlns="http://www.w3.org/2000/svg">
<path d="M23.0277 25.4317C22.7974 25.1796 22.4685 25.1686 22.1615 25.2782C22.1396 25.2782 22.1286 25.2892 22.1176 25.2892C22.1505 25.2892 22.1615 25.2673 22.0738 25.2892C21.997 25.3111 21.9093 25.344 21.8326 25.366C21.6791 25.4098 21.5256 25.4317 21.3721 25.4317C21.2953 25.4317 21.2295 25.4317 21.1637 25.4317C19.9467 25.3221 18.7625 24.116 18.6748 24.0283C18.2033 23.4472 17.1946 23.9625 17.4249 24.6862C17.4797 24.8945 17.9292 26.89 16.8109 27.8768H16.8218C16.7341 27.9535 16.6574 28.0193 16.5697 28.0961C16.5368 28.118 16.5039 28.1399 16.4819 28.1728C16.4929 28.1728 16.4819 28.1728 16.4162 28.2167C16.142 28.3921 15.9666 28.6662 16.0324 29.0061C16.0982 29.3131 16.3833 29.5763 16.7012 29.5763C16.9205 29.5763 17.074 29.5324 17.2056 29.5215C17.2604 29.5215 17.3152 29.5215 17.3701 29.5215C17.995 29.5215 19.3656 29.675 20.5497 30.8372C20.7581 31.1003 21.1418 31.199 21.4488 31.0455C21.4707 31.0455 21.4817 31.0236 21.5036 31.0236C21.7887 30.881 21.9422 30.5411 21.8764 30.2341C21.8764 30.2341 21.6681 29.2145 22.008 28.0303C22.0628 27.8658 22.2602 27.3176 22.633 26.8242C22.6659 26.7804 22.7097 26.7365 22.7426 26.6926C22.7536 26.6707 22.7755 26.6597 22.7865 26.6378C22.8084 26.6159 22.8303 26.594 22.8523 26.572C22.918 26.4953 23.0058 26.4185 23.0825 26.3089C23.2689 26.0457 23.2141 25.662 23.0058 25.4317" fill="#43499E"/>
<path d="M115.326 48.5352C115.008 44.5881 113.649 40.9917 111.072 37.9656C109 35.5315 105.952 33.6894 102.816 33.0535C102.772 33.0535 102.717 33.0425 102.662 33.0316C97.5968 27.1547 89.242 23.8215 81.8081 21.815C81.8081 21.7273 81.7862 21.6396 81.7752 21.5409C81.4463 18.438 81.1064 15.335 80.7774 12.2212C80.6568 11.1028 80.5362 9.97345 80.4156 8.85508C80.3937 8.69062 80.3827 8.51519 80.3608 8.33976C80.1525 6.49774 79.6591 4.82019 78.5078 3.32903C76.5013 0.730465 73.4532 -0.311153 70.2407 0.36864C69.7582 0.467319 69.2758 0.587928 68.8043 0.697572C63.0809 2.0133 57.3575 3.32903 51.645 4.64475C49.3535 5.17105 47.0619 5.69734 44.7594 6.23459C44.2112 6.36617 43.641 6.46484 43.1038 6.62931C41.6126 7.07885 40.0886 7.86829 39.0579 9.06341C37.8628 10.4559 37.2598 12.0019 37.0843 13.822C36.9637 15.0829 37.2598 16.3328 37.5339 17.5499C37.7641 18.6024 37.9944 19.6441 38.2246 20.6966C34.8476 21.4422 31.5912 22.5167 28.6417 24.1066L25.0893 18.3283L33.0714 14.5237C33.3126 14.3921 33.488 14.1838 33.5757 13.9206L35.023 9.4033C35.2094 8.80026 34.8366 8.17529 34.2226 8.05468L29.3435 7.12271C29.0584 7.06789 28.7623 7.13367 28.5321 7.3091L21.3943 12.3089L20.0785 10.1598C19.8702 9.85284 19.6729 9.88574 19.3987 9.92959L17.5677 10.4449C17.3045 10.5655 17.1839 10.8835 17.3155 11.1466L18.9054 14.0522L15.923 16.1464C15.4625 16.4753 15.3529 17.1113 15.6709 17.5827L17.9843 20.7405C18.2913 21.19 18.8834 21.3326 19.3549 21.0804L22.0521 19.7976L28.554 31.661C27.2712 32.3408 25.9884 33.0645 24.7274 33.832C24.1463 33.5908 23.5543 33.3715 22.9402 33.207C18.1049 31.8365 13.1052 32.8781 8.65364 34.9394C6.43883 35.97 4.38849 37.3077 2.36008 38.6673C0.803131 39.7089 -0.0959498 41.9347 1.05531 43.6451C2.37104 45.5968 3.6758 47.5594 4.99153 49.5111C5.37528 50.0812 5.93447 50.5746 6.58137 50.9145C6.82259 52.8771 7.0638 54.8398 7.30502 56.8024C7.33791 57.0546 7.3708 57.3068 7.39273 57.5589C6.87741 58.5457 6.35112 59.5435 5.83579 60.5303C5.66036 60.8702 5.463 61.2101 5.29853 61.5609C4.65163 62.8986 4.55295 64.324 5.26564 65.6616C5.68229 66.4401 6.38401 67.076 7.18441 67.4488C9.14704 68.3369 11.0987 68.94 13.2258 69.2251C14.7718 69.4334 16.3506 69.4663 17.9186 69.3347C19.9799 70.9245 22.3372 72.306 24.8919 73.5231C25.1222 74.2248 25.5498 74.8717 26.2076 75.3651C27.3918 76.2861 28.6088 76.2642 29.8588 75.9791C30.0013 76.3629 30.1329 76.7576 30.2754 77.1413C30.7908 78.5338 31.5912 79.5535 33.0604 80.014C34.0691 80.332 35.3081 80.1346 36.1962 79.5754C36.9089 79.1259 37.4023 78.5229 37.7093 77.8211C47.3689 80.014 57.511 80.3429 64.5392 79.1369C67.6421 78.6106 66.754 76.5602 65.4273 76.3519C58.2675 75.2335 55.0659 74.1481 53.9256 73.3806C53.6515 73.1942 53.7063 72.7994 54.0243 72.8652C67.7298 75.6721 82.8936 74.9156 94.6803 67.098C97.7394 67.9422 101.204 67.8216 104.154 66.6703C107.552 65.3327 110.294 63.1288 112.355 60.1027C114.646 56.7695 115.776 52.5482 115.392 48.5243M39.0798 24.6219C39.2553 25.4223 39.4307 26.2227 39.6061 27.0231C37.4352 27.67 35.3081 28.4375 33.2797 29.3475C32.9069 29.512 32.5341 29.6874 32.1613 29.8629L30.1877 26.6503C33.1262 25.7841 36.1194 25.1262 39.0798 24.6219Z" fill="#43499E"/>
<path d="M31.3603 66.3314L31.5577 61.8141C31.5686 61.4742 32.0401 61.3974 32.1607 61.7154L33.7286 65.9805C33.8054 66.1998 34.0576 66.3095 34.2659 66.2108L37.6319 64.7306C37.917 64.61 38.1802 64.917 38.0157 65.1801L36.1408 68.1295C36.0311 68.305 36.064 68.5243 36.2285 68.6558L38.542 70.5856C38.7613 70.761 38.6407 71.1228 38.3666 71.1338L35.0005 71.3202C34.7922 71.3312 34.6277 71.4956 34.6167 71.7039L34.3865 76.2542C34.3646 76.5941 33.8931 76.6599 33.7834 76.3419L32.2046 71.8903C32.1278 71.693 31.9085 71.5724 31.7112 71.6382L28.6521 72.5701C28.389 72.6578 28.1587 72.3618 28.2903 72.1206L29.7266 69.5878C29.8143 69.4234 29.7814 69.215 29.6499 69.0944L27.1609 66.8358C26.9417 66.6384 27.1061 66.2656 27.4022 66.2985L30.9108 66.7151C31.141 66.7371 31.3493 66.5616 31.3603 66.3314Z" fill="#EEDE9D"/>
<path d="M58.0813 46.9341C57.6317 44.9605 56.8423 43.2062 55.702 41.6602C55.3511 41.1887 54.9783 40.7282 54.5617 40.3006C52.2153 37.8775 49.1343 36.5508 46.0095 36.5508C44.913 36.5508 43.8275 36.7481 42.764 37.0551C37.8081 38.5024 34.2885 42.7566 33.4771 48.184C33.3565 49.0392 33.2798 49.8616 33.2798 50.6839C33.2798 54.9052 35.0779 58.8853 38.1151 61.4619C38.6194 61.8785 39.1348 62.2513 39.6501 62.5803C41.0864 63.4793 42.6105 64.0385 44.2442 64.2359C44.7485 64.3126 45.2529 64.3126 45.845 64.3126C46.7879 64.3126 47.676 64.2359 48.5422 64.0056C53.224 62.8324 56.7436 59.1594 58.0703 54.0938C58.3773 52.8877 58.5418 51.6707 58.5418 50.4975C58.5418 49.3243 58.3883 48.1511 58.0703 46.945M46.8647 43.8969C48.4216 44.3245 49.7045 45.5197 50.472 46.945C52.1166 50.0041 51.4149 53.8965 48.7067 56.0893C48.0269 56.6485 47.1936 57.0432 46.3165 57.109C43.5425 57.2845 41.3386 54.6969 40.7575 52.2189C40.5821 51.4624 40.5053 50.662 40.5273 49.8287C40.615 46.5284 43.1587 42.8663 46.8647 43.886" fill="#ECC058"/>
<path d="M45.8665 64.2997C46.7985 64.2997 47.6976 64.2229 48.5638 63.9927C53.2456 62.8195 56.7651 59.1574 58.0918 54.0809C58.4098 52.8748 58.5633 51.6577 58.5633 50.4845C58.5633 49.3114 58.4098 48.1382 58.0918 46.9321C57.6423 44.9585 56.8529 43.2042 55.7235 41.6582C56.0415 42.5134 56.3156 43.3906 56.5459 44.2677C57.8945 49.3004 56.7542 55.4514 53.0044 59.2122C50.9102 61.3064 48.0923 62.5892 45.1648 62.9182C43.7723 63.0826 42.3689 63.0059 40.9764 62.7976C40.5598 62.7318 40.1212 62.666 39.6826 62.5673C41.119 63.4664 42.643 64.0256 44.2767 64.2229C44.7811 64.2997 45.2964 64.2997 45.8775 64.2997" fill="#E79149"/>
<path d="M111.685 48.8087C111.521 46.561 110.885 44.4997 109.799 42.6576C109.613 42.3397 109.416 42.0217 109.196 41.7257C107.245 38.9846 104.394 37.2083 101.302 36.7478C100.227 36.5834 99.109 36.6163 98.0235 36.7698C92.9031 37.4605 88.7915 41.1445 87.1797 46.3855C86.9385 47.2188 86.7302 48.0192 86.6096 48.8306C85.9846 52.9971 87.1578 57.2074 89.7892 60.2116C90.0634 60.5186 90.3375 60.8037 90.6225 61.0669C92.0369 62.4155 93.6377 63.3584 95.4359 63.8628C95.9293 64.0163 96.4337 64.093 97.0038 64.1807C97.9248 64.3233 98.8239 64.3781 99.712 64.2794C104.514 63.8189 108.538 60.716 110.611 55.9026C111.104 54.7514 111.433 53.5782 111.608 52.4159C111.784 51.2537 111.806 50.0805 111.674 48.8306M93.8899 49.0499C94.471 45.7935 97.5301 42.559 101.05 44.1269C102.53 44.7847 103.615 46.1553 104.164 47.6793C105.337 50.9467 104.054 54.6856 101.05 56.4618C100.293 56.9114 99.405 57.1855 98.5279 57.1087C95.7648 56.8675 93.9776 53.9729 93.7693 51.4511C93.7035 50.6836 93.7474 49.8722 93.9009 49.0608" fill="#DF7299"/>
<path d="M97.0045 64.1594C97.9256 64.3019 98.8246 64.3567 99.7128 64.2581C104.515 63.7976 108.539 60.6946 110.611 55.8813C111.105 54.73 111.434 53.5568 111.609 52.3946C111.785 51.2324 111.806 50.0592 111.675 48.8092C111.51 46.5615 110.875 44.5002 109.789 42.6582C109.997 43.6121 110.151 44.5879 110.261 45.5528C110.688 49.3684 110.206 52.7893 108.276 56.1554C106.006 60.1026 101.982 62.4489 96.9497 62.3064C95.2831 62.2516 93.6933 62.0433 92.0925 61.5499C91.621 61.3964 91.1167 61.2319 90.6123 61.0455C92.0267 62.3941 93.6275 63.3371 95.4257 63.8414C95.9191 63.9949 96.4234 64.0717 96.9936 64.1594" fill="#CE4E8C"/>
<path d="M84.5047 48.2844C84.3512 47.0564 84.0661 45.8503 83.6276 44.699C82.4873 41.6729 80.3492 39.0743 77.1695 37.5941C73.321 35.785 69.33 36.2564 66.6437 36.9472C63.5627 37.7366 60.7449 39.2059 58.2998 40.4997L61.5891 46.7494C62.1483 46.4424 62.6965 46.1354 63.2557 45.8613L63.4311 57.6041L61.4466 60.5645L60.2186 62.4065C60.0431 62.6697 60.1199 63.0096 60.383 63.174C62.1593 64.2814 64.8455 65.4656 68.2226 65.641C68.8366 65.6959 69.4396 65.7068 70.0536 65.6739C73.7706 65.4985 77.1586 64.1718 79.7681 61.8254C83.4741 58.4813 85.1187 53.1855 84.5266 48.2734M64.0451 45.4556C65.5144 44.7429 66.9836 44.107 68.4638 43.7122C70.6676 43.1202 72.6961 43.1969 74.1872 43.8986C77.5423 45.4885 78.3756 50.4553 77.1366 53.5912C76.6871 54.7205 75.9854 55.7292 75.1082 56.5515C74.3955 57.2204 73.5513 57.7686 72.6412 58.1524C71.4242 58.6677 70.569 58.7554 70.569 58.7773C70.569 58.7992 70.3716 45.3788 70.3716 45.3788L68.5734 45.4008L64.0561 45.4665L64.0451 45.4556Z" fill="#DF7299"/>
<path d="M60.3725 63.1859C62.1487 64.2934 64.835 65.4775 68.212 65.6529C68.826 65.7078 69.4291 65.7187 70.0321 65.6968C73.749 65.5214 77.137 64.1947 79.7466 61.8483C83.4525 58.5042 85.0972 53.2083 84.5051 48.2963C84.3516 47.0683 84.0665 45.8622 83.628 44.7109C83.7924 47.1779 83.7266 49.6449 83.1784 52.0461C82.4877 55.1162 80.9198 57.9779 78.4418 60.0172C76.2489 61.8154 73.3872 63.1969 70.5694 63.2079C67.1704 63.2079 64.3964 62.5719 61.3044 60.7628L60.197 62.4184C60.0216 62.6816 60.0984 63.0215 60.3615 63.1859" fill="#CE4E8C"/>
<path d="M70.5574 58.7657L70.3601 45.3672L68.5619 45.3891C68.5509 45.4988 68.54 45.6194 68.5509 45.74C68.6606 49.424 68.6167 53.108 68.7044 56.7921C68.7044 56.7921 68.7044 56.8031 68.7044 56.814C68.7044 56.8359 68.7044 56.8688 68.7044 56.8908C68.7044 57.0443 68.7044 57.1978 68.7044 57.3513C68.7264 58.0749 69.6145 58.8534 70.5464 58.7766" fill="#CE4E8C"/>
<path d="M31.0529 46.781C30.7788 45.5749 30.3512 44.4017 29.803 43.3162C28.3447 40.4326 25.9545 38.0752 22.6213 36.9349C18.5973 35.5425 14.683 36.4306 12.0845 37.4064C9.10217 38.5248 6.45975 40.2791 4.15723 41.8251L8.09345 47.691C8.60877 47.3182 9.1241 46.9564 9.65039 46.6275L11.0758 58.2826L9.42014 61.4404L8.38948 63.403C8.24695 63.6771 8.35659 64.017 8.64167 64.1486C10.5275 65.0586 13.3235 65.9577 16.7005 65.7713C17.3145 65.7603 17.9175 65.7055 18.5206 65.6178C22.2046 65.0477 25.4282 63.3701 27.7745 60.7606C31.1077 57.0436 32.1713 51.6053 31.0639 46.781M10.396 46.145C11.7775 45.2789 13.17 44.4894 14.6063 43.9412C16.7334 43.1189 18.7618 42.9763 20.3188 43.5136C23.8164 44.7306 25.176 49.5879 24.2769 52.8333C23.948 54.0065 23.3559 55.081 22.5665 55.9911C21.9196 56.7366 21.152 57.3616 20.2859 57.844C19.1346 58.4909 18.2903 58.6554 18.2903 58.6773C18.2903 58.6993 16.6676 45.3775 16.6676 45.3775L14.8804 45.5968L10.396 46.145Z" fill="#ECC058"/>
<path d="M8.63087 64.1585C10.5167 65.0686 13.3127 65.9677 16.6897 65.7813C17.3037 65.7703 17.9067 65.7155 18.5098 65.6278C22.1938 65.0576 25.4174 63.3801 27.7528 60.7705C31.086 57.0536 32.1605 51.6153 31.0421 46.7909C30.768 45.5848 30.3404 44.4116 29.7922 43.3262C30.2198 45.7603 30.4062 48.2273 30.1321 50.6614C29.7702 53.7972 28.5203 56.8014 26.2616 59.093C24.2771 61.1104 21.5798 62.7989 18.7729 63.1059C15.3959 63.4787 12.5671 63.1279 9.29969 61.6586L8.37868 63.4129C8.23615 63.6871 8.34579 64.027 8.63087 64.1585Z" fill="#E79149"/>
<path d="M18.2913 58.6885L16.6685 45.3887L14.8813 45.608C14.8813 45.7286 14.8813 45.8382 14.9033 45.9588C15.3967 49.61 15.7585 53.2721 16.23 56.9232C16.23 56.9232 16.23 56.9342 16.23 56.9451C16.23 56.9671 16.23 57 16.23 57.0219C16.2519 57.1754 16.2629 57.3289 16.2848 57.4714C16.3835 58.1841 17.3483 58.8639 18.2693 58.6885" fill="#E79149"/>
<path d="M41.9844 40.4311C41.7323 39.9925 41.195 39.85 40.6906 40.0912C39.5175 40.6394 38.4539 41.6372 37.4342 43.1612C36.6777 44.2906 36.0637 45.5624 35.658 46.8562C35.5812 47.0865 35.6141 47.3277 35.7347 47.558C35.8663 47.7882 36.0746 47.9636 36.3158 48.0294C36.4036 48.0514 36.4803 48.0623 36.5571 48.0623C36.9627 48.0623 37.3465 47.7882 37.4781 47.3716C37.5548 47.1194 37.6535 46.8562 37.7522 46.6041C37.7741 46.5492 37.796 46.5054 37.818 46.4506L37.8618 46.3519C37.9167 46.2203 37.9824 46.0887 38.0373 45.9572C38.3333 45.3432 38.6622 44.7511 39.0131 44.2138C39.8245 42.9858 40.6578 42.1964 41.6226 41.7468C41.82 41.6591 41.9735 41.4727 42.0502 41.2315C42.1379 40.9684 42.1051 40.6614 41.9735 40.4311" fill="white"/>
<path d="M13.0614 39.9623C12.875 39.4579 12.3707 39.1948 11.8663 39.3483C10.2874 39.8197 8.84015 40.6311 7.54635 41.7714C7.38188 41.9249 7.2832 42.1552 7.2832 42.4183C7.2832 42.7034 7.40381 42.9665 7.59021 43.131C7.7766 43.2955 7.99589 43.3722 8.22614 43.3722C8.46736 43.3722 8.70857 43.2735 8.92786 43.0871L8.98268 43.0323C8.98268 43.0323 9.0704 42.9446 9.12522 42.9117C9.12522 42.9117 9.14715 42.9007 9.14715 42.8898L9.2239 42.8349C9.36644 42.7253 9.50898 42.6157 9.65151 42.517C9.94755 42.3087 10.2546 42.1113 10.5725 41.9359C10.726 41.8482 10.8905 41.7604 11.055 41.6837L11.1427 41.6398C11.1427 41.6398 11.1536 41.6398 11.1646 41.6398L11.2414 41.6069C11.2962 41.585 11.362 41.5521 11.4168 41.5302C11.7347 41.3986 12.0856 41.278 12.4365 41.1684C12.6777 41.1026 12.886 40.9162 13.0066 40.675C13.1272 40.4447 13.1382 40.1925 13.0614 39.9623Z" fill="white"/>
<path d="M67.0386 39.4655C66.8632 38.9721 66.4027 38.7309 65.8544 38.8405C64.4949 39.1147 63.1353 39.6629 61.9402 40.4413C61.7209 40.5839 61.5674 40.8141 61.5125 41.0882C61.4687 41.3295 61.5125 41.5707 61.6441 41.768C61.8415 42.0531 62.1485 42.2066 62.4555 42.2066C62.6309 42.2066 62.7954 42.1628 62.9489 42.0641C63.2339 41.8777 63.519 41.7132 63.8041 41.5597L63.8589 41.5378C63.9686 41.483 64.0782 41.4281 64.1879 41.3733C64.2207 41.3624 64.2646 41.3404 64.3194 41.3185C64.3962 41.2856 64.462 41.2527 64.5278 41.2308C65.1198 40.9896 65.7448 40.8032 66.3917 40.6826C66.611 40.6387 66.8083 40.4852 66.9399 40.2659C67.0825 40.0137 67.1153 39.7177 67.0276 39.4874" fill="white"/>
<path d="M78.3765 23.8469L76.71 8.34328C76.4139 5.64603 74.4623 3.67244 72.072 3.77112C71.7979 3.77112 71.5238 3.81498 71.2387 3.88076L44.7926 9.97697C41.3827 10.6568 40.2643 13.0141 40.8454 15.7114L43.8497 29.3291C43.9483 29.7567 44.0909 30.1624 44.2882 30.5352C45.2092 32.2895 47.1719 33.3421 49.2222 33.0241L65.1535 30.612L67.6972 30.2172L75.46 33.1996C75.5258 33.2215 75.5806 33.2325 75.6464 33.2325C76.2166 33.2873 76.6113 32.7829 76.4907 32.147L75.7561 28.7371C75.7561 28.7371 76.2275 28.4739 76.2714 28.441C76.4359 28.3314 76.6003 28.2108 76.7538 28.0792C77.0608 27.816 77.324 27.52 77.5542 27.1911C78.0147 26.5222 78.3108 25.7438 78.3875 24.9324C78.4204 24.5596 78.4094 24.2088 78.3656 23.836" fill="white"/>
<path d="M60.7892 10.7618C61.0085 12.4503 62.094 20.7942 63.1247 25.0813C63.1685 25.2567 63.0589 25.4322 62.8834 25.476L59.6489 26.3313C59.4735 26.3751 59.2981 26.2764 59.2542 26.101C58.8705 24.5331 58.5306 22.9323 58.2236 21.3315C58.1907 21.1561 58.0153 21.0464 57.8398 21.0793C56.1842 21.4411 54.5395 21.8359 52.9058 22.2854C52.7414 22.3292 52.6427 22.4937 52.6646 22.6582L53.3883 27.0988C53.4212 27.2742 53.3006 27.4387 53.1251 27.4716L49.8248 28.0636C49.6494 28.0965 49.485 27.9759 49.4521 27.8005L47.0728 13.2069C47.0399 13.0314 47.1605 12.867 47.3469 12.8341L50.6472 12.242C50.8226 12.2091 50.9871 12.3297 51.02 12.5052L51.93 18.1189C51.9629 18.3053 52.1493 18.415 52.3247 18.3711C53.9475 17.9216 55.5812 17.5268 57.2258 17.176C57.3903 17.1431 57.5109 16.9786 57.478 16.8142C57.2039 14.9392 56.9846 13.0643 56.8201 11.2004C56.8092 11.025 56.9407 10.8605 57.1162 10.8386L60.4274 10.4987C60.6029 10.4767 60.7564 10.5973 60.7783 10.7728" fill="black"/>
<path d="M70.098 10.9491C70.1199 10.3241 69.6265 9.79785 69.0015 9.77592L66.2166 9.6882C65.5916 9.66627 65.0653 10.1597 65.0434 10.7846L64.9995 12.2758L70.0541 12.4293L70.098 10.9381V10.9491Z" fill="black"/>
<path d="M64.8459 22.8898L66.6002 24.4797L66.5783 25.1266C66.5783 25.3897 66.7756 25.609 67.0388 25.62H67.1923C67.4554 25.6309 67.6747 25.4226 67.6857 25.1595L67.7076 24.5126L69.5606 23.0433C69.6702 22.9556 69.747 22.8131 69.747 22.6705L70.0211 13.9758L64.9665 13.8223L64.6924 22.517C64.6924 22.6596 64.7472 22.8021 64.8569 22.9008" fill="black"/>
<path d="M65.2622 28.8105L49.2871 31.2008C48.4319 31.3214 47.8508 31.3104 46.9188 31.2446L46.6885 31.2227C46.4692 31.1898 46.25 31.1569 46.0197 31.124C45.5044 31.0473 44.7917 30.7951 44.2764 30.5319C45.1974 32.2862 47.16 33.3388 49.2103 33.0208L65.1416 30.6087L67.6854 30.214C67.5209 29.9398 67.4661 29.8741 67.3564 29.7425C66.6766 28.9859 66.3916 28.668 65.2513 28.8105" fill="#B6AED6"/>
<path d="M75.854 14.4931C76.0185 15.8527 76.172 17.2232 76.3035 18.5828C76.4132 19.6573 76.5886 20.7318 76.6873 21.8063C76.7421 22.4203 76.786 23.0343 76.7641 23.6484C76.7641 23.7909 76.7531 23.9334 76.7421 24.076C76.7202 24.383 76.6544 24.7558 76.5119 25.1614C76.4461 25.3369 76.3803 25.5013 76.3145 25.6439C76.2597 25.7535 76.1939 25.8632 76.1281 25.9618C76.0294 26.1153 75.8869 26.3017 75.6895 26.4991C75.4922 26.6965 75.2948 26.839 75.1304 26.9377C74.9769 27.0364 74.8124 27.135 74.6479 27.2118C74.1874 27.453 73.7708 27.7271 74.0887 28.5823C74.6479 30.0845 74.9659 31.444 75.536 32.9462C75.5689 33.0448 75.6128 33.1435 75.6567 33.2422C76.2268 33.297 76.6215 32.7927 76.5009 32.1567L75.7663 28.7468C75.7663 28.7468 76.2378 28.4837 76.2816 28.4508C76.4461 28.3411 76.6105 28.2205 76.7641 28.0889C77.0711 27.8258 77.3342 27.5298 77.5645 27.2008C78.025 26.532 78.321 25.7535 78.3978 24.9422C78.4306 24.5803 78.4197 24.2185 78.3758 23.8567L76.7092 8.35302C76.4132 5.66674 74.4615 3.68219 72.0713 3.78087C72.3344 3.89051 72.4879 3.98919 72.6853 4.1098C72.6853 4.1098 74.5492 5.14045 75.0975 8.47363L75.854 14.515V14.4931Z" fill="#B6AED6"/>
<path d="M98.518 57.1094C99.3951 57.1861 100.272 56.912 101.04 56.4625C104.044 54.6863 105.327 50.9584 104.154 47.68C103.605 46.156 102.52 44.7854 101.04 44.1275C97.5312 42.5706 94.4611 45.8051 93.88 49.0506C93.7375 49.8729 93.6936 50.6733 93.7594 51.4408C93.9677 53.9626 95.7549 56.8682 98.518 57.0984" fill="black"/>
<path d="M95.7658 48.5257L89.5928 43.0106C89.5928 43.0106 89.5928 43.0106 89.5928 42.9996C89.4722 42.7365 88.8363 41.4098 88.1565 41.1905C87.992 41.1357 87.8275 41.1467 87.685 41.2234C87.5754 41.2673 87.4328 41.355 87.367 41.5304C87.3451 41.5743 87.3341 41.6181 87.3232 41.662C87.1806 41.5743 87.0271 41.4975 86.8736 41.4866C86.6763 41.4646 86.5009 41.5194 86.3474 41.651C86.2048 41.7826 86.1281 41.958 86.139 42.1444C86.139 42.1883 86.139 42.2431 86.1609 42.287C86.1281 42.287 86.0952 42.287 86.0623 42.287C85.9088 42.287 85.7772 42.3637 85.6785 42.4734C85.4702 42.7365 85.536 43.0216 85.6895 43.2847C85.5579 43.3066 85.4263 43.3615 85.3277 43.4821C85.2071 43.6246 85.1632 43.811 85.2071 44.0193C85.3277 44.5566 86.0513 45.2035 87.2135 45.7846L94.0224 52.6154C94.0224 52.6154 94.0772 52.6593 94.1211 52.6702C94.154 52.6702 94.1869 52.6812 94.2198 52.6702C94.2856 52.6702 94.3514 52.6154 94.3733 52.5496L95.8096 48.756C95.8535 48.6682 95.8315 48.5696 95.7548 48.5038" fill="black"/>
<path d="M104.372 51.1012C105.787 51.1341 106.806 51.0354 108.012 50.8381C109.789 50.553 112.475 49.9061 114.174 48.4149C114.207 48.382 114.229 48.3491 114.24 48.3053C114.251 48.2395 115.106 41.924 111.433 37.1326C108.462 33.2731 103.188 31.1021 98.3419 32.0231C95.2938 32.5933 92.9035 34.4134 91.5878 37.2861C89.8664 41.0468 91.6755 45.915 94.6469 48.2724C95.9736 49.325 97.366 49.8403 99.0107 50.3447C99.855 50.6078 101.818 51.0573 104.383 51.1012" fill="black"/>
<path d="M103.024 37.2754C101.577 36.8368 100.031 36.6176 98.5619 36.793C98.1453 36.8478 97.7177 36.9246 97.3229 37.0561C96.6103 37.2864 95.9524 37.6592 95.4042 38.1635C94.9546 38.5692 94.5819 39.0626 94.2748 39.5889C91.6872 44.1391 96.0292 47.2311 96.084 47.264C96.1169 47.2859 99.4391 49.6652 104.329 49.5336C107.849 49.4349 110.228 45.8167 109.252 42.4945C108.605 40.2906 106.643 38.7227 104.614 37.8565C104.099 37.6372 103.573 37.4399 103.024 37.2754Z" fill="#E1A8AA"/>
<path d="M87.9918 41.6645C87.9918 41.6645 87.8931 41.6645 87.8602 41.6864C87.8273 41.7193 87.8273 41.7522 87.8273 41.7961C87.8273 41.8509 87.8492 41.9057 87.8602 41.9605C87.8931 42.0592 87.9369 42.1469 87.9808 42.2347C88.0137 42.3004 88.0575 42.3662 88.0904 42.432C88.1672 42.5526 88.1343 42.7061 88.0137 42.7829C87.8931 42.8596 87.7834 42.8048 87.6957 42.6952C87.4655 42.432 87.0598 42.0044 86.8076 41.9825C86.7637 41.9825 86.7309 41.9825 86.687 42.0154C86.6431 42.0483 86.6431 42.0812 86.6431 42.114C86.6431 42.2895 86.8624 42.5417 87.0707 42.75C87.2023 42.8596 87.301 42.9473 87.3449 42.9912C87.4435 43.0899 87.4545 43.2434 87.3558 43.3421C87.2681 43.4407 87.1256 43.4407 87.0159 43.353C86.8186 43.1995 86.6431 43.0351 86.4348 42.8816C86.369 42.8377 86.3032 42.7829 86.2265 42.75C86.1826 42.739 86.1168 42.739 86.0839 42.7719C85.9962 42.8487 86.062 42.9583 86.1168 43.0241C86.2703 43.2653 86.4896 43.4517 86.7089 43.6381L86.7418 43.671C86.8515 43.7587 86.8624 43.9232 86.7747 44.0219C86.687 44.1315 86.5335 44.1425 86.4129 44.0547C86.2484 43.9341 86.0182 43.7916 85.8647 43.7587C85.7879 43.7368 85.7112 43.7697 85.7002 43.8574C85.7002 43.9122 85.7002 43.978 85.7331 44.0219C85.7879 44.1096 85.8537 44.1973 85.9195 44.274C86.084 44.4604 86.2813 44.6249 86.4896 44.7674C86.5993 44.8442 86.7199 44.9209 86.8295 44.9867C86.8953 45.0306 86.9611 45.0635 87.0269 45.1073C87.0488 45.1073 87.2352 45.2279 87.2352 45.217L89.0334 43.0351C88.7593 42.4759 88.2878 41.7413 87.9808 41.6426" fill="#E1A8AA"/>
<g opacity="0.25">
<mask id="mask0_99_2636" style="mask-type:luminance" maskUnits="userSpaceOnUse" x="103" y="44" width="6" height="5">
<path d="M108.504 44.8926H103.954V48.7411H108.504V44.8926Z" fill="white"/>
</mask>
<g mask="url(#mask0_99_2636)">
<mask id="mask1_99_2636" style="mask-type:luminance" maskUnits="userSpaceOnUse" x="103" y="44" width="6" height="5">
<path d="M108.42 46.1447C108.749 47.1425 108.036 48.2499 106.83 48.6227C105.613 48.9954 104.363 48.4911 104.034 47.4933C103.705 46.4956 104.418 45.3882 105.624 45.0154C106.83 44.6426 108.091 45.1469 108.42 46.1447Z" fill="white"/>
</mask>
<g mask="url(#mask1_99_2636)">
<path d="M102.39 45.0455L108.288 43.2363L110.076 48.587L104.177 50.407L102.39 45.0455Z" fill="url(#paint0_radial_99_2636)"/>
</g>
</g>
</g>
<g opacity="0.25">
<mask id="mask2_99_2636" style="mask-type:luminance" maskUnits="userSpaceOnUse" x="93" y="41" width="5" height="5">
<path d="M97.7297 41.1309H93.6729V45.4947H97.7297V41.1309Z" fill="white"/>
</mask>
<g mask="url(#mask2_99_2636)">
<mask id="mask3_99_2636" style="mask-type:luminance" maskUnits="userSpaceOnUse" x="93" y="41" width="5" height="5">
<path d="M94.5505 41.3201C93.6295 41.8354 93.3992 43.1292 94.0351 44.2147C94.6711 45.3002 95.943 45.7826 96.864 45.2673C97.785 44.7629 98.0152 43.4582 97.3793 42.3727C96.7434 41.2763 95.4715 40.8048 94.5505 41.3201Z" fill="white"/>
</mask>
<g mask="url(#mask3_99_2636)">
<path d="M100.207 44.5682L96.8849 38.8887L91.1943 42.0355L94.5165 47.715L100.207 44.5682Z" fill="url(#paint1_radial_99_2636)"/>
</g>
</g>
</g>
<path d="M97.2568 38.4286C97.191 38.4067 97.1362 38.3519 97.1252 38.2861C97.0923 38.1764 97.1581 38.0668 97.2677 38.0449C97.3335 38.0339 98.8356 37.6721 100.053 38.4834C100.151 38.5492 100.173 38.6698 100.108 38.7685C100.042 38.8562 99.9211 38.8891 99.8224 38.8233C98.7479 38.1106 97.3774 38.4396 97.3664 38.4396C97.3226 38.4396 97.2897 38.4396 97.2568 38.4396" fill="black"/>
<path d="M107.103 41.3673C107.103 41.3673 107.037 41.3454 107.015 41.3125C107.015 41.3125 106.006 40.2928 104.723 40.3366C104.614 40.3366 104.515 40.2489 104.515 40.1393C104.515 40.0296 104.603 39.931 104.712 39.931C106.182 39.8871 107.267 40.9945 107.311 41.0384C107.388 41.1151 107.388 41.2467 107.311 41.3234C107.256 41.3783 107.179 41.3892 107.103 41.3673Z" fill="black"/>
<path d="M103.518 45.771L98.2004 44.0167C98.1017 43.9838 97.9921 44.0276 97.9482 44.1263C97.9153 44.1921 97.2794 45.6613 97.8605 46.9222C98.1565 47.5691 98.7267 48.0296 99.538 48.3037C99.56 48.3037 99.5819 48.3147 99.6038 48.3257C100.755 48.6875 101.577 48.5559 102.169 48.216L102.268 48.1502C103.134 47.591 103.474 46.5714 103.628 46.0999L103.65 46.0451C103.683 45.9354 103.628 45.8258 103.518 45.7929M99.7135 47.92C99.0117 47.7007 98.5293 47.3279 98.2662 46.8126C98.7596 46.692 100.393 46.4727 101.775 47.9419C101.281 48.1612 100.613 48.2051 99.7135 47.9309M102.137 47.7336C100.569 46.0122 98.628 46.3082 98.1127 46.4288C97.9921 46.0122 98.014 45.5955 98.0688 45.2227L102.893 46.8126C102.718 47.1415 102.476 47.4704 102.137 47.7226M103.189 46.0889C103.156 46.1986 103.101 46.3301 103.058 46.4617L98.1346 44.839C98.1785 44.6855 98.2113 44.5539 98.2442 44.4552L103.189 46.0889Z" fill="black"/>
<path d="M103.056 46.4635C103.111 46.3319 103.155 46.2004 103.188 46.0907L98.2429 44.457C98.21 44.5557 98.1662 44.6873 98.1333 44.8408L103.056 46.4635Z" fill="white"/>
<path d="M102.136 47.7362C102.475 47.495 102.717 47.1551 102.892 46.8262L98.0677 45.2363C98.0129 45.5982 98.0019 46.0258 98.1116 46.4424C98.6269 46.3218 100.568 46.0148 102.136 47.7362Z" fill="#D2605E"/>
<path d="M98.2651 46.8143C98.5283 47.3297 99.0217 47.7025 99.7124 47.9217C100.612 48.2068 101.28 48.152 101.774 47.9327C100.392 46.4635 98.7585 46.6937 98.2651 46.8034" fill="#E27480"/>
<path d="M102.136 44.7831C102.048 44.7502 101.982 44.6735 101.993 44.5748C102.004 44.4103 101.961 44.2349 101.895 44.0814C101.588 43.4235 100.601 43.27 100.119 43.7963C100.086 43.8292 100.042 43.8731 100.02 43.9169C99.965 44.0156 99.8335 44.0375 99.7348 43.9827C99.6361 43.9279 99.6032 43.7963 99.669 43.7086C99.8335 43.4455 100.097 43.2371 100.393 43.1384C101.204 42.8534 102.224 43.3577 102.377 44.2349C102.399 44.3555 102.41 44.4871 102.399 44.6077C102.399 44.7173 102.289 44.805 102.18 44.7941C102.158 44.7941 102.147 44.7941 102.136 44.7941" fill="black"/>
<path d="M98.9673 39.6314C98.3533 39.3464 97.7502 39.2587 97.213 39.3573C96.6757 39.467 96.281 39.763 96.0727 40.2016C95.8753 40.6402 95.9082 41.1336 96.1714 41.616C96.4345 42.0875 96.895 42.4822 97.509 42.7673C97.6406 42.8221 97.7722 42.8769 97.9037 42.9208C99.0111 43.2826 100.031 43.0085 100.404 42.1971C100.831 41.2871 100.228 40.2126 98.9673 39.6314ZM96.5332 41.4186C96.3358 41.0568 96.3029 40.695 96.4564 40.377C96.6099 40.0591 96.906 39.8398 97.3117 39.763C97.6516 39.6972 98.0572 39.7301 98.4629 39.8727C98.5726 39.9056 98.6932 39.9604 98.8028 40.0042C98.8357 40.0152 98.8686 40.0371 98.9015 40.0591C98.6493 40.2016 98.2765 40.4976 98.0792 41.1007C97.8928 41.7037 98.0463 42.2629 98.1669 42.5809C98.0024 42.537 97.8489 42.4822 97.6735 42.4054C97.1472 42.1642 96.7415 41.8134 96.5222 41.4296M98.6493 42.6247C98.6493 42.6247 98.2436 41.934 98.4739 41.2103C98.5397 41.013 98.6274 40.8046 98.759 40.6402C98.9015 40.4647 99.0988 40.3551 99.3181 40.2893C99.9979 40.7827 100.305 41.4515 100.042 42.0107C99.8225 42.4822 99.2962 42.7015 98.6603 42.6467V42.6247" fill="black"/>
<path d="M98.078 41.0886C98.2644 40.4855 98.6482 40.1785 98.9004 40.047C98.8675 40.036 98.8346 40.0141 98.8017 39.9921C98.6811 39.9373 98.5714 39.8935 98.4618 39.8606C98.0561 39.729 97.6504 39.6851 97.3105 39.7509C96.9048 39.8277 96.6088 40.047 96.4553 40.3649C96.3018 40.6829 96.3347 41.0557 96.532 41.4175C96.7513 41.8013 97.157 42.1521 97.6833 42.3933C97.8478 42.4701 98.0122 42.5249 98.1767 42.5688C98.0451 42.2508 97.8916 41.7026 98.089 41.0886" fill="white"/>
<path d="M100.03 42.0222C100.293 41.452 99.9859 40.7832 99.3061 40.3008C99.0868 40.3666 98.9004 40.4762 98.7469 40.6516C98.6153 40.8161 98.5276 41.0135 98.4618 41.2218C98.2316 41.9454 98.6373 42.6362 98.6373 42.6362V42.6581C99.2732 42.713 99.7995 42.4937 100.019 42.0222" fill="#2D5DAB"/>
<path d="M106.751 42.505C106.389 42.0993 105.841 41.8142 105.183 41.6826C103.835 41.3976 102.705 41.9019 102.508 42.8887C102.333 43.7659 102.979 44.5992 104.087 44.961C104.218 45.0048 104.35 45.0377 104.493 45.0706C105.15 45.2132 105.764 45.1693 106.258 44.9391C106.751 44.7198 107.08 44.336 107.168 43.8645C107.267 43.3931 107.113 42.9106 106.751 42.505ZM104.569 44.665C103.451 44.4347 102.749 43.711 102.903 42.9655C103.056 42.2089 103.977 41.8361 105.096 42.0664C105.216 42.0883 105.337 42.1322 105.446 42.1651C105.194 42.3186 104.832 42.6256 104.646 43.2176C104.46 43.8097 104.591 44.3579 104.712 44.6869C104.668 44.6869 104.613 44.6869 104.569 44.665ZM105.052 43.3492C105.282 42.6256 105.721 42.4611 105.775 42.4392C105.819 42.4172 105.852 42.4063 105.929 42.3734C106.137 42.483 106.313 42.6146 106.455 42.7681C106.729 43.0751 106.839 43.426 106.773 43.7768C106.696 44.1167 106.455 44.4018 106.082 44.5663C105.83 44.6869 105.512 44.7307 105.172 44.7307C105.085 44.5443 104.843 43.9632 105.041 43.3492" fill="black"/>
<path d="M104.657 43.2286C104.843 42.6365 105.205 42.3185 105.457 42.176C105.348 42.1431 105.227 42.0992 105.106 42.0773C103.988 41.8471 103.067 42.2198 102.914 42.9764C102.76 43.7329 103.462 44.4456 104.58 44.6759C104.635 44.6759 104.679 44.6868 104.723 44.6978C104.602 44.3689 104.471 43.8316 104.657 43.2286Z" fill="white"/>
<path d="M106.455 42.7658C106.313 42.6123 106.137 42.4807 105.929 42.3711C105.852 42.404 105.819 42.4149 105.775 42.4369C105.721 42.4588 105.271 42.6233 105.052 43.3469C104.854 43.9609 105.096 44.542 105.183 44.7284C105.523 44.7284 105.83 44.6846 106.082 44.564C106.455 44.3995 106.696 44.1144 106.773 43.7745C106.839 43.4346 106.729 43.0728 106.455 42.7658Z" fill="#2D5DAB"/>
<path d="M89.9543 34.2813C89.9104 33.9304 89.6363 33.7221 89.3074 33.6344C89.2854 33.6344 89.2745 33.6344 89.2635 33.6234C89.2964 33.6234 89.3183 33.6234 89.2197 33.6015C89.1319 33.5796 89.0442 33.5576 88.9675 33.5247C88.814 33.4699 88.6605 33.4041 88.5399 33.3054C88.4851 33.2616 88.4193 33.2177 88.3644 33.1848C87.3886 32.3625 87.0816 30.6082 87.0706 30.4986C87.0158 29.7201 85.8317 29.5556 85.6014 30.3122C85.5247 30.5205 84.7243 32.516 83.1673 32.6914H83.1783C83.0577 32.7134 82.948 32.7243 82.8274 32.7353C82.7836 32.7353 82.7397 32.7353 82.7068 32.7353C82.7178 32.7353 82.7068 32.7353 82.6301 32.7353C82.2902 32.7353 81.9722 32.8559 81.8297 33.1848C81.6981 33.4809 81.7858 33.8866 82.0599 34.073C82.2463 34.2045 82.4108 34.2484 82.5314 34.3361C82.5752 34.369 82.6301 34.3909 82.6739 34.4238C83.2112 34.7966 84.2966 35.7505 84.6146 37.45C84.6365 37.8008 84.9107 38.1188 85.2725 38.1627C85.2944 38.1627 85.3163 38.1627 85.3273 38.1627C85.6672 38.2065 85.9852 38.0092 86.1167 37.7131C86.1167 37.7131 86.5553 36.7154 87.5421 35.904C87.6846 35.7944 88.178 35.4435 88.803 35.2461C88.8578 35.2352 88.9236 35.2132 88.9784 35.2023C89.0004 35.2023 89.0223 35.1913 89.0442 35.1804C89.0771 35.1804 89.11 35.1694 89.1429 35.1584C89.2416 35.1365 89.3622 35.1146 89.4938 35.0707C89.8008 34.9501 89.9981 34.5883 89.9543 34.2703" fill="#EEDE9D"/>
<defs>
<radialGradient id="paint0_radial_99_2636" cx="0" cy="0" r="1" gradientUnits="userSpaceOnUse" gradientTransform="translate(152.791 37.4113) rotate(-17.09) scale(2.29156 1.89684)">
<stop stop-color="#C63B61"/>
<stop offset="0.25" stop-color="#C53B64"/>
<stop offset="0.47" stop-color="#C53C6F"/>
<stop offset="0.54" stop-color="#C53D74"/>
<stop offset="0.82" stop-color="#CB585D"/>
<stop offset="1" stop-color="#CE6454"/>
</radialGradient>
<radialGradient id="paint1_radial_99_2636" cx="0" cy="0" r="1" gradientUnits="userSpaceOnUse" gradientTransform="translate(147.695 144.569) rotate(-120.34) scale(2.29156 1.90781)">
<stop stop-color="#C63B61"/>
<stop offset="0.25" stop-color="#C53B64"/>
<stop offset="0.47" stop-color="#C53C6F"/>
<stop offset="0.54" stop-color="#C53D74"/>
<stop offset="0.82" stop-color="#CB585D"/>
<stop offset="1" stop-color="#CE6454"/>
</radialGradient>
</defs>
</svg>
