<svg width="23" height="20" viewBox="0 0 23 20" fill="none" xmlns="http://www.w3.org/2000/svg">
<path d="M0.376648 0H9.93709V9.12088C9.93709 11.9292 9.22891 14.2491 7.81255 16.0806C6.37177 17.9121 4.28385 19.2186 1.54881 20L0.413279 16.5568C1.34124 16.2393 2.11047 15.8974 2.72097 15.5311C3.33147 15.1893 3.81987 14.7863 4.18617 14.3223C4.55247 13.8828 4.80888 13.37 4.9554 12.7839C5.10192 12.1978 5.17518 11.514 5.17518 10.7326H0.376648V0ZM13.0629 0H22.6233V9.12088C22.6233 11.9292 21.9151 14.2491 20.4987 16.0806C19.058 17.9121 16.9701 19.2186 14.235 20L13.0995 16.5568C14.0274 16.2393 14.7967 15.8974 15.4072 15.5311C16.0177 15.1893 16.5061 14.7863 16.8724 14.3223C17.2387 13.8828 17.4951 13.37 17.6416 12.7839C17.7881 12.1978 17.8614 11.514 17.8614 10.7326H13.0629V0Z" fill="#E1D7DC"/>
</svg>
