<svg width="23" height="20" viewBox="0 0 23 20" fill="none" xmlns="http://www.w3.org/2000/svg">
<path d="M22.6234 20H13.0629V10.8791C13.0629 8.07082 13.7711 5.75092 15.1875 3.91941C16.6282 2.08791 18.7161 0.781441 21.4512 0L22.5867 3.44322C21.6588 3.76068 20.8895 4.10256 20.279 4.46886C19.6685 4.81074 19.1801 5.21368 18.8138 5.67766C18.4475 6.11722 18.1911 6.63004 18.0446 7.21612C17.8981 7.8022 17.8248 8.48596 17.8248 9.2674H22.6234V20ZM9.93715 20H0.376709V10.8791C0.376709 8.07082 1.08489 5.75092 2.50125 3.91941C3.94203 2.08791 6.02994 0.781441 8.76499 0L9.90052 3.44322C8.97256 3.76068 8.20333 4.10256 7.59283 4.46886C6.98233 4.81074 6.49393 5.21368 6.12762 5.67766C5.76132 6.11722 5.50491 6.63004 5.35839 7.21612C5.21187 7.8022 5.13861 8.48596 5.13861 9.2674H9.93715V20Z" fill="#E1D7DC"/>
</svg>
