<svg width="203" height="126" viewBox="0 0 203 126" fill="none" xmlns="http://www.w3.org/2000/svg">
<g clip-path="url(#clip0_350_4545)">
<path d="M202.862 81.7569C202.566 78.065 201.775 74.5518 200.511 71.3164C199.641 66.9894 197.981 63.1983 195.59 60.0622C189.701 52.3807 179.505 48.3911 170.237 50.1378C167.925 50.5745 165.811 51.3684 163.894 52.5196C163.222 51.289 162.294 50.1775 161.167 49.2644C160.515 46.5451 159.211 44.4412 157.215 42.893C153.698 40.1538 148.837 40.1141 145.043 42.7342C141.841 42.496 138.739 43.6075 136.684 45.771C134.945 47.5971 133.957 49.9988 133.858 52.5593C126.112 50.1775 118.386 51.3883 113.268 52.8372C114.809 49.7805 115.461 46.5055 115.125 43.3693L112.28 16.6926C111.805 12.5244 110.62 9.32871 108.505 6.56973C104.435 1.2701 98.0324 -1.03235 91.3731 0.37691C90.8198 0.496002 90.2665 0.634944 89.7132 0.754036L59.44 7.76065L46.8526 10.6586C46.1017 10.8174 45.331 10.996 44.5999 11.2143C42.1693 11.9487 38.731 13.4374 36.2609 16.3353C33.8699 19.134 32.5262 22.3495 32.1705 26.2002C31.9334 28.721 32.4669 31.1227 32.9214 33.2465L36.8735 51.2295C34.9963 51.0111 33.1388 50.9913 31.2813 51.1104C26.519 51.4676 21.9741 52.6387 16.9351 54.8221C12.4495 56.7673 8.47762 59.3476 4.44647 62.047C2.54946 63.3372 1.06742 65.3221 0.395558 67.5055C-0.375102 70.0659 -0.0391734 72.6463 1.38359 74.7701L8.12193 84.8731C8.75427 85.8259 9.58421 86.6794 10.5327 87.3939L11.6393 96.5045L9.3866 100.832C9.10995 101.348 8.85307 101.864 8.59618 102.36L8.49738 102.539C8.16145 103.194 7.74648 104.027 7.50935 104.98C6.65965 108.374 7.56863 111.947 9.9399 114.547C11.7183 116.492 14.1687 117.385 16.1447 118.12L16.6782 118.318C18.1208 118.854 19.583 119.291 21.0848 119.608C29.1471 121.355 37.407 120.502 45.0346 117.187C45.1927 117.445 45.3705 117.683 45.5681 117.921C46.4178 119.033 47.228 119.867 48.5915 120.641C48.631 120.66 48.6903 120.7 48.7496 120.72C50.0933 123.042 52.346 124.809 55.0532 125.603C55.8831 125.841 56.7526 125.96 57.6023 125.96C60.1909 125.96 62.7796 124.888 64.7754 122.923C64.8939 122.903 65.0125 122.864 65.1311 122.824C65.8622 122.645 66.6724 122.348 67.6802 121.772C69.6958 120.601 71.2371 118.755 72.0473 116.631C73.2922 117.008 74.4581 117.246 75.5251 117.425C75.6832 117.485 75.8413 117.524 76.0191 117.544L77.5012 117.743C77.5012 117.743 77.6197 117.743 77.6593 117.763C77.7976 117.763 77.9161 117.782 78.0545 117.782C78.1137 117.782 78.173 117.763 78.2323 117.743C83.212 118.12 87.7964 117.385 92.2228 115.5C94.3767 114.587 96.3725 113.475 98.2102 112.145C99.0797 113.257 100.186 114.21 101.55 115.023C104.672 116.869 108.13 118.298 111.549 119.152C120.243 121.296 129.412 120.363 137.395 116.512C141.802 114.388 145.754 111.153 148.856 107.203C152.571 111.59 157.334 114.865 162.59 116.552C168.795 118.537 175.77 118.338 181.718 115.996C188.061 113.495 193.258 109.327 197.151 103.591C201.499 97.2191 203.573 89.2399 202.862 81.6973V81.7569Z" fill="white"/>
<path d="M78.0349 114.845C77.6002 114.786 77.1852 114.726 76.7702 114.666C76.6319 114.666 76.5133 114.647 76.375 114.627C76.9283 114.706 77.4816 114.786 78.0349 114.845Z" fill="#4416CE"/>
<path d="M199.916 82.0151C199.363 75.207 197.051 69.0142 192.605 63.7939C189.048 59.6059 183.831 56.4301 178.437 55.3185C172.924 54.207 167.312 54.9017 162.194 57.0454C162.055 54.862 160.968 52.897 159.19 51.5076C158.953 51.3289 158.716 51.1304 158.479 50.9518C158.439 50.7533 158.399 50.5548 158.36 50.3563C157.945 48.3119 157.095 46.5851 155.396 45.2552C152.748 43.1909 149.152 43.4093 146.523 45.3346C146.306 45.4934 146.089 45.6522 145.852 45.811C145.595 45.7911 145.318 45.7514 145.061 45.7316C142.789 45.4934 140.417 46.1484 138.797 47.8355C136.9 49.8204 136.406 52.5794 137.038 55.1796C137.098 55.4575 137.196 55.7353 137.275 56.0132C137.315 56.1522 137.355 56.2713 137.394 56.4102L137.275 56.6682C137.216 56.8072 137.157 56.9461 137.098 57.0652C136.366 56.7079 135.616 56.3904 134.865 56.0926C127.553 53.1947 118.977 53.9291 111.666 56.4499C110.717 56.7873 109.789 57.1446 108.86 57.5217C108.82 57.0255 108.741 56.5094 108.623 55.9934C108.524 55.5369 108.425 55.0803 108.326 54.6238C109.136 53.81 109.868 52.897 110.441 51.7854C111.745 49.3043 112.436 46.5057 112.14 43.6871C112.002 42.3771 111.863 41.0671 111.725 39.7571L110.006 23.6994C109.808 21.7741 109.591 19.8289 109.393 17.9036C109.354 17.6058 109.334 17.3081 109.295 17.0302C108.939 13.8544 108.089 10.9565 106.113 8.39602C102.675 3.9102 97.4382 2.12381 91.9448 3.29488C91.1149 3.47352 90.3047 3.67201 89.4747 3.8705C79.6537 6.13326 69.8525 8.41587 60.0315 10.6786C56.0992 11.5917 52.1668 12.5047 48.2345 13.4178C47.286 13.6361 46.3177 13.8147 45.389 14.0926C42.8399 14.8667 40.2117 16.2363 38.453 18.3006C36.3979 20.7023 35.3704 23.362 35.074 26.4981C34.8764 28.6616 35.3704 30.8053 35.8446 32.9093C36.3387 35.1323 36.8129 37.3554 37.3069 39.5983C38.3542 44.3818 39.4015 49.1455 40.4488 53.9291C40.5081 54.2268 40.5872 54.5444 40.6465 54.8421C40.6465 54.9017 40.686 54.9414 40.686 55.0009C37.6824 54.207 34.58 53.8696 31.4578 54.1077C26.7153 54.465 22.4075 55.6956 18.0799 57.5813C13.8116 59.4272 9.91882 61.9679 6.06551 64.5482C3.39784 66.3346 1.85652 70.1654 3.83257 73.1229C6.08527 76.4972 8.33797 79.8714 10.5709 83.2259C11.223 84.2183 12.1913 85.0718 13.2979 85.6474C13.7128 89.0217 14.1278 92.4159 14.523 95.7902C14.5823 96.2268 14.6218 96.6635 14.6811 97.0803C13.9104 98.569 13.1398 100.038 12.3494 101.526C11.9739 102.261 11.5787 102.975 11.2033 103.71C10.8871 104.345 10.5314 105.02 10.3535 105.715C9.74097 108.136 10.4128 110.697 12.0925 112.543C13.5152 114.091 15.7482 114.805 17.6649 115.54C18.9691 116.016 20.2931 116.413 21.6566 116.711C29.4027 118.378 37.2674 117.465 44.4602 114.17C45.1519 113.853 45.8237 113.515 46.4758 113.138C46.6932 114.25 47.1477 115.202 47.859 116.115C48.4914 116.929 49.0249 117.505 49.9932 118.06C50.171 118.16 50.3489 118.239 50.5267 118.319C50.6453 118.358 50.7441 118.418 50.8429 118.457L50.9417 118.656C51.8704 120.681 53.6884 122.129 55.8028 122.745C58.4902 123.539 61.3555 122.348 63.0944 120.284C63.1339 120.224 63.1932 120.184 63.2327 120.125C63.3711 120.125 63.5094 120.085 63.628 120.065C63.786 120.045 63.9441 120.026 64.1022 120.006L63.7465 120.045C64.5369 119.926 65.1693 119.748 66.098 119.192C67.6986 118.259 68.9435 116.691 69.4178 114.885C69.6352 114.071 69.6944 113.277 69.6154 112.483C70.1687 112.741 70.722 112.979 71.2753 113.217C73.0537 113.952 74.8322 114.329 76.7094 114.627C81.6496 115.242 86.3921 114.726 90.9963 112.781C93.9801 111.51 96.7466 109.744 99.1179 107.521C99.1574 107.699 99.1969 107.878 99.2562 108.037C99.9281 110.022 101.212 111.411 102.991 112.483C105.836 114.17 108.978 115.48 112.18 116.274C120.202 118.259 128.601 117.425 136.05 113.853C141.287 111.332 145.733 107.124 148.697 102.102C152.155 107.521 157.293 111.768 163.438 113.733C168.892 115.48 175.235 115.361 180.591 113.237C186.42 110.935 191.123 107.124 194.66 101.923C198.573 96.1673 200.529 88.9026 199.857 81.9754L199.916 82.0151Z" fill="#4416CE"/>
<path d="M105.936 43.7467L103.091 17.0302C102.577 12.3856 99.2373 8.97161 95.1271 9.15025C94.6529 9.1701 94.1786 9.22965 93.6846 9.34874L48.3144 19.8487C42.4653 21.0198 40.5485 25.0888 41.5563 29.7334L46.694 53.1947C46.8521 53.9291 47.109 54.6238 47.4449 55.2788C49.0258 58.2958 52.3851 60.1021 55.9025 59.5661L83.2313 55.4177L87.5984 54.7429L100.917 59.8837C101.036 59.9234 101.134 59.9433 101.233 59.9433C102.221 60.0425 102.873 59.1692 102.695 58.0775L101.431 52.2022C101.431 52.2022 102.241 51.7457 102.32 51.6862C102.616 51.4877 102.893 51.2892 103.15 51.051C103.664 50.5945 104.138 50.0784 104.533 49.5227C105.324 48.3714 105.837 47.0217 105.976 45.6323C106.035 44.9971 105.995 44.3818 105.936 43.7467Z" fill="white"/>
<path d="M101.747 78.7797C100.976 75.3856 99.613 72.3487 97.6764 69.689C97.0836 68.8752 96.4315 68.0813 95.7201 67.3468C91.7087 63.1786 86.4129 60.896 81.0578 60.896C79.1806 60.896 77.3033 61.2334 75.5051 61.7693C67.0081 64.2504 60.9811 71.5945 59.5781 80.9433C59.3805 82.4319 59.2422 83.8412 59.2422 85.2504C59.2422 92.5151 62.3248 99.3828 67.5416 103.809C68.3913 104.524 69.2805 105.159 70.1698 105.734C72.6398 107.283 75.2482 108.255 78.0542 108.593C78.9237 108.732 79.7931 108.732 80.8009 108.732C82.4015 108.732 83.9429 108.593 85.4249 108.196C93.4674 106.171 99.4746 99.8591 101.767 91.1058C102.3 89.0217 102.577 86.9376 102.577 84.913C102.577 82.8884 102.3 80.8837 101.767 78.7996L101.747 78.7797ZM82.5003 73.5595C85.168 74.2939 87.3812 76.3582 88.6854 78.8194C91.5111 84.0992 90.3057 90.7882 85.662 94.5794C84.4962 95.5321 83.0734 96.2268 81.5518 96.326C76.7895 96.6436 73.0153 92.1578 72.0273 87.9102C71.7308 86.62 71.5925 85.2306 71.632 83.8015C71.7704 78.1049 76.1572 71.8128 82.5003 73.5595Z" fill="#F7CE46"/>
<path d="M80.7833 108.712C82.3839 108.712 83.9252 108.573 85.4073 108.176C93.4498 106.151 99.457 99.8392 101.749 91.0859C102.283 89.0018 102.559 86.9177 102.559 84.8931C102.559 82.8685 102.283 80.8638 101.749 78.7797C100.979 75.3856 99.6151 72.3487 97.6785 69.689C98.2121 71.1578 98.6863 72.6663 99.1013 74.1748C101.413 82.8487 99.457 93.4281 93.0151 99.9186C89.4186 103.531 84.5971 105.734 79.5581 106.31C77.1671 106.588 74.7563 106.469 72.3851 106.092C71.6737 105.973 70.9228 105.853 70.1719 105.695C72.6419 107.243 75.2503 108.215 78.0563 108.553C78.9258 108.692 79.7953 108.692 80.803 108.692L80.7833 108.712Z" fill="#F19A38"/>
<path d="M193.673 82.0152C193.396 78.1447 192.309 74.5917 190.452 71.4159C190.136 70.8602 189.8 70.3243 189.424 69.8082C186.065 65.0842 181.184 62.0275 175.888 61.2137C174.031 60.9358 172.134 60.9755 170.257 61.2534C161.483 62.4443 154.428 68.7761 151.642 77.8072C151.227 79.2364 150.872 80.6258 150.674 82.0152C149.587 89.2004 151.623 96.4452 156.128 101.606C156.582 102.122 157.076 102.618 157.57 103.075C160.001 105.397 162.728 107.025 165.811 107.898C166.66 108.156 167.51 108.295 168.498 108.434C170.079 108.672 171.62 108.771 173.142 108.593C181.382 107.799 188.278 102.459 191.835 94.1626C192.685 92.1778 193.258 90.1532 193.554 88.1683C193.851 86.1834 193.89 84.139 193.673 81.9953V82.0152ZM163.143 82.432C164.131 76.8347 169.387 71.2571 175.414 73.9566C177.944 75.088 179.821 77.45 180.75 80.07C182.765 85.7071 180.572 92.1381 175.414 95.1948C174.11 95.9689 172.608 96.4452 171.087 96.3063C166.344 95.8895 163.281 90.9074 162.926 86.5606C162.827 85.2307 162.886 83.8413 163.143 82.432Z" fill="#ED739F"/>
<path d="M168.498 108.454C170.079 108.692 171.62 108.791 173.142 108.612C181.382 107.819 188.278 102.479 191.835 94.1824C192.685 92.1976 193.258 90.173 193.554 88.1881C193.851 86.2032 193.89 84.1588 193.673 82.0151C193.396 78.1446 192.31 74.5917 190.452 71.4159C190.808 73.0633 191.065 74.7306 191.262 76.3979C191.993 82.9679 191.163 88.863 187.844 94.6588C183.951 101.467 177.054 105.496 168.419 105.238C165.554 105.159 162.827 104.802 160.1 103.928C159.29 103.67 158.42 103.392 157.551 103.055C159.981 105.377 162.708 107.005 165.791 107.878C166.641 108.136 167.49 108.275 168.478 108.414L168.498 108.454Z" fill="#DD468F"/>
<path d="M147.057 81.1219C146.8 78.998 146.306 76.9338 145.555 74.9489C143.599 69.7485 139.943 65.2627 134.47 62.7022C127.87 59.5859 121.013 60.3997 116.408 61.5907C111.113 62.9602 106.291 65.481 102.082 67.7041L107.714 78.482C108.662 77.9461 109.611 77.4101 110.559 76.9536L110.856 97.1994L107.457 102.3L105.343 105.476C105.046 105.913 105.165 106.528 105.619 106.806C108.662 108.712 113.266 110.756 119.056 111.054C120.104 111.153 121.151 111.173 122.179 111.113C128.561 110.816 134.371 108.533 138.837 104.484C145.2 98.7277 148.006 89.5973 146.998 81.1417L147.057 81.1219ZM111.943 76.2391C114.452 75.0084 116.981 73.9168 119.531 73.2419C123.305 72.2296 126.783 72.3487 129.352 73.5595C135.102 76.2986 136.525 84.8534 134.41 90.2523C133.64 92.1975 132.434 93.9442 130.932 95.3534C129.707 96.5047 128.265 97.4375 126.704 98.1124C124.609 99.0056 123.147 99.1445 123.147 99.1842C123.147 99.2239 122.811 76.1001 122.811 76.1001L119.728 76.1398L111.982 76.2589L111.943 76.2391Z" fill="#ED739F"/>
<path d="M105.682 106.786C108.725 108.692 113.329 110.736 119.119 111.034C120.166 111.133 121.214 111.153 122.241 111.094C128.624 110.796 134.433 108.513 138.899 104.464C145.262 98.708 148.068 89.5775 147.06 81.1219C146.804 78.9981 146.31 76.9339 145.559 74.949C145.835 79.1966 145.717 83.4443 144.788 87.5728C143.602 92.8724 140.915 97.7949 136.647 101.308C132.892 104.405 127.992 106.786 123.15 106.806C117.321 106.806 112.578 105.715 107.263 102.598L105.366 105.437C105.069 105.873 105.188 106.489 105.642 106.767L105.682 106.786Z" fill="#DD468F"/>
<path d="M123.13 99.1843L122.794 76.1002L119.711 76.1399C119.691 76.3384 119.691 76.5369 119.691 76.7354C119.869 83.087 119.81 89.4187 119.968 95.7704C119.968 95.7704 119.968 95.7902 119.968 95.8101C119.968 95.8497 119.968 95.9093 119.968 95.949C119.968 96.207 119.968 96.4849 119.968 96.7429C120.008 97.9934 121.529 99.3233 123.13 99.1843Z" fill="#DD468F"/>
<path d="M55.3674 78.5415C54.8932 76.4574 54.162 74.4527 53.2135 72.5671C50.7237 67.6049 46.6135 63.5359 40.9027 61.5708C34.0063 59.1691 27.2877 60.7173 22.8218 62.3846C17.7038 64.31 13.1787 67.327 9.22656 69.9867L15.9649 80.0897C16.8541 79.4546 17.7434 78.8194 18.6326 78.2637L21.0829 98.3506L18.2374 103.789L16.4787 107.163C16.2218 107.64 16.4194 108.215 16.8937 108.454C20.1344 110.022 24.9164 111.57 30.7063 111.252C31.7536 111.232 32.8009 111.133 33.8284 110.974C40.1518 110.002 45.665 107.104 49.6961 102.598C55.4069 96.1871 57.2447 86.8185 55.3477 78.5217L55.3674 78.5415ZM19.9368 77.4499C22.308 75.9612 24.6991 74.5916 27.1494 73.6587C30.8051 72.2495 34.2632 71.9914 36.9506 72.9243C42.9578 75.0283 45.2895 83.3846 43.7482 88.982C43.1949 91.0066 42.1674 92.8525 40.8237 94.4206C39.7171 95.6909 38.3931 96.7826 36.9111 97.6162C34.935 98.7277 33.4925 99.0255 33.4925 99.0652C33.4925 99.1049 30.7063 76.1398 30.7063 76.1398L27.6434 76.517L19.9368 77.4499Z" fill="#F7CE46"/>
<path d="M16.9347 108.474C20.1755 110.042 24.9575 111.59 30.7474 111.272C31.7947 111.252 32.842 111.153 33.8695 110.994C40.1929 110.022 45.7061 107.124 49.7372 102.618C55.448 96.207 57.2858 86.8384 55.3887 78.5416C54.9145 76.4575 54.1833 74.4528 53.2348 72.5671C53.966 76.7552 54.3019 81.0029 53.8079 85.2108C53.1953 90.6097 51.0414 95.7902 47.1684 99.7401C43.7695 103.214 39.1258 106.112 34.324 106.647C28.5342 107.283 23.6928 106.687 18.0808 104.147L16.5 107.183C16.2431 107.66 16.4407 108.235 16.915 108.474H16.9347Z" fill="#F19A38"/>
<path d="M33.4937 99.0453L30.7074 76.12L27.6445 76.4971C27.6445 76.6956 27.6445 76.8941 27.6841 77.0926C28.5338 83.3846 29.1463 89.6966 29.9565 95.9886C29.9565 95.9886 29.9565 96.0085 29.9565 96.0283C29.9565 96.068 29.9565 96.1276 29.9565 96.1673C29.996 96.4253 30.0158 96.6833 30.0553 96.9414C30.2134 98.172 31.893 99.3431 33.4541 99.0453H33.4937Z" fill="#F19A38"/>
<path d="M75.7813 21.2183C76.1568 24.1361 78.0143 38.4868 79.7927 45.8904C79.8718 46.1881 79.6741 46.4858 79.3777 46.5652L73.825 48.034C73.5286 48.1134 73.2322 47.9348 73.1532 47.6371C72.4813 44.9376 71.9083 42.1786 71.3945 39.4197C71.3352 39.1219 71.0388 38.9234 70.7424 38.983C67.9166 39.5983 65.0909 40.293 62.2849 41.0671C62.0082 41.1465 61.8304 41.4244 61.8699 41.7023L63.1148 49.3639C63.1543 49.6616 62.9567 49.9594 62.6603 50.0189L57.0088 51.051C56.7124 51.1106 56.416 50.9121 56.3765 50.6144L52.3058 25.4858C52.2663 25.1881 52.4639 24.8904 52.7603 24.8308L58.4118 23.7987C58.7082 23.7391 59.0046 23.9376 59.0441 24.2354L60.6052 33.9017C60.6645 34.2193 60.9807 34.4178 61.2969 34.3384C64.0831 33.5643 66.8891 32.8894 69.6951 32.2741C69.9915 32.2146 70.1693 31.9367 70.1298 31.6389C69.6556 28.4234 69.2801 25.1881 69.0035 21.9527C68.9837 21.655 69.2011 21.3771 69.5172 21.3374L75.1885 20.742C75.4849 20.7023 75.7418 20.9206 75.7813 21.2183Z" fill="black"/>
<path d="M74.3715 67.8066C73.9367 67.0523 73.0278 66.8142 72.1583 67.2111C70.1625 68.144 68.3248 69.8709 66.5661 72.5107C65.2619 74.4559 64.2146 76.6591 63.5032 78.8624C63.3846 79.2593 63.4241 79.6762 63.6415 80.0731C63.8589 80.4701 64.2343 80.7678 64.6493 80.8869C64.7876 80.9266 64.9259 80.9465 65.0643 80.9465C65.7756 80.9465 66.408 80.4701 66.6451 79.7555C66.7834 79.3189 66.9415 78.8624 67.1194 78.4257C67.1589 78.3463 67.1984 78.247 67.2182 78.1676L67.2972 78.0089C67.396 77.7707 67.4948 77.5523 67.6134 77.3142C68.1074 76.2423 68.6804 75.2499 69.293 74.317C70.696 72.1932 72.1188 70.8434 73.7787 70.0693C74.1146 69.9106 74.3912 69.593 74.5098 69.196C74.6481 68.7395 74.6086 68.2036 74.3715 67.8264V67.8066Z" fill="white"/>
<path d="M24.525 66.7713C24.2089 65.8979 23.3394 65.4414 22.4897 65.6994C19.7825 66.5132 17.2927 67.9225 15.0795 69.8875C14.7831 70.1456 14.625 70.5425 14.625 70.9991C14.625 71.4953 14.8226 71.9518 15.1585 72.2297C15.4945 72.5076 15.8699 72.6465 16.2454 72.6465C16.6603 72.6465 17.0753 72.4877 17.4508 72.1503L17.5496 72.051C17.5496 72.051 17.7076 71.9121 17.7867 71.8526C17.7867 71.8526 17.8262 71.8327 17.8262 71.8129L17.9448 71.7136C18.1819 71.5151 18.4388 71.3365 18.6957 71.1578C19.1897 70.8006 19.7232 70.4631 20.2765 70.1654C20.5532 70.0066 20.8298 69.8677 21.1065 69.7287L21.2645 69.6493C21.2645 69.6493 21.2843 69.6493 21.3041 69.6493L21.4226 69.5898C21.5214 69.5501 21.6202 69.5104 21.719 69.4509C22.2723 69.2127 22.8651 69.0142 23.4777 68.8355C23.8927 68.7164 24.2484 68.3989 24.446 67.982C24.6436 67.5851 24.6831 67.1484 24.5448 66.7713H24.525Z" fill="white"/>
<path d="M117.1 65.9377C116.804 65.0842 116.014 64.6673 115.085 64.8658C112.753 65.3223 110.421 66.2751 108.386 67.6248C108.011 67.863 107.754 68.2798 107.655 68.7363C107.576 69.1532 107.655 69.57 107.872 69.9074C108.208 70.4036 108.742 70.6617 109.275 70.6617C109.572 70.6617 109.868 70.5823 110.125 70.4036C110.619 70.086 111.113 69.7883 111.587 69.5501L111.666 69.5104C111.844 69.4112 112.042 69.3119 112.239 69.2325C112.299 69.2127 112.378 69.173 112.457 69.1333C112.575 69.0738 112.694 69.0341 112.812 68.9745C113.82 68.5577 114.907 68.2401 116.014 68.0218C116.389 67.9424 116.725 67.6843 116.942 67.2874C117.18 66.8705 117.239 66.3545 117.1 65.9575V65.9377Z" fill="white"/>
<path d="M155.378 56.4301L152.829 54.4253L152.137 51.0709C152.137 51.0709 152.018 50.3365 151.445 50.0983C150.872 49.8601 150.279 50.3166 150.24 50.3365L147.572 52.2817L144.391 51.9442C144.292 51.9442 143.423 51.8649 143.126 52.4206C142.869 52.9367 143.047 53.5123 143.047 53.5321L143.976 56.7476L142.652 59.8441C142.652 59.8441 142.276 60.7174 142.691 61.1739C143.067 61.6106 143.739 61.6701 143.798 61.6701L146.979 61.7098L149.331 63.9329C149.331 63.9329 149.746 64.2703 150.22 64.3299C150.299 64.3299 150.378 64.3299 150.457 64.3299C151.07 64.2902 151.346 63.4764 151.366 63.397L152.473 60.2013L155.279 58.534C155.279 58.534 155.812 58.2165 155.97 57.6607C156.129 57.0454 155.457 56.4896 155.358 56.4301H155.378Z" fill="#F7EBA1"/>
<path d="M61.9865 110.141L62.4015 107.561C62.4608 107.322 62.4608 106.846 62.1249 106.528C61.7296 106.151 61.1566 106.29 61.0973 106.29L58.6865 106.866L56.5129 105.675C56.5129 105.675 55.762 105.278 55.347 105.655C54.9913 105.973 54.9518 106.469 54.9518 106.528L54.7344 109.089L52.956 110.895C52.956 110.895 52.3829 111.451 52.5805 112.007C52.7386 112.463 53.2326 112.741 53.2721 112.761L55.5248 113.753L56.5919 116.036C56.5919 116.036 56.8883 116.532 57.3033 116.711H57.3428C57.8763 116.889 58.3308 116.334 58.3901 116.274L60.05 114.349L62.5003 114.011C62.5003 114.011 63.0338 113.952 63.3302 113.555C63.6662 113.098 63.2907 112.423 63.2512 112.344L61.9865 110.161V110.141Z" fill="#F7EBA1"/>
<path d="M91.7266 21.5359C91.7661 20.4641 90.9164 19.551 89.8493 19.5113L85.0673 19.3525C84.0002 19.3128 83.0912 20.1663 83.0517 21.2382L82.9727 23.7987L91.6475 24.0765L91.7266 21.516V21.5359Z" fill="black"/>
<path d="M82.7183 42.119L85.7219 44.8582L85.6824 45.9697C85.6824 46.4262 86.0183 46.8033 86.4728 46.8232H86.7297C87.1842 46.843 87.5596 46.4858 87.5794 46.0292L87.6189 44.9177L90.7806 42.3771C90.9782 42.2183 91.0967 41.9801 91.0967 41.7419L91.571 26.7759L82.8961 26.498L82.4219 41.464C82.4219 41.7221 82.5207 41.9602 82.6985 42.119H82.7183Z" fill="black"/>
<path d="M83.4485 52.3214L56.0604 56.4301C54.5982 56.6286 53.5904 56.6286 52.0095 56.5095L51.6143 56.4698C51.2389 56.4301 50.8634 56.3705 50.4682 56.311C49.579 56.172 48.3736 55.7354 47.4844 55.2788C49.0652 58.2959 52.4245 60.1021 55.9419 59.5662L83.2707 55.4178L87.6378 54.7429C87.3414 54.2864 87.2623 54.1475 87.0647 53.9291C85.8989 52.639 85.4246 52.0832 83.4485 52.3214Z" fill="#C7B9F0"/>
<path d="M101.586 27.6494C101.863 29.9915 102.12 32.3337 102.357 34.6957C102.535 36.5416 102.851 38.3876 103.029 40.2534C103.128 41.3053 103.187 42.3573 103.147 43.4292C103.147 43.6673 103.128 43.9254 103.108 44.1636C103.068 44.6995 102.969 45.3346 102.713 46.0293C102.614 46.3469 102.495 46.6248 102.377 46.863C102.278 47.0615 102.159 47.2401 102.06 47.4188C101.883 47.6966 101.646 48.0142 101.31 48.3318C100.974 48.6692 100.638 48.9074 100.361 49.0861C100.084 49.2647 99.8078 49.4235 99.5311 49.5624C98.7407 49.9793 98.0293 50.4556 98.5629 51.9244C99.5114 54.5048 100.065 56.8668 101.053 59.4273C101.112 59.6059 101.191 59.7647 101.27 59.9235C102.258 60.0227 102.91 59.1494 102.732 58.0577L101.468 52.1825C101.468 52.1825 102.278 51.7259 102.357 51.6664C102.653 51.4679 102.93 51.2694 103.187 51.0312C103.701 50.5747 104.175 50.0586 104.57 49.5029C105.36 48.3517 105.874 47.0019 106.013 45.6125C106.072 44.9774 106.032 44.3621 105.973 43.7269L103.128 17.0104C102.614 12.3658 99.2743 8.95184 95.1641 9.13048C95.6186 9.32897 95.8754 9.48776 96.2114 9.68624C96.2114 9.68624 99.4126 11.4528 100.341 17.1891L101.646 27.5898L101.586 27.6494Z" fill="#C7B9F0"/>
<path d="M171.105 96.3261C172.607 96.4651 174.128 95.9887 175.432 95.2146C180.59 92.1579 182.783 85.7269 180.768 80.0898C179.839 77.4698 177.962 75.1078 175.432 73.9764C169.405 71.2968 164.149 76.8545 163.161 82.4518C162.904 83.8611 162.845 85.2505 162.944 86.5804C163.299 90.9272 166.362 95.9291 171.105 96.3261Z" fill="black"/>
<path d="M166.364 81.5388L155.773 72.051C155.773 72.051 155.773 72.051 155.773 72.0312C155.575 71.5747 154.468 69.2921 153.322 68.9149C153.026 68.8157 152.749 68.8355 152.512 68.9745C152.315 69.034 152.097 69.2127 151.959 69.5104C151.919 69.5898 151.9 69.6692 151.9 69.7486C151.662 69.5898 151.406 69.4707 151.129 69.4509C150.793 69.4112 150.477 69.5104 150.24 69.7287C149.983 69.9471 149.864 70.2448 149.884 70.5822C149.884 70.6616 149.884 70.7609 149.924 70.8403C149.864 70.8403 149.805 70.8403 149.746 70.8403C149.469 70.8403 149.252 70.9594 149.094 71.1578C148.738 71.5945 148.837 72.1106 149.113 72.5671C148.876 72.6068 148.659 72.706 148.481 72.9244C148.264 73.1824 148.204 73.5 148.283 73.8374C148.481 74.7703 149.726 75.8818 151.722 76.8743L163.4 88.6446C163.4 88.6446 163.499 88.724 163.558 88.7438C163.618 88.7438 163.657 88.7637 163.716 88.7438C163.835 88.7438 163.934 88.6446 163.993 88.5454L166.463 81.9953C166.522 81.8365 166.503 81.6777 166.364 81.5586V81.5388Z" fill="black"/>
<path d="M181.124 85.965C183.554 86.0047 185.293 85.8459 187.368 85.5085C190.411 85.0122 195.015 83.9206 197.94 81.3204C197.999 81.2608 198.039 81.2013 198.058 81.1219C198.058 81.0226 199.54 70.1257 193.237 61.8884C188.139 55.2391 179.088 51.5075 170.769 53.0756C165.552 54.068 161.442 57.2041 159.17 62.1465C156.205 68.6172 159.308 77.0132 164.426 81.0822C166.698 82.8884 169.089 83.7816 171.915 84.655C173.358 85.1115 176.737 85.8856 181.124 85.965Z" fill="black"/>
<path d="M178.812 62.1466C176.322 61.3923 173.694 61.0152 171.165 61.3129C170.434 61.3923 169.722 61.5511 169.031 61.7694C167.825 62.1664 166.679 62.8016 165.75 63.6749C164.98 64.3696 164.347 65.2231 163.834 66.1362C159.387 73.9764 166.857 79.2959 166.936 79.3554C166.995 79.3951 172.686 83.484 181.065 83.2657C187.112 83.1069 191.182 76.8545 189.522 71.1381C188.416 67.3469 185.037 64.6475 181.579 63.1588C180.709 62.7817 179.78 62.4443 178.852 62.1664L178.812 62.1466Z" fill="#EAB3B1"/>
<path d="M153.045 69.7089C153.045 69.7089 152.887 69.7089 152.828 69.7486C152.769 69.7883 152.769 69.8677 152.769 69.9471C152.769 70.0464 152.788 70.1456 152.828 70.225C152.887 70.3838 152.946 70.5426 153.025 70.7014C153.085 70.8205 153.144 70.9197 153.223 71.0388C153.342 71.2373 153.282 71.4953 153.085 71.6343C152.887 71.7732 152.689 71.674 152.551 71.4953C152.156 71.0388 151.464 70.3044 151.03 70.2647C150.951 70.2647 150.891 70.2647 150.832 70.3242C150.753 70.3838 150.753 70.4433 150.753 70.5029C150.753 70.8006 151.128 71.2373 151.484 71.6144C151.701 71.7931 151.879 71.9518 151.939 72.0114C152.116 72.1702 152.116 72.4282 151.958 72.6069C151.8 72.7855 151.563 72.7656 151.366 72.6267C151.03 72.3687 150.713 72.0709 150.377 71.8129C150.259 71.7335 150.14 71.6343 150.022 71.5946C149.943 71.5747 149.844 71.5747 149.785 71.6343C149.646 71.7534 149.765 71.9518 149.844 72.0709C150.121 72.4878 150.476 72.8053 150.852 73.1229L150.911 73.1825C151.089 73.3413 151.109 73.5993 150.97 73.7779C150.812 73.9566 150.555 73.9963 150.358 73.8375C150.081 73.6191 149.686 73.381 149.429 73.3214C149.291 73.2817 149.172 73.3413 149.152 73.5C149.152 73.5993 149.152 73.6985 149.212 73.7978C149.31 73.9566 149.409 74.0955 149.528 74.2345C149.824 74.552 150.16 74.8299 150.516 75.088C150.713 75.2269 150.911 75.346 151.109 75.4651C151.227 75.5246 151.326 75.604 151.445 75.6636C151.484 75.6636 151.8 75.8819 151.8 75.8621L154.883 72.0908C154.409 71.1182 153.618 69.8677 153.085 69.6891L153.045 69.7089Z" fill="#EAB3B1"/>
<path opacity="0.25" d="M188.08 77.43C188.653 79.137 187.428 81.0623 185.353 81.6975C183.278 82.3327 181.124 81.4593 180.551 79.7523C179.978 78.0453 181.203 76.12 183.278 75.4848C185.353 74.8497 187.507 75.723 188.08 77.43Z" fill="url(#paint0_radial_350_4545)"/>
<path opacity="0.25" d="M164.271 69.1333C162.69 70.0067 162.295 72.2496 163.402 74.1154C164.508 75.9812 166.662 76.8148 168.243 75.9216C169.824 75.0284 170.219 72.8054 169.113 70.9396C168.026 69.0539 165.852 68.2401 164.271 69.1333Z" fill="url(#paint1_radial_350_4545)"/>
<path d="M168.932 64.1314C168.814 64.0917 168.735 64.0123 168.695 63.8932C168.636 63.7146 168.754 63.5161 168.952 63.4764C169.07 63.4565 171.639 62.8214 173.734 64.2307C173.892 64.3299 173.932 64.5482 173.833 64.707C173.734 64.8658 173.517 64.9055 173.339 64.8063C171.501 63.5756 169.149 64.1314 169.13 64.1513C169.07 64.1513 168.991 64.1513 168.932 64.1513V64.1314Z" fill="black"/>
<path d="M185.829 69.1929C185.829 69.1929 185.73 69.1532 185.691 69.0936C185.691 69.0936 183.971 67.3469 181.758 67.4065C181.561 67.4065 181.403 67.2675 181.383 67.069C181.383 66.8706 181.521 66.7118 181.719 66.7118C184.248 66.6324 186.106 68.5378 186.185 68.6172C186.323 68.7562 186.323 68.9745 186.185 69.1135C186.086 69.2127 185.947 69.2326 185.829 69.1929Z" fill="black"/>
<path d="M179.664 76.7949L170.534 73.7581C170.356 73.6985 170.179 73.7779 170.099 73.9367C170.06 74.0359 168.934 76.5766 169.941 78.7401C170.455 79.8516 171.423 80.6456 172.826 81.1021C172.866 81.1021 172.905 81.1219 172.945 81.1418C174.921 81.7571 176.344 81.5388 177.352 80.9433L177.529 80.8242C179.031 79.8516 179.604 78.1049 179.861 77.2911L179.901 77.1919C179.96 77.0132 179.861 76.8148 179.683 76.7552L179.664 76.7949ZM173.143 80.5066C171.937 80.1295 171.107 79.4745 170.653 78.5813C171.502 78.3828 174.308 77.9858 176.68 80.5265C175.83 80.9036 174.684 80.983 173.143 80.5066ZM177.292 80.1692C174.605 77.1919 171.265 77.7278 170.396 77.9263C170.198 77.2117 170.218 76.4773 170.317 75.8422L178.596 78.5813C178.3 79.1569 177.885 79.7325 177.292 80.1494V80.1692ZM179.11 77.3308C179.051 77.5293 178.972 77.7477 178.873 77.966L170.435 75.1673C170.495 74.9093 170.574 74.6711 170.633 74.5123L179.11 77.3308Z" fill="black"/>
<path d="M178.875 77.966C178.974 77.7278 179.053 77.5095 179.112 77.3309L170.635 74.5123C170.576 74.6711 170.517 74.9093 170.438 75.1673L178.875 77.966Z" fill="white"/>
<path d="M177.29 80.1692C177.883 79.7524 178.298 79.1768 178.595 78.6012L170.315 75.8621C170.216 76.4972 170.196 77.2316 170.394 77.9462C171.283 77.7278 174.603 77.2118 177.29 80.1891V80.1692Z" fill="#DE5C56"/>
<path d="M170.652 78.5813C171.107 79.4745 171.937 80.1096 173.142 80.5066C174.683 80.983 175.83 80.9036 176.679 80.5265C174.308 77.9858 171.502 78.3828 170.652 78.5813Z" fill="#ED7580"/>
<path d="M177.312 75.1077C177.154 75.0482 177.055 74.9092 177.075 74.7504C177.095 74.4725 177.016 74.155 176.897 73.9168C176.383 72.7854 174.684 72.5274 173.854 73.4206C173.795 73.4801 173.736 73.5595 173.676 73.6389C173.577 73.7977 173.36 73.8572 173.202 73.758C173.044 73.6587 172.985 73.4404 173.083 73.2816C173.36 72.8251 173.815 72.4877 174.328 72.309C175.712 71.8327 177.47 72.6862 177.727 74.1947C177.767 74.413 177.786 74.6115 177.767 74.8298C177.767 75.0283 177.589 75.1673 177.391 75.1474C177.371 75.1474 177.332 75.1474 177.312 75.1474V75.1077Z" fill="black"/>
<path d="M171.878 66.1956C170.83 65.6994 169.783 65.5406 168.874 65.7192C167.965 65.8979 167.273 66.414 166.918 67.1682C166.562 67.9225 166.621 68.776 167.076 69.5898C167.53 70.4036 168.321 71.0983 169.388 71.5746C169.605 71.6739 169.842 71.7731 170.06 71.8327C171.957 72.4678 173.715 71.9915 174.367 70.5822C175.099 69.0141 174.051 67.1682 171.897 66.1758L171.878 66.1956ZM167.688 69.2722C167.352 68.6569 167.293 68.0217 167.55 67.4659C167.807 66.9102 168.321 66.533 169.012 66.3941C169.605 66.275 170.297 66.3346 170.988 66.5727C171.186 66.6323 171.384 66.7117 171.581 66.8109C171.641 66.8308 171.7 66.8705 171.759 66.9102C171.324 67.1484 170.672 67.6644 170.356 68.7164C170.02 69.7684 170.297 70.7211 170.514 71.2571C170.238 71.1777 169.961 71.0784 169.684 70.9593C168.775 70.5425 168.084 69.947 167.708 69.2722H167.688ZM171.324 71.3563C171.324 71.3563 170.633 70.1654 171.028 68.9149C171.127 68.5576 171.285 68.2202 171.522 67.9423C171.779 67.6446 172.095 67.4461 172.47 67.327C173.636 68.1606 174.17 69.3119 173.715 70.3043C173.34 71.1181 172.431 71.4952 171.344 71.396V71.3563H171.324Z" fill="black"/>
<path d="M170.356 68.7164C170.672 67.6645 171.344 67.1484 171.759 66.9102C171.7 66.8904 171.64 66.8507 171.581 66.811C171.383 66.7117 171.186 66.6323 170.988 66.5728C170.277 66.3346 169.605 66.275 169.012 66.3941C168.321 66.5331 167.807 66.9102 167.55 67.466C167.293 68.0217 167.352 68.6569 167.688 69.2722C168.064 69.9471 168.755 70.5425 169.664 70.9594C169.941 71.0983 170.218 71.1777 170.494 71.2571C170.277 70.7212 170.02 69.7486 170.336 68.7164H170.356Z" fill="white"/>
<path d="M173.692 70.3242C174.147 69.3516 173.633 68.2004 172.447 67.3469C172.072 67.466 171.736 67.6447 171.499 67.9622C171.262 68.2401 171.123 68.5974 171.005 68.9348C170.61 70.1853 171.301 71.3564 171.301 71.3762C171.301 71.3762 171.301 71.3961 171.301 71.4159C172.388 71.4953 173.297 71.1182 173.672 70.3242H173.692Z" fill="#2255B2"/>
<path d="M185.216 71.1578C184.583 70.4631 183.655 69.9669 182.528 69.7287C180.216 69.2325 178.28 70.1058 177.924 71.7929C177.608 73.3014 178.734 74.7306 180.631 75.3657C180.849 75.4451 181.086 75.5047 181.323 75.5444C182.449 75.7826 183.496 75.7032 184.346 75.326C185.196 74.9489 185.749 74.2939 185.907 73.4801C186.065 72.6663 185.828 71.8326 185.196 71.1379L185.216 71.1578ZM181.481 74.8894C179.564 74.4924 178.359 73.2419 178.616 71.9517C178.872 70.6616 180.473 70.0066 182.39 70.4035C182.607 70.4432 182.805 70.5028 183.002 70.5822C182.568 70.8402 181.955 71.3761 181.619 72.4083C181.303 73.4205 181.52 74.3733 181.718 74.9291C181.639 74.9291 181.56 74.9291 181.461 74.8894H181.481ZM182.291 72.6067C182.686 71.3563 183.437 71.0784 183.536 71.0387C183.615 70.999 183.674 70.9791 183.793 70.9395C184.149 71.1379 184.445 71.3563 184.682 71.6143C185.156 72.1304 185.354 72.7457 185.235 73.3412C185.117 73.9366 184.702 74.413 184.05 74.7107C183.615 74.9092 183.081 74.9886 182.489 74.9886C182.331 74.671 181.935 73.6786 182.271 72.6067H182.291Z" fill="black"/>
<path d="M181.62 72.4083C181.936 71.3762 182.569 70.8402 183.003 70.5822C182.806 70.5227 182.608 70.4631 182.391 70.4036C180.474 70.0066 178.893 70.6417 178.616 71.9518C178.36 73.2419 179.565 74.4924 181.482 74.8894C181.561 74.8894 181.64 74.9092 181.739 74.9291C181.541 74.3733 181.304 73.4206 181.64 72.4083H181.62Z" fill="white"/>
<path d="M184.702 71.6143C184.465 71.3563 184.149 71.1181 183.813 70.9395C183.675 70.999 183.635 71.0188 183.556 71.0387C183.457 71.0784 182.706 71.3563 182.311 72.6068C181.975 73.6786 182.37 74.671 182.529 74.9886C183.102 74.9886 183.635 74.9092 184.09 74.7107C184.722 74.413 185.137 73.9366 185.275 73.3412C185.394 72.7457 185.196 72.1304 184.722 71.6143H184.702Z" fill="#2255B2"/>
</g>
<defs>
<radialGradient id="paint0_radial_350_4545" cx="0" cy="0" r="1" gradientUnits="userSpaceOnUse" gradientTransform="translate(251.655 52.3455) rotate(-17.1619) scale(3.94217 3.28608)">
<stop stop-color="#D32E5B" stop-opacity="0.8"/>
<stop offset="0.14" stop-color="#D32E5C" stop-opacity="0.78"/>
<stop offset="0.27" stop-color="#D32E5F" stop-opacity="0.73"/>
<stop offset="0.38" stop-color="#D32E66" stop-opacity="0.65"/>
<stop offset="0.49" stop-color="#D32F6E" stop-opacity="0.53"/>
<stop offset="0.54" stop-color="#D33073" stop-opacity="0.47"/>
<stop offset="0.57" stop-color="#D3346F" stop-opacity="0.43"/>
<stop offset="0.76" stop-color="#D54D5A" stop-opacity="0.2"/>
<stop offset="0.91" stop-color="#D75D4C" stop-opacity="0.05"/>
<stop offset="1" stop-color="#D86348" stop-opacity="0"/>
</radialGradient>
<radialGradient id="paint1_radial_350_4545" cx="0" cy="0" r="1" gradientUnits="userSpaceOnUse" gradientTransform="translate(255.935 214.891) rotate(-120.239) scale(3.95376 3.27645)">
<stop stop-color="#D32E5B" stop-opacity="0.8"/>
<stop offset="0.14" stop-color="#D32E5C" stop-opacity="0.78"/>
<stop offset="0.27" stop-color="#D32E5F" stop-opacity="0.73"/>
<stop offset="0.38" stop-color="#D32E66" stop-opacity="0.65"/>
<stop offset="0.49" stop-color="#D32F6E" stop-opacity="0.53"/>
<stop offset="0.54" stop-color="#D33073" stop-opacity="0.47"/>
<stop offset="0.57" stop-color="#D3346F" stop-opacity="0.43"/>
<stop offset="0.76" stop-color="#D54D5A" stop-opacity="0.2"/>
<stop offset="0.91" stop-color="#D75D4C" stop-opacity="0.05"/>
<stop offset="1" stop-color="#D86348" stop-opacity="0"/>
</radialGradient>
<clipPath id="clip0_350_4545">
<rect width="203" height="126" fill="white"/>
</clipPath>
</defs>
</svg>
