<svg width="169" height="50" viewBox="0 0 169 50" fill="none" xmlns="http://www.w3.org/2000/svg">
<g clip-path="url(#clip0_350_4489)">
<path d="M167.926 24.1291C167.578 19.923 166.098 16.092 163.284 12.8682C161.018 10.2784 157.702 8.30484 154.285 7.62614C150.785 6.92959 147.213 7.36717 143.951 8.69777C143.869 7.34931 143.165 6.12587 142.051 5.26857C141.895 5.15248 141.749 5.03638 141.594 4.92029C141.566 4.79527 141.539 4.67025 141.511 4.54522C141.246 3.27713 140.707 2.21444 139.62 1.39286C137.939 0.124775 135.655 0.249797 133.983 1.43751C133.846 1.53575 133.7 1.63398 133.563 1.74114C133.398 1.72328 133.224 1.70542 133.06 1.68756C131.616 1.53575 130.109 1.94653 129.086 2.99137C127.88 4.21481 127.56 5.9294 127.962 7.53684C128.007 7.70651 128.062 7.88512 128.117 8.05479C128.144 8.13516 128.163 8.21553 128.19 8.29591C128.163 8.34949 128.144 8.40307 128.117 8.45665C128.081 8.54595 128.044 8.62632 128.007 8.70669C127.541 8.49237 127.066 8.28698 126.582 8.09944C121.941 6.30447 116.477 6.75991 111.836 8.3227C109.095 9.24251 106.491 10.5106 103.923 11.8233C102.927 10.8767 101.831 10.0373 100.579 9.34967C98.3498 8.10837 95.9377 7.44754 93.3977 7.23321C88.8203 6.84921 84.1514 8.76921 80.7617 11.6983C79.5009 12.7878 78.441 14.0291 77.5639 15.3954C75.8097 12.511 73.2971 10.073 70.1906 8.66204C67.276 7.33144 64.0873 6.65275 60.8621 6.88493C57.8561 7.09926 55.106 7.87619 52.3558 9.02818C50.4371 9.8319 48.6464 10.8589 46.8921 11.9484C46.5815 11.4125 46.2251 10.9125 45.7774 10.3856C44.6445 9.04604 42.9085 8.028 41.1726 7.68865C39.5554 7.3761 38.0113 7.57256 36.4306 7.92084C33.8449 8.5013 31.2684 9.08176 28.6827 9.66223C22.2688 11.1089 15.864 12.5467 9.45005 13.9934C8.77394 14.1452 8.06128 14.2702 7.40344 14.4845C5.36596 15.1364 3.7305 16.2349 2.46964 17.9227C1.48288 19.2443 1.04432 20.9321 0.998632 22.5485C0.962085 23.897 1.32755 25.2365 1.61993 26.5492C1.97626 28.1209 2.32345 29.6837 2.67978 31.2554C3.30107 34.0238 3.90409 36.8011 4.5528 39.5695C4.91826 41.1233 5.74056 42.5254 6.82783 43.6952C8.36279 45.3473 10.4825 46.1867 12.7027 46.4368C14.0367 46.5886 15.398 46.285 16.7137 46.0885C22.2871 45.2669 27.8696 44.4632 33.4338 43.6148C33.6074 43.5881 33.781 43.5613 33.9546 43.5345L39.199 45.508C40.0396 45.8206 40.8802 46.1957 41.7299 46.4636C43.4476 46.9905 45.4577 46.4904 46.6546 45.1687C47.4677 44.2667 47.8423 43.2666 47.9154 42.186C48.089 42.4896 48.2992 42.7754 48.5458 43.0344C49.4504 43.9988 50.8666 44.4364 52.0909 44.8829C52.9132 45.1866 53.7629 45.4277 54.6309 45.6063C59.5555 46.6422 64.5624 46.0706 69.1216 44.0346C69.5602 43.8381 69.9805 43.6238 70.4008 43.4005C70.5469 44.0971 70.8302 44.6686 71.2779 45.2401C71.6799 45.7492 72.0179 46.1064 72.6301 46.4457C72.7397 46.5082 72.8585 46.5529 72.9773 46.6065C73.0504 46.6333 73.1143 46.669 73.1874 46.6958C73.2057 46.7404 73.224 46.7761 73.2514 46.8208C73.8453 48.071 75.0056 48.973 76.3487 49.357C78.0573 49.8481 79.8755 49.1069 80.9902 47.8299C81.0176 47.7942 81.045 47.7674 81.0724 47.7317C81.1637 47.7227 81.246 47.7049 81.3282 47.6959C81.4287 47.6781 81.5292 47.6692 81.6297 47.6513C81.5566 47.6602 81.4744 47.6692 81.4013 47.6781C81.8947 47.5977 82.3058 47.4906 82.8906 47.1512C83.9047 46.5707 84.6996 45.6063 85.0012 44.49C85.1382 43.9899 85.1747 43.4898 85.1291 43.0076C85.4763 43.1683 85.8326 43.3201 86.1889 43.463C87.3219 43.9185 88.4548 44.1596 89.6426 44.3293C92.7765 44.7043 95.7916 44.3918 98.7244 43.1862C100.616 42.4093 102.379 41.3109 103.887 39.9356C103.914 40.0428 103.941 40.1499 103.978 40.2571C104.407 41.4805 105.221 42.3468 106.354 42.9987C108.153 44.0435 110.164 44.8561 112.201 45.3473C117.299 46.5707 122.644 46.0617 127.368 43.847C130.694 42.2932 133.526 39.6945 135.408 36.5868C137.601 39.9356 140.881 42.5611 144.773 43.7756C148.245 44.8561 152.274 44.7758 155.673 43.472C159.383 42.0431 162.361 39.6945 164.618 36.4796C167.112 32.9254 168.346 28.4335 167.926 24.1381V24.1291Z" fill="#4416CE"/>
<path d="M90.457 44.4366C90.1829 44.4009 89.9179 44.3651 89.6529 44.3205C89.5707 44.3116 89.4885 44.3026 89.4062 44.2937C89.7626 44.3384 90.1098 44.383 90.457 44.4366Z" fill="#4416CE"/>
<path d="M105.515 22.1379C105.03 20.0393 104.162 18.1639 102.929 16.5208C102.545 16.0117 102.134 15.5295 101.686 15.0741C99.1371 12.4932 95.7749 11.0823 92.3669 11.0823C91.1791 11.0823 89.9822 11.2877 88.831 11.627C83.4221 13.163 79.5938 17.6996 78.6984 23.4774C78.5705 24.3883 78.4883 25.2634 78.4883 26.1386C78.4883 30.6305 80.4435 34.8723 83.7693 37.6228C84.3175 38.0693 84.8748 38.4623 85.4413 38.8105C87.0037 39.7661 88.6665 40.3644 90.4482 40.5787C91.0055 40.6591 91.5537 40.6591 92.1933 40.6591C93.2166 40.6591 94.1942 40.5787 95.1262 40.3287C100.234 39.0784 104.062 35.167 105.505 29.7643C105.843 28.4783 106.017 27.1834 106.017 25.9332C106.017 24.683 105.843 23.4417 105.505 22.1468L105.515 22.1379ZM93.2897 18.8962C94.9891 19.3516 96.387 20.6287 97.2184 22.1468C99.0092 25.4063 98.2418 29.5499 95.2906 31.8986C94.5414 32.488 93.6369 32.9166 92.6775 32.9791C89.6533 33.1667 87.2595 30.4072 86.6199 27.7728C86.428 26.9691 86.3458 26.1118 86.3641 25.2277C86.4555 21.7092 89.233 17.8156 93.2805 18.8962H93.2897Z" fill="#F7CE46"/>
<path d="M92.1934 40.6412C93.2167 40.6412 94.1943 40.5609 95.1263 40.3108C100.234 39.0606 104.062 35.1492 105.506 29.7464C105.844 28.4604 106.017 27.1656 106.017 25.9153C106.017 24.6651 105.844 23.4238 105.506 22.1289C105.021 20.0303 104.153 18.155 102.92 16.5118C103.267 17.4227 103.569 18.3515 103.824 19.2891C105.295 24.6562 104.053 31.202 99.9596 35.2117C97.6754 37.4442 94.6055 38.8105 91.4076 39.1678C89.891 39.3374 88.356 39.266 86.8485 39.0338C86.3916 38.9624 85.9165 38.8909 85.4414 38.7927C87.0038 39.7482 88.6667 40.3465 90.4483 40.5609C91.0056 40.6412 91.5538 40.6412 92.1934 40.6412Z" fill="#F19A38"/>
<path d="M163.951 24.1293C163.768 21.736 163.083 19.5392 161.895 17.5746C161.694 17.2352 161.475 16.9048 161.247 16.5744C159.118 13.6542 156.011 11.761 152.64 11.2609C151.461 11.0913 150.255 11.118 149.067 11.2788C143.485 12.0111 139.008 15.9314 137.236 21.5217C136.971 22.4058 136.751 23.2631 136.614 24.1204C135.929 28.5587 137.217 33.0417 140.077 36.2387C140.369 36.5602 140.68 36.8638 140.991 37.1496C142.535 38.5873 144.271 39.5964 146.235 40.1323C146.765 40.293 147.313 40.3734 147.944 40.4716C148.958 40.6234 149.935 40.677 150.895 40.5698C156.139 40.0787 160.516 36.7745 162.782 31.6396C163.312 30.4162 163.677 29.166 163.869 27.9336C164.061 26.7012 164.079 25.4421 163.942 24.1204L163.951 24.1293ZM144.554 24.3972C145.184 20.9323 148.528 17.4853 152.357 19.1463C153.965 19.8428 155.153 21.3074 155.746 22.9327C157.026 26.4155 155.628 30.3983 152.348 32.2915C151.516 32.7648 150.557 33.0595 149.607 32.9792C146.591 32.7291 144.636 29.6393 144.417 26.9513C144.344 26.1297 144.399 25.2724 144.554 24.3972Z" fill="#ED739F"/>
<path d="M147.954 40.4895C148.968 40.6413 149.946 40.6949 150.905 40.5877C156.15 40.0965 160.526 36.7924 162.792 31.6575C163.322 30.4341 163.688 29.1838 163.88 27.9515C164.071 26.7191 164.09 25.4599 163.953 24.1383C163.77 21.745 163.085 19.5481 161.897 17.5835C162.125 18.6015 162.29 19.6374 162.409 20.6733C162.875 24.7366 162.345 28.3801 160.243 31.97C157.767 36.1762 153.382 38.6766 147.9 38.5159C146.081 38.4623 144.345 38.239 142.609 37.7122C142.089 37.5514 141.54 37.3728 140.992 37.1674C142.536 38.6052 144.272 39.6143 146.237 40.1501C146.767 40.3109 147.315 40.3912 147.945 40.4895H147.954Z" fill="#DD468F"/>
<path d="M134.332 23.5756C134.168 22.2629 133.848 20.977 133.382 19.7625C132.139 16.5386 129.809 13.7703 126.337 12.1896C122.135 10.2607 117.786 10.7608 114.862 11.4931C111.5 12.3325 108.439 13.8953 105.762 15.2706L109.343 21.9325C109.946 21.6021 110.549 21.2717 111.152 20.9859L111.344 33.506L109.188 36.6584L107.845 38.623C107.653 38.8999 107.735 39.2749 108.028 39.4446C109.965 40.6145 112.888 41.8915 116.57 42.079C117.237 42.1326 117.895 42.1505 118.562 42.1147C122.619 41.9361 126.31 40.5162 129.152 38.0068C133.19 34.4437 134.981 28.7998 134.341 23.5667L134.332 23.5756ZM112.011 20.5662C113.61 19.8071 115.209 19.1284 116.826 18.7087C119.229 18.0836 121.44 18.155 123.067 18.9052C126.721 20.593 127.626 25.8975 126.283 29.2285C125.789 30.434 125.031 31.5057 124.062 32.3808C123.277 33.0952 122.363 33.6757 121.367 34.0865C120.042 34.6402 119.11 34.7205 119.11 34.7473C119.11 34.7741 118.891 20.4679 118.891 20.4679L116.936 20.4947L112.002 20.5662H112.011Z" fill="#ED739F"/>
<path d="M108.019 39.4535C109.956 40.6234 112.88 41.9004 116.562 42.0879C117.229 42.1415 117.887 42.1594 118.554 42.1237C122.611 41.9451 126.302 40.5252 129.143 38.0158C133.182 34.4526 134.973 28.8087 134.333 23.5756C134.169 22.2629 133.849 20.977 133.383 19.7625C133.566 22.3879 133.483 25.0223 132.899 27.5764C132.14 30.8538 130.441 33.899 127.727 36.069C125.343 37.989 122.218 39.4625 119.148 39.4714C115.448 39.4803 112.423 38.8016 109.052 36.8638L107.846 38.623C107.654 38.8999 107.736 39.2749 108.029 39.4446L108.019 39.4535Z" fill="#DD468F"/>
<path d="M119.119 34.7473L118.899 20.4679L116.944 20.4947C116.935 20.6197 116.926 20.7447 116.926 20.8698C117.045 24.799 116.999 28.7194 117.099 32.6398C117.099 32.6398 117.099 32.6487 117.099 32.6576C117.099 32.6844 117.099 32.7112 117.099 32.738C117.099 32.8987 117.099 33.0595 117.109 33.2292C117.127 33.9971 118.104 34.8277 119.119 34.7473Z" fill="#DD468F"/>
<path d="M76.0487 21.9772C75.7472 20.6912 75.2904 19.4499 74.6873 18.2801C73.0976 15.2081 70.4845 12.6987 66.8664 11.4753C62.4808 9.99286 58.2048 10.9395 55.3816 11.9754C52.1289 13.1631 49.2509 15.0384 46.7383 16.6816L51.0234 22.9327C51.5898 22.5398 52.1472 22.1558 52.7228 21.8075L54.276 34.2294L52.467 37.5961L51.3432 39.6858C51.1878 39.9805 51.3066 40.3377 51.6081 40.4895C53.6639 41.4539 56.7064 42.4184 60.3885 42.2219C61.0554 42.213 61.7133 42.1505 62.3711 42.0523C66.3821 41.445 69.8997 39.659 72.458 36.8728C76.0944 32.9167 77.2547 27.112 76.0487 21.9772ZM53.5268 21.2985C55.0344 20.3698 56.5511 19.5303 58.1134 18.9498C60.4341 18.0747 62.6452 17.9229 64.3355 18.4944C68.1546 19.7982 69.6348 24.9688 68.648 28.4248C68.2917 29.675 67.643 30.8181 66.7841 31.7915C66.0806 32.5863 65.24 33.256 64.2898 33.765C63.029 34.4527 62.1153 34.6313 62.1153 34.6581C62.1153 34.6849 60.3519 20.4769 60.3519 20.4769L58.4058 20.7091L53.5086 21.2896L53.5268 21.2985Z" fill="#F7CE46"/>
<path d="M51.6067 40.4894C53.6624 41.4539 56.7049 42.4184 60.387 42.2219C61.054 42.213 61.7118 42.1505 62.3696 42.0522C66.3806 41.445 69.8983 39.6589 72.4565 36.8727C76.0929 32.9166 77.2533 27.112 76.0472 21.9771C75.7457 20.6912 75.2889 19.4499 74.6859 18.28C75.1518 20.8698 75.362 23.4953 75.0513 26.1029C74.6585 29.4428 73.288 32.6398 70.8302 35.0867C68.6648 37.2388 65.7228 39.0338 62.6712 39.3642C58.9891 39.7572 55.91 39.391 52.3467 37.8193L51.3417 39.6946C51.1864 39.9893 51.3051 40.3466 51.6067 40.4984V40.4894Z" fill="#F19A38"/>
<path d="M62.1314 34.667L60.368 20.4858L58.4219 20.718C58.4219 20.843 58.4219 20.9681 58.4493 21.0931C58.9884 24.9867 59.3812 28.8892 59.902 32.7827C59.902 32.7827 59.902 32.7917 59.902 32.8006C59.902 32.8274 59.902 32.8542 59.9112 32.881C59.9294 33.0417 59.9477 33.2024 59.9751 33.3632C60.0848 34.1312 61.1355 34.8545 62.1314 34.6581V34.667Z" fill="#F19A38"/>
<path d="M87.972 15.2081C87.6888 14.7437 87.1132 14.5919 86.565 14.8419C85.295 15.4224 84.1346 16.494 83.0199 18.1193C82.1976 19.3249 81.5215 20.6823 81.083 22.0486C81.0007 22.2897 81.0373 22.5576 81.1652 22.7898C81.3022 23.0399 81.5398 23.2274 81.8048 23.2988C81.8961 23.3256 81.9875 23.3346 82.0697 23.3346C82.5174 23.3346 82.9286 23.0488 83.0748 22.5934C83.1661 22.3254 83.2666 22.0486 83.3763 21.7718C83.3945 21.7182 83.422 21.6646 83.4402 21.611L83.4859 21.5128C83.5499 21.3699 83.6138 21.227 83.6869 21.0931C84.0067 20.4322 84.363 19.8071 84.7559 19.2356C85.6422 17.9229 86.5467 17.0924 87.6066 16.6101C87.8258 16.5119 87.9903 16.3154 88.0725 16.0654C88.1639 15.7796 88.1273 15.4581 87.9903 15.217L87.972 15.2081Z" fill="white"/>
<path d="M56.4345 14.699C56.2335 14.1632 55.6761 13.8863 55.1371 14.0381C53.4194 14.5382 51.8296 15.4045 50.4317 16.6279C50.2489 16.7886 50.1484 17.0387 50.1484 17.3155C50.1484 17.6192 50.2764 17.896 50.4774 18.0746C50.6875 18.2443 50.9251 18.3336 51.1626 18.3336C51.4276 18.3336 51.6925 18.2264 51.9301 18.0299L51.994 17.9764C52.0397 17.9317 52.0945 17.8871 52.1494 17.8513C52.1494 17.8513 52.1676 17.8335 52.1768 17.8246L52.259 17.762C52.4143 17.6459 52.5697 17.5299 52.7341 17.4138C53.0539 17.1905 53.392 16.9851 53.73 16.7976C53.9036 16.7083 54.0772 16.619 54.2508 16.5297L54.3422 16.485C54.3422 16.485 54.3513 16.485 54.3604 16.485L54.4427 16.4493C54.5066 16.4225 54.5706 16.3957 54.6345 16.3689C54.9817 16.226 55.3563 16.101 55.7492 15.9849C56.0142 15.9046 56.2335 15.717 56.3705 15.458C56.4984 15.2169 56.5167 14.9401 56.4345 14.7079V14.699Z" fill="white"/>
<path d="M115.28 14.1811C115.088 13.6542 114.595 13.4042 113.992 13.5113C112.503 13.7971 111.032 14.3865 109.725 15.217C109.488 15.3688 109.314 15.6189 109.259 15.9046C109.204 16.1636 109.259 16.4226 109.405 16.619C109.625 16.9227 109.963 17.0923 110.292 17.0923C110.474 17.0923 110.666 17.0388 110.831 16.9316C111.141 16.7351 111.452 16.5565 111.763 16.3958L111.817 16.369C111.936 16.3065 112.055 16.244 112.174 16.1904C112.21 16.1725 112.256 16.1547 112.32 16.1279C112.393 16.0922 112.475 16.0654 112.548 16.0296C113.197 15.7796 113.873 15.5831 114.577 15.4403C114.814 15.3956 115.034 15.2349 115.171 14.9937C115.326 14.7348 115.362 14.4133 115.271 14.1632L115.28 14.1811Z" fill="white"/>
<path d="M139.61 8.30497L137.993 7.06367L137.554 4.99187C137.554 4.99187 137.481 4.53643 137.116 4.39354C136.75 4.25066 136.367 4.5275 136.357 4.53643L134.667 5.742L132.639 5.52768C132.575 5.52768 132.018 5.4741 131.835 5.82237C131.67 6.14386 131.78 6.50107 131.789 6.51L132.383 8.50143L131.542 10.4214C131.515 10.475 131.305 10.9572 131.57 11.243C131.807 11.5109 132.237 11.5466 132.273 11.5556L134.293 11.5734L135.782 12.9487C135.782 12.9487 136.047 13.1541 136.348 13.1898C136.394 13.1898 136.449 13.1898 136.495 13.1898C136.887 13.163 137.061 12.6629 137.07 12.6093L137.774 10.6358L139.564 9.59985C139.564 9.59985 139.912 9.41231 140.003 9.06404C140.113 8.68897 139.674 8.34069 139.619 8.29604L139.61 8.30497Z" fill="#F7EBA1"/>
<path d="M80.2513 41.5254L80.5162 39.9269C80.5528 39.784 80.5528 39.4893 80.3426 39.2928C80.096 39.0517 79.7214 39.141 79.6848 39.1499L78.1498 39.5071L76.7702 38.7659C76.7245 38.7391 76.2951 38.5159 76.021 38.7481C75.7926 38.9445 75.7652 39.2571 75.7652 39.2839L75.6281 40.8645L74.4952 41.9719C74.4952 41.9719 74.1297 42.3202 74.2576 42.6595C74.3673 42.9453 74.6688 43.106 74.7053 43.1239L76.1398 43.7311L76.8159 45.151C76.8159 45.151 76.9986 45.4636 77.2727 45.5618C77.2819 45.5618 77.291 45.5618 77.3001 45.5707C77.6382 45.6779 77.9306 45.3386 77.958 45.3028L79.0087 44.1062L80.5619 43.8919C80.5619 43.8919 80.9 43.8472 81.0827 43.6061C81.2929 43.3293 81.0553 42.9006 81.0279 42.856L80.2239 41.5075L80.2513 41.5254Z" fill="#F7EBA1"/>
<path d="M46.0534 32.7737L44.2444 16.2528C43.9246 13.3862 41.7957 11.2698 39.1827 11.3769C38.8811 11.3859 38.5796 11.4216 38.269 11.493L9.43366 17.9853C5.71504 18.7176 4.49072 21.227 5.13029 24.0935L8.40122 38.6051C8.50172 39.0606 8.66618 39.4981 8.88546 39.8911C9.8905 41.7575 12.0285 42.8827 14.267 42.5523L31.6449 39.9804L34.4224 39.5607L42.883 42.7398C42.9561 42.7666 43.02 42.7755 43.0931 42.7755C43.7144 42.838 44.1439 42.3022 44.0159 41.6235C44.0159 41.6235 43.2119 37.9889 43.2119 37.98C43.2119 37.9711 43.7236 37.6942 43.7784 37.6674C43.9611 37.5514 44.1347 37.4174 44.2992 37.2834C44.6281 37.0066 44.9296 36.6851 45.1763 36.3368C45.688 35.6314 45.9986 34.7919 46.09 33.9346C46.1265 33.5417 46.1082 33.1577 46.0626 32.7737H46.0534Z" fill="white"/>
<path d="M26.8836 18.8336C27.1211 20.6375 28.2997 29.5141 29.4327 34.0953C29.4784 34.2739 29.3596 34.4615 29.1677 34.515L25.641 35.417C25.4491 35.4616 25.2572 35.3545 25.2115 35.1759C24.7913 33.5059 24.4167 31.8003 24.0877 30.0946C24.0512 29.9071 23.8684 29.791 23.6674 29.8267C21.8675 30.2107 20.0767 30.6393 18.2859 31.1126C18.1124 31.1573 17.9936 31.3359 18.021 31.5056L18.8159 36.2386C18.8433 36.4261 18.7154 36.6047 18.5235 36.6404L14.9328 37.2745C14.7409 37.3102 14.5582 37.1852 14.5308 36.9976L11.9451 21.4502C11.9177 21.2626 12.0456 21.084 12.2375 21.0483L15.8282 20.4143C16.0201 20.3785 16.2028 20.5036 16.2302 20.6911L17.2261 26.6743C17.2626 26.8708 17.4636 26.9958 17.6647 26.9422C19.4372 26.4689 21.2188 26.0492 23.0096 25.6652C23.1923 25.6295 23.3111 25.4509 23.2928 25.2723C22.9913 23.2808 22.7538 21.2805 22.571 19.289C22.5528 19.1015 22.699 18.9318 22.9 18.914L26.5089 18.5478C26.7008 18.53 26.8653 18.655 26.8927 18.8336H26.8836Z" fill="black"/>
<path d="M37.0291 19.0302C37.0473 18.3604 36.5174 17.8067 35.8322 17.7799L32.7988 17.6906C32.1135 17.6728 31.5471 18.1907 31.5197 18.8605L31.4648 20.4501L36.9743 20.6197L37.0291 19.0302Z" fill="black"/>
<path d="M31.2999 31.7558L33.2095 33.4436L33.1912 34.1401C33.1912 34.417 33.4105 34.6581 33.6937 34.6581H33.8582C34.1414 34.6759 34.3881 34.4527 34.3881 34.1758L34.4064 33.4793L36.4256 31.9076C36.5535 31.8093 36.6266 31.6665 36.6266 31.5146L36.919 22.254L31.4096 22.0844L31.1172 31.345C31.1172 31.4968 31.1811 31.6486 31.2908 31.7558H31.2999Z" fill="black"/>
<path d="M31.7558 38.0693L14.3413 40.6144C13.4094 40.7395 12.7698 40.7305 11.7648 40.6591C11.7648 40.6591 11.5181 40.6323 11.5089 40.6323C11.2714 40.6055 11.0247 40.5698 10.7871 40.5341C10.2207 40.4537 9.45319 40.1858 8.88672 39.9C9.89175 41.7664 12.0297 42.8916 14.2682 42.5612L31.6462 39.9893L34.4237 39.5696C34.241 39.2838 34.1861 39.2035 34.0674 39.0695C33.3273 38.2658 33.0167 37.9264 31.7649 38.0783L31.7558 38.0693Z" fill="#C7B9F0"/>
<path d="M43.1206 22.9256C43.3034 24.3812 43.4678 25.8279 43.614 27.2836C43.7328 28.4266 43.9247 29.5697 44.0343 30.7217C44.0983 31.3736 44.1348 32.0255 44.1165 32.6774C44.1165 32.8292 44.0983 32.981 44.0891 33.1328C44.0617 33.4543 43.9978 33.8562 43.8424 34.2938C43.7785 34.4813 43.6962 34.6599 43.6232 34.8117C43.5592 34.9278 43.4952 35.0439 43.4221 35.1511C43.3125 35.3207 43.1572 35.5172 42.9379 35.7226C42.7186 35.928 42.5085 36.0798 42.3257 36.187C42.1521 36.2941 41.9786 36.3924 41.7958 36.4817C41.2933 36.7406 40.8365 37.0264 41.1837 37.9462C41.7958 39.5447 42.143 41.0003 42.7643 42.5899C42.8009 42.6971 42.8465 42.7953 42.9014 42.9025C43.5227 42.965 43.9521 42.4292 43.8242 41.7505C43.8242 41.7505 43.0201 38.1159 43.0201 38.107C43.0201 38.098 43.5318 37.8212 43.5866 37.7944C43.7693 37.6783 43.9429 37.5444 44.1074 37.4104C44.4363 37.1336 44.7378 36.8121 44.9845 36.4638C45.4962 35.7583 45.8068 34.9189 45.8982 34.0616C45.9347 33.6686 45.9165 33.2847 45.8708 32.9007L44.0617 16.3798C43.7419 13.5132 41.6131 11.3967 39 11.5039C39.2832 11.62 39.4477 11.7271 39.667 11.8522C39.667 11.8522 41.6953 12.9506 42.2892 16.4959L43.1115 22.9345L43.1206 22.9256Z" fill="#C7B9F0"/>
<path d="M149.608 32.9791C150.568 33.0595 151.527 32.7648 152.349 32.2915C155.629 30.4072 157.018 26.4243 155.748 22.9326C155.154 21.3073 153.967 19.8428 152.358 19.1462C148.53 17.4852 145.186 20.9323 144.556 24.3972C144.4 25.2723 144.346 26.1296 144.419 26.9512C144.647 29.6481 146.593 32.7291 149.608 32.9791Z" fill="black"/>
<path d="M146.595 23.8256L139.861 17.9496C139.861 17.9496 139.861 17.9406 139.861 17.9317C139.733 17.6459 139.039 16.235 138.299 16.0028C138.116 15.9492 137.942 15.9581 137.778 16.0385C137.659 16.0831 137.504 16.1814 137.431 16.3689C137.412 16.4136 137.394 16.4582 137.385 16.5118C137.23 16.4136 137.065 16.3421 136.901 16.3243C136.691 16.2975 136.49 16.36 136.334 16.5029C136.17 16.6457 136.097 16.8243 136.106 17.0297C136.106 17.0833 136.115 17.1369 136.133 17.1905C136.097 17.1905 136.06 17.1905 136.024 17.1905C135.85 17.1994 135.713 17.2709 135.612 17.3959C135.384 17.6727 135.457 17.9763 135.631 18.2621C135.484 18.28 135.347 18.3425 135.229 18.4764C135.092 18.6282 135.046 18.8247 135.101 19.048C135.229 19.6284 136.024 20.3071 137.284 20.9322C137.284 20.9322 137.284 20.9322 137.294 20.9322L144.722 28.2193C144.722 28.2193 144.786 28.2729 144.822 28.2818C144.859 28.2907 144.895 28.2907 144.923 28.2818C144.996 28.2729 145.06 28.2193 145.096 28.1568L146.668 24.1114C146.713 24.0221 146.686 23.906 146.604 23.8435L146.595 23.8256Z" fill="black"/>
<path d="M155.989 26.5672C157.533 26.594 158.638 26.4868 159.963 26.2814C161.9 25.9778 164.824 25.2902 166.679 23.6917C166.715 23.656 166.742 23.6202 166.752 23.5667C166.761 23.4952 167.702 16.7618 163.682 11.6627C160.438 7.54588 154.691 5.24189 149.401 6.21529C146.075 6.83147 143.471 8.76039 142.037 11.8324C140.155 15.8331 142.128 21.0216 145.372 23.5399C146.815 24.6561 148.332 25.2098 150.123 25.7456C151.046 26.0225 153.193 26.5047 155.979 26.5583L155.989 26.5672Z" fill="black"/>
<path d="M154.517 11.8413C152.937 11.377 151.256 11.1448 149.648 11.3323C149.191 11.3859 148.734 11.4752 148.295 11.6181C147.519 11.8592 146.806 12.2611 146.203 12.7879C145.71 13.2255 145.308 13.7435 144.979 14.3061C142.155 19.1552 146.897 22.4504 146.943 22.4772C146.98 22.504 150.598 25.0402 155.924 24.8973C159.771 24.7991 162.357 20.9323 161.297 17.3959C160.593 15.0562 158.446 13.3773 156.244 12.4575C155.687 12.2253 155.102 12.0199 154.508 11.8413H154.517Z" fill="#EAB3B1"/>
<path d="M138.134 16.5208C138.089 16.5029 138.034 16.5208 137.997 16.5476C137.961 16.5744 137.952 16.619 137.961 16.6637C137.961 16.7262 137.979 16.7798 137.997 16.8423C138.034 16.9405 138.08 17.0387 138.125 17.128C138.162 17.1995 138.207 17.2709 138.253 17.3334C138.335 17.4585 138.299 17.6192 138.171 17.6996C138.043 17.7799 137.924 17.7264 137.824 17.6103C137.577 17.3245 137.129 16.878 136.864 16.8423C136.81 16.8423 136.773 16.8423 136.736 16.878C136.691 16.9137 136.682 16.9494 136.682 16.9852C136.682 17.1638 136.919 17.4406 137.148 17.6639C137.294 17.771 137.394 17.8693 137.44 17.9139C137.55 18.0121 137.559 18.1818 137.458 18.289C137.358 18.3961 137.202 18.3961 137.084 18.3068C136.864 18.1461 136.672 17.9675 136.453 17.8067C136.38 17.7532 136.307 17.6996 136.225 17.6728C136.17 17.6549 136.115 17.6549 136.069 17.6906C135.978 17.771 136.051 17.8871 136.106 17.9586C136.28 18.2175 136.508 18.414 136.746 18.6105L136.782 18.6462C136.892 18.7444 136.91 18.9052 136.81 19.0212C136.709 19.1284 136.545 19.1552 136.417 19.057C136.234 18.923 135.987 18.7712 135.823 18.7355C135.741 18.7176 135.658 18.7533 135.64 18.8426C135.631 18.9052 135.64 18.9677 135.677 19.0212C135.731 19.1195 135.804 19.2088 135.878 19.2981C136.06 19.5035 136.28 19.6731 136.499 19.825C136.618 19.9053 136.746 19.9857 136.873 20.0661C136.947 20.1107 137.02 20.1465 137.084 20.1911C137.102 20.2 137.303 20.3161 137.312 20.3161L139.267 17.9853C138.966 17.387 138.463 16.6101 138.116 16.5029L138.134 16.5208Z" fill="#EAB3B1"/>
<path opacity="0.25" d="M160.397 21.2985C160.763 22.3612 159.986 23.5399 158.661 23.9418C157.337 24.3347 155.975 23.7989 155.61 22.7362C155.244 21.6735 156.021 20.4947 157.346 20.0929C158.671 19.7 160.032 20.2358 160.397 21.2985Z" fill="url(#paint0_radial_350_4489)"/>
<path opacity="0.25" d="M145.268 16.1636C144.263 16.7083 144.016 18.0925 144.71 19.2534C145.405 20.4144 146.784 20.9144 147.789 20.3786C148.794 19.8339 149.041 18.4497 148.347 17.2888C147.652 16.1279 146.273 15.6278 145.268 16.1636Z" fill="url(#paint1_radial_350_4489)"/>
<path d="M148.227 13.0648C148.154 13.038 148.099 12.9844 148.081 12.913C148.053 12.7969 148.117 12.6808 148.236 12.654C148.309 12.6362 149.944 12.2522 151.278 13.1273C151.379 13.1898 151.406 13.3238 151.342 13.422C151.278 13.5203 151.132 13.547 151.032 13.4756C149.862 12.7165 148.364 13.0648 148.355 13.0648C148.309 13.0737 148.272 13.0648 148.227 13.0648Z" fill="black"/>
<path d="M158.963 16.1993C158.963 16.1993 158.899 16.1725 158.871 16.1457C158.862 16.1368 157.775 15.0652 156.377 15.1009C156.258 15.1009 156.148 15.0116 156.148 14.8955C156.148 14.7794 156.24 14.6812 156.359 14.6723C157.967 14.6276 159.145 15.7975 159.191 15.8511C159.273 15.9404 159.273 16.0743 159.191 16.1547C159.127 16.2083 159.045 16.2261 158.963 16.1993Z" fill="black"/>
<path d="M155.043 20.8966L149.242 19.0212C149.132 18.9855 149.013 19.0391 148.968 19.1373C148.94 19.1998 148.237 20.7716 148.867 22.1111C149.196 22.7987 149.808 23.2899 150.704 23.5756C150.731 23.5756 150.749 23.5935 150.777 23.5935C152.038 23.9775 152.933 23.8346 153.582 23.4685L153.691 23.397C154.641 22.7987 155.007 21.7092 155.171 21.2181L155.19 21.1556C155.226 21.0395 155.162 20.9234 155.043 20.8876V20.8966ZM150.905 23.1916C150.137 22.9505 149.607 22.5576 149.324 22.0039C149.863 21.8789 151.645 21.6378 153.152 23.2006C152.613 23.4328 151.891 23.4863 150.905 23.1827V23.1916ZM153.545 22.9952C151.837 21.1556 149.717 21.477 149.159 21.611C149.032 21.1734 149.05 20.718 149.105 20.325L154.367 22.0218C154.175 22.379 153.92 22.7273 153.545 22.9862V22.9952ZM154.696 21.2359C154.651 21.352 154.605 21.4949 154.55 21.6289L149.187 19.8964C149.233 19.7357 149.278 19.5928 149.306 19.4945L154.696 21.2359Z" fill="black"/>
<path d="M154.551 21.6288C154.606 21.4859 154.66 21.352 154.697 21.2359L149.306 19.4945C149.27 19.5927 149.224 19.7356 149.188 19.8964L154.551 21.6288Z" fill="white"/>
<path d="M153.545 22.9952C153.919 22.7362 154.184 22.379 154.367 22.0307L149.104 20.334C149.04 20.7269 149.031 21.1734 149.159 21.6199C149.725 21.486 151.836 21.1645 153.545 23.0041V22.9952Z" fill="#DE5C56"/>
<path d="M149.324 22.0129C149.617 22.5666 150.147 22.9595 150.905 23.2006C151.882 23.5043 152.604 23.4507 153.152 23.2185C151.645 21.6557 149.863 21.8968 149.324 22.0219V22.0129Z" fill="#ED7580"/>
<path d="M153.554 19.8517C153.462 19.825 153.389 19.7267 153.398 19.6285C153.416 19.4499 153.362 19.2624 153.289 19.1105C152.96 18.414 151.881 18.2443 151.352 18.8069C151.315 18.8516 151.278 18.8962 151.242 18.9409C151.178 19.0391 151.041 19.0748 150.931 19.0123C150.822 18.9498 150.794 18.8158 150.858 18.7176C151.032 18.4408 151.324 18.2175 151.644 18.1104C152.521 17.8157 153.645 18.3515 153.809 19.2802C153.837 19.4142 153.846 19.5481 153.837 19.6731C153.828 19.7892 153.718 19.8785 153.599 19.8696C153.581 19.8696 153.563 19.8696 153.544 19.8607L153.554 19.8517Z" fill="black"/>
<path d="M150.102 14.3508C149.435 14.0472 148.768 13.9489 148.193 14.065C147.608 14.1811 147.17 14.4937 146.95 14.9581C146.731 15.4224 146.768 15.9582 147.051 16.4583C147.334 16.9584 147.846 17.3871 148.513 17.6907C148.659 17.7532 148.796 17.8068 148.933 17.8514C150.139 18.2444 151.254 17.9497 151.665 17.0834C152.122 16.119 151.464 14.967 150.102 14.3508ZM147.435 16.2529C147.215 15.8689 147.188 15.476 147.352 15.1367C147.517 14.7973 147.846 14.5651 148.284 14.4758C148.659 14.4044 149.097 14.4401 149.545 14.583C149.673 14.6276 149.792 14.6723 149.92 14.7259C149.956 14.7437 149.993 14.7616 150.029 14.7795C149.755 14.9313 149.344 15.2528 149.134 15.8957C148.924 16.5387 149.097 17.137 149.234 17.4674C149.061 17.4228 148.878 17.3603 148.705 17.2799C148.129 17.0209 147.681 16.6548 147.444 16.2351L147.435 16.2529ZM149.746 17.5478C149.746 17.5478 149.308 16.8155 149.554 16.0386C149.627 15.8243 149.719 15.61 149.865 15.4314C150.02 15.2438 150.23 15.1277 150.468 15.0563C151.208 15.5742 151.546 16.2887 151.254 16.8959C151.016 17.396 150.44 17.6282 149.746 17.5746C149.746 17.5657 149.746 17.5567 149.737 17.5478H149.746Z" fill="black"/>
<path d="M149.123 15.9136C149.333 15.2706 149.744 14.9491 150.018 14.7973C149.982 14.7794 149.945 14.7616 149.909 14.7437C149.781 14.6901 149.662 14.6366 149.534 14.6008C149.086 14.4579 148.648 14.4133 148.273 14.4937C147.835 14.574 147.506 14.8152 147.341 15.1545C147.177 15.4939 147.213 15.8868 147.423 16.2708C147.661 16.6816 148.109 17.0566 148.684 17.3156C148.867 17.396 149.041 17.4585 149.214 17.5031C149.077 17.1727 148.913 16.5744 149.114 15.9314L149.123 15.9136Z" fill="white"/>
<path d="M151.26 16.8959C151.552 16.2886 151.214 15.5742 150.474 15.0563C150.237 15.1277 150.027 15.2438 149.871 15.4313C149.725 15.6099 149.625 15.8153 149.561 16.0386C149.314 16.8155 149.743 17.5389 149.753 17.5478C149.753 17.5478 149.753 17.5657 149.762 17.5746C150.456 17.6282 151.023 17.396 151.269 16.8959H151.26Z" fill="#2255B2"/>
<path d="M158.582 17.4139C158.18 16.9852 157.595 16.6816 156.873 16.5298C155.402 16.2262 154.169 16.7709 153.949 17.8157C153.757 18.7534 154.461 19.6375 155.676 20.0215C155.813 20.0661 155.959 20.1019 156.115 20.1376C156.836 20.2894 157.503 20.2358 158.043 20.0036C158.582 19.7714 158.938 19.3607 159.038 18.8606C159.148 18.3605 158.984 17.8425 158.582 17.4139ZM156.206 19.7268C154.991 19.4767 154.223 18.7177 154.388 17.914C154.552 17.1102 155.566 16.7084 156.782 16.9584C156.919 16.9852 157.047 17.0209 157.165 17.0656C156.891 17.2263 156.498 17.5568 156.288 18.1908C156.087 18.8248 156.224 19.4053 156.361 19.7536C156.307 19.7536 156.252 19.7447 156.206 19.7268ZM156.727 18.3158C156.974 17.5389 157.458 17.3692 157.522 17.3424C157.577 17.3156 157.604 17.3067 157.686 17.2799C157.905 17.396 158.106 17.5389 158.253 17.6996C158.554 18.0211 158.673 18.4051 158.6 18.7713C158.527 19.1374 158.253 19.441 157.851 19.6196C157.567 19.7447 157.229 19.7982 156.864 19.7893C156.763 19.5928 156.508 18.9767 156.727 18.3158Z" fill="black"/>
<path d="M156.294 18.1908C156.495 17.5568 156.897 17.2263 157.171 17.0656C157.043 17.021 156.915 16.9852 156.787 16.9584C155.563 16.7084 154.558 17.1103 154.393 17.914C154.229 18.7177 154.987 19.4768 156.212 19.7268C156.266 19.7357 156.321 19.7447 156.367 19.7536C156.239 19.4053 156.093 18.8249 156.294 18.1908Z" fill="white"/>
<path d="M158.251 17.6996C158.096 17.5389 157.904 17.396 157.685 17.2799C157.602 17.3156 157.566 17.3246 157.52 17.3424C157.456 17.3692 156.972 17.5389 156.725 18.3158C156.515 18.9766 156.771 19.5928 156.862 19.7893C157.228 19.7893 157.566 19.7446 157.849 19.6196C158.251 19.441 158.525 19.1374 158.598 18.7712C158.671 18.4051 158.553 18.0211 158.251 17.6996Z" fill="#2255B2"/>
</g>
<defs>
<radialGradient id="paint0_radial_350_4489" cx="0" cy="0" r="1" gradientUnits="userSpaceOnUse" gradientTransform="translate(167.492 18.4224) rotate(-16.7256) scale(2.49643 2.0343)">
<stop stop-color="#D32E5B" stop-opacity="0.8"/>
<stop offset="0.14" stop-color="#D32E5C" stop-opacity="0.78"/>
<stop offset="0.27" stop-color="#D32E5F" stop-opacity="0.73"/>
<stop offset="0.38" stop-color="#D32E66" stop-opacity="0.65"/>
<stop offset="0.49" stop-color="#D32F6E" stop-opacity="0.53"/>
<stop offset="0.54" stop-color="#D33073" stop-opacity="0.47"/>
<stop offset="0.57" stop-color="#D3346F" stop-opacity="0.43"/>
<stop offset="0.76" stop-color="#D54D5A" stop-opacity="0.2"/>
<stop offset="0.91" stop-color="#D75D4C" stop-opacity="0.05"/>
<stop offset="1" stop-color="#D86348" stop-opacity="0"/>
</radialGradient>
<radialGradient id="paint1_radial_350_4489" cx="0" cy="0" r="1" gradientUnits="userSpaceOnUse" gradientTransform="translate(160.848 40.3692) rotate(-120.924) scale(2.45929 2.06502)">
<stop stop-color="#D32E5B" stop-opacity="0.8"/>
<stop offset="0.14" stop-color="#D32E5C" stop-opacity="0.78"/>
<stop offset="0.27" stop-color="#D32E5F" stop-opacity="0.73"/>
<stop offset="0.38" stop-color="#D32E66" stop-opacity="0.65"/>
<stop offset="0.49" stop-color="#D32F6E" stop-opacity="0.53"/>
<stop offset="0.54" stop-color="#D33073" stop-opacity="0.47"/>
<stop offset="0.57" stop-color="#D3346F" stop-opacity="0.43"/>
<stop offset="0.76" stop-color="#D54D5A" stop-opacity="0.2"/>
<stop offset="0.91" stop-color="#D75D4C" stop-opacity="0.05"/>
<stop offset="1" stop-color="#D86348" stop-opacity="0"/>
</radialGradient>
<clipPath id="clip0_350_4489">
<rect width="169" height="50" fill="white"/>
</clipPath>
</defs>
</svg>
