<svg width="55" height="186" viewBox="0 0 55 186" fill="none" xmlns="http://www.w3.org/2000/svg">
<g clip-path="url(#clip0_363_8594)">
<path d="M26.2822 0.0896648C21.6052 0.474346 17.3452 2.11431 13.7605 5.23225C10.8808 7.7428 8.68625 11.4175 7.93157 15.2036C7.15703 19.0808 7.6436 23.0389 9.12317 26.6529C7.62374 26.744 6.26333 27.5235 5.31005 28.7585C5.18096 28.9306 5.05187 29.0926 4.92278 29.2647C4.78376 29.2951 4.64474 29.3255 4.50572 29.3558C3.09565 29.6494 1.91398 30.2467 1.00042 31.4513C-0.409641 33.314 -0.270621 35.8448 1.05007 37.6973C1.1593 37.8492 1.26853 38.0112 1.38769 38.163C1.36783 38.3452 1.34797 38.5376 1.32811 38.7198C1.1593 40.3192 1.61608 41.9896 2.77789 43.1234C4.13831 44.4596 6.04487 44.8139 7.83227 44.3685C8.02094 44.3179 8.21954 44.2572 8.40821 44.1964C8.49758 44.1661 8.58695 44.1458 8.67632 44.1154C8.7359 44.1458 8.79548 44.1661 8.85506 44.1964C8.95436 44.2369 9.04373 44.2774 9.1331 44.3179C8.89478 44.8342 8.66639 45.3606 8.45786 45.8971C6.46193 51.0397 6.96836 57.0934 8.70611 62.236C9.72891 65.2729 11.139 68.158 12.5987 71.0026C11.5461 72.1061 10.6127 73.3209 9.84807 74.7077C8.46779 77.1778 7.73297 79.8503 7.49465 82.6646C7.06766 87.7363 9.20262 92.9092 12.4597 96.6649C13.6711 98.0619 15.0514 99.2362 16.5707 100.208C13.3633 102.152 10.6524 104.936 9.08346 108.377C7.60388 111.607 6.8492 115.14 7.10738 118.713C7.3457 122.044 8.20962 125.091 9.49059 128.138C10.3843 130.264 11.5262 132.248 12.7377 134.192C12.1419 134.536 11.5858 134.931 10.9999 135.427C9.51045 136.682 8.37843 138.605 8.00109 140.529C7.65354 142.321 7.872 144.031 8.25927 145.783C8.90472 148.648 9.55017 151.502 10.1956 154.367C11.8043 161.474 13.403 168.57 15.0117 175.676C15.1805 176.426 15.3195 177.215 15.5578 177.944C16.2827 180.202 17.5041 182.014 19.3809 183.411C20.8505 184.504 22.7273 184.99 24.5246 185.04C26.0241 185.081 27.5136 184.676 28.9733 184.352C30.721 183.957 32.4587 183.573 34.2064 183.178C37.2847 182.489 40.3729 181.821 43.4512 181.103C45.1791 180.698 46.7381 179.787 48.0389 178.582C49.876 176.881 50.8094 174.533 51.0874 172.073C51.2562 170.595 50.9186 169.086 50.7001 167.629C49.7866 161.453 48.8929 155.268 47.9495 149.103C47.9197 148.911 47.89 148.718 47.8602 148.526L50.0547 142.715C50.4022 141.784 50.8193 140.853 51.1172 139.911C51.7031 138.008 51.147 135.781 49.6774 134.455C48.6744 133.554 47.5623 133.139 46.3607 133.058C46.6984 132.865 47.0161 132.633 47.3041 132.359C48.3765 131.357 48.8631 129.788 49.3596 128.432C49.6972 127.52 49.9653 126.579 50.1639 125.617C51.3158 120.161 50.6803 114.613 48.4162 109.562C48.1978 109.076 47.9595 108.61 47.7112 108.145C48.4858 107.983 49.1213 107.669 49.7568 107.173C50.3228 106.727 50.72 106.353 51.0973 105.675C51.1669 105.553 51.2165 105.422 51.2761 105.29C51.3059 105.209 51.3456 105.138 51.3754 105.057C51.425 105.037 51.4648 105.017 51.5144 104.986C52.9046 104.328 53.9075 103.043 54.3345 101.554C54.8807 99.6614 54.0565 97.6469 52.6365 96.4119C52.5968 96.3815 52.567 96.3511 52.5273 96.3208C52.5173 96.2195 52.4975 96.1284 52.4875 96.0373C52.4677 95.926 52.4578 95.8146 52.4379 95.7032C52.4478 95.7842 52.4578 95.8753 52.4677 95.9563C52.3783 95.4097 52.2592 94.9541 51.8818 94.3062C51.2364 93.1826 50.1639 92.3018 48.9227 91.9678C48.3666 91.8159 47.8105 91.7754 47.2743 91.8261C47.453 91.4414 47.6218 91.0466 47.7807 90.6518C48.2872 89.3965 48.5553 88.1412 48.7439 86.8252C49.161 83.3529 48.8134 80.0123 47.4729 76.7627C46.609 74.6672 45.3876 72.7135 43.8584 71.0431C43.9775 71.0128 44.0967 70.9824 44.2158 70.9419C45.5763 70.4661 46.5395 69.5652 47.2644 68.3099C48.4262 66.3156 49.3298 64.0885 49.876 61.831C51.2364 56.1823 50.6704 50.2602 48.2077 45.0265C46.4799 41.3417 43.5903 38.2035 40.1346 36.1181C43.8584 33.6885 46.7778 30.0543 48.1283 25.7418C49.3298 21.895 49.2404 17.4307 47.7906 13.6649C46.2018 9.55486 43.5903 6.25469 40.0154 3.75426C36.0633 0.990624 31.0685 -0.376002 26.2922 0.0896648L26.2822 0.0896648Z" fill="#4416CE"/>
<path d="M48.884 85.9273C48.8446 86.2294 48.8053 86.5215 48.7561 86.8135C48.7462 86.9042 48.7364 86.9948 48.7266 87.0854C48.7758 86.6927 48.825 86.31 48.884 85.9273Z" fill="#4416CE"/>
<path d="M24.3076 69.3297C21.9951 69.8634 19.9286 70.8202 18.1179 72.1798C17.557 72.6028 17.0256 73.056 16.5237 73.5495C13.6798 76.3593 12.125 80.0655 12.125 83.822C12.125 85.1312 12.3513 86.4506 12.7253 87.7195C14.4178 93.6816 19.4168 97.9014 25.7837 98.8884C26.7874 99.0294 27.7518 99.12 28.7162 99.12C33.666 99.12 38.3402 96.9648 41.3711 93.2989C41.8631 92.6947 42.2961 92.0803 42.6799 91.4559C43.7329 89.7337 44.3922 87.9008 44.6283 85.9369C44.7169 85.3226 44.7169 84.7183 44.7169 84.0134C44.7169 82.8854 44.6283 81.8078 44.3528 80.7805C42.9751 75.1508 38.665 70.931 32.7114 69.3397C31.2944 68.9671 29.8675 68.7757 28.4898 68.7757C27.1122 68.7757 25.7443 68.9671 24.3174 69.3397L24.3076 69.3297ZM20.7355 82.8048C21.2374 80.9316 22.6445 79.3907 24.3174 78.4742C27.9092 76.5003 32.4753 77.3463 35.0633 80.5992C35.7128 81.4251 36.1851 82.4221 36.254 83.4796C36.4607 86.8131 33.42 89.4518 30.517 90.1567C29.6313 90.3682 28.6866 90.4589 27.7124 90.4387C23.8353 90.338 19.5448 87.2764 20.7355 82.8149L20.7355 82.8048Z" fill="#F7CE46"/>
<path d="M44.6985 84.0134C44.6985 82.8854 44.61 81.8078 44.3344 80.7805C42.9568 75.1508 38.6466 70.931 32.6931 69.3397C31.276 68.9671 29.8492 68.7757 28.4715 68.7757C27.0938 68.7757 25.726 68.9671 24.2991 69.3397C21.9866 69.8735 19.92 70.8302 18.1094 72.1898C19.1131 71.8071 20.1365 71.4748 21.1698 71.1928C27.084 69.5714 34.2971 70.941 38.7155 75.4529C41.1756 77.9707 42.6812 81.3546 43.0749 84.8795C43.2618 86.5513 43.1831 88.2432 42.9273 89.905C42.8485 90.4085 42.7698 90.9322 42.6616 91.4559C43.7145 89.7338 44.3738 87.9008 44.61 85.9369C44.6985 85.3226 44.6985 84.7183 44.6985 84.0134Z" fill="#F19A38"/>
<path d="M26.5029 4.91644C23.8656 5.11786 21.4448 5.87319 19.2799 7.18244C18.906 7.404 18.5419 7.64572 18.1778 7.8975C14.9599 10.2441 12.8737 13.6682 12.3226 17.3845C12.1357 18.6837 12.1652 20.0131 12.3423 21.3223C13.1492 27.4758 17.4692 32.4106 23.6294 34.3644C24.6036 34.6565 25.5483 34.8982 26.493 35.0493C31.3838 35.8046 36.3237 34.3845 39.8467 31.2323C40.2009 30.91 40.5355 30.5676 40.8504 30.2252C42.4347 28.5232 43.5467 26.6096 44.1371 24.4443C44.3143 23.8602 44.4028 23.256 44.5111 22.561C44.6784 21.4432 44.7374 20.3655 44.6193 19.3081C44.0781 13.5273 40.4371 8.70318 34.7788 6.20554C33.4306 5.62141 32.0529 5.21858 30.6949 5.00709C29.3369 4.79559 27.9494 4.77545 26.493 4.92652L26.5029 4.91644ZM26.7981 26.2974C22.9799 25.6025 19.1815 21.9165 21.0118 17.6967C21.7794 15.9242 23.3933 14.6149 25.1842 13.9603C29.022 12.5504 33.4109 14.0912 35.4971 17.7068C36.0187 18.6232 36.3434 19.6807 36.2548 20.7281C35.9793 24.0516 32.5745 26.2068 29.6125 26.4485C28.7071 26.5291 27.7625 26.4687 26.7981 26.2974Z" fill="#ED739F"/>
<path d="M44.5301 22.5493C44.6974 21.4314 44.7564 20.3538 44.6383 19.2963C44.0971 13.5155 40.4561 8.69143 34.7978 6.19379C33.4496 5.60966 32.0719 5.20682 30.7139 4.99532C29.3559 4.78383 27.9684 4.76369 26.512 4.91475C23.8748 5.11618 21.454 5.87151 19.2891 7.18076C20.4109 6.92898 21.5524 6.7477 22.6939 6.61678C27.1713 6.10315 31.1863 6.68728 35.1422 9.00364C39.7771 11.7329 42.5324 16.5671 42.3553 22.6097C42.2963 24.6139 42.0503 26.5274 41.4697 28.4409C41.2925 29.015 41.0957 29.6192 40.8694 30.2235C42.4537 28.5215 43.5657 26.608 44.1561 24.4427C44.3333 23.8585 44.4218 23.2543 44.5301 22.5594L44.5301 22.5493Z" fill="#DD468F"/>
<path d="M25.8989 37.5648C24.4523 37.7461 23.0353 38.0986 21.697 38.6122C18.1445 39.9819 15.0939 42.55 13.3522 46.3771C11.2266 51.0098 11.7777 55.8036 12.5846 59.0264C13.5096 62.7326 15.2317 66.1064 16.7472 69.0572L24.0882 65.1094C23.7241 64.4447 23.36 63.78 23.0451 63.1153L36.8416 62.9038L40.3153 65.2806L42.4802 66.761C42.7853 66.9725 43.1986 66.8819 43.3855 66.5596C44.6746 64.4245 46.0818 61.2018 46.2885 57.1431C46.3475 56.4079 46.3672 55.6828 46.3279 54.9476C46.131 50.476 44.5664 46.4073 41.8012 43.2752C37.8748 38.8237 31.6556 36.8498 25.889 37.5548L25.8989 37.5648ZM22.5826 62.1686C21.7462 60.4061 20.9983 58.6437 20.5358 56.8611C19.8469 54.2124 19.9257 51.7752 20.7523 49.9825C22.6121 45.9541 28.4574 44.957 32.1279 46.4375C33.4564 46.9813 34.6373 47.8172 35.6017 48.8848C36.3889 49.7509 37.0285 50.758 37.4812 51.8558C38.0913 53.3161 38.1799 54.3433 38.2094 54.3433C38.2389 54.3433 22.4744 54.585 22.4744 54.585L22.5039 56.7403L22.5826 62.1787L22.5826 62.1686Z" fill="#ED739F"/>
<path d="M43.4015 66.5686C44.6907 64.4335 46.0979 61.2107 46.3045 57.1521C46.3636 56.4169 46.3832 55.6918 46.3439 54.9566C46.1471 50.485 44.5824 46.4163 41.8172 43.2841C37.8908 38.8327 31.6716 36.8588 25.905 37.5637C24.4585 37.745 23.0414 38.0975 21.7031 38.6111C24.5962 38.4097 27.4992 38.5004 30.3136 39.1449C33.9251 39.9808 37.2807 41.854 39.672 44.8452C41.7877 47.4737 43.4114 50.9181 43.4212 54.302C43.4311 58.3808 42.6832 61.7143 40.5478 65.4305L42.4864 66.7599C42.7914 66.9714 43.2047 66.8808 43.3917 66.5585L43.4015 66.5686Z" fill="#DD468F"/>
<path d="M38.2116 54.3343L22.4766 54.576L22.5061 56.7312C22.6439 56.7413 22.7816 56.7513 22.9194 56.7513C27.2492 56.6204 31.5692 56.6708 35.8892 56.56C35.8892 56.56 35.8991 56.56 35.9089 56.56C35.9384 56.56 35.968 56.56 35.9975 56.56C36.1746 56.56 36.3517 56.56 36.5387 56.5499C37.385 56.5298 38.3002 55.4522 38.2116 54.3343Z" fill="#DD468F"/>
<path d="M24.1358 101.809C22.7187 102.141 21.3509 102.645 20.0618 103.31C16.6766 105.062 13.9114 107.942 12.5633 111.931C10.9298 116.765 11.9729 121.478 13.1144 124.59C14.4232 128.175 16.4897 131.348 18.3003 134.117L25.1887 129.394C24.7557 128.77 24.3326 128.155 23.9488 127.521L37.637 125.809L41.3469 127.803L43.6496 129.041C43.9743 129.213 44.368 129.082 44.5352 128.749C45.598 126.483 46.6608 123.13 46.4443 119.071C46.4345 118.336 46.3656 117.611 46.2573 116.886C45.5882 112.464 43.6201 108.587 40.5498 105.767C36.1905 101.759 29.7941 100.48 24.1358 101.809ZM23.3879 126.634C22.3645 124.973 21.4395 123.301 20.7998 121.579C19.8355 119.021 19.6682 116.583 20.298 114.72C21.7347 110.511 27.4324 108.879 31.2407 109.967C32.6183 110.36 33.8779 111.075 34.9505 112.021C35.8264 112.797 36.5644 113.723 37.1253 114.771C37.883 116.16 38.0798 117.168 38.1094 117.168C38.1389 117.168 22.4826 119.111 22.4826 119.111L22.7384 121.256L23.3781 126.655L23.3879 126.634Z" fill="#F7CE46"/>
<path d="M44.536 128.751C45.5987 126.485 46.6615 123.131 46.445 119.073C46.4352 118.337 46.3663 117.612 46.258 116.887C45.5889 112.466 43.6208 108.589 40.5505 105.769C36.1912 101.76 29.7948 100.481 24.1365 101.811C22.7194 102.143 21.3516 102.647 20.0625 103.311C22.9163 102.798 25.8094 102.566 28.6828 102.908C32.3632 103.342 35.8861 104.852 38.5824 107.561C40.954 109.948 42.9319 113.191 43.296 116.555C43.729 120.614 43.3256 124.007 41.5936 127.935L43.6601 129.043C43.9849 129.214 44.3785 129.083 44.5458 128.751L44.536 128.751Z" fill="#F19A38"/>
<path d="M38.119 117.15L22.4922 119.094L22.748 121.239C22.8858 121.239 23.0236 121.239 23.1613 121.209C27.4518 120.614 31.7521 120.181 36.0426 119.607C36.0426 119.607 36.0525 119.607 36.0623 119.607C36.0918 119.607 36.1214 119.607 36.1509 119.597C36.328 119.577 36.5051 119.557 36.6823 119.527C37.5286 119.406 38.3256 118.248 38.1091 117.15L38.119 117.15Z" fill="#F19A38"/>
<path d="M16.6758 88.6664C16.1641 88.9786 15.9968 89.6131 16.2723 90.2173C16.912 91.6172 18.0928 92.8962 19.8838 94.1249C21.2123 95.0313 22.7081 95.7766 24.2137 96.26C24.4794 96.3506 24.7746 96.3104 25.0304 96.1694C25.306 96.0183 25.5126 95.7564 25.5913 95.4644C25.6209 95.3637 25.6307 95.263 25.6307 95.1723C25.6307 94.6788 25.3158 94.2256 24.8139 94.0645C24.5187 93.9638 24.2137 93.853 23.9086 93.7321C23.8496 93.712 23.7905 93.6818 23.7315 93.6616L23.6232 93.6113C23.4658 93.5408 23.3083 93.4703 23.1607 93.3897C22.4325 93.0372 21.7437 92.6445 21.1139 92.2114C19.6673 91.2345 18.7522 90.2375 18.2208 89.0692C18.1125 88.8275 17.896 88.6462 17.6205 88.5556C17.3056 88.4549 16.9513 88.4952 16.6856 88.6462L16.6758 88.6664Z" fill="white"/>
<path d="M16.1175 123.429C15.5271 123.651 15.222 124.265 15.3893 124.86C15.9404 126.753 16.8949 128.505 18.243 130.046C18.4202 130.248 18.6957 130.358 19.0008 130.358C19.3353 130.358 19.6404 130.217 19.8372 129.996C20.0242 129.764 20.1226 129.502 20.1226 129.24C20.1226 128.948 20.0045 128.656 19.788 128.395L19.729 128.324C19.6798 128.274 19.6306 128.213 19.5912 128.153C19.5912 128.153 19.5715 128.133 19.5617 128.123L19.4928 128.032C19.3649 127.861 19.2369 127.69 19.109 127.508C18.863 127.156 18.6367 126.783 18.43 126.411C18.3316 126.219 18.2332 126.028 18.1348 125.836L18.0856 125.736C18.0856 125.736 18.0856 125.726 18.0856 125.716L18.0462 125.625C18.0167 125.554 17.9872 125.484 17.9577 125.413C17.8002 125.031 17.6625 124.618 17.5345 124.185C17.446 123.893 17.2393 123.651 16.9539 123.5C16.6882 123.359 16.3832 123.339 16.1273 123.429L16.1175 123.429Z" fill="white"/>
<path d="M15.5462 58.5652C14.9656 58.7767 14.69 59.3206 14.8081 59.9853C15.123 61.6268 15.7725 63.2483 16.6877 64.6885C16.855 64.9503 17.1305 65.1417 17.4454 65.2021C17.7308 65.2625 18.0161 65.2021 18.2326 65.041C18.5672 64.7992 18.7542 64.4266 18.7542 64.0641C18.7542 63.8626 18.6951 63.6511 18.5771 63.4699C18.3606 63.1274 18.1638 62.785 17.9866 62.4426L17.9571 62.3822C17.8882 62.2513 17.8193 62.1203 17.7603 61.9894C17.7406 61.9491 17.7209 61.8988 17.6914 61.8283C17.652 61.7477 17.6225 61.6571 17.5832 61.5765C17.3076 60.8614 17.0911 60.1162 16.9337 59.3407C16.8845 59.0789 16.7074 58.8371 16.4417 58.6861C16.1563 58.5149 15.802 58.4746 15.5265 58.5753L15.5462 58.5652Z" fill="white"/>
<path d="M9.06615 31.7469L7.69831 33.5295L5.4153 34.0129C5.4153 34.0129 4.91343 34.0935 4.75599 34.4964C4.59854 34.8992 4.90359 35.3222 4.91343 35.3323L6.24191 37.1954L6.00574 39.4312C6.00574 39.5017 5.94669 40.1161 6.33047 40.3175C6.68473 40.4988 7.07836 40.3779 7.0882 40.3678L9.28264 39.7132L11.3984 40.6398C11.4574 40.67 11.9888 40.9016 12.3037 40.6095C12.5989 40.3477 12.6383 39.8744 12.6481 39.8341L12.6678 37.6083L14.1832 35.9667C14.1832 35.9667 14.4096 35.6747 14.4489 35.3423C14.4489 35.292 14.4489 35.2316 14.4489 35.1812C14.4194 34.7481 13.8683 34.5568 13.8093 34.5467L11.6345 33.7713L10.493 31.7973C10.493 31.7973 10.2864 31.4146 9.9026 31.3139C9.48929 31.193 9.10551 31.6765 9.05631 31.7369L9.06615 31.7469Z" fill="#F7EBA1"/>
<path d="M45.6756 97.1767L43.9141 96.8847C43.7567 96.8444 43.4319 96.8444 43.2154 97.076C42.9498 97.348 43.0482 97.7609 43.058 97.8012L43.4516 99.4931L42.6349 101.014C42.6053 101.064 42.3593 101.538 42.6152 101.84C42.8317 102.091 43.1761 102.122 43.2056 102.122L44.9474 102.273L46.1676 103.522C46.1676 103.522 46.5514 103.924 46.9253 103.783C47.2402 103.663 47.4174 103.33 47.437 103.29L48.1062 101.709L49.6709 100.963C49.6709 100.963 50.0153 100.762 50.1235 100.46C50.1235 100.45 50.1235 100.44 50.1334 100.43C50.2514 100.057 49.8775 99.7348 49.8381 99.7046L48.5195 98.5464L48.2833 96.8343C48.2833 96.8343 48.2341 96.4617 47.9684 96.2603C47.6634 96.0286 47.191 96.2905 47.1418 96.3207L45.6559 97.207L45.6756 97.1767Z" fill="#F7EBA1"/>
<path d="M36.0354 134.872L17.8304 136.866C14.6715 137.219 12.3393 139.565 12.4574 142.446C12.4673 142.778 12.5066 143.11 12.5853 143.453L19.7394 175.237C20.5463 179.336 23.3115 180.686 26.4704 179.981L42.4613 176.375C42.9631 176.265 43.4453 176.083 43.8783 175.842C45.935 174.734 47.1749 172.377 46.8108 169.91L43.9767 150.754L43.5142 147.693L47.0174 138.367C47.047 138.286 47.0568 138.216 47.0568 138.135C47.1257 137.45 46.5352 136.977 45.7874 137.118C45.7874 137.118 41.7823 138.004 41.7724 138.004C41.7626 138.004 41.4575 137.44 41.428 137.38C41.3001 137.179 41.1525 136.987 41.0049 136.806C40.6998 136.443 40.3455 136.111 39.9618 135.839C39.1844 135.275 38.2593 134.933 37.3146 134.832C36.8817 134.792 36.4585 134.812 36.0354 134.862L36.0354 134.872Z" fill="white"/>
<path d="M20.6761 156.003C22.6639 155.741 32.4454 154.442 37.4936 153.193C37.6905 153.143 37.8971 153.273 37.9562 153.485L38.95 157.372C38.9992 157.584 38.8812 157.795 38.6844 157.846C36.8442 158.309 34.9646 158.722 33.0851 159.084C32.8784 159.125 32.7505 159.326 32.7899 159.548C33.213 161.532 33.6854 163.506 34.2069 165.48C34.2561 165.671 34.4529 165.802 34.6399 165.772L39.8554 164.896C40.062 164.865 40.2588 165.006 40.2982 165.218L40.9969 169.176C41.0362 169.387 40.8985 169.589 40.6918 169.619L23.5594 172.469C23.3528 172.499 23.156 172.358 23.1166 172.147L22.4179 168.189C22.3786 167.977 22.5163 167.776 22.723 167.746L29.3161 166.648C29.5326 166.608 29.6704 166.386 29.6114 166.164C29.0898 164.211 28.6273 162.247 28.2042 160.273C28.1648 160.071 27.968 159.941 27.7712 159.961C25.5767 160.293 23.3725 160.555 21.178 160.756C20.9714 160.776 20.7844 160.615 20.7647 160.394L20.3612 156.416C20.3416 156.204 20.4793 156.023 20.6761 155.993L20.6761 156.003Z" fill="black"/>
<path d="M20.8906 144.82C20.1526 144.799 19.5425 145.384 19.513 146.139L19.4146 149.482C19.3949 150.238 19.9656 150.862 20.7037 150.892L22.4553 150.953L22.6423 144.88L20.8906 144.82Z" fill="black"/>
<path d="M34.9073 151.135L36.7672 149.03L37.5347 149.05C37.8398 149.05 38.1055 148.808 38.1055 148.496L38.1055 148.315C38.1252 148.003 37.8792 147.731 37.5741 147.731L36.8065 147.71L35.0746 145.485C34.9664 145.344 34.8089 145.263 34.6416 145.263L24.437 144.941L24.25 151.014L34.4547 151.336C34.6219 151.336 34.7892 151.266 34.9073 151.145L34.9073 151.135Z" fill="black"/>
<path d="M41.8728 150.632L44.6774 169.828C44.8151 170.855 44.8053 171.56 44.7266 172.668C44.7266 172.668 44.697 172.94 44.697 172.95C44.6675 173.212 44.6282 173.484 44.5888 173.745C44.5002 174.37 44.205 175.216 43.8901 175.84C45.9468 174.732 47.1867 172.376 46.8226 169.908L43.9885 150.753L43.526 147.691C43.2111 147.893 43.1225 147.953 42.9749 148.084C42.0893 148.9 41.7154 149.242 41.8826 150.622L41.8728 150.632Z" fill="#C7B9F0"/>
<path d="M25.1841 138.105C26.7881 137.904 28.3823 137.722 29.9863 137.561C31.2459 137.43 32.5055 137.219 33.7749 137.098C34.4933 137.027 35.2116 136.987 35.93 137.007C36.0973 137.007 36.2646 137.027 36.4319 137.037C36.7861 137.068 37.2289 137.138 37.7111 137.309C37.9178 137.38 38.1146 137.471 38.2819 137.551C38.4098 137.622 38.5377 137.692 38.6558 137.773C38.8428 137.894 39.0593 138.065 39.2856 138.306C39.512 138.548 39.6792 138.78 39.7973 138.981C39.9154 139.173 40.0237 139.364 40.1221 139.565C40.4074 140.119 40.7223 140.623 41.7359 140.24C43.4974 139.565 45.1014 139.183 46.853 138.498C46.9711 138.457 47.0793 138.407 47.1974 138.347C47.2663 137.662 46.6759 137.189 45.928 137.33C45.928 137.33 41.9229 138.216 41.913 138.216C41.9032 138.216 41.5982 137.652 41.5686 137.591C41.4407 137.39 41.2931 137.199 41.1455 137.017C40.8404 136.655 40.4862 136.322 40.1024 136.05C39.325 135.487 38.4 135.144 37.4553 135.043C37.0223 135.003 36.5992 135.023 36.176 135.074L17.971 137.068C14.8122 137.42 12.48 139.767 12.598 142.647C12.726 142.335 12.8441 142.154 12.9818 141.912C12.9818 141.912 14.1922 139.676 18.0989 139.021L25.1939 138.115L25.1841 138.105Z" fill="#C7B9F0"/>
<path d="M36.2639 20.7262C36.3525 19.6687 36.0277 18.6113 35.5062 17.7049C33.4298 14.0893 29.0409 12.5585 25.1933 13.9584C23.4023 14.613 21.7884 15.9223 21.0209 17.6948C19.1905 21.9146 22.989 25.6006 26.8071 26.2955C27.7715 26.4667 28.7162 26.5272 29.6215 26.4466C32.5934 26.1948 35.9884 24.0497 36.2639 20.7262Z" fill="black"/>
<path d="M26.1732 24.0481L19.6981 31.4705C19.6981 31.4705 19.6882 31.4705 19.6784 31.4705C19.3635 31.6115 17.8087 32.3769 17.5528 33.1927C17.4938 33.3941 17.5036 33.5854 17.5922 33.7667C17.6414 33.8976 17.7497 34.0688 17.9563 34.1494C18.0055 34.1696 18.0547 34.1897 18.1138 34.1998C18.0055 34.371 17.9268 34.5523 17.9071 34.7335C17.8776 34.9652 17.9465 35.1867 18.1039 35.358C18.2614 35.5392 18.4582 35.6198 18.6845 35.6097C18.7435 35.6097 18.8026 35.5997 18.8616 35.5795C18.8616 35.6198 18.8616 35.6601 18.8616 35.7004C18.8715 35.8917 18.9502 36.0428 19.088 36.1536C19.393 36.4053 19.7276 36.3248 20.0425 36.1334C20.0622 36.2946 20.1311 36.4456 20.2787 36.5766C20.446 36.7276 20.6625 36.778 20.9085 36.7175C21.5481 36.5766 22.296 35.7004 22.9848 34.3106C22.9848 34.3106 22.9848 34.3106 22.9848 34.3005L31.0147 26.1127C31.0147 26.1127 31.0738 26.0422 31.0836 26.0019C31.0934 25.9616 31.0934 25.9213 31.0836 25.8911C31.0738 25.8105 31.0147 25.74 30.9458 25.6997L26.4881 23.9675C26.3897 23.9172 26.2617 23.9474 26.1928 24.038L26.1732 24.0481Z" fill="black"/>
<path d="M29.1946 13.6934C29.2241 11.9913 29.106 10.7727 28.8797 9.31243C28.5451 7.17735 27.7873 3.95459 26.0259 1.91015C25.9865 1.86987 25.9472 1.83965 25.8881 1.82958C25.8094 1.81951 18.3896 0.782183 12.7707 5.21348C8.23417 8.78873 5.69531 15.1235 6.76793 20.9546C7.44693 24.6205 9.57249 27.4908 12.9576 29.072C17.3662 31.1466 23.0836 28.9713 25.8586 25.396C27.0887 23.8048 27.6988 22.133 28.2892 20.159C28.5943 19.1418 29.1257 16.7751 29.1847 13.7034L29.1946 13.6934Z" fill="black"/>
<path d="M12.9686 15.3151C12.4569 17.0574 12.201 18.9105 12.4077 20.6831C12.4667 21.1866 12.5651 21.6902 12.7226 22.1736C12.9883 23.0296 13.4311 23.8152 14.0117 24.4799C14.4939 25.0237 15.0646 25.4668 15.6846 25.8294C21.028 28.9414 24.6592 23.7145 24.6887 23.6641C24.7182 23.6238 27.5129 19.6357 27.3555 13.7642C27.2472 9.52425 22.9863 6.67412 19.0894 7.84237C16.5112 8.61784 14.6612 10.9846 13.6476 13.4117C13.3917 14.026 13.1654 14.6706 12.9686 15.3252L12.9686 15.3151Z" fill="#EAB3B1"/>
<path d="M18.1291 33.374C18.1094 33.4243 18.1291 33.4847 18.1586 33.525C18.1881 33.5653 18.2373 33.5754 18.2865 33.5653C18.3554 33.5653 18.4144 33.5452 18.4833 33.525C18.5916 33.4847 18.6998 33.4344 18.7982 33.384C18.8769 33.3437 18.9557 33.2934 19.0245 33.243C19.1623 33.1524 19.3394 33.1927 19.428 33.3337C19.5166 33.4747 19.4575 33.6056 19.3296 33.7164C19.0147 33.9883 18.5227 34.4818 18.4833 34.7738C18.4833 34.8343 18.4833 34.8745 18.5227 34.9148C18.562 34.9652 18.6014 34.9753 18.6408 34.9753C18.8376 34.9753 19.1426 34.7134 19.3886 34.4616C19.5067 34.3005 19.615 34.1897 19.6642 34.1394C19.7724 34.0185 19.9594 34.0084 20.0775 34.1192C20.1956 34.23 20.1956 34.4012 20.0972 34.5321C19.92 34.7738 19.7232 34.9853 19.5461 35.227C19.4871 35.3076 19.428 35.3882 19.3985 35.4788C19.3788 35.5392 19.3788 35.5997 19.4182 35.65C19.5067 35.7507 19.6347 35.6702 19.7134 35.6097C19.9988 35.4184 20.2153 35.1666 20.4317 34.9048L20.4711 34.8645C20.5794 34.7436 20.7565 34.7235 20.8844 34.8343C21.0025 34.945 21.032 35.1263 20.9238 35.2673C20.7762 35.4687 20.6089 35.7407 20.5695 35.9219C20.5498 36.0126 20.5892 36.1032 20.6876 36.1234C20.7565 36.1334 20.8254 36.1234 20.8844 36.0831C20.9927 36.0227 21.0911 35.9421 21.1895 35.8615C21.4158 35.6601 21.6028 35.4184 21.7701 35.1767C21.8586 35.0458 21.9472 34.9048 22.0358 34.7638C22.085 34.6832 22.1243 34.6026 22.1735 34.5321C22.1834 34.512 22.3113 34.2904 22.3113 34.2803L19.7429 32.1251C19.0836 32.4575 18.2275 33.0114 18.1094 33.3941L18.1291 33.374Z" fill="#EAB3B1"/>
<path opacity="0.25" d="M23.3844 8.83355C24.5555 8.43071 25.8544 9.28676 26.2972 10.7471C26.7302 12.2074 26.1398 13.708 24.9688 14.1108C23.7977 14.5137 22.4988 13.6576 22.056 12.1973C21.623 10.737 22.2134 9.2364 23.3844 8.83355Z" fill="url(#paint0_radial_363_8594)"/>
<path opacity="0.25" d="M17.7289 25.5107C18.3292 26.6185 19.8545 26.8904 21.1338 26.125C22.413 25.3596 22.9641 23.8389 22.3737 22.7311C21.7734 21.6232 20.2481 21.3513 18.9688 22.1167C17.6896 22.8821 17.1385 24.4029 17.7289 25.5107Z" fill="url(#paint1_radial_363_8594)"/>
<path d="M14.3119 22.2491C14.2823 22.3296 14.2233 22.3901 14.1446 22.4102C14.0166 22.4404 13.8887 22.3699 13.8592 22.239C13.8395 22.1584 13.4164 20.3557 14.3807 18.8853C14.4496 18.7745 14.5972 18.7443 14.7055 18.8148C14.8137 18.8853 14.8433 19.0464 14.7645 19.1572C13.9281 20.4463 14.3119 22.098 14.3119 22.1081C14.3217 22.1584 14.3119 22.1987 14.3119 22.2491Z" fill="black"/>
<path d="M17.7622 10.4152C17.7622 10.4152 17.7327 10.4857 17.7032 10.5159C17.6933 10.526 16.5125 11.7245 16.5518 13.2654C16.5518 13.3963 16.4534 13.5171 16.3255 13.5171C16.1976 13.5171 16.0893 13.4164 16.0795 13.2855C16.0303 11.513 17.3194 10.2138 17.3785 10.1634C17.4769 10.0728 17.6245 10.0728 17.713 10.1634C17.7721 10.2339 17.7918 10.3246 17.7622 10.4152Z" fill="black"/>
<path d="M22.9459 14.7351L20.8794 21.1302C20.8401 21.2511 20.8991 21.382 21.0074 21.4324C21.0762 21.4626 22.8082 22.2381 24.2843 21.5432C25.042 21.1806 25.5832 20.5058 25.8981 19.5188C25.8981 19.4886 25.9178 19.4685 25.9178 19.4383C26.3409 18.0485 26.1835 17.0615 25.78 16.3465L25.7013 16.2256C25.042 15.1782 23.8414 14.7753 23.3002 14.5941L23.2313 14.5739C23.1034 14.5337 22.9755 14.6041 22.9361 14.7351L22.9459 14.7351ZM25.475 19.2973C25.2093 20.1433 24.7763 20.7274 24.1662 21.0396C24.0284 20.4454 23.7627 18.4815 25.4848 16.8198C25.7407 17.414 25.7997 18.2096 25.4651 19.2973L25.475 19.2973ZM25.2585 16.3867C23.2313 18.27 23.5856 20.6065 23.7332 21.2209C23.251 21.3619 22.7491 21.3417 22.3161 21.2813L24.1858 15.4803C24.5795 15.6918 24.9633 15.9738 25.2486 16.3867L25.2585 16.3867ZM23.3199 15.1178C23.4478 15.1681 23.6053 15.2185 23.7529 15.2789L21.8438 21.1907C21.6667 21.1403 21.5092 21.0899 21.401 21.0597L23.3199 15.1178Z" fill="black"/>
<path d="M23.7503 15.2784C23.5929 15.218 23.4453 15.1576 23.3173 15.1173L21.3984 21.0592C21.5067 21.0995 21.6641 21.1499 21.8413 21.1902L23.7503 15.2784Z" fill="white"/>
<path d="M25.2528 16.3873C24.9674 15.9744 24.5738 15.6823 24.19 15.4809L22.3203 21.2819C22.7533 21.3524 23.2453 21.3625 23.7374 21.2215C23.5897 20.597 23.2355 18.2706 25.2626 16.3873L25.2528 16.3873Z" fill="#DE5C56"/>
<path d="M24.1705 21.0391C24.7806 20.7168 25.2136 20.1327 25.4793 19.2968C25.8139 18.2192 25.7549 17.4235 25.499 16.8193C23.7769 18.481 24.0426 20.4449 24.1804 21.0391L24.1705 21.0391Z" fill="#ED7580"/>
<path d="M21.7895 16.3775C21.76 16.4782 21.6517 16.5587 21.5435 16.5487C21.3467 16.5285 21.14 16.589 20.9727 16.6695C20.2052 17.0321 20.0182 18.2205 20.6381 18.8046C20.6873 18.8449 20.7365 18.8852 20.7857 18.9254C20.894 18.9959 20.9334 19.147 20.8645 19.2679C20.7956 19.3887 20.648 19.4189 20.5397 19.3484C20.2347 19.1571 19.9887 18.8348 19.8706 18.4823C19.5458 17.5155 20.1363 16.2767 21.1597 16.0955C21.3073 16.0653 21.4549 16.0552 21.5927 16.0653C21.7206 16.0753 21.819 16.1962 21.8092 16.3271C21.8092 16.3472 21.8092 16.3674 21.7993 16.3875L21.7895 16.3775Z" fill="black"/>
<path d="M15.7264 20.1815C15.3919 20.9167 15.2836 21.6519 15.4115 22.2864C15.5395 22.9309 15.8839 23.4143 16.3956 23.6561C16.9073 23.8978 17.4977 23.8575 18.0488 23.5453C18.5999 23.2331 19.0722 22.6691 19.4068 21.9339C19.4757 21.7728 19.5347 21.6217 19.5839 21.4706C20.0169 20.1412 19.6922 18.9126 18.7376 18.4594C17.6749 17.9558 16.4054 18.6809 15.7264 20.1815ZM17.8225 23.1223C17.3993 23.364 16.9663 23.3942 16.5924 23.2129C16.2185 23.0317 15.9626 22.6691 15.8642 22.1857C15.7855 21.7728 15.8248 21.2893 15.9823 20.7959C16.0315 20.6549 16.0807 20.5239 16.1397 20.3829C16.1594 20.3427 16.1791 20.3024 16.1988 20.2621C16.3661 20.5642 16.7203 21.0174 17.4289 21.2491C18.1374 21.4807 18.7967 21.2893 19.1608 21.1383C19.1116 21.3296 19.0427 21.5311 18.9541 21.7224C18.6688 22.3569 18.2653 22.8504 17.8028 23.1122L17.8225 23.1223ZM19.2494 20.5743C19.2494 20.5743 18.4424 21.0577 17.5863 20.7858C17.3501 20.7052 17.114 20.6045 16.9171 20.4434C16.7105 20.2722 16.5826 20.0405 16.5038 19.7787C17.0746 18.9629 17.8618 18.5903 18.531 18.9126C19.0821 19.1744 19.3379 19.8089 19.2789 20.5743C19.269 20.5743 19.2592 20.5743 19.2494 20.5844L19.2494 20.5743Z" fill="black"/>
<path d="M17.4521 21.2613C16.7436 21.0297 16.3894 20.5765 16.2221 20.2744C16.2024 20.3146 16.1827 20.3549 16.163 20.3952C16.104 20.5362 16.0449 20.6671 16.0056 20.8081C15.8481 21.3016 15.7989 21.785 15.8875 22.1979C15.9761 22.6814 16.2417 23.0439 16.6157 23.2252C16.9896 23.4065 17.4226 23.3662 17.8458 23.1346C18.2984 22.8727 18.7117 22.3792 18.9971 21.7447C19.0857 21.5433 19.1545 21.352 19.2038 21.1606C18.8397 21.3117 18.1803 21.493 17.4718 21.2714L17.4521 21.2613Z" fill="white"/>
<path d="M18.535 18.9055C17.8658 18.5832 17.0786 18.9558 16.5078 19.7716C16.5865 20.0334 16.7145 20.2651 16.9211 20.4363C17.1179 20.5974 17.3443 20.7082 17.5903 20.7787C18.4464 21.0506 19.2435 20.5773 19.2533 20.5672C19.2533 20.5672 19.273 20.5672 19.2828 20.5571C19.3419 19.7917 19.086 19.1673 18.535 18.8954L18.535 18.9055Z" fill="#2255B2"/>
<path d="M19.1054 10.8351C18.6331 11.2783 18.2985 11.9228 18.1312 12.7184C17.7966 14.3399 18.3969 15.6995 19.5482 15.9412C20.5815 16.1527 21.5557 15.3772 21.9789 14.0378C22.0281 13.8867 22.0674 13.7255 22.1068 13.5543C22.2741 12.7587 22.215 12.0235 21.9592 11.4293C21.7033 10.8351 21.2507 10.4424 20.6996 10.3316C20.1485 10.2107 19.5778 10.392 19.1054 10.8351ZM21.6541 13.4536C21.3786 14.7931 20.5421 15.639 19.6565 15.4578C18.7708 15.2765 18.328 14.1586 18.6035 12.8191C18.6331 12.6681 18.6724 12.5271 18.7216 12.3962C18.8988 12.6983 19.2629 13.1313 19.9615 13.363C20.6602 13.5845 21.2999 13.4335 21.6836 13.2824C21.6836 13.3428 21.6738 13.4033 21.6541 13.4536ZM20.0993 12.8796C19.2432 12.6076 19.0562 12.0739 19.0267 12.0034C18.9972 11.943 18.9873 11.9127 18.9578 11.8221C19.0857 11.5804 19.2432 11.3588 19.4203 11.1977C19.7746 10.8653 20.1977 10.7344 20.6012 10.815C21.0046 10.8955 21.3392 11.1977 21.536 11.6408C21.6738 11.953 21.7328 12.3257 21.723 12.7285C21.5065 12.8393 20.8275 13.1213 20.0993 12.8796Z" fill="black"/>
<path d="M19.9549 13.3569C19.2563 13.1353 18.8922 12.6922 18.715 12.3901C18.6658 12.5311 18.6265 12.6721 18.5969 12.8131C18.3214 14.1626 18.7642 15.2704 19.6499 15.4517C20.5355 15.633 21.372 14.7971 21.6475 13.4475C21.6574 13.3871 21.6672 13.3267 21.677 13.2763C21.2933 13.4173 20.6536 13.5785 19.9549 13.3569Z" fill="white"/>
<path d="M19.4234 11.1996C19.2463 11.3708 19.0889 11.5823 18.9609 11.824C19.0003 11.9146 19.0101 11.9549 19.0298 12.0053C19.0593 12.0758 19.2463 12.6096 20.1024 12.8815C20.8306 13.1131 21.5096 12.8311 21.7261 12.7304C21.7261 12.3276 21.6769 11.9549 21.5392 11.6427C21.3424 11.1996 21.0078 10.8975 20.6043 10.8169C20.2008 10.7363 19.7777 10.8673 19.4234 11.1996Z" fill="#2255B2"/>
</g>
<defs>
<radialGradient id="paint0_radial_363_8594" cx="0" cy="0" r="1" gradientUnits="userSpaceOnUse" gradientTransform="translate(20.2152 1.01337) rotate(-106.721) scale(2.75168 2.24173)">
<stop stop-color="#D32E5B" stop-opacity="0.8"/>
<stop offset="0.14" stop-color="#D32E5C" stop-opacity="0.78"/>
<stop offset="0.27" stop-color="#D32E5F" stop-opacity="0.73"/>
<stop offset="0.38" stop-color="#D32E66" stop-opacity="0.65"/>
<stop offset="0.49" stop-color="#D32F6E" stop-opacity="0.53"/>
<stop offset="0.54" stop-color="#D33073" stop-opacity="0.47"/>
<stop offset="0.57" stop-color="#D3346F" stop-opacity="0.43"/>
<stop offset="0.76" stop-color="#D54D5A" stop-opacity="0.2"/>
<stop offset="0.91" stop-color="#D75D4C" stop-opacity="0.05"/>
<stop offset="1" stop-color="#D86348" stop-opacity="0"/>
</radialGradient>
<radialGradient id="paint1_radial_363_8594" cx="0" cy="0" r="1" gradientUnits="userSpaceOnUse" gradientTransform="translate(44.4021 8.33681) rotate(149.068) scale(2.71021 2.27604)">
<stop stop-color="#D32E5B" stop-opacity="0.8"/>
<stop offset="0.14" stop-color="#D32E5C" stop-opacity="0.78"/>
<stop offset="0.27" stop-color="#D32E5F" stop-opacity="0.73"/>
<stop offset="0.38" stop-color="#D32E66" stop-opacity="0.65"/>
<stop offset="0.49" stop-color="#D32F6E" stop-opacity="0.53"/>
<stop offset="0.54" stop-color="#D33073" stop-opacity="0.47"/>
<stop offset="0.57" stop-color="#D3346F" stop-opacity="0.43"/>
<stop offset="0.76" stop-color="#D54D5A" stop-opacity="0.2"/>
<stop offset="0.91" stop-color="#D75D4C" stop-opacity="0.05"/>
<stop offset="1" stop-color="#D86348" stop-opacity="0"/>
</radialGradient>
<clipPath id="clip0_363_8594">
<rect width="185.043" height="54.5045" fill="white" transform="translate(0 185.043) rotate(-90)"/>
</clipPath>
</defs>
</svg>
