<svg width="187" height="56" viewBox="0 0 187 56" fill="none" xmlns="http://www.w3.org/2000/svg">
<g clip-path="url(#clip0_562_5549)">
<path d="M185.938 27.03C185.553 22.3529 183.913 18.093 180.795 14.5082C178.285 11.6285 174.61 9.434 170.824 8.67932C166.947 7.90478 162.989 8.39135 159.375 9.87092C159.284 8.37149 158.504 7.01108 157.269 6.0578C157.097 5.92871 156.935 5.79961 156.763 5.67052C156.733 5.5315 156.702 5.39248 156.672 5.25346C156.378 3.8434 155.781 2.66173 154.576 1.74817C152.714 0.338108 150.183 0.477128 148.33 1.79782C148.178 1.90705 148.016 2.01628 147.865 2.13544C147.682 2.11558 147.49 2.09572 147.308 2.07586C145.708 1.90705 144.038 2.36383 142.904 3.52564C141.568 4.88605 141.214 6.79262 141.659 8.58002C141.71 8.76869 141.77 8.96729 141.831 9.15596C141.862 9.24533 141.882 9.3347 141.912 9.42407C141.882 9.48365 141.862 9.54323 141.831 9.60281C141.791 9.70211 141.75 9.79148 141.71 9.88085C141.193 9.64253 140.667 9.41414 140.131 9.20561C134.988 7.20968 128.934 7.71611 123.792 9.45386C120.755 10.4767 117.87 11.8867 115.025 13.3464C113.922 12.2938 112.707 11.3604 111.32 10.5958C108.85 9.21554 106.177 8.48072 103.363 8.2424C98.2913 7.81541 93.1184 9.95036 89.3627 13.2074C87.9657 14.4189 86.7914 15.7991 85.8196 17.3184C83.8759 14.111 81.092 11.4001 77.6502 9.8312C74.4209 8.35163 70.8878 7.59695 67.3144 7.85513C63.9838 8.09345 60.9368 8.95736 57.8897 10.2383C55.7638 11.132 53.7797 12.274 51.836 13.4854C51.4918 12.8896 51.097 12.3336 50.601 11.7477C49.3457 10.2582 47.4223 9.12617 45.4989 8.74883C43.7071 8.40128 41.9963 8.61974 40.2449 9.00701C37.3801 9.65246 34.5253 10.2979 31.6605 10.9434C24.554 12.552 17.4576 14.1508 10.3511 15.7594C9.60203 15.9282 8.81242 16.0672 8.08355 16.3056C5.82608 17.0305 4.01402 18.2519 2.61702 20.1286C1.52372 21.5983 1.0378 23.475 0.987187 25.2724C0.946695 26.7718 1.35162 28.2613 1.67556 29.721C2.07037 31.4687 2.45505 33.2065 2.84986 34.9541C3.53823 38.0324 4.20636 41.1207 4.92511 44.199C5.33004 45.9268 6.24113 47.4858 7.44579 48.7866C9.14648 50.6237 11.4951 51.5571 13.955 51.8352C15.433 52.004 16.9413 51.6664 18.3991 51.4479C24.5742 50.5343 30.7595 49.6406 36.9245 48.6973C37.1169 48.6675 37.3092 48.6377 37.5016 48.6079L43.3123 50.8024C44.2436 51.15 45.1749 51.5671 46.1164 51.865C48.0196 52.4508 50.2467 51.8947 51.5728 50.4251C52.4738 49.4222 52.8888 48.31 52.9698 47.1085C53.1621 47.4461 53.395 47.7639 53.6683 48.0518C54.6705 49.1243 56.2396 49.6108 57.5961 50.1073C58.5072 50.445 59.4486 50.7131 60.4103 50.9117C65.8667 52.0636 71.4143 51.428 76.4657 49.164C76.9516 48.9455 77.4173 48.7072 77.883 48.459C78.045 49.2335 78.3588 49.869 78.8548 50.5045C79.3002 51.0705 79.6748 51.4678 80.353 51.8451C80.4745 51.9146 80.6061 51.9643 80.7377 52.0238C80.8187 52.0536 80.8896 52.0933 80.9706 52.1231C80.9908 52.1728 81.011 52.2125 81.0414 52.2622C81.6994 53.6524 82.9851 54.6553 84.4732 55.0823C86.3662 55.6284 88.3807 54.8042 89.6158 53.3842C89.6461 53.3445 89.6765 53.3147 89.7069 53.275C89.8081 53.2651 89.8992 53.2452 89.9903 53.2353C90.1017 53.2154 90.213 53.2055 90.3244 53.1856C90.2434 53.1956 90.1523 53.2055 90.0713 53.2154C90.618 53.1261 91.0735 53.0069 91.7214 52.6296C92.8451 51.9841 93.7258 50.9117 94.0598 49.6704C94.2117 49.1143 94.2522 48.5583 94.2016 48.022C94.5863 48.2008 94.9811 48.3696 95.3759 48.5285C96.6311 49.0349 97.8864 49.303 99.2024 49.4917C102.675 49.9087 106.015 49.5612 109.265 48.2206C111.36 47.3567 113.314 46.1353 114.984 44.6061C115.015 44.7253 115.045 44.8444 115.086 44.9636C115.562 46.324 116.462 47.2872 117.718 48.0121C119.712 49.1739 121.939 50.0776 124.197 50.6237C129.845 51.9841 135.767 51.4181 141.001 48.9555C144.686 47.2276 147.824 44.338 149.91 40.8824C152.339 44.6061 155.973 47.5255 160.286 48.876C164.133 50.0775 168.597 49.9882 172.363 48.5384C176.473 46.9496 179.773 44.338 182.273 40.7632C185.037 36.8111 186.404 31.8163 185.938 27.0399V27.03Z" fill="#4416CE"/>
<path d="M100.103 49.6375C99.8014 49.5981 99.5093 49.5588 99.2172 49.5096C99.1266 49.4997 99.036 49.4899 98.9453 49.48C99.3381 49.5292 99.7208 49.5784 100.103 49.6375Z" fill="#4416CE"/>
<path d="M116.689 25.0506C116.155 22.7381 115.198 20.6715 113.839 18.8609C113.416 18.3 112.963 17.7686 112.469 17.2667C109.659 14.4228 105.953 12.868 102.196 12.868C100.887 12.868 99.5679 13.0943 98.299 13.4683C92.3368 15.1608 88.117 20.1598 87.1301 26.5267C86.9891 27.5304 86.8984 28.4948 86.8984 29.4592C86.8984 34.4089 89.0537 39.0832 92.7195 42.1141C93.3238 42.6061 93.9382 43.0391 94.5626 43.4229C96.2847 44.4758 98.1177 45.1352 100.082 45.3713C100.696 45.4599 101.3 45.4599 102.005 45.4599C103.133 45.4599 104.211 45.3713 105.238 45.0958C110.868 43.7181 115.088 39.408 116.679 33.4544C117.051 32.0374 117.243 30.6105 117.243 29.2328C117.243 27.8551 117.051 26.4873 116.679 25.0604L116.689 25.0506ZM103.214 21.4785C105.087 21.9803 106.628 23.3875 107.544 25.0604C109.518 28.6522 108.672 33.2182 105.419 35.8063C104.593 36.4558 103.596 36.9281 102.539 36.997C99.2054 37.2037 96.5667 34.1629 95.8617 31.26C95.6502 30.3743 95.5596 29.4296 95.5798 28.4554C95.6805 24.5782 98.7421 20.2878 103.204 21.4785H103.214Z" fill="#F7CE46"/>
<path d="M102.005 45.447C103.133 45.447 104.211 45.3585 105.238 45.0829C110.868 43.7052 115.087 39.3951 116.679 33.4415C117.051 32.0245 117.243 30.5976 117.243 29.22C117.243 27.8423 117.051 26.4744 116.679 25.0476C116.145 22.735 115.188 20.6685 113.829 18.8578C114.211 19.8616 114.544 20.885 114.826 21.9183C116.447 27.8324 115.077 35.0456 110.566 39.464C108.048 41.9241 104.664 43.4297 101.139 43.8233C99.4671 44.0103 97.7752 43.9316 96.1135 43.6757C95.6099 43.597 95.0862 43.5183 94.5625 43.41C96.2847 44.463 98.1176 45.1223 100.081 45.3585C100.696 45.447 101.3 45.447 102.005 45.447Z" fill="#F19A38"/>
<path d="M181.113 27.2431C180.912 24.6058 180.156 22.1851 178.847 20.0201C178.626 19.6462 178.384 19.2821 178.132 18.918C175.786 15.7001 172.361 13.6139 168.645 13.0629C167.346 12.8759 166.017 12.9054 164.707 13.0825C158.554 13.8895 153.619 18.2095 151.665 24.3697C151.373 25.3439 151.131 26.2886 150.98 27.2333C150.225 32.124 151.645 37.064 154.797 40.5869C155.12 40.9411 155.462 41.2757 155.804 41.5906C157.506 43.175 159.42 44.2869 161.585 44.8774C162.169 45.0545 162.774 45.1431 163.469 45.2513C164.586 45.4186 165.664 45.4776 166.722 45.3596C172.502 44.8183 177.326 41.1773 179.824 35.519C180.408 34.1708 180.811 32.7932 181.022 31.4352C181.234 30.0772 181.254 28.6897 181.103 27.2333L181.113 27.2431ZM159.732 27.5383C160.427 23.7202 164.113 19.9217 168.333 21.7521C170.105 22.5196 171.415 24.1335 172.069 25.9245C173.479 29.7623 171.938 34.1512 168.323 36.2374C167.406 36.7589 166.349 37.0836 165.301 36.9951C161.978 36.7195 159.823 33.3147 159.581 30.3527C159.501 29.4474 159.561 28.5027 159.732 27.5383Z" fill="#ED739F"/>
<path d="M163.479 45.2687C164.597 45.436 165.674 45.4951 166.732 45.377C172.513 44.8357 177.337 41.1947 179.834 35.5364C180.419 34.1883 180.821 32.8106 181.033 31.4526C181.244 30.0946 181.264 28.7071 181.113 27.2507C180.912 24.6134 180.157 22.1926 178.847 20.0277C179.099 21.1495 179.28 22.291 179.411 23.4325C179.925 27.91 179.341 31.9249 177.025 35.8808C174.295 40.5157 169.461 43.2711 163.418 43.094C161.414 43.0349 159.501 42.7889 157.587 42.2083C157.013 42.0312 156.409 41.8344 155.805 41.608C157.507 43.1924 159.42 44.3044 161.586 44.8948C162.17 45.0719 162.774 45.1605 163.469 45.2687H163.479Z" fill="#DD468F"/>
<path d="M148.461 26.6411C148.28 25.1945 147.927 23.7775 147.414 22.4391C146.044 18.8867 143.476 15.8361 139.649 14.0944C135.016 11.9688 130.222 12.5199 127 13.3268C123.293 14.2518 119.92 15.9739 116.969 17.4893L120.917 24.8304C121.581 24.4663 122.246 24.1022 122.911 23.7873L123.122 37.5838L120.745 41.0575L119.265 43.2224C119.053 43.5274 119.144 43.9407 119.466 44.1277C121.601 45.4168 124.824 46.824 128.883 47.0307C129.618 47.0897 130.343 47.1094 131.078 47.07C135.55 46.8732 139.619 45.3086 142.751 42.5434C147.202 38.617 149.176 32.3978 148.471 26.6312L148.461 26.6411ZM123.857 23.3248C125.62 22.4883 127.382 21.7405 129.165 21.278C131.814 20.5891 134.251 20.6678 136.043 21.4944C140.072 23.3543 141.069 29.1996 139.588 32.8701C139.045 34.1986 138.209 35.3795 137.141 36.3438C136.275 37.1311 135.268 37.7707 134.17 38.2234C132.71 38.8335 131.683 38.9221 131.683 38.9516C131.683 38.9811 131.441 23.2165 131.441 23.2165L129.286 23.2461L123.847 23.3248H123.857Z" fill="#ED739F"/>
<path d="M119.454 44.1357C121.589 45.4248 124.812 46.832 128.871 47.0386C129.606 47.0977 130.331 47.1174 131.066 47.078C135.538 46.8812 139.606 45.3165 142.738 42.5513C147.19 38.625 149.164 32.4057 148.459 26.6392C148.278 25.1926 147.925 23.7756 147.411 22.4373C147.613 25.3304 147.522 28.2333 146.878 31.0477C146.042 34.6592 144.169 38.0149 141.177 40.4061C138.549 42.5218 135.105 44.1455 131.721 44.1554C127.642 44.1652 124.308 43.4173 120.592 41.2819L119.263 43.2205C119.051 43.5256 119.142 43.9389 119.464 44.1258L119.454 44.1357Z" fill="#DD468F"/>
<path d="M131.698 38.9645L131.457 23.2294L129.301 23.259C129.291 23.3967 129.281 23.5345 129.281 23.6723C129.412 28.0021 129.362 32.3221 129.473 36.6421C129.473 36.6421 129.473 36.6519 129.473 36.6618C129.473 36.6913 129.473 36.7208 129.473 36.7503C129.473 36.9275 129.473 37.1046 129.483 37.2916C129.503 38.1379 130.58 39.053 131.698 38.9645Z" fill="#DD468F"/>
<path d="M84.2222 24.891C83.8899 23.4739 83.3863 22.1061 82.7216 20.817C80.9693 17.4318 78.0889 14.6666 74.1007 13.3185C69.2666 11.6849 64.5533 12.728 61.4413 13.8695C57.856 15.1783 54.6836 17.2449 51.9141 19.0555L56.6374 25.9439C57.2618 25.5109 57.8762 25.0878 58.5106 24.704L60.2227 38.3922L58.2287 42.1021L56.9899 44.4048C56.8187 44.7295 56.9496 45.1231 57.282 45.2904C59.548 46.3532 62.9017 47.416 66.9603 47.1995C67.6955 47.1897 68.4206 47.1208 69.1458 47.0125C73.567 46.3434 77.4444 44.3753 80.2643 41.305C84.2726 36.9456 85.5516 30.5493 84.2222 24.891ZM59.3969 24.1431C61.0586 23.1197 62.7304 22.1947 64.4526 21.555C67.0107 20.5906 69.4479 20.4234 71.311 21.0531C75.5208 22.4899 77.1523 28.1876 76.0646 31.9958C75.6718 33.3735 74.9568 34.6331 74.0101 35.7057C73.2346 36.5815 72.3081 37.3196 71.2607 37.8805C69.8709 38.6382 68.8638 38.835 68.8638 38.8646C68.8638 38.8941 66.92 23.2378 66.92 23.2378L64.7749 23.4936L59.3768 24.1332L59.3969 24.1431Z" fill="#F7CE46"/>
<path d="M57.2892 45.2861C59.5552 46.3489 62.9089 47.4116 66.9675 47.1951C67.7027 47.1853 68.4278 47.1164 69.153 47.0082C73.5742 46.339 77.4516 44.3709 80.2715 41.3007C84.2798 36.9413 85.5588 30.5449 84.2294 24.8866C83.8971 23.4696 83.3935 22.1017 82.7288 20.8126C83.2425 23.6664 83.4741 26.5595 83.1317 29.4329C82.6986 33.1133 81.188 36.6362 78.4788 39.3325C76.092 41.7041 72.8491 43.6821 69.4853 44.0462C65.4266 44.4792 62.0327 44.0757 58.1049 42.3438L56.9971 44.4103C56.8259 44.735 56.9568 45.1286 57.2892 45.2959V45.2861Z" fill="#F19A38"/>
<path d="M68.8779 38.8751L66.9342 23.2484L64.7891 23.5042C64.7891 23.642 64.7891 23.7797 64.8193 23.9175C65.4135 28.208 65.8465 32.5083 66.4206 36.7988C66.4206 36.7988 66.4206 36.8086 66.4206 36.8185C66.4206 36.848 66.4206 36.8775 66.4307 36.907C66.4508 37.0842 66.4709 37.2613 66.5012 37.4384C66.622 38.2847 67.7802 39.0818 68.8779 38.8653V38.8751Z" fill="#F19A38"/>
<path d="M97.3608 17.4281C97.0486 16.9164 96.4141 16.7491 95.8098 17.0247C94.4099 17.6643 93.1309 18.8452 91.9022 20.6361C90.9958 21.9646 90.2506 23.4604 89.7671 24.966C89.6765 25.2317 89.7168 25.5269 89.8578 25.7827C90.0089 26.0583 90.2707 26.2649 90.5628 26.3437C90.6635 26.3732 90.7642 26.383 90.8548 26.383C91.3483 26.383 91.8015 26.0681 91.9627 25.5663C92.0634 25.271 92.1742 24.966 92.295 24.6609C92.3151 24.6019 92.3454 24.5428 92.3655 24.4838L92.4159 24.3755C92.4864 24.2181 92.5568 24.0607 92.6374 23.913C92.9899 23.1848 93.3827 22.496 93.8157 21.8662C94.7926 20.4196 95.7897 19.5045 96.9579 18.9731C97.1996 18.8648 97.3809 18.6483 97.4716 18.3728C97.5723 18.0579 97.532 17.7037 97.3809 17.438L97.3608 17.4281Z" fill="white"/>
<path d="M62.6008 16.8656C62.3792 16.2752 61.7649 15.9701 61.1707 16.1374C59.2773 16.6885 57.525 17.643 55.9841 18.9912C55.7827 19.1683 55.6719 19.4438 55.6719 19.7489C55.6719 20.0835 55.8129 20.3885 56.0344 20.5853C56.2661 20.7723 56.5279 20.8707 56.7898 20.8707C57.0818 20.8707 57.3739 20.7526 57.6357 20.5361L57.7062 20.4771C57.7566 20.4279 57.817 20.3787 57.8774 20.3393C57.8774 20.3393 57.8976 20.3196 57.9077 20.3098L57.9983 20.2409C58.1695 20.113 58.3407 19.985 58.522 19.8571C58.8745 19.6111 59.2471 19.3848 59.6198 19.1781C59.8111 19.0797 60.0025 18.9813 60.1938 18.8829L60.2945 18.8337C60.2945 18.8337 60.3046 18.8337 60.3147 18.8337L60.4053 18.7943C60.4758 18.7648 60.5463 18.7353 60.6168 18.7058C60.9995 18.5483 61.4124 18.4106 61.8455 18.2826C62.1375 18.1941 62.3792 17.9874 62.5303 17.702C62.6713 17.4363 62.6914 17.1313 62.6008 16.8754V16.8656Z" fill="white"/>
<path d="M127.465 16.2893C127.253 15.7087 126.709 15.4332 126.045 15.5513C124.403 15.8662 122.781 16.5157 121.341 17.4308C121.079 17.5981 120.888 17.8737 120.828 18.1886C120.767 18.4739 120.828 18.7593 120.989 18.9758C121.231 19.3104 121.603 19.4974 121.966 19.4974C122.167 19.4974 122.379 19.4383 122.56 19.3202C122.902 19.1037 123.245 18.9069 123.587 18.7298L123.648 18.7003C123.779 18.6314 123.909 18.5625 124.04 18.5035C124.081 18.4838 124.131 18.4641 124.201 18.4346C124.282 18.3952 124.373 18.3657 124.453 18.3263C125.168 18.0508 125.914 17.8343 126.689 17.6768C126.951 17.6276 127.193 17.4505 127.344 17.1848C127.515 16.8994 127.555 16.5452 127.454 16.2697L127.465 16.2893Z" fill="white"/>
<path d="M154.274 9.80724L152.492 8.4394L152.008 6.15639C152.008 6.15639 151.928 5.65452 151.525 5.49708C151.122 5.33963 150.699 5.64468 150.689 5.65452L148.826 6.983L146.59 6.74683C146.519 6.74683 145.905 6.68778 145.704 7.07156C145.522 7.42582 145.643 7.81945 145.653 7.82929L146.308 10.0237L145.381 12.1394C145.351 12.1985 145.119 12.7299 145.412 13.0448C145.673 13.34 146.147 13.3794 146.187 13.3892L148.413 13.4089L150.054 14.9243C150.054 14.9243 150.346 15.1507 150.679 15.19C150.729 15.19 150.789 15.19 150.84 15.19C151.273 15.1605 151.464 14.6094 151.474 14.5504L152.25 12.3756L154.224 11.2341C154.224 11.2341 154.606 11.0275 154.707 10.6437C154.828 10.2304 154.345 9.8466 154.284 9.7974L154.274 9.80724Z" fill="#F7EBA1"/>
<path d="M88.8553 46.4347L89.1474 44.6733C89.1877 44.5158 89.1877 44.1911 88.956 43.9746C88.6841 43.7089 88.2712 43.8073 88.2309 43.8172L86.539 44.2108L85.0182 43.394C84.9679 43.3645 84.4945 43.1185 84.1924 43.3743C83.9406 43.5908 83.9104 43.9352 83.9104 43.9648L83.7594 45.7065L82.5105 46.9268C82.5105 46.9268 82.1077 47.3105 82.2487 47.6845C82.3695 47.9994 82.7019 48.1765 82.7422 48.1962L84.3233 48.8654L85.0686 50.43C85.0686 50.43 85.27 50.7744 85.5722 50.8827C85.5822 50.8827 85.5923 50.8827 85.6024 50.8925C85.975 51.0106 86.2973 50.6367 86.3275 50.5973L87.4857 49.2787L89.1978 49.0425C89.1978 49.0425 89.5704 48.9933 89.7718 48.7276C90.0035 48.4225 89.7416 47.9502 89.7114 47.901L88.8251 46.4151L88.8553 46.4347Z" fill="#F7EBA1"/>
<path d="M51.1538 36.7819L49.1597 18.5769C48.8072 15.4181 46.4607 13.0859 43.5803 13.2039C43.248 13.2138 42.9156 13.2531 42.5732 13.3319L10.7887 20.4859C6.6898 21.2929 5.34027 24.0581 6.04525 27.2169L9.65071 43.2078C9.7615 43.7096 9.94278 44.1918 10.1845 44.6248C11.2923 46.6815 13.6489 47.9214 16.1164 47.5573L35.2717 44.7232L38.3333 44.2607L47.6591 47.764C47.7397 47.7935 47.8102 47.8033 47.8908 47.8033C48.5756 47.8722 49.049 47.2818 48.908 46.5339C48.908 46.5339 48.0217 42.5288 48.0217 42.5189C48.0217 42.5091 48.5857 42.204 48.6461 42.1745C48.8475 42.0466 49.0389 41.899 49.2202 41.7514C49.5827 41.4463 49.9151 41.0921 50.187 40.7083C50.751 39.9309 51.0934 39.0059 51.1941 38.0612C51.2344 37.6282 51.2142 37.205 51.1639 36.7819H51.1538Z" fill="white"/>
<path d="M30.0172 21.4127C30.2791 23.4005 31.5783 33.182 32.8271 38.2302C32.8774 38.427 32.7465 38.6337 32.535 38.6927L28.6476 39.6866C28.4361 39.7358 28.2246 39.6177 28.1742 39.4209C27.7109 37.5807 27.298 35.7012 26.9355 33.8217C26.8952 33.615 26.6938 33.4871 26.4722 33.5264C24.4882 33.9496 22.5142 34.4219 20.5403 34.9435C20.349 34.9927 20.218 35.1895 20.2482 35.3765L21.1244 40.592C21.1546 40.7986 21.0136 40.9954 20.8022 41.0348L16.8442 41.7335C16.6327 41.7728 16.4313 41.635 16.4011 41.4284L13.5509 24.296C13.5207 24.0893 13.6617 23.8925 13.8732 23.8532L17.8312 23.1545C18.0427 23.1151 18.2441 23.2529 18.2743 23.4596L19.3721 30.0527C19.4123 30.2692 19.6339 30.407 19.8555 30.3479C21.8093 29.8264 23.7731 29.3639 25.7471 28.9407C25.9485 28.9014 26.0794 28.7046 26.0593 28.5078C25.7269 26.3133 25.4651 24.109 25.2637 21.9146C25.2435 21.7079 25.4047 21.521 25.6262 21.5013L29.6043 21.0978C29.8158 21.0781 29.9971 21.2159 30.0273 21.4127H30.0172Z" fill="black"/>
<path d="M41.2036 21.6293C41.2238 20.8912 40.6396 20.2811 39.8843 20.2516L36.5407 20.1532C35.7854 20.1335 35.161 20.7043 35.1307 21.4423L35.0703 23.1939L41.1432 23.3809L41.2036 21.6293Z" fill="black"/>
<path d="M34.8967 35.6544L37.0016 37.5143L36.9815 38.2819C36.9815 38.5869 37.2232 38.8526 37.5354 38.8526H37.7167C38.0289 38.8723 38.3008 38.6263 38.3008 38.3212L38.3209 37.5537L40.5466 35.8217C40.6876 35.7135 40.7682 35.556 40.7682 35.3888L41.0905 25.1841L35.0176 24.9971L34.6953 35.2018C34.6953 35.3691 34.7658 35.5364 34.8867 35.6544H34.8967Z" fill="black"/>
<path d="M35.4033 42.6276L16.2078 45.4321C15.1805 45.5699 14.4755 45.56 13.3677 45.4813C13.3677 45.4813 13.0958 45.4518 13.0857 45.4518C12.8239 45.4223 12.552 45.3829 12.2901 45.3436C11.6657 45.255 10.8197 44.9598 10.1953 44.6449C11.3031 46.7015 13.6598 47.9415 16.1272 47.5774L35.2825 44.7433L38.3441 44.2808C38.1427 43.9659 38.0823 43.8773 37.9513 43.7297C37.1356 42.844 36.7931 42.4701 35.4134 42.6374L35.4033 42.6276Z" fill="#C7B9F0"/>
<path d="M47.9171 25.9309C48.1185 27.5349 48.2998 29.1291 48.4609 30.7331C48.5918 31.9927 48.8033 33.2523 48.9242 34.5217C48.9947 35.2401 49.035 35.9585 49.0148 36.6768C49.0148 36.8441 48.9947 37.0114 48.9846 37.1787C48.9544 37.5329 48.8839 37.9758 48.7127 38.458C48.6422 38.6646 48.5516 38.8614 48.471 39.0287C48.4005 39.1566 48.33 39.2846 48.2494 39.4027C48.1286 39.5896 47.9574 39.8061 47.7157 40.0325C47.4739 40.2588 47.2423 40.4261 47.0409 40.5442C46.8495 40.6622 46.6582 40.7705 46.4568 40.8689C45.9029 41.1543 45.3993 41.4692 45.782 42.4827C46.4568 44.2442 46.8395 45.8482 47.5243 47.5998C47.5646 47.7179 47.6149 47.8262 47.6754 47.9443C48.3602 48.0131 48.8336 47.4227 48.6926 46.6748C48.6926 46.6748 47.8063 42.6697 47.8063 42.6599C47.8063 42.65 48.3703 42.345 48.4307 42.3155C48.6321 42.1875 48.8235 42.0399 49.0048 41.8923C49.3673 41.5873 49.6997 41.233 49.9716 40.8492C50.5356 40.0718 50.878 39.1468 50.9787 38.2021C51.019 37.7691 50.9988 37.346 50.9485 36.9228L48.9544 18.7178C48.6019 15.559 46.2553 13.2268 43.375 13.3449C43.6872 13.4728 43.8685 13.5909 44.1102 13.7286C44.1102 13.7286 46.346 14.939 47.0006 18.8457L47.907 25.9408L47.9171 25.9309Z" fill="#C7B9F0"/>
<path d="M165.295 37.0007C166.352 37.0892 167.41 36.7645 168.316 36.2429C171.932 34.1666 173.462 29.7777 172.063 25.93C171.408 24.1391 170.099 22.5252 168.326 21.7576C164.106 19.9273 160.42 23.7258 159.725 27.5439C159.554 28.5083 159.494 29.453 159.574 30.3583C159.826 33.3301 161.971 36.7251 165.295 37.0007Z" fill="black"/>
<path d="M161.976 26.9088L154.553 20.4337C154.553 20.4337 154.553 20.4238 154.553 20.414C154.412 20.0991 153.647 18.5443 152.831 18.2884C152.63 18.2294 152.438 18.2392 152.257 18.3278C152.126 18.377 151.955 18.4852 151.874 18.6919C151.854 18.7411 151.834 18.7903 151.824 18.8493C151.653 18.7411 151.471 18.6624 151.29 18.6427C151.059 18.6132 150.837 18.6821 150.666 18.8395C150.484 18.997 150.404 19.1938 150.414 19.4201C150.414 19.4791 150.424 19.5382 150.444 19.5972C150.404 19.5972 150.364 19.5972 150.323 19.5972C150.132 19.6071 149.981 19.6858 149.87 19.8236C149.618 20.1286 149.699 20.4632 149.89 20.7781C149.729 20.7978 149.578 20.8667 149.447 21.0143C149.296 21.1816 149.246 21.3981 149.306 21.6441C149.447 22.2837 150.323 23.0316 151.713 23.7204C151.713 23.7204 151.713 23.7204 151.723 23.7204L159.911 31.7503C159.911 31.7503 159.982 31.8094 160.022 31.8192C160.062 31.829 160.102 31.829 160.133 31.8192C160.213 31.8094 160.284 31.7503 160.324 31.6814L162.056 27.2237C162.107 27.1253 162.076 26.9973 161.986 26.9284L161.976 26.9088Z" fill="black"/>
<path d="M172.334 29.934C174.036 29.9635 175.255 29.8454 176.715 29.6191C178.85 29.2845 182.073 28.5268 184.117 26.7653C184.158 26.726 184.188 26.6866 184.198 26.6276C184.208 26.5488 185.245 19.1291 180.814 13.5101C177.239 8.97362 170.904 6.43475 165.073 7.50737C161.407 8.18637 158.537 10.3119 156.956 13.6971C154.881 18.1056 157.056 23.823 160.632 26.598C162.223 27.8281 163.895 28.4382 165.869 29.0287C166.886 29.3337 169.252 29.8651 172.324 29.9242L172.334 29.934Z" fill="black"/>
<path d="M170.714 13.7044C168.971 13.1927 167.118 12.9368 165.346 13.1435C164.842 13.2025 164.339 13.3009 163.855 13.4584C162.999 13.7241 162.213 14.1669 161.549 14.7475C161.005 15.2297 160.562 15.8004 160.199 16.4204C157.087 21.7638 162.314 25.395 162.365 25.4245C162.405 25.454 166.393 28.2487 172.264 28.0913C176.504 27.983 179.355 23.7221 178.186 19.8252C177.411 17.247 175.044 15.3969 172.617 14.3834C172.003 14.1275 171.358 13.9012 170.703 13.7044H170.714Z" fill="#EAB3B1"/>
<path d="M152.651 18.8716C152.601 18.8519 152.541 18.8716 152.5 18.9011C152.46 18.9307 152.45 18.9799 152.46 19.0291C152.46 19.0979 152.48 19.157 152.5 19.2259C152.541 19.3341 152.591 19.4424 152.641 19.5408C152.682 19.6195 152.732 19.6982 152.782 19.7671C152.873 19.9049 152.833 20.082 152.692 20.1706C152.551 20.2591 152.42 20.2001 152.309 20.0722C152.037 19.7573 151.544 19.2652 151.252 19.2259C151.191 19.2259 151.151 19.2259 151.111 19.2652C151.06 19.3046 151.05 19.344 151.05 19.3833C151.05 19.5801 151.312 19.8852 151.564 20.1312C151.725 20.2493 151.836 20.3575 151.886 20.4067C152.007 20.515 152.017 20.702 151.906 20.82C151.795 20.9381 151.624 20.9381 151.493 20.8397C151.252 20.6626 151.04 20.4658 150.798 20.2886C150.718 20.2296 150.637 20.1706 150.547 20.141C150.486 20.1214 150.426 20.1214 150.375 20.1607C150.275 20.2493 150.355 20.3772 150.416 20.4559C150.607 20.7413 150.859 20.9578 151.121 21.1743L151.161 21.2137C151.282 21.3219 151.302 21.499 151.191 21.627C151.08 21.7451 150.899 21.7746 150.758 21.6663C150.557 21.5187 150.285 21.3514 150.103 21.3121C150.013 21.2924 149.922 21.3317 149.902 21.4302C149.892 21.499 149.902 21.5679 149.942 21.627C150.003 21.7352 150.083 21.8336 150.164 21.932C150.365 22.1584 150.607 22.3453 150.849 22.5126C150.98 22.6012 151.121 22.6897 151.262 22.7783C151.342 22.8275 151.423 22.8669 151.493 22.9161C151.513 22.9259 151.735 23.0538 151.745 23.0538L153.9 20.4855C153.568 19.8261 153.014 18.97 152.631 18.8519L152.651 18.8716Z" fill="#EAB3B1"/>
<path opacity="0.25" d="M177.197 24.1261C177.6 25.2972 176.744 26.5961 175.284 27.0389C173.823 27.4719 172.323 26.8815 171.92 25.7105C171.517 24.5394 172.373 23.2405 173.833 22.7977C175.294 22.3647 176.794 22.9551 177.197 24.1261Z" fill="url(#paint0_radial_562_5549)"/>
<path opacity="0.25" d="M160.517 18.4766C159.41 19.0769 159.138 20.6022 159.903 21.8815C160.668 23.1607 162.189 23.7118 163.297 23.1214C164.405 22.5211 164.677 20.9958 163.911 19.7165C163.146 18.4373 161.625 17.8862 160.517 18.4766Z" fill="url(#paint1_radial_562_5549)"/>
<path d="M163.777 15.0573C163.697 15.0278 163.636 14.9687 163.616 14.89C163.586 14.7621 163.657 14.6341 163.788 14.6046C163.868 14.5849 165.671 14.1618 167.141 15.1262C167.252 15.1951 167.282 15.3427 167.212 15.4509C167.141 15.5592 166.98 15.5887 166.869 15.51C165.58 14.6735 163.929 15.0573 163.918 15.0573C163.868 15.0671 163.828 15.0573 163.777 15.0573Z" fill="black"/>
<path d="M175.618 18.5089C175.618 18.5089 175.547 18.4794 175.517 18.4499C175.507 18.4401 174.308 17.2592 172.767 17.2985C172.636 17.2985 172.516 17.2001 172.516 17.0722C172.516 16.9443 172.616 16.836 172.747 16.8262C174.52 16.777 175.819 18.0661 175.869 18.1252C175.96 18.2236 175.96 18.3712 175.869 18.4597C175.799 18.5188 175.708 18.5385 175.618 18.5089Z" fill="black"/>
<path d="M171.3 23.6978L164.904 21.6313C164.784 21.5919 164.653 21.6509 164.602 21.7592C164.572 21.8281 163.797 23.56 164.491 25.0361C164.854 25.7938 165.529 26.335 166.516 26.6499C166.546 26.6499 166.566 26.6696 166.596 26.6696C167.986 27.0928 168.973 26.9353 169.688 26.5318L169.809 26.4531C170.856 25.7938 171.259 24.5933 171.441 24.052L171.461 23.9831C171.501 23.8552 171.431 23.7273 171.3 23.6879V23.6978ZM166.737 26.2268C165.891 25.9611 165.307 25.5281 164.995 24.918C165.589 24.7802 167.553 24.5145 169.215 26.2366C168.621 26.4925 167.825 26.5515 166.737 26.217V26.2268ZM169.648 26.0103C167.765 23.9831 165.428 24.3374 164.814 24.485C164.673 24.0028 164.693 23.501 164.753 23.068L170.554 24.9377C170.343 25.3313 170.061 25.7151 169.648 26.0005V26.0103ZM170.917 24.0717C170.867 24.1996 170.816 24.3571 170.756 24.5047L164.844 22.5956C164.894 22.4185 164.945 22.261 164.975 22.1528L170.917 24.0717Z" fill="black"/>
<path d="M170.755 24.4965C170.816 24.339 170.876 24.1914 170.917 24.0635L164.975 22.1446C164.934 22.2528 164.884 22.4103 164.844 22.5874L170.755 24.4965Z" fill="white"/>
<path d="M169.64 26.0007C170.053 25.7153 170.345 25.3217 170.547 24.9379L164.746 23.0682C164.675 23.5012 164.665 23.9932 164.806 24.4852C165.43 24.3376 167.757 23.9833 169.64 26.0105V26.0007Z" fill="#DE5C56"/>
<path d="M164.992 24.9165C165.314 25.5266 165.899 25.9596 166.735 26.2253C167.812 26.5599 168.608 26.5008 169.212 26.245C167.55 24.5229 165.586 24.7886 164.992 24.9263V24.9165Z" fill="#ED7580"/>
<path d="M169.649 22.5373C169.548 22.5078 169.468 22.3995 169.478 22.2913C169.498 22.0945 169.438 21.8878 169.357 21.7205C168.994 20.953 167.806 20.766 167.222 21.3859C167.182 21.4351 167.141 21.4843 167.101 21.5335C167.031 21.6418 166.88 21.6812 166.759 21.6123C166.638 21.5434 166.608 21.3958 166.678 21.2875C166.869 20.9825 167.192 20.7365 167.544 20.6184C168.511 20.2936 169.75 20.8841 169.931 21.9075C169.961 22.0551 169.971 22.2027 169.961 22.3405C169.951 22.4684 169.83 22.5668 169.699 22.557C169.679 22.557 169.659 22.557 169.639 22.5471L169.649 22.5373Z" fill="black"/>
<path d="M165.842 16.4686C165.106 16.134 164.371 16.0258 163.737 16.1537C163.092 16.2817 162.609 16.6261 162.367 17.1378C162.125 17.6495 162.166 18.2399 162.478 18.791C162.79 19.3421 163.354 19.8144 164.089 20.149C164.25 20.2179 164.401 20.2769 164.553 20.3261C165.882 20.7591 167.111 20.4344 167.564 19.4798C168.067 18.4171 167.342 17.1476 165.842 16.4686ZM162.901 18.5647C162.659 18.1415 162.629 17.7085 162.81 17.3346C162.992 16.9607 163.354 16.7048 163.837 16.6064C164.25 16.5277 164.734 16.567 165.227 16.7245C165.368 16.7737 165.499 16.8229 165.64 16.8819C165.681 16.9016 165.721 16.9213 165.761 16.941C165.459 17.1083 165.006 17.4625 164.774 18.171C164.542 18.8796 164.734 19.5389 164.885 19.903C164.694 19.8538 164.492 19.7849 164.301 19.6963C163.666 19.411 163.173 19.0075 162.911 18.545L162.901 18.5647ZM165.449 19.9915C165.449 19.9915 164.965 19.1846 165.237 18.3285C165.318 18.0923 165.419 17.8561 165.58 17.6593C165.751 17.4527 165.983 17.3248 166.244 17.246C167.06 17.8168 167.433 18.604 167.111 19.2732C166.849 19.8243 166.214 20.0801 165.449 20.0211C165.449 20.0112 165.449 20.0014 165.439 19.9915H165.449Z" fill="black"/>
<path d="M164.773 18.1979C165.004 17.4893 165.457 17.1351 165.76 16.9678C165.719 16.9481 165.679 16.9284 165.639 16.9087C165.498 16.8497 165.367 16.7907 165.226 16.7513C164.732 16.5939 164.249 16.5446 163.836 16.6332C163.353 16.7218 162.99 16.9875 162.809 17.3614C162.627 17.7354 162.668 18.1683 162.899 18.5915C163.161 19.0441 163.655 19.4575 164.289 19.7428C164.491 19.8314 164.682 19.9003 164.873 19.9495C164.722 19.5854 164.541 18.9261 164.763 18.2175L164.773 18.1979Z" fill="white"/>
<path d="M167.129 19.2795C167.452 18.6104 167.079 17.8231 166.263 17.2524C166.001 17.3311 165.77 17.459 165.598 17.6657C165.437 17.8625 165.327 18.0888 165.256 18.3348C164.984 19.191 165.457 19.9881 165.467 19.9979C165.467 19.9979 165.468 20.0176 165.478 20.0274C166.243 20.0865 166.867 19.8306 167.139 19.2795H167.129Z" fill="#2255B2"/>
<path d="M175.195 19.8567C174.752 19.3844 174.108 19.0498 173.312 18.8825C171.691 18.5479 170.331 19.1482 170.089 20.2995C169.878 21.3328 170.653 22.307 171.993 22.7301C172.144 22.7793 172.305 22.8187 172.476 22.8581C173.272 23.0254 174.007 22.9663 174.601 22.7105C175.195 22.4546 175.588 22.0019 175.699 21.4509C175.82 20.8998 175.638 20.329 175.195 19.8567ZM172.577 22.4054C171.237 22.1299 170.391 21.2934 170.573 20.4078C170.754 19.5221 171.872 19.0793 173.211 19.3548C173.362 19.3844 173.503 19.4237 173.634 19.4729C173.332 19.65 172.899 20.0141 172.667 20.7128C172.446 21.4115 172.597 22.0511 172.748 22.4349C172.688 22.4349 172.627 22.4251 172.577 22.4054ZM173.151 20.8506C173.423 19.9945 173.957 19.8075 174.027 19.778C174.087 19.7485 174.118 19.7386 174.208 19.7091C174.45 19.837 174.672 19.9945 174.833 20.1716C175.165 20.5259 175.296 20.949 175.215 21.3525C175.135 21.7559 174.833 22.0905 174.39 22.2873C174.077 22.4251 173.705 22.4841 173.302 22.4743C173.191 22.2578 172.909 21.5788 173.151 20.8506Z" fill="black"/>
<path d="M172.674 20.6968C172.896 19.9981 173.339 19.634 173.641 19.4569C173.5 19.4077 173.359 19.3683 173.218 19.3388C171.868 19.0632 170.761 19.5061 170.579 20.3917C170.398 21.2774 171.234 22.1138 172.583 22.3893C172.644 22.3992 172.704 22.409 172.755 22.4189C172.614 22.0351 172.453 21.3954 172.674 20.6968Z" fill="white"/>
<path d="M174.833 20.1828C174.662 20.0057 174.451 19.8482 174.209 19.7203C174.118 19.7596 174.078 19.7695 174.028 19.7892C173.957 19.8187 173.423 20.0057 173.152 20.8618C172.92 21.59 173.202 22.269 173.303 22.4855C173.705 22.4855 174.078 22.4363 174.39 22.2985C174.833 22.1017 175.136 21.7671 175.216 21.3636C175.297 20.9602 175.166 20.537 174.833 20.1828Z" fill="#2255B2"/>
</g>
<defs>
<radialGradient id="paint0_radial_562_5549" cx="0" cy="0" r="1" gradientUnits="userSpaceOnUse" gradientTransform="translate(185.017 20.9569) rotate(-16.7208) scale(2.75168 2.24173)">
<stop stop-color="#D32E5B" stop-opacity="0.8"/>
<stop offset="0.14" stop-color="#D32E5C" stop-opacity="0.78"/>
<stop offset="0.27" stop-color="#D32E5F" stop-opacity="0.73"/>
<stop offset="0.38" stop-color="#D32E66" stop-opacity="0.65"/>
<stop offset="0.49" stop-color="#D32F6E" stop-opacity="0.53"/>
<stop offset="0.54" stop-color="#D33073" stop-opacity="0.47"/>
<stop offset="0.57" stop-color="#D3346F" stop-opacity="0.43"/>
<stop offset="0.76" stop-color="#D54D5A" stop-opacity="0.2"/>
<stop offset="0.91" stop-color="#D75D4C" stop-opacity="0.05"/>
<stop offset="1" stop-color="#D86348" stop-opacity="0"/>
</radialGradient>
<radialGradient id="paint1_radial_562_5549" cx="0" cy="0" r="1" gradientUnits="userSpaceOnUse" gradientTransform="translate(177.691 45.1498) rotate(-120.932) scale(2.71021 2.27604)">
<stop stop-color="#D32E5B" stop-opacity="0.8"/>
<stop offset="0.14" stop-color="#D32E5C" stop-opacity="0.78"/>
<stop offset="0.27" stop-color="#D32E5F" stop-opacity="0.73"/>
<stop offset="0.38" stop-color="#D32E66" stop-opacity="0.65"/>
<stop offset="0.49" stop-color="#D32F6E" stop-opacity="0.53"/>
<stop offset="0.54" stop-color="#D33073" stop-opacity="0.47"/>
<stop offset="0.57" stop-color="#D3346F" stop-opacity="0.43"/>
<stop offset="0.76" stop-color="#D54D5A" stop-opacity="0.2"/>
<stop offset="0.91" stop-color="#D75D4C" stop-opacity="0.05"/>
<stop offset="1" stop-color="#D86348" stop-opacity="0"/>
</radialGradient>
<clipPath id="clip0_562_5549">
<rect width="185.043" height="54.5045" fill="white" transform="translate(0.984375 0.747742)"/>
</clipPath>
</defs>
</svg>
