<svg width="24" height="24" viewBox="0 0 24 24" fill="none" xmlns="http://www.w3.org/2000/svg">
<path d="M19.5607 9.56066C20.1464 8.97487 20.1464 8.02513 19.5607 7.43934C18.9749 6.85355 18.0251 6.85355 17.4393 7.43934L19.5607 9.56066ZM11.5 15.5L10.4966 16.6149C11.0895 17.1486 11.9965 17.1248 12.5607 16.5607L11.5 15.5ZM7.50345 9.88506C6.88768 9.33087 5.93925 9.38079 5.38506 9.99655C4.83087 10.6123 4.88079 11.5608 5.49655 12.1149L7.50345 9.88506ZM17.4393 7.43934L10.4393 14.4393L12.5607 16.5607L19.5607 9.56066L17.4393 7.43934ZM12.5034 14.3851L7.50345 9.88506L5.49655 12.1149L10.4966 16.6149L12.5034 14.3851Z" fill="#DD468F"/>
</svg>
