<svg width="20" height="20" viewBox="0 0 20 20" fill="none" xmlns="http://www.w3.org/2000/svg">
<path d="M10 0C10.5523 0 11 0.447715 11 1V13.5858L16.2929 8.29289C16.6834 7.90237 17.3166 7.90237 17.7071 8.29289C18.0976 8.68342 18.0976 9.31658 17.7071 9.70711L10.7071 16.7071C10.3166 17.0976 9.68342 17.0976 9.29289 16.7071L2.29289 9.70711C1.90237 9.31658 1.90237 8.68342 2.29289 8.29289C2.68342 7.90237 3.31658 7.90237 3.70711 8.29289L9 13.5858V1C9 0.447715 9.44771 0 10 0Z" fill="black"/>
<path d="M1 18C0.447715 18 0 18.4477 0 19C0 19.5523 0.447715 20 1 20H19C19.5523 20 20 19.5523 20 19C20 18.4477 19.5523 18 19 18H1Z" fill="black"/>
</svg>
