<svg width="69" height="68" viewBox="0 0 69 68" fill="none" xmlns="http://www.w3.org/2000/svg">
<path d="M34.3084 0.435159C34.7978 0.0556693 35.484 0.0627031 35.9656 0.452148L66.9642 25.5196C67.6663 26.0873 67.6139 26.1738 66.8605 26.6714L35.0336 47.6905C34.586 47.9861 34.0049 47.985 33.5583 47.6878L2.02022 26.695C1.26069 26.1895 1.2209 26.0879 1.94198 25.5289L34.3084 0.435159Z" fill="#A0A0A0"/>
<path d="M7.33398 13.2432C7.33398 11.4521 8.76148 10 10.5224 10H59.1456C60.9065 10 62.334 11.452 62.334 13.2432V56.7568C62.334 58.548 60.9065 60 59.1456 60H10.5224C8.76148 60 7.33398 58.548 7.33398 56.7568V13.2432Z" fill="white"/>
<path d="M19.4412 27.42H23.5332C23.8932 27.42 24.0612 27.708 24.0612 28.056C24.0612 28.392 23.8932 28.692 23.5332 28.692H19.9452V30.96H23.2932C23.6412 30.96 23.8092 31.248 23.8092 31.584C23.8092 31.92 23.6412 32.208 23.2932 32.208H19.9452V34.68H23.6172C23.9772 34.68 24.1452 34.98 24.1452 35.316C24.1452 35.664 23.9772 35.952 23.6172 35.952H19.4412C18.6732 35.952 18.4212 35.712 18.4212 34.956V28.416C18.4212 27.66 18.6732 27.42 19.4412 27.42ZM25.122 31.08H28.314C28.662 31.08 28.83 31.368 28.83 31.716C28.83 32.064 28.662 32.352 28.314 32.352H25.122C24.774 32.352 24.606 32.064 24.606 31.716C24.606 31.368 24.774 31.08 25.122 31.08ZM32.8468 29.436C33.6628 29.436 34.3708 29.844 34.6108 30.444C35.0788 29.784 35.6668 29.436 36.6628 29.436C37.8868 29.436 38.9428 30.276 38.9428 31.932V35.388C38.9428 35.82 38.5828 36.024 38.1868 36.024C37.8028 36.024 37.4308 35.82 37.4308 35.388V32.244C37.4308 31.056 36.8668 30.78 36.2308 30.78C35.6428 30.78 35.0188 31.092 35.0188 32.196V35.388C35.0188 35.82 34.6588 36.024 34.2628 36.024C33.8788 36.024 33.5068 35.82 33.5068 35.388V32.22C33.5068 31.104 32.9788 30.78 32.3068 30.78C31.5988 30.78 31.0948 31.224 31.0948 32.136V35.388C31.0948 35.82 30.7348 36.024 30.3388 36.024C29.9548 36.024 29.5828 35.82 29.5828 35.388V30.12C29.5828 29.7 29.9308 29.508 30.2908 29.508C30.6628 29.508 31.0108 29.7 31.0108 30.12V30.456C31.3588 29.808 32.0068 29.436 32.8468 29.436ZM42.2645 33.228C41.4725 33.228 41.1965 33.552 41.1965 34.068V34.092C41.1965 34.548 41.5085 34.788 42.0965 34.788C42.5645 34.788 42.9245 34.716 43.2125 34.548C43.5965 34.32 43.7525 34.044 43.7525 33.54V33.228H42.2645ZM42.5765 29.436C44.1245 29.436 45.2405 30.216 45.2405 31.548V35.448C45.2405 35.844 44.9045 36.024 44.5565 36.024C44.2085 36.024 43.8725 35.844 43.8725 35.448V35.136H43.8605C43.7405 35.412 43.4885 35.616 43.1525 35.784C42.8405 35.94 42.3845 36.048 41.9765 36.048C40.5485 36.048 39.7325 35.352 39.7325 34.164V33.972C39.7325 32.88 40.3565 32.064 42.2285 32.064H43.7405V31.896C43.7405 31.08 43.3805 30.744 42.5645 30.744C42.0245 30.744 41.5085 30.888 41.0285 31.176C40.7045 31.368 40.3685 31.26 40.1765 30.948C39.9965 30.648 40.0325 30.276 40.3445 30.072C40.9205 29.688 41.7365 29.436 42.5765 29.436ZM47.1397 29.508C47.5357 29.508 47.8957 29.712 47.8957 30.144V35.388C47.8957 35.82 47.5357 36.024 47.1397 36.024C46.7557 36.024 46.3837 35.82 46.3837 35.388V30.144C46.3837 29.712 46.7557 29.508 47.1397 29.508ZM47.1397 27.024C47.6677 27.024 48.0877 27.432 48.0877 27.936C48.0877 28.44 47.6677 28.848 47.1397 28.848C46.6117 28.848 46.1917 28.44 46.1917 27.936C46.1917 27.432 46.6117 27.024 47.1397 27.024ZM49.8904 27.048C50.2864 27.048 50.6464 27.252 50.6464 27.696V35.376C50.6464 35.82 50.2864 36.024 49.8904 36.024C49.4944 36.024 49.1344 35.82 49.1344 35.376V27.696C49.1344 27.252 49.4944 27.048 49.8904 27.048Z" fill="#A0A0A0"/>
<path fill-rule="evenodd" clip-rule="evenodd" d="M59.1456 12.1622H10.5224C9.93542 12.1622 9.45959 12.6462 9.45959 13.2432V56.7568C9.45959 57.3538 9.93542 57.8378 10.5224 57.8378H59.1456C59.7325 57.8378 60.2084 57.3538 60.2084 56.7568V13.2432C60.2084 12.6462 59.7325 12.1622 59.1456 12.1622ZM10.5224 10C8.76148 10 7.33398 11.452 7.33398 13.2432V56.7568C7.33398 58.5479 8.76148 60 10.5224 60H59.1456C60.9065 60 62.334 58.5479 62.334 56.7568V13.2432C62.334 11.452 60.9065 10 59.1456 10H10.5224Z" fill="#A0A0A0"/>
<path d="M0.333984 29L31.8399 49.8746C33.271 50.8228 35.1315 50.8261 36.566 49.8831L68.334 29V63.726C68.334 66.0865 66.4162 68 64.0505 68H4.61745C2.25175 68 0.333984 66.0865 0.333984 63.726V29Z" fill="#A0A0A0"/>
</svg>
