<svg width="56" height="56" viewBox="0 0 56 56" fill="none" xmlns="http://www.w3.org/2000/svg">
<g clip-path="url(#clip0_1530_12772)">
<rect width="56" height="56" rx="24" fill="#F9E22F"/>
<path d="M41.5131 27.2509C41.5131 32.929 35.9 37.5321 28.9758 37.5321C28.1854 37.5321 27.4121 37.4722 26.6622 37.3575L21.8604 40.5813C21.7896 40.6363 21.7014 40.6688 21.6059 40.6688C21.3719 40.6688 21.1823 40.4738 21.1823 40.2331C21.1823 40.1155 21.2276 40.0087 21.3014 39.9303L22.3548 35.9832C18.8025 34.1681 16.4385 30.9359 16.4385 27.2509C16.4385 21.5728 22.0516 16.9697 28.9758 16.9697C35.9 16.9697 41.5131 21.5728 41.5131 27.2509Z" fill="#3B1D1D"/>
</g>
<defs>
<clipPath id="clip0_1530_12772">
<rect width="56" height="56" fill="white"/>
</clipPath>
</defs>
</svg>
