<svg width="56" height="56" viewBox="0 0 56 56" fill="none" xmlns="http://www.w3.org/2000/svg">
<g clip-path="url(#clip0_1530_12776)">
<rect width="56" height="56" rx="24" fill="#249BFB"/>
<path fill-rule="evenodd" clip-rule="evenodd" d="M40.727 27.1516C40.727 29.8199 39.9058 32.2965 38.5024 34.3424L39.3873 39.209L34.8558 37.8762C32.8771 39.1439 30.5242 39.8789 27.9997 39.8789C20.9706 39.8789 15.2725 34.1809 15.2725 27.1516C15.2725 20.1223 20.9706 14.4243 27.9997 14.4243C35.0288 14.4243 40.727 20.1223 40.727 27.1516ZM23.9806 27.8215C23.9806 28.5613 23.3808 29.1611 22.6409 29.1611C21.9009 29.1611 21.3012 28.5613 21.3012 27.8215C21.3012 27.0816 21.9009 26.4817 22.6409 26.4817C23.3808 26.4817 23.9806 27.0816 23.9806 27.8215ZM29.3394 27.8215C29.3394 28.5613 28.7397 29.1611 27.9997 29.1611C27.2598 29.1611 26.6601 28.5613 26.6601 27.8215C26.6601 27.0816 27.2598 26.4817 27.9997 26.4817C28.7397 26.4817 29.3394 27.0816 29.3394 27.8215ZM34.6983 27.8215C34.6983 28.5613 34.0986 29.1611 33.3586 29.1611C32.6186 29.1611 32.0188 28.5613 32.0188 27.8215C32.0188 27.0816 32.6186 26.4817 33.3586 26.4817C34.0986 26.4817 34.6983 27.0816 34.6983 27.8215Z" fill="white"/>
</g>
<defs>
<clipPath id="clip0_1530_12776">
<rect width="56" height="56" fill="white"/>
</clipPath>
</defs>
</svg>
