<svg width="83" height="42" viewBox="0 0 83 42" fill="none" xmlns="http://www.w3.org/2000/svg">
<path fill-rule="evenodd" clip-rule="evenodd" d="M20.5 0.5C9.17816 0.5 0 9.67816 0 21C0 32.3218 9.17816 41.5 20.5 41.5H62.5C73.8218 41.5 83 32.3218 83 21C83 9.67816 73.8218 0.5 62.5 0.5H20.5ZM24.6022 19.0796H27.4431C27.3749 18.3826 27.1988 17.7633 26.9147 17.2216C26.6306 16.68 26.2613 16.2235 25.8068 15.8523C25.3522 15.4773 24.8257 15.1932 24.2272 15C23.6287 14.8031 22.9772 14.7046 22.2727 14.7046C21.2386 14.7046 20.3049 14.9357 19.4715 15.3978C18.6382 15.8599 17.9772 16.536 17.4886 17.4262C16.9999 18.3163 16.7556 19.4016 16.7556 20.6819C16.7556 21.9584 16.9961 23.0417 17.4772 23.9319C17.9583 24.822 18.6136 25.5 19.4431 25.966C20.2764 26.4281 21.2196 26.6591 22.2727 26.6591C23.0719 26.6591 23.7802 26.5379 24.3977 26.2955C25.0189 26.0531 25.5454 25.7273 25.9772 25.3182C26.409 24.9053 26.748 24.4489 26.9943 23.9489C27.2443 23.4489 27.3939 22.9413 27.4431 22.4262L24.6022 22.4091C24.553 22.6894 24.4639 22.9413 24.3352 23.1648C24.2102 23.3845 24.0492 23.572 23.8522 23.7273C23.659 23.8788 23.4336 23.9944 23.1761 24.0739C22.9223 24.1535 22.6401 24.1932 22.3295 24.1932C21.7764 24.1932 21.2973 24.0625 20.892 23.8012C20.4905 23.536 20.178 23.144 19.9545 22.625C19.7348 22.1023 19.6249 21.4546 19.6249 20.6819C19.6249 19.9394 19.7329 19.3069 19.9488 18.7841C20.1685 18.2614 20.481 17.8618 20.8863 17.5853C21.2954 17.3088 21.7821 17.1705 22.3465 17.1705C22.6647 17.1705 22.9545 17.216 23.2158 17.3069C23.481 17.394 23.7102 17.5209 23.9033 17.6875C24.0965 17.8542 24.2518 18.055 24.3693 18.2898C24.4867 18.5247 24.5643 18.7879 24.6022 19.0796ZM51.3826 19.0796H48.5417C48.5038 18.7879 48.4261 18.5247 48.3087 18.2898C48.1913 18.055 48.036 17.8542 47.8428 17.6875C47.6496 17.5209 47.4204 17.394 47.1553 17.3069C46.8939 17.216 46.6042 17.1705 46.286 17.1705C45.7216 17.1705 45.2348 17.3088 44.8258 17.5853C44.4204 17.8618 44.1079 18.2614 43.8883 18.7841C43.6723 19.3069 43.5644 19.9394 43.5644 20.6819C43.5644 21.4546 43.6742 22.1023 43.8939 22.625C44.1174 23.144 44.4299 23.536 44.8314 23.8012C45.2367 24.0625 45.7159 24.1932 46.2689 24.1932C46.5795 24.1932 46.8617 24.1535 47.1155 24.0739C47.3731 23.9944 47.5985 23.8788 47.7917 23.7273C47.9886 23.572 48.1496 23.3845 48.2746 23.1648C48.4034 22.9413 48.4924 22.6894 48.5417 22.4091L51.3826 22.4262C51.3333 22.9413 51.1837 23.4489 50.9337 23.9489C50.6875 24.4489 50.3485 24.9053 49.9167 25.3182C49.4848 25.7273 48.9583 26.0531 48.3371 26.2955C47.7197 26.5379 47.0114 26.6591 46.2121 26.6591C45.1591 26.6591 44.2159 26.4281 43.3826 25.966C42.553 25.5 41.8977 24.822 41.4167 23.9319C40.9356 23.0417 40.6951 21.9584 40.6951 20.6819C40.6951 19.4016 40.9394 18.3163 41.428 17.4262C41.9167 16.536 42.5776 15.8599 43.411 15.3978C44.2443 14.9357 45.178 14.7046 46.2121 14.7046C46.9167 14.7046 47.5682 14.8031 48.1667 15C48.7651 15.1932 49.2917 15.4773 49.7462 15.8523C50.2008 16.2235 50.5701 16.68 50.8542 17.2216C51.1383 17.7633 51.3144 18.3826 51.3826 19.0796ZM52.3521 26.5V14.8636H55.1646V19.7841H55.318L59.1646 14.8636H62.4771L58.3521 20.0568L62.5509 26.5H59.1873L56.2896 21.9261L55.1646 23.3466V26.5H52.3521ZM65.9519 22.9375L66.2133 14.8636H63.3553L63.6167 22.9375H65.9519ZM64.7815 26.6648C64.3762 26.6648 64.0277 26.5208 63.736 26.233C63.4481 25.9451 63.3042 25.5966 63.3042 25.1875C63.3042 24.786 63.4481 24.4432 63.736 24.1591C64.0277 23.8712 64.3762 23.7273 64.7815 23.7273C65.1716 23.7273 65.5144 23.8712 65.8099 24.1591C66.1091 24.4432 66.2587 24.786 66.2587 25.1875C66.2587 25.4602 66.1887 25.7083 66.0485 25.9318C65.9122 26.1553 65.7322 26.3333 65.5087 26.4659C65.289 26.5985 65.0466 26.6648 64.7815 26.6648ZM39.6943 26.5V14.8636H36.8818V26.5H39.6943ZM28.4126 14.8636V26.5H36.066V24.2159H31.2251V14.8636H28.4126Z" fill="white"/>
</svg>
