<svg width="22" height="22" viewBox="0 0 22 22" fill="none" xmlns="http://www.w3.org/2000/svg">
<g id="Isolation_Mode" clip-path="url(#clip0_931_37381)">
<g id="Group">
<g id="Group_2">
<path id="Vector" d="M18.4239 18.4245C22.5244 14.3241 22.5244 7.67593 18.4239 3.57549C14.3235 -0.524957 7.67535 -0.524956 3.5749 3.57549C-0.525542 7.67593 -0.525542 14.3241 3.5749 18.4245C7.67535 22.525 14.3235 22.525 18.4239 18.4245Z" fill="#F85F00"/>
<path id="Vector_2" d="M10.9996 21.097C16.5761 21.097 21.0968 16.5764 21.0968 10.9998C21.0968 5.42327 16.5761 0.902588 10.9996 0.902588C5.42302 0.902588 0.902344 5.42327 0.902344 10.9998C0.902344 16.5764 5.42302 21.097 10.9996 21.097Z" fill="url(#paint0_linear_931_37381)"/>
<path id="Vector_3" d="M10.9994 20.5077C16.1611 20.5077 20.3455 16.2509 20.3455 10.9999C20.3455 5.74895 16.1611 1.49219 10.9994 1.49219C5.8377 1.49219 1.65332 5.74895 1.65332 10.9999C1.65332 16.2509 5.8377 20.5077 10.9994 20.5077Z" fill="url(#paint1_radial_931_37381)"/>
</g>
<path id="Vector_4" d="M4.1556 12.0075C3.95009 11.9422 3.74023 12.0943 3.74023 12.31V12.4555C3.74023 16.2141 6.99011 18.8863 10.9992 18.8863C15.0083 18.8863 18.2582 16.2193 18.2582 12.4608V12.3097C18.2582 12.094 18.0483 11.9419 17.8425 12.0072C15.8499 12.6402 13.507 13.0052 10.9989 13.0052C8.49085 13.0052 6.14787 12.6402 4.15529 12.0072L4.1556 12.0075Z" fill="#F4A800"/>
<path id="Vector_5" d="M4.26626 12.8469C4.06386 12.7825 3.85742 12.9321 3.85742 13.1444V13.2877C3.85742 16.9875 7.05662 19.618 11.0029 19.618C14.9492 19.618 18.1484 16.9928 18.1484 13.2933V13.1447C18.1484 12.9324 17.9417 12.7828 17.7393 12.8472C15.7778 13.4702 13.4715 13.8296 11.0029 13.8296C8.53435 13.8296 6.22775 13.4702 4.26626 12.8472V12.8469Z" fill="#FFDB65"/>
<path id="Vector_6" d="M4.324 12.4865C4.05351 12.4029 3.77961 12.6056 3.7793 12.8889V12.891C3.7793 16.6293 7.01208 19.2876 10.9997 19.2876C14.9874 19.2876 18.2202 16.6349 18.2202 12.8966C18.2202 12.8945 18.2202 12.892 18.2202 12.8892C18.2202 12.6059 17.9463 12.4032 17.6755 12.4869C15.722 13.0909 13.4394 13.4382 10.9997 13.4382C8.56007 13.4382 6.27741 13.0909 4.324 12.4869V12.4865Z" fill="#A24200"/>
<path id="Vector_7" d="M18.2202 12.8964C18.2202 12.8942 18.2202 12.8917 18.2202 12.8886C18.2202 12.6054 17.9463 12.4027 17.6755 12.4863C15.722 13.0904 13.4394 13.4377 10.9997 13.4377C8.56007 13.4377 6.27741 13.0904 4.324 12.4863C4.05351 12.4027 3.77961 12.6054 3.7793 12.8886V12.8908C3.7793 14.9253 4.73688 16.6397 6.25254 17.7801C5.14043 16.7622 4.45831 15.3556 4.45831 13.7209V13.719C4.45831 13.4625 4.70672 13.2788 4.95172 13.3547C6.72138 13.9018 8.78951 14.2168 10.9997 14.2168C13.2099 14.2168 15.2781 13.9022 17.0477 13.3547C17.2927 13.2788 17.5408 13.4625 17.5411 13.719C17.5411 13.7215 17.5411 13.724 17.5411 13.7259C17.5411 15.3597 16.8593 16.7647 15.7482 17.7813C17.2629 16.6425 18.2202 14.93 18.2202 12.8961V12.8964Z" fill="#6B2300"/>
<path id="Vector_8" d="M17.187 14.8724C17.3866 14.4446 17.5265 14.0075 17.5986 13.5753V13.4242C17.5986 13.2085 17.4077 13.0564 17.2209 13.1217C15.4105 13.7544 13.2814 14.1197 11.0028 14.1197C8.72419 14.1197 6.59512 13.7547 4.78442 13.1217C4.59757 13.0564 4.40698 13.2085 4.40698 13.4242V13.5697C4.42564 13.996 4.54533 14.4449 4.75146 14.892C5.49328 15.2937 7.24243 16.3654 11.0028 16.3654C14.3516 16.3654 16.2238 15.3329 17.187 14.8724Z" fill="#6B2300"/>
<path id="Vector_9" d="M17.1833 14.8724C17.3829 14.4446 17.5228 14.0075 17.595 13.5753V13.4242C17.595 13.2085 17.4041 13.0564 17.2172 13.1217C15.4068 13.7544 13.2778 14.1197 10.9991 14.1197C8.72053 14.1197 6.59146 13.7547 4.78076 13.1217C4.5939 13.0564 4.40332 13.2085 4.40332 13.4242V13.5697C4.42197 13.996 4.54167 14.4449 4.7478 14.892C5.48962 15.2937 7.23876 15.9074 10.9991 15.9074C14.3479 15.9074 16.2202 15.3329 17.1833 14.8724Z" fill="#F4F4F4"/>
<g id="Group_3">
<path id="Vector_10" d="M17.5956 13.5753V13.4242C17.5956 13.2085 17.4047 13.0564 17.2179 13.1217C15.8919 13.5853 14.3949 13.9043 12.7937 14.0423C13.9891 14.0516 15.1249 14.0613 16.2522 14.0336C16.509 14.0274 16.6023 14.1468 16.6026 14.3094C16.6026 14.3846 16.588 14.4589 16.5575 14.5276C16.4521 14.7673 16.3324 15.0114 16.1975 15.2555C16.5995 15.1283 16.9244 14.9962 17.1837 14.8724C17.3833 14.4446 17.5232 14.0075 17.5953 13.5753H17.5956Z" fill="#C2D7D7"/>
<path id="Vector_11" d="M5.44209 14.5276C5.41194 14.4589 5.39701 14.3846 5.39701 14.3094C5.39701 14.1465 5.49059 14.0274 5.7474 14.0336C6.87474 14.061 8.01078 14.0516 9.20621 14.0423C7.60505 13.9043 6.10774 13.5853 4.78173 13.1217C4.59488 13.0564 4.4043 13.2085 4.4043 13.4242V13.5697C4.42295 13.996 4.54265 14.4449 4.74878 14.892C4.99253 15.0241 5.3454 15.179 5.84285 15.3276C5.69144 15.0599 5.55775 14.791 5.44209 14.5279V14.5276Z" fill="#C2D7D7"/>
</g>
</g>
<g id="Group_4">
<g id="Group_5">
<g id="Group_6">
<path id="Vector_12" d="M7.89056 10.0781C7.33622 10.0781 6.87671 9.56855 6.7853 8.89917C6.77442 8.97845 6.76758 9.05928 6.76758 9.14261C6.76758 9.92826 7.27031 10.565 7.89056 10.565C8.51082 10.565 9.01355 9.92826 9.01355 9.14261C9.01355 9.0596 9.00671 8.97845 8.99583 8.89917C8.90442 9.56855 8.44522 10.0781 7.89056 10.0781Z" fill="#FFDF9D"/>
<path id="Vector_13" d="M7.89056 7.72003C8.44522 7.72003 8.90442 8.2296 8.99583 8.89898C9.00671 8.8197 9.01355 8.73886 9.01355 8.65554C9.01355 7.86989 8.51082 7.23315 7.89056 7.23315C7.27031 7.23315 6.76758 7.86989 6.76758 8.65554C6.76758 8.73855 6.77442 8.8197 6.7853 8.89898C6.87671 8.2296 7.33591 7.72003 7.89056 7.72003Z" fill="#F4A800"/>
</g>
<path id="Vector_14" d="M7.89086 10.3289C8.49991 10.3289 8.99364 9.69208 8.99364 8.90652C8.99364 8.12095 8.49991 7.48413 7.89086 7.48413C7.28182 7.48413 6.78809 8.12095 6.78809 8.90652C6.78809 9.69208 7.28182 10.3289 7.89086 10.3289Z" fill="#A24200"/>
<path id="Vector_15" d="M7.89086 7.88346C8.44707 7.88346 8.90596 8.41542 8.98151 9.10594C8.98866 9.04034 8.99364 8.97412 8.99364 8.90603C8.99364 8.12037 8.49992 7.48364 7.89086 7.48364C7.2818 7.48364 6.78809 8.12037 6.78809 8.90603C6.78809 8.97412 6.79306 9.04034 6.80021 9.10594C6.87576 8.41511 7.33465 7.88346 7.89086 7.88346Z" fill="#6B2300"/>
</g>
<g id="Group_7">
<g id="Group_8">
<path id="Vector_16" d="M14.1093 10.0781C13.5547 10.0781 13.0955 9.56855 13.004 8.89917C12.9932 8.97845 12.9863 9.05928 12.9863 9.14261C12.9863 9.92826 13.4891 10.565 14.1093 10.565C14.7296 10.565 15.2323 9.92826 15.2323 9.14261C15.2323 9.0596 15.2255 8.97845 15.2146 8.89917C15.1232 9.56855 14.664 10.0781 14.1093 10.0781Z" fill="#FFDF9D"/>
<path id="Vector_17" d="M14.1093 7.72003C14.6637 7.72003 15.1232 8.2296 15.2146 8.89898C15.2255 8.8197 15.2323 8.73886 15.2323 8.65554C15.2323 7.86989 14.7296 7.23315 14.1093 7.23315C13.4891 7.23315 12.9863 7.86989 12.9863 8.65554C12.9863 8.73855 12.9932 8.8197 13.004 8.89898C13.0955 8.2296 13.5547 7.72003 14.1093 7.72003Z" fill="#F4A800"/>
</g>
<path id="Vector_18" d="M14.1096 10.3289C14.7187 10.3289 15.2124 9.69208 15.2124 8.90652C15.2124 8.12095 14.7187 7.48413 14.1096 7.48413C13.5006 7.48413 13.0068 8.12095 13.0068 8.90652C13.0068 9.69208 13.5006 10.3289 14.1096 10.3289Z" fill="#A24200"/>
<path id="Vector_19" d="M14.1096 7.88346C14.6658 7.88346 15.1247 8.41542 15.2003 9.10594C15.2074 9.04034 15.2124 8.97412 15.2124 8.90603C15.2124 8.12037 14.7187 7.48364 14.1096 7.48364C13.5006 7.48364 13.0068 8.12037 13.0068 8.90603C13.0068 8.97412 13.0118 9.04034 13.019 9.10594C13.0945 8.41511 13.5534 7.88346 14.1096 7.88346Z" fill="#6B2300"/>
</g>
</g>
</g>
<defs>
<linearGradient id="paint0_linear_931_37381" x1="10.9996" y1="0.78973" x2="10.9996" y2="21.0392" gradientUnits="userSpaceOnUse">
<stop stop-color="#FFCC00"/>
<stop offset="1" stop-color="#FB7F00"/>
</linearGradient>
<radialGradient id="paint1_radial_931_37381" cx="0" cy="0" r="1" gradientUnits="userSpaceOnUse" gradientTransform="translate(11.0523 1.62308) scale(18.8601 18.8601)">
<stop stop-color="#FCFCDD"/>
<stop offset="0.28" stop-color="#FCF1A0"/>
<stop offset="0.51" stop-color="#FFDA00"/>
<stop offset="0.77" stop-color="#FFB400"/>
<stop offset="1" stop-color="#FA9000"/>
</radialGradient>
<clipPath id="clip0_931_37381">
<rect width="21" height="21" fill="white" transform="translate(0.5 0.5)"/>
</clipPath>
</defs>
</svg>
