<svg width="22" height="22" viewBox="0 0 22 22" fill="none" xmlns="http://www.w3.org/2000/svg">
<rect width="22" height="22" rx="11" fill="#FA0000"/>
<path d="M10.7208 5.38082C10.9448 5.33816 11.1688 5.34882 11.3928 5.41282C11.8942 5.54082 12.2355 5.84482 12.4168 6.32482C12.4595 6.48482 12.4488 6.81549 12.3848 7.31682C12.3422 7.59416 12.2195 8.38882 12.0168 9.70082C11.7182 11.6422 11.5315 12.6448 11.4568 12.7088C11.3822 12.7408 11.1262 12.7462 10.6888 12.7248C10.6035 12.7248 10.5555 12.7195 10.5448 12.7088C10.4915 12.6768 10.4435 12.5542 10.4008 12.3408C10.3688 12.1488 10.2302 11.2688 9.98485 9.70082C9.67551 7.67416 9.53151 6.59149 9.55285 6.45282C9.55285 6.43149 9.56351 6.38882 9.58485 6.32482C9.72351 5.87682 10.0488 5.57816 10.5608 5.42882C10.6142 5.40749 10.6675 5.39149 10.7208 5.38082ZM10.7368 13.7648C10.9182 13.7222 11.1262 13.7328 11.3608 13.7968C11.8302 13.9142 12.1555 14.2022 12.3368 14.6608C12.3688 14.7142 12.3902 14.7728 12.4008 14.8368C12.4648 15.0822 12.4648 15.3222 12.4008 15.5568C12.2728 16.0475 11.9742 16.3782 11.5048 16.5488C11.4515 16.5702 11.4035 16.5862 11.3608 16.5968C11.1155 16.6608 10.8755 16.6608 10.6408 16.5968C10.1502 16.4688 9.81951 16.1702 9.64885 15.7008C9.62751 15.6475 9.61151 15.5995 9.60085 15.5568C9.53685 15.3222 9.53685 15.0822 9.60085 14.8368C9.68618 14.5168 9.84618 14.2662 10.0808 14.0848C10.2622 13.9355 10.4808 13.8288 10.7368 13.7648Z" fill="white"/>
</svg>
